# Created by Kenney (www.kenney.nl) 

mtllib barrierWall.mtl 

g barrierWall

v -0.25 0 0 
v 0 0 0 
v -0.25 0.0246 0 
v 0 0.0246 0 
v -0.25 0.0738 0.02152503 
v 0 0.0738 0.02152503 
v 0 0.0738 0.101475 
v -0.25 0.0738 0.101475 
v 0 0.1312 0.09308028 
v -0.25 0.1312 0.09308028 
v 0 0.1312 0.02991974 
v -0.25 0.1312 0.02991974 
v 0 0 0.123 
v -0.25 0 0.123 
v 0 0.0246 0.123 
v -0.25 0.0246 0.123 
v -0.5 0 0.123 
v -0.5 0 0 
v -0.75 0 0.123 
v -0.75 0 0 
v -0.75 0.0246 0 
v -0.5 0.0246 0 
v -0.75 0.0738 0.02152503 
v -0.5 0.0738 0.02152503 
v -0.5 0.1312 0.02991974 
v -0.5 0.1312 0.09308028 
v -0.75 0.1312 0.02991974 
v -0.75 0.1312 0.09308028 
v -0.5 0.0246 0.123 
v -0.75 0.0246 0.123 
v -0.5 0.0738 0.101475 
v -0.75 0.0738 0.101475 
v -1 0 0.123 
v -1 0.0246 0.123 
v -1 0.0738 0.101475 
v -1 0 0 
v -1 0.0246 0 
v -1 0.0738 0.02152503 
v -1 0.1312 0.02991974 
v -1 0.1312 0.09308028 

vn 0 0 -1 
vn 0 0.4008189 -0.9161574 
vn 0 0.1447106 0.9894741 
vn 0 1 0 
vn 0 0 1 
vn 0 -1 0 
vn 0 0.1447106 -0.9894741 
vn 1 0 0 
vn 0 0.4008189 0.9161574 
vn -1 0 0 

vt 9.84252 0 
vt 0 0 
vt 9.84252 0.968504 
vt 0 0.968504 
vt 9.84252 0.887302 
vt 0 0.887302 
vt 9.84252 3.001576 
vt 0 3.001576 
vt -5.356842E-18 2.296798 
vt -9.84252 2.296798 
vt -4.913685E-18 4.580681 
vt -9.84252 4.580681 
vt 0 1.177943 
vt 0 3.664577 
vt 9.84252 1.177943 
vt 9.84252 3.664577 
vt -9.84252 0 
vt -9.84252 0.968504 
vt 0 4.84252 
vt -9.84252 4.84252 
vt 9.84252 2.997562 
vt 0 2.997562 
vt 9.84252 5.281445 
vt 0 5.281445 
vt -0.847441 2.905512 
vt -4.84252 0 
vt -1.177943 5.165354 
vt -3.995079 2.905512 
vt -3.664577 5.165354 
vt -4.84252 0.968504 
vt -1.725192E-32 -1.053671 
vt -9.84252 -1.053671 
vt -1.423283E-32 1.060603 
vt -9.84252 1.060603 
vt -19.68504 4.84252 
vt -19.68504 0 
vt -29.52756 4.84252 
vt -29.52756 0 
vt 29.52756 0.887302 
vt 19.68504 0.887302 
vt 29.52756 3.001576 
vt 19.68504 3.001576 
vt 19.68504 1.177943 
vt 19.68504 3.664577 
vt 29.52756 1.177943 
vt 29.52756 3.664577 
vt -19.68504 -1.053671 
vt -29.52756 -1.053671 
vt -19.68504 1.060603 
vt -29.52756 1.060603 
vt 29.52756 2.997562 
vt 19.68504 2.997562 
vt 29.52756 5.281445 
vt 19.68504 5.281445 
vt 29.52756 0 
vt 19.68504 0 
vt 29.52756 0.968504 
vt 19.68504 0.968504 
vt -19.68504 0.968504 
vt -29.52756 0.968504 
vt -19.68504 2.296798 
vt -29.52756 2.296798 
vt -19.68504 4.580681 
vt -29.52756 4.580681 
vt -39.37008 0 
vt -39.37008 0.968504 
vt -39.37008 -1.053671 
vt -39.37008 1.060603 
vt 39.37008 0 
vt 39.37008 0.968504 
vt 39.37008 0.887302 
vt 39.37008 3.001576 
vt -39.37008 4.84252 
vt 39.37008 1.177943 
vt 39.37008 3.664577 
vt -39.37008 2.296798 
vt -39.37008 4.580681 
vt 39.37008 2.997562 
vt 39.37008 5.281445 
vt 4.84252 0 
vt 0.847441 2.905512 
vt 1.177943 5.165354 
vt 3.995079 2.905512 
vt 3.664577 5.165354 
vt 4.84252 0.968504 

usemtl grey

f 2/2/1 1/1/1 3/3/1 
f 3/3/1 4/4/1 2/2/1 
f 4/6/2 3/5/2 5/7/2 
f 5/7/2 6/8/2 4/6/2 
f 8/10/3 7/9/3 9/11/3 
f 9/11/3 10/12/3 8/10/3 
f 9/14/4 11/13/4 12/15/4 
f 12/15/4 10/16/4 9/14/4 
f 14/17/5 13/2/5 15/4/5 
f 15/4/5 16/18/5 14/17/5 
f 2/2/6 13/19/6 14/20/6 
f 14/20/6 1/17/6 2/2/6 
f 6/22/7 5/21/7 12/23/7 
f 12/23/7 11/24/7 6/22/7 
f 2/2/8 4/4/8 6/25/8 
f 6/25/8 13/26/8 2/2/8 
f 6/25/8 11/27/8 13/26/8 
f 11/27/8 7/28/8 13/26/8 
f 11/27/8 9/29/8 7/28/8 
f 7/28/8 15/30/8 13/26/8 
f 16/32/9 15/31/9 7/33/9 
f 7/33/9 8/34/9 16/32/9 
f 18/36/6 17/35/6 19/37/6 
f 19/37/6 20/38/6 18/36/6 
f 22/40/2 21/39/2 23/41/2 
f 23/41/2 24/42/2 22/40/2 
f 26/44/4 25/43/4 27/45/4 
f 27/45/4 28/46/4 26/44/4 
f 30/48/9 29/47/9 31/49/9 
f 31/49/9 32/50/9 30/48/9 
f 24/52/7 23/51/7 27/53/7 
f 27/53/7 25/54/7 24/52/7 
f 18/56/1 20/55/1 21/57/1 
f 21/57/1 22/58/1 18/56/1 
f 19/38/5 17/36/5 29/59/5 
f 29/59/5 30/60/5 19/38/5 
f 32/62/3 31/61/3 26/63/3 
f 26/63/3 28/64/3 32/62/3 

usemtl red

f 33/65/5 19/38/5 30/60/5 
f 30/60/5 34/66/5 33/65/5 
f 10/16/4 12/15/4 25/43/4 
f 25/43/4 26/44/4 10/16/4 
f 5/21/7 24/52/7 25/54/7 
f 25/54/7 12/23/7 5/21/7 
f 34/67/9 30/48/9 32/50/9 
f 32/50/9 35/68/9 34/67/9 
f 17/36/5 14/17/5 16/18/5 
f 16/18/5 29/59/5 17/36/5 
f 29/47/9 16/32/9 8/34/9 
f 8/34/9 31/49/9 29/47/9 
f 20/55/1 36/69/1 37/70/1 
f 37/70/1 21/57/1 20/55/1 
f 21/39/2 37/71/2 38/72/2 
f 38/72/2 23/41/2 21/39/2 
f 20/38/6 19/37/6 33/73/6 
f 33/73/6 36/65/6 20/38/6 
f 28/46/4 27/45/4 39/74/4 
f 39/74/4 40/75/4 28/46/4 
f 3/5/2 22/40/2 24/42/2 
f 24/42/2 5/7/2 3/5/2 
f 1/17/6 14/20/6 17/35/6 
f 17/35/6 18/36/6 1/17/6 
f 35/76/3 32/62/3 28/64/3 
f 28/64/3 40/77/3 35/76/3 
f 23/51/7 38/78/7 39/79/7 
f 39/79/7 27/53/7 23/51/7 
f 31/61/3 8/10/3 10/12/3 
f 10/12/3 26/63/3 31/61/3 
f 1/1/1 18/56/1 22/58/1 
f 22/58/1 3/3/1 1/1/1 
f 37/4/10 36/2/10 33/80/10 
f 33/80/10 38/81/10 37/4/10 
f 33/80/10 39/82/10 38/81/10 
f 33/80/10 35/83/10 39/82/10 
f 35/83/10 40/84/10 39/82/10 
f 33/80/10 34/85/10 35/83/10 
g barrierWall




usemtl grey

f 2/2/1 1/1/1 3/3/1 
f 3/3/1 4/4/1 2/2/1 
f 4/6/2 3/5/2 5/7/2 
f 5/7/2 6/8/2 4/6/2 
f 8/10/3 7/9/3 9/11/3 
f 9/11/3 10/12/3 8/10/3 
f 9/14/4 11/13/4 12/15/4 
f 12/15/4 10/16/4 9/14/4 
f 14/17/5 13/2/5 15/4/5 
f 15/4/5 16/18/5 14/17/5 
f 2/2/6 13/19/6 14/20/6 
f 14/20/6 1/17/6 2/2/6 
f 6/22/7 5/21/7 12/23/7 
f 12/23/7 11/24/7 6/22/7 
f 2/2/8 4/4/8 6/25/8 
f 6/25/8 13/26/8 2/2/8 
f 6/25/8 11/27/8 13/26/8 
f 11/27/8 7/28/8 13/26/8 
f 11/27/8 9/29/8 7/28/8 
f 7/28/8 15/30/8 13/26/8 
f 16/32/9 15/31/9 7/33/9 
f 7/33/9 8/34/9 16/32/9 
f 18/36/6 17/35/6 19/37/6 
f 19/37/6 20/38/6 18/36/6 
f 22/40/2 21/39/2 23/41/2 
f 23/41/2 24/42/2 22/40/2 
f 26/44/4 25/43/4 27/45/4 
f 27/45/4 28/46/4 26/44/4 
f 30/48/9 29/47/9 31/49/9 
f 31/49/9 32/50/9 30/48/9 
f 24/52/7 23/51/7 27/53/7 
f 27/53/7 25/54/7 24/52/7 
f 18/56/1 20/55/1 21/57/1 
f 21/57/1 22/58/1 18/56/1 
f 19/38/5 17/36/5 29/59/5 
f 29/59/5 30/60/5 19/38/5 
f 32/62/3 31/61/3 26/63/3 
f 26/63/3 28/64/3 32/62/3 

usemtl red

f 33/65/5 19/38/5 30/60/5 
f 30/60/5 34/66/5 33/65/5 
f 10/16/4 12/15/4 25/43/4 
f 25/43/4 26/44/4 10/16/4 
f 5/21/7 24/52/7 25/54/7 
f 25/54/7 12/23/7 5/21/7 
f 34/67/9 30/48/9 32/50/9 
f 32/50/9 35/68/9 34/67/9 
f 17/36/5 14/17/5 16/18/5 
f 16/18/5 29/59/5 17/36/5 
f 29/47/9 16/32/9 8/34/9 
f 8/34/9 31/49/9 29/47/9 
f 20/55/1 36/69/1 37/70/1 
f 37/70/1 21/57/1 20/55/1 
f 21/39/2 37/71/2 38/72/2 
f 38/72/2 23/41/2 21/39/2 
f 20/38/6 19/37/6 33/73/6 
f 33/73/6 36/65/6 20/38/6 
f 28/46/4 27/45/4 39/74/4 
f 39/74/4 40/75/4 28/46/4 
f 3/5/2 22/40/2 24/42/2 
f 24/42/2 5/7/2 3/5/2 
f 1/17/6 14/20/6 17/35/6 
f 17/35/6 18/36/6 1/17/6 
f 35/76/3 32/62/3 28/64/3 
f 28/64/3 40/77/3 35/76/3 
f 23/51/7 38/78/7 39/79/7 
f 39/79/7 27/53/7 23/51/7 
f 31/61/3 8/10/3 10/12/3 
f 10/12/3 26/63/3 31/61/3 
f 1/1/1 18/56/1 22/58/1 
f 22/58/1 3/3/1 1/1/1 
f 37/4/10 36/2/10 33/80/10 
f 33/80/10 38/81/10 37/4/10 
f 33/80/10 39/82/10 38/81/10 
f 33/80/10 35/83/10 39/82/10 
f 35/83/10 40/84/10 39/82/10 
f 33/80/10 34/85/10 35/83/10 
