# Created by Kenney (www.kenney.nl) 

mtllib barrierWhite.mtl 

g barrierWhite

v 0 0 0.123 
v -0.25 0 0.123 
v 0 0.0246 0.123 
v -0.25 0.0246 0.123 
v -0.25 0 0 
v 0 0 0 
v -0.25 0.0246 0 
v 0 0.0246 0 
v 0 0.0738 0.101475 
v -0.25 0.0738 0.101475 
v -0.25 0.0738 0.02152503 
v -0.25 0.1312 0.02991974 
v -0.25 0.1312 0.09308028 
v 0 0.0738 0.02152503 
v 0 0.1312 0.02991974 
v 0 0.1312 0.09308028 

vn 0 0 1 
vn 0 0 -1 
vn 0 0.4008189 0.9161574 
vn -1 0 0 
vn 0 0.4008189 -0.9161574 
vn 0 -1 0 
vn 1 0 0 
vn 0 1 0 
vn 0 0.1447106 0.9894741 
vn 0 0.1447106 -0.9894741 

vt 0 0 
vt -9.84252 0 
vt 0 0.968504 
vt -9.84252 0.968504 
vt 9.84252 0 
vt 9.84252 0.968504 
vt 0 -1.053671 
vt -9.84252 -1.053671 
vt 0 1.060603 
vt -9.84252 1.060603 
vt 4.84252 0 
vt 0.847441 2.905512 
vt 1.177943 5.165354 
vt 3.995079 2.905512 
vt 3.664577 5.165354 
vt 4.84252 0.968504 
vt 9.84252 0.887302 
vt 0 0.887302 
vt 9.84252 3.001576 
vt 0 3.001576 
vt 0 4.84252 
vt -9.84252 4.84252 
vt -0.847441 2.905512 
vt -4.84252 0 
vt -1.177943 5.165354 
vt -3.995079 2.905512 
vt -3.664577 5.165354 
vt -4.84252 0.968504 
vt 0 1.177943 
vt 0 3.664577 
vt 9.84252 1.177943 
vt 9.84252 3.664577 
vt 0 2.296798 
vt -9.84252 2.296798 
vt 0 4.580681 
vt -9.84252 4.580681 
vt 9.84252 2.997562 
vt 0 2.997562 
vt 9.84252 5.281445 
vt 0 5.281445 

usemtl grey

f 2/2/1 1/1/1 3/3/1 
f 3/3/1 4/4/1 2/2/1 
f 6/1/2 5/5/2 7/6/2 
f 7/6/2 8/3/2 6/1/2 
f 4/8/3 3/7/3 9/9/3 
f 9/9/3 10/10/3 4/8/3 
f 7/3/4 5/1/4 2/11/4 
f 2/11/4 11/12/4 7/3/4 
f 2/11/4 12/13/4 11/12/4 
f 2/11/4 10/14/4 12/13/4 
f 10/14/4 13/15/4 12/13/4 
f 2/11/4 4/16/4 10/14/4 
f 8/18/5 7/17/5 11/19/5 
f 11/19/5 14/20/5 8/18/5 
f 6/1/6 1/21/6 2/22/6 
f 2/22/6 5/2/6 6/1/6 
f 6/1/7 8/3/7 14/23/7 
f 14/23/7 1/24/7 6/1/7 
f 14/23/7 15/25/7 1/24/7 
f 15/25/7 9/26/7 1/24/7 
f 15/25/7 16/27/7 9/26/7 
f 9/26/7 3/28/7 1/24/7 
f 16/30/8 15/29/8 12/31/8 
f 12/31/8 13/32/8 16/30/8 
f 10/34/9 9/33/9 16/35/9 
f 16/35/9 13/36/9 10/34/9 
f 14/38/10 11/37/10 12/39/10 
f 12/39/10 15/40/10 14/38/10 
g barrierWhite




usemtl grey

f 2/2/1 1/1/1 3/3/1 
f 3/3/1 4/4/1 2/2/1 
f 6/1/2 5/5/2 7/6/2 
f 7/6/2 8/3/2 6/1/2 
f 4/8/3 3/7/3 9/9/3 
f 9/9/3 10/10/3 4/8/3 
f 7/3/4 5/1/4 2/11/4 
f 2/11/4 11/12/4 7/3/4 
f 2/11/4 12/13/4 11/12/4 
f 2/11/4 10/14/4 12/13/4 
f 10/14/4 13/15/4 12/13/4 
f 2/11/4 4/16/4 10/14/4 
f 8/18/5 7/17/5 11/19/5 
f 11/19/5 14/20/5 8/18/5 
f 6/1/6 1/21/6 2/22/6 
f 2/22/6 5/2/6 6/1/6 
f 6/1/7 8/3/7 14/23/7 
f 14/23/7 1/24/7 6/1/7 
f 14/23/7 15/25/7 1/24/7 
f 15/25/7 9/26/7 1/24/7 
f 15/25/7 16/27/7 9/26/7 
f 9/26/7 3/28/7 1/24/7 
f 16/30/8 15/29/8 12/31/8 
f 12/31/8 13/32/8 16/30/8 
f 10/34/9 9/33/9 16/35/9 
f 16/35/9 13/36/9 10/34/9 
f 14/38/10 11/37/10 12/39/10 
f 12/39/10 15/40/10 14/38/10 
