# Created by Kenney (www.kenney.nl) 

mtllib billboardLow.mtl 

g billboardLow

v -2.980232E-08 0.19 0 
v -2.980232E-08 0.62 0 
v 0.06380001 0.19 0 
v 0.06380001 0.69 0 
v -0.9362 0.69 0 
v -0.8724 0.62 0 
v -0.9362 0.19 0 
v -0.8724 0.19 0 
v -0.03190002 0.19 0 
v -0.8405001 0.19 0 
v -0.03190002 0.5881 0 
v -0.8405001 0.5881 0 
v 0.06380001 0.69 -0.04000002 
v 0.06380001 0.19 -0.04000002 
v -0.9362 0.69 -0.04000002 
v -0.9362 0.19 -0.04000002 
v -2.980232E-08 0.62 0.03189999 
v -2.980232E-08 9.313226E-10 0 
v -2.980232E-08 0.0319 0.03189999 
v -2.980232E-08 0.157849 0.03189999 
v -2.980232E-08 0.189749 0.03189999 
v 0 0.0319 0.4043 
v 0 0.0319 0.4362 
v -2.980232E-08 0 0.03189999 
v 0 0 0.4362 
v -0.03189999 9.313226E-10 0.4362 
v -0.03189999 9.313226E-10 0.4043 
v -0.03190002 9.313226E-10 0.03189999 
v -0.8404999 5.587935E-09 0.4043 
v -0.8404999 5.587935E-09 0.4362 
v -0.8724 9.313226E-10 0.4362 
v -0.8405001 5.587935E-09 0.03189999 
v -0.8724 9.313226E-10 0.03189999 
v -0.8405001 5.587935E-09 0 
v -0.03190002 9.313226E-10 0 
v -0.8724 9.313226E-10 0 
v -0.03189999 0.0319 0.4362 
v -0.03190002 0.189749 0.03189999 
v -0.03189999 0.0319 0.4043 
v -0.03190002 0.157849 0.03189999 
v -0.8405001 0.0319 0.4362 
v -0.8724 0.0319 0.4362 
v -0.8405001 0.189749 0.03189999 
v -0.8724 0.189749 0.03189999 
v -0.8724 0.0319 0.03189999 
v -0.8724 0.0319 0.4043 
v -0.8724 0.62 0.03189999 
v -0.8724 0.157849 0.03189999 
v -0.03189999 0.01276 0.4043 
v -0.03189999 0.01276 0.4362 
v -0.8404999 0.01276001 0.4043 
v -0.8404999 0.01276001 0.4362 
v -0.8405001 0.5881 0.03189999 
v -0.8405001 0.0319 0.03189999 
v -0.8405001 0.157849 0.03189999 
v -0.8405001 0.0319 0.4043 
v -0.8405001 0.01276001 0.03189999 
v -0.8405001 0.01276001 0 
v -0.03190002 0.0319 0.03189999 
v -0.03190002 0.01276 0.03189999 
v -0.03190002 0.01276 0 
v -0.03190002 0.5881 0.03189999 

vn 0 0 1 
vn 1 0 0 
vn 0 1 0 
vn 0 -1 0 
vn -1 0 0 
vn 0 0 -1 
vn 0 0.9315203 0.3636892 
vn 0 -0.9472886 -0.3203814 

vt -8.692155E-07 7.480315 
vt -8.692155E-07 24.40945 
vt 2.511811 7.480315 
vt 2.511811 27.16535 
vt -36.85827 27.16535 
vt -34.34646 24.40945 
vt -36.85827 7.480315 
vt -34.34646 7.480315 
vt -1.255906 7.480315 
vt -33.09055 7.480315 
vt -1.255906 23.15354 
vt -33.09055 23.15354 
vt 1.574803 27.16535 
vt 1.574803 7.480315 
vt 0 27.16535 
vt 0 7.480315 
vt -2.511811 -1.574803 
vt -2.511811 0 
vt 36.85827 -1.574803 
vt 36.85827 0 
vt 2.511811 -1.264593E-22 
vt 2.511811 -1.574803 
vt -8.692155E-07 -1.264593E-22 
vt -36.85827 -1.574803 
vt -1.255906 -1.264593E-22 
vt -33.09055 -1.264593E-22 
vt -34.34646 -1.264593E-22 
vt -36.85827 -1.264593E-22 
vt -1.574803 7.480315 
vt -1.574803 27.16535 
vt 1 1 
vt 0 1 
vt 1 2 
vt 0 2 
vt 4.48629E-14 24.40945 
vt 4.48629E-14 7.480315 
vt -1.255906 24.40945 
vt 4.48629E-14 1.871336E-08 
vt -1.255905 1.255906 
vt -1.255906 6.214527 
vt -1.255906 7.470432 
vt -15.91732 1.255906 
vt -17.17323 1.255906 
vt -1.255905 1.785562E-14 
vt -17.17323 1.044837E-15 
vt -1.871336E-08 17.17323 
vt -8.692156E-07 1.255905 
vt -1.255906 17.17323 
vt -1.255906 15.91732 
vt -1.255906 1.255906 
vt -33.09055 15.91732 
vt -33.09055 17.17323 
vt -34.34646 17.17323 
vt -33.09055 1.255906 
vt -34.34646 1.255906 
vt -33.09055 4.054278E-23 
vt -1.255906 4.054276E-23 
vt -34.34646 3.689182E-14 
vt -8.692155E-07 -1.39417E-16 
vt -7.86506E-07 -15.54045 
vt -1.255906 -15.54045 
vt -9.267339E-07 1.547014 
vt -1.255906 1.547014 
vt 1.185864E-07 -14.67593 
vt 8.785722E-07 0.8013138 
vt 1.255906 -14.67593 
vt 1.255906 0.8013138 
vt -33.09055 -15.54045 
vt -34.34646 -15.54045 
vt -33.09055 1.547014 
vt -34.34646 1.547014 
vt 1.255905 -5.821073E-07 
vt 1.255905 1.255905 
vt 17.17323 -5.821073E-07 
vt 15.91732 1.255905 
vt 1.255905 24.40945 
vt -8.602471E-07 24.40945 
vt -8.602471E-07 7.480314 
vt -8.602471E-07 -6.008207E-07 
vt 1.255905 7.470432 
vt 1.255905 6.214526 
vt 17.17323 1.255905 
vt 1.255906 15.91732 
vt 1.255906 17.17323 
vt 33.09055 15.91732 
vt 33.09055 17.17323 
vt -1.255904 23.15354 
vt -1.255904 1.255906 
vt -1.255904 7.470432 
vt -1.255904 6.214527 
vt -15.91732 1.255906 
vt -17.17323 1.255906 
vt -17.17323 0.5023624 
vt -1.255904 0.5023624 
vt 1.566414E-06 0.5023624 
vt 1.566414E-06 7.480315 
vt 1.566414E-06 23.15354 
vt -1.255904 2.408972E-07 
vt -15.91732 0.5023624 
vt -15.91732 2.408972E-07 
vt 9.35668E-09 15.91732 
vt 8.598589E-07 1.255905 
vt 1.255906 1.255906 
vt 1.255906 1.871336E-08 
vt 1.255906 0.5023623 
vt 33.09055 2.084516E-07 
vt 33.09055 0.5023624 
vt -1.255906 1.871336E-08 
vt -33.09055 2.084516E-07 
vt -1.255906 0.5023623 
vt -33.09055 0.5023624 
vt -9.176084E-07 1.255906 
vt -9.363218E-07 1.408499E-14 
vt -1.255906 1.255906 
vt -34.34646 1.255906 
vt -34.34646 5.235782E-07 
vt -33.09055 1.255906 
vt 33.09055 -14.67593 
vt 33.09055 0.8013139 
vt 34.34646 -14.67593 
vt 34.34646 0.8013139 
vt 1.255905 2.009259E-08 
vt 1.255905 0.5023623 
vt 15.91732 2.009257E-08 
vt 15.91732 1.255906 
vt 1.255905 1.255906 
vt -6.745825E-08 23.15354 
vt -6.745825E-08 7.480315 
vt -6.745825E-08 0.5023623 
vt 15.91732 0.5023623 
vt 17.17323 0.5023623 
vt 17.17323 1.255906 
vt 1.255905 7.470432 
vt 1.255905 6.214527 
vt 1.255905 23.15354 
vt 8.692155E-07 1.871336E-08 
vt 8.692155E-07 7.480315 
vt 1.255906 1.871337E-08 
vt 1.255906 0.5023623 
vt 1.255906 7.480315 
vt 33.09055 2.084516E-07 
vt 33.09055 0.5023624 
vt 34.34646 7.480315 
vt 34.34646 1.87131E-08 
vt 33.09055 7.480315 
vt -8.93412E-07 1.255906 
vt -9.121252E-07 6.214527 
vt -1.255906 6.214527 
vt -8.717587E-07 7.470432 
vt -1.255906 7.470432 
vt -8.717587E-07 24.40945 
vt -34.34646 7.470432 
vt -33.09055 7.470432 
vt -1.255907 1.255906 
vt -1.255907 0 
vt -33.09055 0 
vt -33.09055 6.214527 
vt -34.34646 6.214527 
vt -1.255906 1.871369E-08 
vt -33.09055 2.084519E-07 
vt -1.255906 0.5023623 
vt -33.09055 0.5023624 
vt 33.09055 15.91732 
vt 34.34646 15.91732 
vt 33.09055 1.255906 
vt 34.34646 1.255906 
vt 8.692153E-07 0 
vt 8.692153E-07 1.255906 
vt 34.34646 0 
vt 34.34646 1.255906 
vt 1.255906 0 
vt 33.09055 0 

usemtl bark

f 2/2/1 1/1/1 3/3/1 
f 3/3/1 4/4/1 2/2/1 
f 2/2/1 4/4/1 5/5/1 
f 6/6/1 2/2/1 5/5/1 
f 6/6/1 5/5/1 7/7/1 
f 7/7/1 8/8/1 6/6/1 
f 10/10/1 9/9/1 11/11/1 
f 11/11/1 12/12/1 10/10/1 

usemtl road

f 14/14/2 13/13/2 4/15/2 
f 4/15/2 3/16/2 14/14/2 
f 4/18/3 13/17/3 15/19/3 
f 15/19/3 5/20/3 4/18/3 
f 14/22/4 3/21/4 1/23/4 
f 1/23/4 16/24/4 14/22/4 
f 1/23/4 9/25/4 16/24/4 
f 9/25/4 10/26/4 16/24/4 
f 10/26/4 8/27/4 16/24/4 
f 8/27/4 7/28/4 16/24/4 
f 15/30/5 16/29/5 7/16/5 
f 7/16/5 5/15/5 15/30/5 

usemtl tankco

f 14/32/6 16/31/6 15/33/6 
f 15/33/6 13/34/6 14/32/6 

usemtl grey

f 1/36/2 2/35/2 17/37/2 
f 17/37/2 18/38/2 1/36/2 
f 17/37/2 19/39/2 18/38/2 
f 17/37/2 20/40/2 19/39/2 
f 17/37/2 21/41/2 20/40/2 
f 21/41/2 22/42/2 20/40/2 
f 21/41/2 23/43/2 22/42/2 
f 24/44/2 18/38/2 19/39/2 
f 19/39/2 22/42/2 24/44/2 
f 22/42/2 25/45/2 24/44/2 
f 22/42/2 23/43/2 25/45/2 
f 24/47/4 25/46/4 26/48/4 
f 26/48/4 27/49/4 24/47/4 
f 24/47/4 27/49/4 28/50/4 
f 29/51/4 27/49/4 26/48/4 
f 26/48/4 30/52/4 29/51/4 
f 29/51/4 30/52/4 31/53/4 
f 31/53/4 32/54/4 29/51/4 
f 31/53/4 33/55/4 32/54/4 
f 28/50/4 32/54/4 34/56/4 
f 34/56/4 32/54/4 33/55/4 
f 34/56/4 35/57/4 28/50/4 
f 24/47/4 28/50/4 35/57/4 
f 33/55/4 36/58/4 34/56/4 
f 35/57/4 18/59/4 24/47/4 
f 37/61/7 23/60/7 21/62/7 
f 21/62/7 38/63/7 37/61/7 
f 20/65/8 22/64/8 39/66/8 
f 39/66/8 40/67/8 20/65/8 
f 42/69/7 41/68/7 43/70/7 
f 43/70/7 44/71/7 42/69/7 
f 45/73/5 33/72/5 31/74/5 
f 31/74/5 46/75/5 45/73/5 
f 33/72/5 45/73/5 47/76/5 
f 33/72/5 47/76/5 6/77/5 
f 33/72/5 6/77/5 8/78/5 
f 8/78/5 36/79/5 33/72/5 
f 45/73/5 44/80/5 47/76/5 
f 45/73/5 48/81/5 44/80/5 
f 48/81/5 46/75/5 44/80/5 
f 46/75/5 42/82/5 44/80/5 
f 46/75/5 31/74/5 42/82/5 
f 50/84/3 49/83/3 51/85/3 
f 51/85/3 52/86/3 50/84/3 
f 54/88/2 53/87/2 43/89/2 
f 43/89/2 55/90/2 54/88/2 
f 43/89/2 56/91/2 55/90/2 
f 43/89/2 41/92/2 56/91/2 
f 41/92/2 52/93/2 56/91/2 
f 53/87/2 54/88/2 57/94/2 
f 54/88/2 56/91/2 57/94/2 
f 53/87/2 57/94/2 58/95/2 
f 53/87/2 58/95/2 10/96/2 
f 10/96/2 12/97/2 53/87/2 
f 56/91/2 32/98/2 57/94/2 
f 56/91/2 51/99/2 32/98/2 
f 56/91/2 52/93/2 51/99/2 
f 32/98/2 51/99/2 29/100/2 
f 39/83/3 22/101/3 19/102/3 
f 19/102/3 59/103/3 39/83/3 
f 49/105/6 27/104/6 29/106/6 
f 29/106/6 51/107/6 49/105/6 
f 30/109/1 26/108/1 50/110/1 
f 50/110/1 52/111/1 30/109/1 
f 23/112/1 50/110/1 26/108/1 
f 26/108/1 25/113/1 23/112/1 
f 23/112/1 37/114/1 50/110/1 
f 30/109/1 52/111/1 42/115/1 
f 42/115/1 31/116/1 30/109/1 
f 52/111/1 41/117/1 42/115/1 
f 55/119/8 56/118/8 46/120/8 
f 46/120/8 48/121/8 55/119/8 
f 60/123/5 28/122/5 27/124/5 
f 60/123/5 27/124/5 39/125/5 
f 60/123/5 39/125/5 59/126/5 
f 60/123/5 59/126/5 11/127/5 
f 60/123/5 11/127/5 9/128/5 
f 9/128/5 61/129/5 60/123/5 
f 27/124/5 49/130/5 39/125/5 
f 49/130/5 50/131/5 39/125/5 
f 39/125/5 50/131/5 37/132/5 
f 39/125/5 37/132/5 38/133/5 
f 38/133/5 40/134/5 39/125/5 
f 62/135/5 11/127/5 59/126/5 
f 59/126/5 40/134/5 62/135/5 
f 40/134/5 38/133/5 62/135/5 
f 1/137/6 18/136/6 35/138/6 
f 35/138/6 61/139/6 1/137/6 
f 61/139/6 9/140/6 1/137/6 
f 61/139/6 35/138/6 34/141/6 
f 34/141/6 58/142/6 61/139/6 
f 8/143/6 58/142/6 34/141/6 
f 34/141/6 36/144/6 8/143/6 
f 8/143/6 10/145/6 58/142/6 
f 59/114/1 19/146/1 20/147/1 
f 20/147/1 40/148/1 59/114/1 
f 38/150/1 21/149/1 17/151/1 
f 17/151/1 62/11/1 38/150/1 
f 17/151/1 53/12/1 62/11/1 
f 17/151/1 47/6/1 53/12/1 
f 53/12/1 47/6/1 44/152/1 
f 44/152/1 43/153/1 53/12/1 
f 11/155/4 62/154/4 53/54/4 
f 53/54/4 12/156/4 11/155/4 
f 45/55/1 54/54/1 55/157/1 
f 55/157/1 48/158/1 45/55/1 
f 32/160/1 28/159/1 60/161/1 
f 60/161/1 57/162/1 32/160/1 
f 46/164/3 56/163/3 54/165/3 
f 54/165/3 45/166/3 46/164/3 
f 17/168/3 2/167/3 6/169/3 
f 6/169/3 47/170/3 17/168/3 
f 60/103/3 61/171/3 58/172/3 
f 58/172/3 57/165/3 60/103/3 
g billboardLow




usemtl bark

f 2/2/1 1/1/1 3/3/1 
f 3/3/1 4/4/1 2/2/1 
f 2/2/1 4/4/1 5/5/1 
f 6/6/1 2/2/1 5/5/1 
f 6/6/1 5/5/1 7/7/1 
f 7/7/1 8/8/1 6/6/1 
f 10/10/1 9/9/1 11/11/1 
f 11/11/1 12/12/1 10/10/1 

usemtl road

f 14/14/2 13/13/2 4/15/2 
f 4/15/2 3/16/2 14/14/2 
f 4/18/3 13/17/3 15/19/3 
f 15/19/3 5/20/3 4/18/3 
f 14/22/4 3/21/4 1/23/4 
f 1/23/4 16/24/4 14/22/4 
f 1/23/4 9/25/4 16/24/4 
f 9/25/4 10/26/4 16/24/4 
f 10/26/4 8/27/4 16/24/4 
f 8/27/4 7/28/4 16/24/4 
f 15/30/5 16/29/5 7/16/5 
f 7/16/5 5/15/5 15/30/5 

usemtl tankco

f 14/32/6 16/31/6 15/33/6 
f 15/33/6 13/34/6 14/32/6 

usemtl grey

f 1/36/2 2/35/2 17/37/2 
f 17/37/2 18/38/2 1/36/2 
f 17/37/2 19/39/2 18/38/2 
f 17/37/2 20/40/2 19/39/2 
f 17/37/2 21/41/2 20/40/2 
f 21/41/2 22/42/2 20/40/2 
f 21/41/2 23/43/2 22/42/2 
f 24/44/2 18/38/2 19/39/2 
f 19/39/2 22/42/2 24/44/2 
f 22/42/2 25/45/2 24/44/2 
f 22/42/2 23/43/2 25/45/2 
f 24/47/4 25/46/4 26/48/4 
f 26/48/4 27/49/4 24/47/4 
f 24/47/4 27/49/4 28/50/4 
f 29/51/4 27/49/4 26/48/4 
f 26/48/4 30/52/4 29/51/4 
f 29/51/4 30/52/4 31/53/4 
f 31/53/4 32/54/4 29/51/4 
f 31/53/4 33/55/4 32/54/4 
f 28/50/4 32/54/4 34/56/4 
f 34/56/4 32/54/4 33/55/4 
f 34/56/4 35/57/4 28/50/4 
f 24/47/4 28/50/4 35/57/4 
f 33/55/4 36/58/4 34/56/4 
f 35/57/4 18/59/4 24/47/4 
f 37/61/7 23/60/7 21/62/7 
f 21/62/7 38/63/7 37/61/7 
f 20/65/8 22/64/8 39/66/8 
f 39/66/8 40/67/8 20/65/8 
f 42/69/7 41/68/7 43/70/7 
f 43/70/7 44/71/7 42/69/7 
f 45/73/5 33/72/5 31/74/5 
f 31/74/5 46/75/5 45/73/5 
f 33/72/5 45/73/5 47/76/5 
f 33/72/5 47/76/5 6/77/5 
f 33/72/5 6/77/5 8/78/5 
f 8/78/5 36/79/5 33/72/5 
f 45/73/5 44/80/5 47/76/5 
f 45/73/5 48/81/5 44/80/5 
f 48/81/5 46/75/5 44/80/5 
f 46/75/5 42/82/5 44/80/5 
f 46/75/5 31/74/5 42/82/5 
f 50/84/3 49/83/3 51/85/3 
f 51/85/3 52/86/3 50/84/3 
f 54/88/2 53/87/2 43/89/2 
f 43/89/2 55/90/2 54/88/2 
f 43/89/2 56/91/2 55/90/2 
f 43/89/2 41/92/2 56/91/2 
f 41/92/2 52/93/2 56/91/2 
f 53/87/2 54/88/2 57/94/2 
f 54/88/2 56/91/2 57/94/2 
f 53/87/2 57/94/2 58/95/2 
f 53/87/2 58/95/2 10/96/2 
f 10/96/2 12/97/2 53/87/2 
f 56/91/2 32/98/2 57/94/2 
f 56/91/2 51/99/2 32/98/2 
f 56/91/2 52/93/2 51/99/2 
f 32/98/2 51/99/2 29/100/2 
f 39/83/3 22/101/3 19/102/3 
f 19/102/3 59/103/3 39/83/3 
f 49/105/6 27/104/6 29/106/6 
f 29/106/6 51/107/6 49/105/6 
f 30/109/1 26/108/1 50/110/1 
f 50/110/1 52/111/1 30/109/1 
f 23/112/1 50/110/1 26/108/1 
f 26/108/1 25/113/1 23/112/1 
f 23/112/1 37/114/1 50/110/1 
f 30/109/1 52/111/1 42/115/1 
f 42/115/1 31/116/1 30/109/1 
f 52/111/1 41/117/1 42/115/1 
f 55/119/8 56/118/8 46/120/8 
f 46/120/8 48/121/8 55/119/8 
f 60/123/5 28/122/5 27/124/5 
f 60/123/5 27/124/5 39/125/5 
f 60/123/5 39/125/5 59/126/5 
f 60/123/5 59/126/5 11/127/5 
f 60/123/5 11/127/5 9/128/5 
f 9/128/5 61/129/5 60/123/5 
f 27/124/5 49/130/5 39/125/5 
f 49/130/5 50/131/5 39/125/5 
f 39/125/5 50/131/5 37/132/5 
f 39/125/5 37/132/5 38/133/5 
f 38/133/5 40/134/5 39/125/5 
f 62/135/5 11/127/5 59/126/5 
f 59/126/5 40/134/5 62/135/5 
f 40/134/5 38/133/5 62/135/5 
f 1/137/6 18/136/6 35/138/6 
f 35/138/6 61/139/6 1/137/6 
f 61/139/6 9/140/6 1/137/6 
f 61/139/6 35/138/6 34/141/6 
f 34/141/6 58/142/6 61/139/6 
f 8/143/6 58/142/6 34/141/6 
f 34/141/6 36/144/6 8/143/6 
f 8/143/6 10/145/6 58/142/6 
f 59/114/1 19/146/1 20/147/1 
f 20/147/1 40/148/1 59/114/1 
f 38/150/1 21/149/1 17/151/1 
f 17/151/1 62/11/1 38/150/1 
f 17/151/1 53/12/1 62/11/1 
f 17/151/1 47/6/1 53/12/1 
f 53/12/1 47/6/1 44/152/1 
f 44/152/1 43/153/1 53/12/1 
f 11/155/4 62/154/4 53/54/4 
f 53/54/4 12/156/4 11/155/4 
f 45/55/1 54/54/1 55/157/1 
f 55/157/1 48/158/1 45/55/1 
f 32/160/1 28/159/1 60/161/1 
f 60/161/1 57/162/1 32/160/1 
f 46/164/3 56/163/3 54/165/3 
f 54/165/3 45/166/3 46/164/3 
f 17/168/3 2/167/3 6/169/3 
f 6/169/3 47/170/3 17/168/3 
f 60/103/3 61/171/3 58/172/3 
f 58/172/3 57/165/3 60/103/3 
