# Created by Kenney (www.kenney.nl) 

mtllib billboard.mtl 

g billboard

v -2.980232E-08 0.5 0 
v -2.980232E-08 0.93 0 
v 0.06380001 0.5 0 
v 0.06380001 1 0 
v -0.9362 1 0 
v -0.8724 0.93 0 
v -0.9362 0.5 0 
v -0.8724 0.5 0 
v -0.03190002 0.5 0 
v -0.8405001 0.5 0 
v -0.03190002 0.8981 0 
v -0.8405001 0.8981 0 
v 0.06380001 1 -0.04000002 
v 0.06380001 0.5 -0.04000002 
v -0.9362 1 -0.04000002 
v -0.9362 0.5 -0.04000002 
v -2.980232E-08 0.93 0.03189999 
v -2.980232E-08 9.313226E-10 0 
v -2.980232E-08 0.0319 0.03189999 
v -2.980232E-08 0.467849 0.03189999 
v -2.980232E-08 0.499749 0.03189999 
v 0 0.0319 0.4043 
v 0 0.0319 0.4362 
v -2.980232E-08 0 0.03189999 
v 0 0 0.4362 
v -0.03189999 9.313226E-10 0.4362 
v -0.03189999 9.313226E-10 0.4043 
v -0.03190002 9.313226E-10 0.03189999 
v -0.8404999 5.587935E-09 0.4043 
v -0.8404999 5.587935E-09 0.4362 
v -0.8724 9.313226E-10 0.4362 
v -0.8405001 5.587935E-09 0.03189999 
v -0.8724 9.313226E-10 0.03189999 
v -0.8405001 5.587935E-09 0 
v -0.03190002 9.313226E-10 0 
v -0.8724 9.313226E-10 0 
v -0.03189999 0.0319 0.4362 
v -0.03190002 0.499749 0.03189999 
v -0.03189999 0.0319 0.4043 
v -0.03190002 0.467849 0.03189999 
v -0.8405001 0.0319 0.4362 
v -0.8724 0.0319 0.4362 
v -0.8405001 0.499749 0.03189999 
v -0.8724 0.499749 0.03189999 
v -0.8724 0.0319 0.03189999 
v -0.8724 0.0319 0.4043 
v -0.8724 0.93 0.03189999 
v -0.8724 0.467849 0.03189999 
v -0.03189999 0.01276 0.4043 
v -0.03189999 0.01276 0.4362 
v -0.8404999 0.01276001 0.4043 
v -0.8404999 0.01276001 0.4362 
v -0.8405001 0.0319 0.03189999 
v -0.8405001 0.467849 0.03189999 
v -0.8405001 0.8981 0.03189999 
v -0.8405001 0.0319 0.4043 
v -0.8405001 0.01276001 0.03189999 
v -0.8405001 0.01276001 0 
v -0.03190002 0.0319 0.03189999 
v -0.03190002 0.01276 0.03189999 
v -0.03190002 0.01276 0 
v -0.03190002 0.8981 0.03189999 

vn 0 0 1 
vn 1 0 0 
vn 0 1 0 
vn 0 -1 0 
vn -1 0 0 
vn 0 0 -1 
vn 0 0.6538501 0.7566241 
vn 0 -0.6495129 -0.7603504 

vt -8.692155E-07 19.68504 
vt -8.692155E-07 36.61417 
vt 2.511811 19.68504 
vt 2.511811 39.37008 
vt -36.85827 39.37008 
vt -34.34646 36.61417 
vt -36.85827 19.68504 
vt -34.34646 19.68504 
vt -1.255906 19.68504 
vt -33.09055 19.68504 
vt -1.255906 35.35827 
vt -33.09055 35.35827 
vt 1.574803 39.37008 
vt 1.574803 19.68504 
vt 0 39.37008 
vt 0 19.68504 
vt -2.511811 -1.574803 
vt -2.511811 0 
vt 36.85827 -1.574803 
vt 36.85827 0 
vt 2.511811 -3.327876E-22 
vt 2.511811 -1.574803 
vt -8.692155E-07 -3.327876E-22 
vt -36.85827 -1.574803 
vt -1.255906 -3.327876E-22 
vt -33.09055 -3.327876E-22 
vt -34.34646 -3.327876E-22 
vt -36.85827 -3.327876E-22 
vt -1.574803 19.68504 
vt -1.574803 39.37008 
vt 1 1 
vt 0 1 
vt 1 2 
vt 0 2 
vt 4.688563E-14 36.61417 
vt 4.688563E-14 19.68504 
vt -1.255906 36.61417 
vt 4.688563E-14 1.871336E-08 
vt -1.255905 1.255906 
vt -1.255906 18.41925 
vt -1.255906 19.67516 
vt -15.91732 1.255906 
vt -17.17323 1.255906 
vt -1.255905 1.752414E-14 
vt -17.17323 7.141457E-16 
vt -1.871336E-08 17.17323 
vt -8.692156E-07 1.255905 
vt -1.255906 17.17323 
vt -1.255906 15.91732 
vt -1.255906 1.255906 
vt -33.09055 15.91732 
vt -33.09055 17.17323 
vt -34.34646 17.17323 
vt -33.09055 1.255906 
vt -34.34646 1.255906 
vt -33.09055 4.054278E-23 
vt -1.255906 4.054276E-23 
vt -34.34646 3.689182E-14 
vt -8.692155E-07 -1.39417E-16 
vt -5.693685E-07 -10.27847 
vt -1.255906 -10.27847 
vt -9.108543E-07 14.06552 
vt -1.255906 14.06552 
vt 1.255906 -9.383579 
vt 1.185864E-07 -9.383579 
vt 1.255906 13.18936 
vt 8.785722E-07 13.18936 
vt -33.09055 -10.27847 
vt -34.34646 -10.27847 
vt -33.09055 14.06552 
vt -34.34646 14.06552 
vt 1.255904 -3.742016E-07 
vt 1.255904 1.255905 
vt 17.17323 -3.742016E-07 
vt 15.91732 1.255905 
vt 1.255904 36.61417 
vt -1.409114E-06 36.61417 
vt -1.409114E-06 19.68504 
vt -1.409114E-06 -3.929149E-07 
vt 1.255904 19.67516 
vt 1.255904 18.41925 
vt 17.17323 1.255905 
vt 1.255906 15.91732 
vt 1.255906 17.17323 
vt 33.09055 15.91732 
vt 33.09055 17.17323 
vt -1.255904 1.255906 
vt -1.255904 18.41925 
vt -1.255904 35.35827 
vt -1.255904 19.67516 
vt -15.91732 1.255906 
vt -17.17323 1.255906 
vt -17.17323 0.5023625 
vt -1.255904 0.5023625 
vt 1.789292E-06 0.5023625 
vt 1.789292E-06 19.68504 
vt 1.789292E-06 35.35827 
vt -1.255904 2.835727E-07 
vt -15.91732 0.5023625 
vt -15.91732 2.835726E-07 
vt 9.35668E-09 15.91732 
vt 8.598589E-07 1.255905 
vt 1.255906 1.255906 
vt 1.255906 1.871336E-08 
vt 1.255906 0.5023623 
vt 33.09055 2.084516E-07 
vt 33.09055 0.5023624 
vt -1.255906 1.871336E-08 
vt -33.09055 2.084516E-07 
vt -1.255906 0.5023623 
vt -33.09055 0.5023624 
vt -9.176084E-07 1.255906 
vt -9.363218E-07 1.408499E-14 
vt -1.255906 1.255906 
vt -34.34646 1.255906 
vt -34.34646 5.235782E-07 
vt -33.09055 1.255906 
vt 34.34646 -9.383579 
vt 33.09055 -9.383579 
vt 34.34646 13.18936 
vt 33.09055 13.18936 
vt 1.255905 1.95746E-08 
vt 1.255905 0.5023623 
vt 15.91732 1.957458E-08 
vt 15.91732 1.255906 
vt 1.255905 1.255906 
vt -6.873122E-08 35.35827 
vt -6.873121E-08 19.68504 
vt -6.873121E-08 0.5023623 
vt 15.91732 0.5023623 
vt 17.17323 0.5023623 
vt 17.17323 1.255906 
vt 1.255905 19.67516 
vt 1.255905 18.41925 
vt 1.255905 35.35827 
vt 8.692155E-07 1.871336E-08 
vt 8.692155E-07 19.68504 
vt 1.255906 1.871337E-08 
vt 1.255906 0.5023623 
vt 1.255906 19.68504 
vt 33.09055 2.084516E-07 
vt 33.09055 0.5023624 
vt 34.34646 19.68504 
vt 34.34646 1.87131E-08 
vt 33.09055 19.68504 
vt -8.93412E-07 1.255906 
vt -9.121252E-07 18.41925 
vt -1.255906 18.41925 
vt -8.715303E-07 19.67516 
vt -1.255906 19.67516 
vt -8.715303E-07 36.61417 
vt -34.34646 19.67516 
vt -33.09055 19.67516 
vt -1.255907 1.255906 
vt -1.255907 0 
vt -33.09055 0 
vt -34.34646 1.255906 
vt -33.09055 18.41925 
vt -34.34646 18.41925 
vt -1.255906 1.871369E-08 
vt -33.09055 2.084519E-07 
vt -1.255906 0.5023623 
vt -33.09055 0.5023624 
vt 33.09055 15.91732 
vt 34.34646 15.91732 
vt 33.09055 1.255906 
vt 34.34646 1.255906 
vt 1.018219E-06 -2.827731E-06 
vt 1.018219E-06 1.255903 
vt 34.34646 -2.827731E-06 
vt 34.34646 1.255903 
vt 1.255906 0 
vt 33.09055 0 

usemtl bark

f 2/2/1 1/1/1 3/3/1 
f 3/3/1 4/4/1 2/2/1 
f 2/2/1 4/4/1 5/5/1 
f 6/6/1 2/2/1 5/5/1 
f 6/6/1 5/5/1 7/7/1 
f 7/7/1 8/8/1 6/6/1 
f 10/10/1 9/9/1 11/11/1 
f 11/11/1 12/12/1 10/10/1 

usemtl road

f 14/14/2 13/13/2 4/15/2 
f 4/15/2 3/16/2 14/14/2 
f 4/18/3 13/17/3 15/19/3 
f 15/19/3 5/20/3 4/18/3 
f 14/22/4 3/21/4 1/23/4 
f 1/23/4 16/24/4 14/22/4 
f 1/23/4 9/25/4 16/24/4 
f 9/25/4 10/26/4 16/24/4 
f 10/26/4 8/27/4 16/24/4 
f 8/27/4 7/28/4 16/24/4 
f 15/30/5 16/29/5 7/16/5 
f 7/16/5 5/15/5 15/30/5 

usemtl tankco

f 14/32/6 16/31/6 15/33/6 
f 15/33/6 13/34/6 14/32/6 

usemtl grey

f 1/36/2 2/35/2 17/37/2 
f 17/37/2 18/38/2 1/36/2 
f 17/37/2 19/39/2 18/38/2 
f 17/37/2 20/40/2 19/39/2 
f 17/37/2 21/41/2 20/40/2 
f 21/41/2 22/42/2 20/40/2 
f 21/41/2 23/43/2 22/42/2 
f 24/44/2 18/38/2 19/39/2 
f 19/39/2 22/42/2 24/44/2 
f 22/42/2 25/45/2 24/44/2 
f 22/42/2 23/43/2 25/45/2 
f 24/47/4 25/46/4 26/48/4 
f 26/48/4 27/49/4 24/47/4 
f 24/47/4 27/49/4 28/50/4 
f 29/51/4 27/49/4 26/48/4 
f 26/48/4 30/52/4 29/51/4 
f 29/51/4 30/52/4 31/53/4 
f 31/53/4 32/54/4 29/51/4 
f 31/53/4 33/55/4 32/54/4 
f 28/50/4 32/54/4 34/56/4 
f 34/56/4 32/54/4 33/55/4 
f 34/56/4 35/57/4 28/50/4 
f 24/47/4 28/50/4 35/57/4 
f 33/55/4 36/58/4 34/56/4 
f 35/57/4 18/59/4 24/47/4 
f 37/61/7 23/60/7 21/62/7 
f 21/62/7 38/63/7 37/61/7 
f 22/65/8 39/64/8 40/66/8 
f 40/66/8 20/67/8 22/65/8 
f 42/69/7 41/68/7 43/70/7 
f 43/70/7 44/71/7 42/69/7 
f 45/73/5 33/72/5 31/74/5 
f 31/74/5 46/75/5 45/73/5 
f 33/72/5 45/73/5 47/76/5 
f 33/72/5 47/76/5 6/77/5 
f 33/72/5 6/77/5 8/78/5 
f 8/78/5 36/79/5 33/72/5 
f 45/73/5 44/80/5 47/76/5 
f 45/73/5 48/81/5 44/80/5 
f 48/81/5 46/75/5 44/80/5 
f 46/75/5 42/82/5 44/80/5 
f 46/75/5 31/74/5 42/82/5 
f 50/84/3 49/83/3 51/85/3 
f 51/85/3 52/86/3 50/84/3 
f 54/88/2 53/87/2 55/89/2 
f 55/89/2 43/90/2 54/88/2 
f 43/90/2 56/91/2 54/88/2 
f 43/90/2 41/92/2 56/91/2 
f 41/92/2 52/93/2 56/91/2 
f 55/89/2 53/87/2 57/94/2 
f 53/87/2 56/91/2 57/94/2 
f 55/89/2 57/94/2 58/95/2 
f 55/89/2 58/95/2 10/96/2 
f 10/96/2 12/97/2 55/89/2 
f 56/91/2 32/98/2 57/94/2 
f 56/91/2 51/99/2 32/98/2 
f 56/91/2 52/93/2 51/99/2 
f 32/98/2 51/99/2 29/100/2 
f 39/83/3 22/101/3 19/102/3 
f 19/102/3 59/103/3 39/83/3 
f 49/105/6 27/104/6 29/106/6 
f 29/106/6 51/107/6 49/105/6 
f 30/109/1 26/108/1 50/110/1 
f 50/110/1 52/111/1 30/109/1 
f 23/112/1 50/110/1 26/108/1 
f 26/108/1 25/113/1 23/112/1 
f 23/112/1 37/114/1 50/110/1 
f 30/109/1 52/111/1 42/115/1 
f 42/115/1 31/116/1 30/109/1 
f 52/111/1 41/117/1 42/115/1 
f 56/119/8 46/118/8 48/120/8 
f 48/120/8 54/121/8 56/119/8 
f 60/123/5 28/122/5 27/124/5 
f 60/123/5 27/124/5 39/125/5 
f 60/123/5 39/125/5 59/126/5 
f 60/123/5 59/126/5 11/127/5 
f 60/123/5 11/127/5 9/128/5 
f 9/128/5 61/129/5 60/123/5 
f 27/124/5 49/130/5 39/125/5 
f 49/130/5 50/131/5 39/125/5 
f 39/125/5 50/131/5 37/132/5 
f 39/125/5 37/132/5 38/133/5 
f 38/133/5 40/134/5 39/125/5 
f 62/135/5 11/127/5 59/126/5 
f 59/126/5 40/134/5 62/135/5 
f 40/134/5 38/133/5 62/135/5 
f 1/137/6 18/136/6 35/138/6 
f 35/138/6 61/139/6 1/137/6 
f 61/139/6 9/140/6 1/137/6 
f 61/139/6 35/138/6 34/141/6 
f 34/141/6 58/142/6 61/139/6 
f 8/143/6 58/142/6 34/141/6 
f 34/141/6 36/144/6 8/143/6 
f 8/143/6 10/145/6 58/142/6 
f 59/114/1 19/146/1 20/147/1 
f 20/147/1 40/148/1 59/114/1 
f 38/150/1 21/149/1 17/151/1 
f 17/151/1 62/11/1 38/150/1 
f 17/151/1 55/12/1 62/11/1 
f 17/151/1 47/6/1 55/12/1 
f 55/12/1 47/6/1 44/152/1 
f 44/152/1 43/153/1 55/12/1 
f 11/155/4 62/154/4 55/54/4 
f 55/54/4 12/156/4 11/155/4 
f 45/157/1 53/54/1 54/158/1 
f 54/158/1 48/159/1 45/157/1 
f 32/161/1 28/160/1 60/162/1 
f 60/162/1 57/163/1 32/161/1 
f 46/165/3 56/164/3 53/166/3 
f 53/166/3 45/167/3 46/165/3 
f 17/169/3 2/168/3 6/170/3 
f 6/170/3 47/171/3 17/169/3 
f 60/103/3 61/172/3 58/173/3 
f 58/173/3 57/166/3 60/103/3 
g billboard




usemtl bark

f 2/2/1 1/1/1 3/3/1 
f 3/3/1 4/4/1 2/2/1 
f 2/2/1 4/4/1 5/5/1 
f 6/6/1 2/2/1 5/5/1 
f 6/6/1 5/5/1 7/7/1 
f 7/7/1 8/8/1 6/6/1 
f 10/10/1 9/9/1 11/11/1 
f 11/11/1 12/12/1 10/10/1 

usemtl road

f 14/14/2 13/13/2 4/15/2 
f 4/15/2 3/16/2 14/14/2 
f 4/18/3 13/17/3 15/19/3 
f 15/19/3 5/20/3 4/18/3 
f 14/22/4 3/21/4 1/23/4 
f 1/23/4 16/24/4 14/22/4 
f 1/23/4 9/25/4 16/24/4 
f 9/25/4 10/26/4 16/24/4 
f 10/26/4 8/27/4 16/24/4 
f 8/27/4 7/28/4 16/24/4 
f 15/30/5 16/29/5 7/16/5 
f 7/16/5 5/15/5 15/30/5 

usemtl tankco

f 14/32/6 16/31/6 15/33/6 
f 15/33/6 13/34/6 14/32/6 

usemtl grey

f 1/36/2 2/35/2 17/37/2 
f 17/37/2 18/38/2 1/36/2 
f 17/37/2 19/39/2 18/38/2 
f 17/37/2 20/40/2 19/39/2 
f 17/37/2 21/41/2 20/40/2 
f 21/41/2 22/42/2 20/40/2 
f 21/41/2 23/43/2 22/42/2 
f 24/44/2 18/38/2 19/39/2 
f 19/39/2 22/42/2 24/44/2 
f 22/42/2 25/45/2 24/44/2 
f 22/42/2 23/43/2 25/45/2 
f 24/47/4 25/46/4 26/48/4 
f 26/48/4 27/49/4 24/47/4 
f 24/47/4 27/49/4 28/50/4 
f 29/51/4 27/49/4 26/48/4 
f 26/48/4 30/52/4 29/51/4 
f 29/51/4 30/52/4 31/53/4 
f 31/53/4 32/54/4 29/51/4 
f 31/53/4 33/55/4 32/54/4 
f 28/50/4 32/54/4 34/56/4 
f 34/56/4 32/54/4 33/55/4 
f 34/56/4 35/57/4 28/50/4 
f 24/47/4 28/50/4 35/57/4 
f 33/55/4 36/58/4 34/56/4 
f 35/57/4 18/59/4 24/47/4 
f 37/61/7 23/60/7 21/62/7 
f 21/62/7 38/63/7 37/61/7 
f 22/65/8 39/64/8 40/66/8 
f 40/66/8 20/67/8 22/65/8 
f 42/69/7 41/68/7 43/70/7 
f 43/70/7 44/71/7 42/69/7 
f 45/73/5 33/72/5 31/74/5 
f 31/74/5 46/75/5 45/73/5 
f 33/72/5 45/73/5 47/76/5 
f 33/72/5 47/76/5 6/77/5 
f 33/72/5 6/77/5 8/78/5 
f 8/78/5 36/79/5 33/72/5 
f 45/73/5 44/80/5 47/76/5 
f 45/73/5 48/81/5 44/80/5 
f 48/81/5 46/75/5 44/80/5 
f 46/75/5 42/82/5 44/80/5 
f 46/75/5 31/74/5 42/82/5 
f 50/84/3 49/83/3 51/85/3 
f 51/85/3 52/86/3 50/84/3 
f 54/88/2 53/87/2 55/89/2 
f 55/89/2 43/90/2 54/88/2 
f 43/90/2 56/91/2 54/88/2 
f 43/90/2 41/92/2 56/91/2 
f 41/92/2 52/93/2 56/91/2 
f 55/89/2 53/87/2 57/94/2 
f 53/87/2 56/91/2 57/94/2 
f 55/89/2 57/94/2 58/95/2 
f 55/89/2 58/95/2 10/96/2 
f 10/96/2 12/97/2 55/89/2 
f 56/91/2 32/98/2 57/94/2 
f 56/91/2 51/99/2 32/98/2 
f 56/91/2 52/93/2 51/99/2 
f 32/98/2 51/99/2 29/100/2 
f 39/83/3 22/101/3 19/102/3 
f 19/102/3 59/103/3 39/83/3 
f 49/105/6 27/104/6 29/106/6 
f 29/106/6 51/107/6 49/105/6 
f 30/109/1 26/108/1 50/110/1 
f 50/110/1 52/111/1 30/109/1 
f 23/112/1 50/110/1 26/108/1 
f 26/108/1 25/113/1 23/112/1 
f 23/112/1 37/114/1 50/110/1 
f 30/109/1 52/111/1 42/115/1 
f 42/115/1 31/116/1 30/109/1 
f 52/111/1 41/117/1 42/115/1 
f 56/119/8 46/118/8 48/120/8 
f 48/120/8 54/121/8 56/119/8 
f 60/123/5 28/122/5 27/124/5 
f 60/123/5 27/124/5 39/125/5 
f 60/123/5 39/125/5 59/126/5 
f 60/123/5 59/126/5 11/127/5 
f 60/123/5 11/127/5 9/128/5 
f 9/128/5 61/129/5 60/123/5 
f 27/124/5 49/130/5 39/125/5 
f 49/130/5 50/131/5 39/125/5 
f 39/125/5 50/131/5 37/132/5 
f 39/125/5 37/132/5 38/133/5 
f 38/133/5 40/134/5 39/125/5 
f 62/135/5 11/127/5 59/126/5 
f 59/126/5 40/134/5 62/135/5 
f 40/134/5 38/133/5 62/135/5 
f 1/137/6 18/136/6 35/138/6 
f 35/138/6 61/139/6 1/137/6 
f 61/139/6 9/140/6 1/137/6 
f 61/139/6 35/138/6 34/141/6 
f 34/141/6 58/142/6 61/139/6 
f 8/143/6 58/142/6 34/141/6 
f 34/141/6 36/144/6 8/143/6 
f 8/143/6 10/145/6 58/142/6 
f 59/114/1 19/146/1 20/147/1 
f 20/147/1 40/148/1 59/114/1 
f 38/150/1 21/149/1 17/151/1 
f 17/151/1 62/11/1 38/150/1 
f 17/151/1 55/12/1 62/11/1 
f 17/151/1 47/6/1 55/12/1 
f 55/12/1 47/6/1 44/152/1 
f 44/152/1 43/153/1 55/12/1 
f 11/155/4 62/154/4 55/54/4 
f 55/54/4 12/156/4 11/155/4 
f 45/157/1 53/54/1 54/158/1 
f 54/158/1 48/159/1 45/157/1 
f 32/161/1 28/160/1 60/162/1 
f 60/162/1 57/163/1 32/161/1 
f 46/165/3 56/164/3 53/166/3 
f 53/166/3 45/167/3 46/165/3 
f 17/169/3 2/168/3 6/170/3 
f 6/170/3 47/171/3 17/169/3 
f 60/103/3 61/172/3 58/173/3 
f 58/173/3 57/166/3 60/103/3 
