# Created by Kenney (www.kenney.nl) 

mtllib flagCheckers.mtl 

g flagCheckers

v -0.1056756 0.6456552 0.02288377 
v -0.09884712 0.6456552 0.02726817 
v -0.1056756 1.19 0.02288377 
v -0.09884712 1.19 0.02726817 
v -0.1187344 1.19 0.01231623 
v -0.112205 0.6456552 0.0176 
v -0.1187344 0.6456552 0.01231623 
v -0.1255629 1.19 0.007931828 
v -0.1255629 0.6456552 0.007931828 
v -0.1326337 1.19 0.004483402 
v -0.1326337 0.6456552 0.004483402 
v -0.139888 1.19 0.001999557 
v -0.139888 0.6456552 0.001999557 
v -0.1472656 1.19 0.0005009174 
v -0.1472656 0.6456552 0.0005009174 
v -0.112205 1.19 0.0176 
v -0.154705 1.19 0 
v -0.154705 0.6456552 0 
v -0.1621444 1.19 0.0005009174 
v -0.1621444 0.6456552 0.0005009174 
v -0.169522 1.19 0.001999557 
v -0.169522 0.6456552 0.001999557 
v -0.1767763 1.19 0.004483402 
v -0.1767763 0.6456552 0.004483402 
v -0.1838471 1.19 0.007931828 
v -0.1838471 0.6456552 0.007931828 
v -0.1906756 1.19 0.01231623 
v -0.1906756 0.6456552 0.01231623 
v -0.197205 1.19 0.0176 
v -0.197205 0.6456552 0.0176 
v -0.05488804 0.6456552 0.03320044 
v -0.04763368 0.6456552 0.0307166 
v -0.05488804 1.19 0.03320044 
v -0.04763368 1.19 0.0307166 
v -0.06226557 1.19 0.03469908 
v -0.06226557 0.6456552 0.03469908 
v -0.06970501 1.19 0.0352 
v -0.06970501 0.6456552 0.0352 
v -0.04056287 0.6456552 0.02726817 
v -0.04056287 1.19 0.02726817 
v -0.03373438 0.6456552 0.02288377 
v -0.03373438 1.19 0.02288377 
v -0.02720499 0.6456552 0.0176 
v -0.02720499 1.19 0.0176 
v -0.07714441 1.19 0.03469908 
v -0.07714441 0.6456552 0.03469908 
v -0.08452198 1.19 0.03320044 
v -0.08452198 0.6456552 0.03320044 
v -0.09177631 1.19 0.0307166 
v -0.09177631 0.6456552 0.0307166 

vn 0.5855528 0 -0.8106343 
vn 0.4901561 0 -0.8716347 
vn 0.6290618 0 -0.7773553 
vn 0.3818733 0 -0.9242147 
vn 0.2620499 0 -0.9650543 
vn 0.1334208 0 -0.9910595 
vn 0 0 -1 
vn -0.1334208 0 -0.9910595 
vn -0.2620499 0 -0.9650543 
vn -0.3818733 0 -0.9242147 
vn -0.4901561 0 -0.8716347 
vn -0.5855528 0 -0.8106343 
vn -0.6290618 0 -0.7773553 
vn -0.5855528 0 0.8106343 
vn -0.4901561 0 0.8716347 
vn -0.6290618 0 0.7773553 
vn -0.3818733 0 0.9242147 
vn -0.2620499 0 0.9650543 
vn -0.1334208 0 0.9910595 
vn 0 0 1 
vn 0.1334208 0 0.9910595 
vn 0.2620499 0 0.9650543 
vn 0.3818733 0 0.9242147 
vn 0.4901561 0 0.8716347 
vn 0.5855528 0 0.8106343 
vn 0.6290618 0 0.7773553 

vt -18.53841 -2.202028 
vt -18.57858 -2.202028 
vt -18.53841 1 
vt -18.57858 1 
vt -18.4616 1 
vt -18.50001 -2.202028 
vt -18.4616 -2.202028 
vt -18.42143 1 
vt -18.42143 -2.202028 
vt -18.37984 1 
vt -18.37984 -2.202028 
vt -18.33716 1 
vt -18.33717 -2.202028 
vt -18.29377 1 
vt -18.29377 -2.202028 
vt -18.5 1 
vt -18.25001 1 
vt -18.25001 -2.202028 
vt -18.20625 1 
vt -18.20625 -2.202028 
vt -18.16285 1 
vt -18.16285 -2.202028 
vt -18.12018 1 
vt -18.12018 -2.202028 
vt -18.07858 1 
vt -18.07858 -2.202028 
vt -18.03842 1 
vt -18.03842 -2.202028 
vt -18.00001 1 
vt -18.00001 -2.202028 
vt -18.83716 -2.202028 
vt -18.87984 -2.202028 
vt -18.83716 1 
vt -18.87983 1 
vt -18.79376 1 
vt -18.79376 -2.202028 
vt -18.75 1 
vt -18.75 -2.202028 
vt -18.92143 -2.202028 
vt -18.92143 1 
vt -18.96159 -2.202028 
vt -18.96159 1 
vt -19 -2.202028 
vt -19 1 
vt -18.70624 1 
vt -18.70624 -2.202028 
vt -18.66285 1 
vt -18.66285 -2.202028 
vt -18.62017 1 
vt -18.62017 -2.202028 

usemtl checkers

f 2/2/2 1/1/1 3/3/1 
f 3/3/1 4/4/2 2/2/2 
f 5/5/1 3/3/1 1/1/1 
f 5/5/1 1/1/1 6/6/3 
f 6/6/3 7/7/1 5/5/1 
f 8/8/2 5/5/1 7/7/1 
f 7/7/1 9/9/2 8/8/2 
f 10/10/4 8/8/2 9/9/2 
f 9/9/2 11/11/4 10/10/4 
f 12/12/5 10/10/4 11/11/4 
f 11/11/4 13/13/5 12/12/5 
f 14/14/6 12/12/5 13/13/5 
f 13/13/5 15/15/6 14/14/6 
f 5/5/1 16/16/3 3/3/1 
f 17/17/7 14/14/6 15/15/6 
f 15/15/6 18/18/7 17/17/7 
f 19/19/8 17/17/7 18/18/7 
f 18/18/7 20/20/8 19/19/8 
f 21/21/9 19/19/8 20/20/8 
f 20/20/8 22/22/9 21/21/9 
f 23/23/10 21/21/9 22/22/9 
f 22/22/9 24/24/10 23/23/10 
f 25/25/11 23/23/10 24/24/10 
f 24/24/10 26/26/11 25/25/11 
f 27/27/12 25/25/11 26/26/11 
f 26/26/11 28/28/12 27/27/12 
f 29/29/13 27/27/12 28/28/12 
f 28/28/12 30/30/13 29/29/13 
f 2/2/15 3/3/14 1/1/14 
f 3/3/14 2/2/15 4/4/15 
f 5/5/14 1/1/14 3/3/14 
f 5/5/14 6/6/16 1/1/14 
f 6/6/16 5/5/14 7/7/14 
f 8/8/15 7/7/14 5/5/14 
f 7/7/14 8/8/15 9/9/15 
f 10/10/17 9/9/15 8/8/15 
f 9/9/15 10/10/17 11/11/17 
f 12/12/18 11/11/17 10/10/17 
f 11/11/17 12/12/18 13/13/18 
f 14/14/19 13/13/18 12/12/18 
f 13/13/18 14/14/19 15/15/19 
f 5/5/14 3/3/14 16/16/16 
f 17/17/20 15/15/19 14/14/19 
f 15/15/19 17/17/20 18/18/20 
f 19/19/21 18/18/20 17/17/20 
f 18/18/20 19/19/21 20/20/21 
f 21/21/22 20/20/21 19/19/21 
f 20/20/21 21/21/22 22/22/22 
f 23/23/23 22/22/22 21/21/22 
f 22/22/22 23/23/23 24/24/23 
f 25/25/24 24/24/23 23/23/23 
f 24/24/23 25/25/24 26/26/24 
f 27/27/25 26/26/24 25/25/24 
f 26/26/24 27/27/25 28/28/25 
f 29/29/26 28/28/25 27/27/25 
f 28/28/25 29/29/26 30/30/26 
f 32/32/10 31/31/9 33/33/9 
f 33/33/9 34/34/10 32/32/10 
f 35/35/8 33/33/9 31/31/9 
f 31/31/9 36/36/8 35/35/8 
f 37/37/7 35/35/8 36/36/8 
f 36/36/8 38/38/7 37/37/7 
f 39/39/11 32/32/10 34/34/10 
f 34/34/10 40/40/11 39/39/11 
f 41/41/12 39/39/11 40/40/11 
f 40/40/11 42/42/12 41/41/12 
f 43/43/13 41/41/12 42/42/12 
f 42/42/12 44/44/13 43/43/13 
f 45/45/6 37/37/7 38/38/7 
f 38/38/7 46/46/6 45/45/6 
f 47/47/5 45/45/6 46/46/6 
f 46/46/6 48/48/5 47/47/5 
f 49/49/4 47/47/5 48/48/5 
f 48/48/5 50/50/4 49/49/4 
f 4/4/2 49/49/4 50/50/4 
f 50/50/4 2/2/2 4/4/2 
f 32/32/23 33/33/22 31/31/22 
f 33/33/22 32/32/23 34/34/23 
f 35/35/21 31/31/22 33/33/22 
f 31/31/22 35/35/21 36/36/21 
f 37/37/20 36/36/21 35/35/21 
f 36/36/21 37/37/20 38/38/20 
f 39/39/24 34/34/23 32/32/23 
f 34/34/23 39/39/24 40/40/24 
f 41/41/25 40/40/24 39/39/24 
f 40/40/24 41/41/25 42/42/25 
f 43/43/26 42/42/25 41/41/25 
f 42/42/25 43/43/26 44/44/26 
f 45/45/19 38/38/20 37/37/20 
f 38/38/20 45/45/19 46/46/19 
f 47/47/18 46/46/19 45/45/19 
f 46/46/19 47/47/18 48/48/18 
f 49/49/17 48/48/18 47/47/18 
f 48/48/18 49/49/17 50/50/17 
f 4/4/15 50/50/17 49/49/17 
f 50/50/17 4/4/15 2/2/15 
g flagCheckers




usemtl checkers

f 2/2/2 1/1/1 3/3/1 
f 3/3/1 4/4/2 2/2/2 
f 5/5/1 3/3/1 1/1/1 
f 5/5/1 1/1/1 6/6/3 
f 6/6/3 7/7/1 5/5/1 
f 8/8/2 5/5/1 7/7/1 
f 7/7/1 9/9/2 8/8/2 
f 10/10/4 8/8/2 9/9/2 
f 9/9/2 11/11/4 10/10/4 
f 12/12/5 10/10/4 11/11/4 
f 11/11/4 13/13/5 12/12/5 
f 14/14/6 12/12/5 13/13/5 
f 13/13/5 15/15/6 14/14/6 
f 5/5/1 16/16/3 3/3/1 
f 17/17/7 14/14/6 15/15/6 
f 15/15/6 18/18/7 17/17/7 
f 19/19/8 17/17/7 18/18/7 
f 18/18/7 20/20/8 19/19/8 
f 21/21/9 19/19/8 20/20/8 
f 20/20/8 22/22/9 21/21/9 
f 23/23/10 21/21/9 22/22/9 
f 22/22/9 24/24/10 23/23/10 
f 25/25/11 23/23/10 24/24/10 
f 24/24/10 26/26/11 25/25/11 
f 27/27/12 25/25/11 26/26/11 
f 26/26/11 28/28/12 27/27/12 
f 29/29/13 27/27/12 28/28/12 
f 28/28/12 30/30/13 29/29/13 
f 2/2/15 3/3/14 1/1/14 
f 3/3/14 2/2/15 4/4/15 
f 5/5/14 1/1/14 3/3/14 
f 5/5/14 6/6/16 1/1/14 
f 6/6/16 5/5/14 7/7/14 
f 8/8/15 7/7/14 5/5/14 
f 7/7/14 8/8/15 9/9/15 
f 10/10/17 9/9/15 8/8/15 
f 9/9/15 10/10/17 11/11/17 
f 12/12/18 11/11/17 10/10/17 
f 11/11/17 12/12/18 13/13/18 
f 14/14/19 13/13/18 12/12/18 
f 13/13/18 14/14/19 15/15/19 
f 5/5/14 3/3/14 16/16/16 
f 17/17/20 15/15/19 14/14/19 
f 15/15/19 17/17/20 18/18/20 
f 19/19/21 18/18/20 17/17/20 
f 18/18/20 19/19/21 20/20/21 
f 21/21/22 20/20/21 19/19/21 
f 20/20/21 21/21/22 22/22/22 
f 23/23/23 22/22/22 21/21/22 
f 22/22/22 23/23/23 24/24/23 
f 25/25/24 24/24/23 23/23/23 
f 24/24/23 25/25/24 26/26/24 
f 27/27/25 26/26/24 25/25/24 
f 26/26/24 27/27/25 28/28/25 
f 29/29/26 28/28/25 27/27/25 
f 28/28/25 29/29/26 30/30/26 
f 32/32/10 31/31/9 33/33/9 
f 33/33/9 34/34/10 32/32/10 
f 35/35/8 33/33/9 31/31/9 
f 31/31/9 36/36/8 35/35/8 
f 37/37/7 35/35/8 36/36/8 
f 36/36/8 38/38/7 37/37/7 
f 39/39/11 32/32/10 34/34/10 
f 34/34/10 40/40/11 39/39/11 
f 41/41/12 39/39/11 40/40/11 
f 40/40/11 42/42/12 41/41/12 
f 43/43/13 41/41/12 42/42/12 
f 42/42/12 44/44/13 43/43/13 
f 45/45/6 37/37/7 38/38/7 
f 38/38/7 46/46/6 45/45/6 
f 47/47/5 45/45/6 46/46/6 
f 46/46/6 48/48/5 47/47/5 
f 49/49/4 47/47/5 48/48/5 
f 48/48/5 50/50/4 49/49/4 
f 4/4/2 49/49/4 50/50/4 
f 50/50/4 2/2/2 4/4/2 
f 32/32/23 33/33/22 31/31/22 
f 33/33/22 32/32/23 34/34/23 
f 35/35/21 31/31/22 33/33/22 
f 31/31/22 35/35/21 36/36/21 
f 37/37/20 36/36/21 35/35/21 
f 36/36/21 37/37/20 38/38/20 
f 39/39/24 34/34/23 32/32/23 
f 34/34/23 39/39/24 40/40/24 
f 41/41/25 40/40/24 39/39/24 
f 40/40/24 41/41/25 42/42/25 
f 43/43/26 42/42/25 41/41/25 
f 42/42/25 43/43/26 44/44/26 
f 45/45/19 38/38/20 37/37/20 
f 38/38/20 45/45/19 46/46/19 
f 47/47/18 46/46/19 45/45/19 
f 46/46/19 47/47/18 48/48/18 
f 49/49/17 48/48/18 47/47/18 
f 48/48/18 49/49/17 50/50/17 
f 4/4/15 50/50/17 49/49/17 
f 50/50/17 4/4/15 2/2/15 
g Group

v -0.02720499 0.28 0.007600009 
v -0.007205009 0.28 0.007600009 
v -0.02720499 1.2 0.007600009 
v -0.007205009 1.2 0.007600009 
v -0.007205009 0.28 0.02759999 
v -0.02720499 0.28 0.02759999 
v -0.007205009 1.2 0.02759999 
v -0.02720499 1.2 0.02759999 
v 0 0 0.034805 
v 0 0 0.000395 
v -0.03441 0 0.034805 
v -0.03441 0 0.000395 
v -0.03441 0.1598857 0.000395 
v 0 0.1598857 0.000395 
v -0.03441 0.1598857 0.034805 
v 0 0.1598857 0.034805 
v -0.02300501 1.25 0.01179999 
v -0.01140499 1.25 0.02340001 
v -0.01140499 1.25 0.01179999 
v -0.02300501 1.25 0.02340001 
v -0.030705 1.23 0.03109998 
v -0.030705 1.23 0.004100025 
v -0.003704995 1.23 0.03109998 
v -0.003704995 1.23 0.004100025 

vn 0 -1 0 
vn -1 0 0 
vn 1 0 0 
vn 0.9982058 0.05987693 0 
vn -0.9982058 0.05987693 0 
vn 0 0.05987693 -0.9982058 
vn 0 0.05987693 0.9982058 
vn 0 1 0 
vn 0.9932632 0.1158807 0 
vn -0.9932632 0.1158807 0 
vn 0 0.1158807 0.9932632 
vn 0 0.1158807 -0.9932632 
vn 0 -0.3592918 0.9332253 
vn 0 -0.3592918 -0.9332253 
vn 0.9332253 -0.3592918 0 
vn -0.9332253 -0.3592918 0 
vn -0.9982058 -0.05987693 0 
vn 0.9982058 -0.05987693 0 
vn 0 -0.05987693 0.9982058 
vn 0 -0.05987693 -0.9982058 
vn -0.9932632 -0.1158807 0 
vn 0.9932632 -0.1158807 0 
vn 0 -0.1158807 -0.9932632 
vn 0 -0.1158807 0.9932632 
vn 0 0.3592918 -0.9332253 
vn 0 0.3592918 0.9332253 
vn -0.9332253 0.3592918 0 
vn 0.9332253 0.3592918 0 

vt 1.071063 11.02362 
vt 0.2836614 11.02362 
vt 1.071063 47.24409 
vt 0.2836614 47.24409 
vt -0.2836614 11.02362 
vt -1.071063 11.02362 
vt -0.2836614 47.24409 
vt -1.071063 47.24409 
vt 0 1.354724 
vt 0 0 
vt -1.354724 1.354724 
vt -1.354724 0 
vt 1.354724 0 
vt 1.354724 6.294714 
vt 0 6.294714 
vt -1.354724 6.294714 
vt 0 6.283421 
vt -1.354724 6.283421 
vt -0.2836614 11.02083 
vt -1.071063 11.02083 
vt 1.846642E-17 6.202303 
vt 0.2836614 10.93971 
vt 1.354724 6.202303 
vt 1.071063 10.93971 
vt 1.354724 6.283421 
vt 1.071063 11.02083 
vt 0.2836614 11.02083 
vt 2.194246E-17 6.202303 
vt -1.354724 6.202303 
vt -0.2836614 10.93971 
vt -1.071063 10.93971 
vt 0.9057087 0.4490157 
vt 0.4490157 0.9057087 
vt 0.4490157 0.4490157 
vt 0.9057087 0.9057087 
vt 0.2836614 47.04993 
vt 1.208858 48.23905 
vt 0.1458661 48.23905 
vt 1.071063 47.04993 
vt -1.208858 48.08206 
vt -0.2836614 46.89295 
vt -0.1458661 48.08206 
vt -1.071063 46.89295 
vt 1.208858 48.08206 
vt 0.2836614 46.89295 
vt 1.071063 46.89295 
vt 0.1458661 48.08206 
vt -0.1458661 48.23905 
vt -1.071063 47.04993 
vt -0.2836614 47.04993 
vt -1.208858 48.23905 
vt 0.9057087 46.08777 
vt 0.1458661 45.24403 
vt 1.208858 45.24403 
vt 0.4490157 46.08777 
vt -0.4490157 45.60103 
vt -1.208858 44.75729 
vt -0.1458661 44.75729 
vt -0.9057087 45.60103 
vt 1.208858 44.75729 
vt 0.4490157 45.60103 
vt 0.1458661 44.75729 
vt 0.9057087 45.60103 
vt -0.4490157 46.08777 
vt -1.208858 45.24403 
vt -0.1458661 45.24403 
vt -0.9057087 46.08777 

usemtl _defaultMat

f 52/52/7 51/51/7 53/53/7 
f 53/53/7 54/54/7 52/52/7 
f 56/56/20 55/55/20 57/57/20 
f 57/57/20 58/58/20 56/56/20 
f 60/60/27 59/59/27 61/61/27 
f 61/61/27 62/62/27 60/60/27 
f 53/54/28 51/52/28 56/51/28 
f 56/51/28 58/53/28 53/54/28 
f 52/55/29 54/57/29 57/58/29 
f 57/58/29 55/56/29 52/55/29 
f 60/60/7 62/63/7 63/64/7 
f 63/64/7 64/65/7 60/60/7 
f 63/65/28 62/60/28 61/63/28 
f 61/63/28 65/64/28 63/65/28 
f 61/62/20 59/60/20 66/65/20 
f 66/65/20 65/66/20 61/62/20 
f 60/60/29 64/65/29 66/66/29 
f 66/66/29 59/62/29 60/60/29 
f 66/68/30 64/67/30 52/69/30 
f 52/69/30 55/70/30 66/68/30 
f 51/72/31 63/71/31 65/73/31 
f 65/73/31 56/74/31 51/72/31 
f 64/67/32 63/75/32 51/76/32 
f 51/76/32 52/77/32 64/67/32 
f 65/79/33 66/78/33 55/80/33 
f 55/80/33 56/81/33 65/79/33 

usemtl grey

f 52/52/20 53/53/20 51/51/20 
f 53/53/20 52/52/20 54/54/20 
f 56/56/7 57/57/7 55/55/7 
f 57/57/7 56/56/7 58/58/7 
f 60/60/34 61/61/34 59/59/34 
f 61/61/34 60/60/34 62/62/34 
f 53/54/29 56/51/29 51/52/29 
f 56/51/29 53/54/29 58/53/29 
f 52/55/28 57/58/28 54/57/28 
f 57/58/28 52/55/28 55/56/28 
f 60/60/20 63/64/20 62/63/20 
f 63/64/20 60/60/20 64/65/20 
f 63/65/29 61/63/29 62/60/29 
f 61/63/29 63/65/29 65/64/29 
f 61/62/7 66/65/7 59/60/7 
f 66/65/7 61/62/7 65/66/7 
f 60/60/28 66/66/28 64/65/28 
f 66/66/28 60/60/28 59/62/28 
f 68/83/27 67/82/27 69/84/27 
f 67/82/27 68/83/27 70/85/27 
f 71/87/35 53/86/35 72/88/35 
f 53/86/35 71/87/35 58/89/35 
f 54/91/36 73/90/36 74/92/36 
f 73/90/36 54/91/36 57/93/36 
f 54/95/37 72/94/37 53/96/37 
f 72/94/37 54/95/37 74/97/37 
f 58/99/38 73/98/38 57/100/38 
f 73/98/38 58/99/38 71/101/38 
f 74/103/39 67/102/39 72/104/39 
f 67/102/39 74/103/39 69/105/39 
f 71/107/40 68/106/40 73/108/40 
f 68/106/40 71/107/40 70/109/40 
f 67/111/41 71/110/41 72/112/41 
f 71/110/41 67/111/41 70/113/41 
f 73/115/42 69/114/42 74/116/42 
f 69/114/42 73/115/42 68/117/42 
f 66/68/43 52/69/43 64/67/43 
f 52/69/43 66/68/43 55/70/43 
f 51/72/44 65/73/44 63/71/44 
f 65/73/44 51/72/44 56/74/44 
f 64/67/45 51/76/45 63/75/45 
f 51/76/45 64/67/45 52/77/45 
f 65/79/46 55/80/46 66/78/46 
f 55/80/46 65/79/46 56/81/46 

usemtl road

f 68/83/34 69/84/34 67/82/34 
f 67/82/34 70/85/34 68/83/34 
f 71/87/47 72/88/47 53/86/47 
f 53/86/47 58/89/47 71/87/47 
f 54/91/48 74/92/48 73/90/48 
f 73/90/48 57/93/48 54/91/48 
f 54/95/49 53/96/49 72/94/49 
f 72/94/49 74/97/49 54/95/49 
f 58/99/50 57/100/50 73/98/50 
f 73/98/50 71/101/50 58/99/50 
f 74/103/51 72/104/51 67/102/51 
f 67/102/51 69/105/51 74/103/51 
f 71/107/52 73/108/52 68/106/52 
f 68/106/52 70/109/52 71/107/52 
f 67/111/53 72/112/53 71/110/53 
f 71/110/53 70/113/53 67/111/53 
f 73/115/54 74/116/54 69/114/54 
f 69/114/54 68/117/54 73/115/54 
