# Created by Kenney (www.kenney.nl) 

mtllib flagTankco.mtl 

g flagTankco

v -0.04056287 0.6456552 0.02726817 
v -0.03373438 0.6456552 0.02288377 
v -0.04056287 1.19 0.02726817 
v -0.03373438 1.19 0.02288377 
v -0.04763368 1.19 0.0307166 
v -0.04763368 0.6456552 0.0307166 
v -0.05488804 1.19 0.03320044 
v -0.05488804 0.6456552 0.03320044 
v -0.06226557 1.19 0.03469908 
v -0.06226557 0.6456552 0.03469908 
v -0.06970501 1.19 0.0352 
v -0.06970501 0.6456552 0.0352 
v -0.07714441 1.19 0.03469908 
v -0.07714441 0.6456552 0.03469908 
v -0.08452198 1.19 0.03320044 
v -0.08452198 0.6456552 0.03320044 
v -0.09177631 1.19 0.0307166 
v -0.09177631 0.6456552 0.0307166 
v -0.09884712 1.19 0.02726817 
v -0.09884712 0.6456552 0.02726817 
v -0.1056756 1.19 0.02288377 
v -0.1056756 0.6456552 0.02288377 
v -0.1187344 1.19 0.01231623 
v -0.112205 0.6456552 0.0176 
v -0.1187344 0.6456552 0.01231623 
v -0.112205 1.19 0.0176 
v -0.1255629 1.19 0.007931828 
v -0.1255629 0.6456552 0.007931828 
v -0.1326337 1.19 0.004483402 
v -0.1326337 0.6456552 0.004483402 
v -0.139888 1.19 0.001999557 
v -0.139888 0.6456552 0.001999557 
v -0.1472656 1.19 0.0005009174 
v -0.1472656 0.6456552 0.0005009174 
v -0.154705 1.19 0 
v -0.154705 0.6456552 0 
v -0.1621444 1.19 0.0005009174 
v -0.1621444 0.6456552 0.0005009174 
v -0.169522 1.19 0.001999557 
v -0.169522 0.6456552 0.001999557 
v -0.1767763 1.19 0.004483402 
v -0.1767763 0.6456552 0.004483402 
v -0.1838471 1.19 0.007931828 
v -0.1838471 0.6456552 0.007931828 
v -0.1906756 1.19 0.01231623 
v -0.1906756 0.6456552 0.01231623 
v -0.197205 1.19 0.0176 
v -0.197205 0.6456552 0.0176 
v -0.02720499 0.6456552 0.0176 
v -0.02720499 1.19 0.0176 

vn -0.4901561 0 -0.8716347 
vn -0.5855528 0 -0.8106343 
vn -0.3818733 0 -0.9242147 
vn -0.2620499 0 -0.9650543 
vn -0.1334208 0 -0.9910595 
vn 0 0 -1 
vn 0.1334208 0 -0.9910595 
vn 0.2620499 0 -0.9650543 
vn 0.3818733 0 -0.9242147 
vn 0.4901561 0 -0.8716347 
vn 0.5855528 0 -0.8106343 
vn 0.6290618 0 -0.7773553 
vn -0.6290618 0 -0.7773553 
vn 0.4901561 0 0.8716347 
vn 0.5855528 0 0.8106343 
vn 0.3818733 0 0.9242147 
vn 0.2620499 0 0.9650543 
vn 0.1334208 0 0.9910595 
vn 0 0 1 
vn -0.1334208 0 0.9910595 
vn -0.2620499 0 0.9650543 
vn -0.3818733 0 0.9242147 
vn -0.4901561 0 0.8716347 
vn -0.5855528 0 0.8106343 
vn -0.6290618 0 0.7773553 
vn 0.6290618 0 0.7773553 

vt -6.013315 -0.2301627 
vt -6.013315 -0.2050738 
vt -5.013315 -0.2301627 
vt -5.013315 -0.2050738 
vt -5.013315 -0.2561419 
vt -6.013315 -0.2561419 
vt -5.013315 -0.2827954 
vt -6.013315 -0.2827954 
vt -5.013315 -0.3099015 
vt -6.013315 -0.3099015 
vt -5.013315 -0.337235 
vt -6.013315 -0.337235 
vt -5.013315 -0.3645685 
vt -6.013315 -0.3645685 
vt -5.013315 -0.3916746 
vt -6.013315 -0.3916746 
vt -5.013315 -0.4183281 
vt -6.013315 -0.4183281 
vt -5.013315 -0.4443073 
vt -6.013315 -0.4443073 
vt -5.013315 -0.4693961 
vt -6.013315 -0.4693961 
vt -5.013315 -0.5173759 
vt -6.013315 -0.493386 
vt -6.013315 -0.5173759 
vt -5.013315 -0.493386 
vt -5.013315 -0.5424648 
vt -6.013315 -0.5424648 
vt -5.013315 -0.568444 
vt -6.013315 -0.568444 
vt -5.013315 -0.5950974 
vt -6.013315 -0.5950974 
vt -5.013315 -0.6222036 
vt -6.013315 -0.6222036 
vt -5.013315 -0.6495371 
vt -6.013315 -0.6495371 
vt -5.013315 -0.6768705 
vt -6.013315 -0.6768705 
vt -5.013315 -0.7039767 
vt -6.013315 -0.7039767 
vt -5.013315 -0.7306302 
vt -6.013315 -0.7306302 
vt -5.013315 -0.7566094 
vt -6.013315 -0.7566094 
vt -5.013315 -0.7816982 
vt -6.013315 -0.7816982 
vt -5.013315 -0.8056881 
vt -6.013315 -0.8056881 
vt -6.986685 -0.2301627 
vt -5.986685 -0.2050738 
vt -5.986685 -0.2301627 
vt -6.986685 -0.2050738 
vt -6.986685 -0.2561419 
vt -5.986685 -0.2561419 
vt -6.986685 -0.2827953 
vt -5.986685 -0.2827953 
vt -6.986685 -0.3099015 
vt -5.986685 -0.3099015 
vt -6.986685 -0.337235 
vt -5.986685 -0.337235 
vt -6.986685 -0.3645684 
vt -5.986685 -0.3645684 
vt -6.986685 -0.3916746 
vt -5.986685 -0.3916746 
vt -6.986685 -0.4183281 
vt -5.986685 -0.4183281 
vt -6.986685 -0.4443073 
vt -5.986685 -0.4443073 
vt -6.986685 -0.4693961 
vt -5.986685 -0.4693961 
vt -6.986685 -0.5173759 
vt -5.986685 -0.493386 
vt -5.986685 -0.5173759 
vt -6.986685 -0.493386 
vt -6.986685 -0.5424647 
vt -5.986685 -0.5424647 
vt -6.986685 -0.5684439 
vt -5.986685 -0.5684439 
vt -6.986685 -0.5950974 
vt -5.986685 -0.5950974 
vt -6.986685 -0.6222036 
vt -5.986685 -0.6222036 
vt -6.986685 -0.649537 
vt -5.986685 -0.649537 
vt -6.986685 -0.6768705 
vt -5.986685 -0.6768705 
vt -6.986685 -0.7039767 
vt -5.986685 -0.7039767 
vt -6.986685 -0.7306302 
vt -5.986685 -0.7306302 
vt -6.986685 -0.7566093 
vt -5.986685 -0.7566093 
vt -6.986685 -0.7816982 
vt -5.986685 -0.7816982 
vt -6.986685 -0.8056881 
vt -5.986685 -0.8056881 
vt -6.013315 -0.181084 
vt -5.013315 -0.181084 
vt -5.986685 -0.1810839 
vt -6.986685 -0.1810839 

usemtl tankco

f 2/2/2 1/1/1 3/3/1 
f 3/3/1 4/4/2 2/2/2 
f 5/5/3 3/3/1 1/1/1 
f 1/1/1 6/6/3 5/5/3 
f 7/7/4 5/5/3 6/6/3 
f 6/6/3 8/8/4 7/7/4 
f 9/9/5 7/7/4 8/8/4 
f 8/8/4 10/10/5 9/9/5 
f 11/11/6 9/9/5 10/10/5 
f 10/10/5 12/12/6 11/11/6 
f 13/13/7 11/11/6 12/12/6 
f 12/12/6 14/14/7 13/13/7 
f 15/15/8 13/13/7 14/14/7 
f 14/14/7 16/16/8 15/15/8 
f 17/17/9 15/15/8 16/16/8 
f 16/16/8 18/18/9 17/17/9 
f 19/19/10 17/17/9 18/18/9 
f 18/18/9 20/20/10 19/19/10 
f 21/21/11 19/19/10 20/20/10 
f 20/20/10 22/22/11 21/21/11 
f 23/23/11 21/21/11 22/22/11 
f 23/23/11 22/22/11 24/24/12 
f 24/24/12 25/25/11 23/23/11 
f 23/23/11 26/26/12 21/21/11 
f 27/27/10 23/23/11 25/25/11 
f 25/25/11 28/28/10 27/27/10 
f 29/29/9 27/27/10 28/28/10 
f 28/28/10 30/30/9 29/29/9 
f 31/31/8 29/29/9 30/30/9 
f 30/30/9 32/32/8 31/31/8 
f 33/33/7 31/31/8 32/32/8 
f 32/32/8 34/34/7 33/33/7 
f 35/35/6 33/33/7 34/34/7 
f 34/34/7 36/36/6 35/35/6 
f 37/37/5 35/35/6 36/36/6 
f 36/36/6 38/38/5 37/37/5 
f 39/39/4 37/37/5 38/38/5 
f 38/38/5 40/40/4 39/39/4 
f 41/41/3 39/39/4 40/40/4 
f 40/40/4 42/42/3 41/41/3 
f 43/43/1 41/41/3 42/42/3 
f 42/42/3 44/44/1 43/43/1 
f 45/45/2 43/43/1 44/44/1 
f 44/44/1 46/46/2 45/45/2 
f 47/47/13 45/45/2 46/46/2 
f 46/46/2 48/48/13 47/47/13 
f 2/50/15 3/49/14 1/51/14 
f 3/49/14 2/50/15 4/52/15 
f 5/53/16 1/51/14 3/49/14 
f 1/51/14 5/53/16 6/54/16 
f 7/55/17 6/54/16 5/53/16 
f 6/54/16 7/55/17 8/56/17 
f 9/57/18 8/56/17 7/55/17 
f 8/56/17 9/57/18 10/58/18 
f 11/59/19 10/58/18 9/57/18 
f 10/58/18 11/59/19 12/60/19 
f 13/61/20 12/60/19 11/59/19 
f 12/60/19 13/61/20 14/62/20 
f 15/63/21 14/62/20 13/61/20 
f 14/62/20 15/63/21 16/64/21 
f 17/65/22 16/64/21 15/63/21 
f 16/64/21 17/65/22 18/66/22 
f 19/67/23 18/66/22 17/65/22 
f 18/66/22 19/67/23 20/68/23 
f 21/69/24 20/68/23 19/67/23 
f 20/68/23 21/69/24 22/70/24 
f 23/71/24 22/70/24 21/69/24 
f 23/71/24 24/72/25 22/70/24 
f 24/72/25 23/71/24 25/73/24 
f 23/71/24 21/69/24 26/74/25 
f 27/75/23 25/73/24 23/71/24 
f 25/73/24 27/75/23 28/76/23 
f 29/77/22 28/76/23 27/75/23 
f 28/76/23 29/77/22 30/78/22 
f 31/79/21 30/78/22 29/77/22 
f 30/78/22 31/79/21 32/80/21 
f 33/81/20 32/80/21 31/79/21 
f 32/80/21 33/81/20 34/82/20 
f 35/83/19 34/82/20 33/81/20 
f 34/82/20 35/83/19 36/84/19 
f 37/85/18 36/84/19 35/83/19 
f 36/84/19 37/85/18 38/86/18 
f 39/87/17 38/86/18 37/85/18 
f 38/86/18 39/87/17 40/88/17 
f 41/89/16 40/88/17 39/87/17 
f 40/88/17 41/89/16 42/90/16 
f 43/91/14 42/90/16 41/89/16 
f 42/90/16 43/91/14 44/92/14 
f 45/93/15 44/92/14 43/91/14 
f 44/92/14 45/93/15 46/94/15 
f 47/95/26 46/94/15 45/93/15 
f 46/94/15 47/95/26 48/96/26 
f 49/97/13 2/2/2 4/4/2 
f 4/4/2 50/98/13 49/97/13 
f 49/99/26 4/52/15 2/50/15 
f 4/52/15 49/99/26 50/100/26 
g flagTankco




usemtl tankco

f 2/2/2 1/1/1 3/3/1 
f 3/3/1 4/4/2 2/2/2 
f 5/5/3 3/3/1 1/1/1 
f 1/1/1 6/6/3 5/5/3 
f 7/7/4 5/5/3 6/6/3 
f 6/6/3 8/8/4 7/7/4 
f 9/9/5 7/7/4 8/8/4 
f 8/8/4 10/10/5 9/9/5 
f 11/11/6 9/9/5 10/10/5 
f 10/10/5 12/12/6 11/11/6 
f 13/13/7 11/11/6 12/12/6 
f 12/12/6 14/14/7 13/13/7 
f 15/15/8 13/13/7 14/14/7 
f 14/14/7 16/16/8 15/15/8 
f 17/17/9 15/15/8 16/16/8 
f 16/16/8 18/18/9 17/17/9 
f 19/19/10 17/17/9 18/18/9 
f 18/18/9 20/20/10 19/19/10 
f 21/21/11 19/19/10 20/20/10 
f 20/20/10 22/22/11 21/21/11 
f 23/23/11 21/21/11 22/22/11 
f 23/23/11 22/22/11 24/24/12 
f 24/24/12 25/25/11 23/23/11 
f 23/23/11 26/26/12 21/21/11 
f 27/27/10 23/23/11 25/25/11 
f 25/25/11 28/28/10 27/27/10 
f 29/29/9 27/27/10 28/28/10 
f 28/28/10 30/30/9 29/29/9 
f 31/31/8 29/29/9 30/30/9 
f 30/30/9 32/32/8 31/31/8 
f 33/33/7 31/31/8 32/32/8 
f 32/32/8 34/34/7 33/33/7 
f 35/35/6 33/33/7 34/34/7 
f 34/34/7 36/36/6 35/35/6 
f 37/37/5 35/35/6 36/36/6 
f 36/36/6 38/38/5 37/37/5 
f 39/39/4 37/37/5 38/38/5 
f 38/38/5 40/40/4 39/39/4 
f 41/41/3 39/39/4 40/40/4 
f 40/40/4 42/42/3 41/41/3 
f 43/43/1 41/41/3 42/42/3 
f 42/42/3 44/44/1 43/43/1 
f 45/45/2 43/43/1 44/44/1 
f 44/44/1 46/46/2 45/45/2 
f 47/47/13 45/45/2 46/46/2 
f 46/46/2 48/48/13 47/47/13 
f 2/50/15 3/49/14 1/51/14 
f 3/49/14 2/50/15 4/52/15 
f 5/53/16 1/51/14 3/49/14 
f 1/51/14 5/53/16 6/54/16 
f 7/55/17 6/54/16 5/53/16 
f 6/54/16 7/55/17 8/56/17 
f 9/57/18 8/56/17 7/55/17 
f 8/56/17 9/57/18 10/58/18 
f 11/59/19 10/58/18 9/57/18 
f 10/58/18 11/59/19 12/60/19 
f 13/61/20 12/60/19 11/59/19 
f 12/60/19 13/61/20 14/62/20 
f 15/63/21 14/62/20 13/61/20 
f 14/62/20 15/63/21 16/64/21 
f 17/65/22 16/64/21 15/63/21 
f 16/64/21 17/65/22 18/66/22 
f 19/67/23 18/66/22 17/65/22 
f 18/66/22 19/67/23 20/68/23 
f 21/69/24 20/68/23 19/67/23 
f 20/68/23 21/69/24 22/70/24 
f 23/71/24 22/70/24 21/69/24 
f 23/71/24 24/72/25 22/70/24 
f 24/72/25 23/71/24 25/73/24 
f 23/71/24 21/69/24 26/74/25 
f 27/75/23 25/73/24 23/71/24 
f 25/73/24 27/75/23 28/76/23 
f 29/77/22 28/76/23 27/75/23 
f 28/76/23 29/77/22 30/78/22 
f 31/79/21 30/78/22 29/77/22 
f 30/78/22 31/79/21 32/80/21 
f 33/81/20 32/80/21 31/79/21 
f 32/80/21 33/81/20 34/82/20 
f 35/83/19 34/82/20 33/81/20 
f 34/82/20 35/83/19 36/84/19 
f 37/85/18 36/84/19 35/83/19 
f 36/84/19 37/85/18 38/86/18 
f 39/87/17 38/86/18 37/85/18 
f 38/86/18 39/87/17 40/88/17 
f 41/89/16 40/88/17 39/87/17 
f 40/88/17 41/89/16 42/90/16 
f 43/91/14 42/90/16 41/89/16 
f 42/90/16 43/91/14 44/92/14 
f 45/93/15 44/92/14 43/91/14 
f 44/92/14 45/93/15 46/94/15 
f 47/95/26 46/94/15 45/93/15 
f 46/94/15 47/95/26 48/96/26 
f 49/97/13 2/2/2 4/4/2 
f 4/4/2 50/98/13 49/97/13 
f 49/99/26 4/52/15 2/50/15 
f 4/52/15 49/99/26 50/100/26 
g Group

v -0.02720499 0.28 0.007600009 
v -0.007205009 0.28 0.007600009 
v -0.02720499 1.2 0.007600009 
v -0.007205009 1.2 0.007600009 
v -0.007205009 0.28 0.02759999 
v -0.02720499 0.28 0.02759999 
v -0.007205009 1.2 0.02759999 
v -0.02720499 1.2 0.02759999 
v 0 0 0.034805 
v 0 0 0.000395 
v -0.03441 0 0.034805 
v -0.03441 0 0.000395 
v -0.03441 0.1598857 0.000395 
v 0 0.1598857 0.000395 
v -0.03441 0.1598857 0.034805 
v 0 0.1598857 0.034805 
v -0.02300501 1.25 0.01179999 
v -0.01140499 1.25 0.02340001 
v -0.01140499 1.25 0.01179999 
v -0.02300501 1.25 0.02340001 
v -0.030705 1.23 0.03109998 
v -0.030705 1.23 0.004100025 
v -0.003704995 1.23 0.03109998 
v -0.003704995 1.23 0.004100025 

vn 0 -1 0 
vn -1 0 0 
vn 1 0 0 
vn 0.9982058 0.05987693 0 
vn -0.9982058 0.05987693 0 
vn 0 0.05987693 -0.9982058 
vn 0 0.05987693 0.9982058 
vn 0 1 0 
vn 0.9932632 0.1158807 0 
vn -0.9932632 0.1158807 0 
vn 0 0.1158807 0.9932632 
vn 0 0.1158807 -0.9932632 
vn 0 -0.3592918 0.9332253 
vn 0 -0.3592918 -0.9332253 
vn 0.9332253 -0.3592918 0 
vn -0.9332253 -0.3592918 0 
vn -0.9982058 -0.05987693 0 
vn 0.9982058 -0.05987693 0 
vn 0 -0.05987693 0.9982058 
vn 0 -0.05987693 -0.9982058 
vn -0.9932632 -0.1158807 0 
vn 0.9932632 -0.1158807 0 
vn 0 -0.1158807 -0.9932632 
vn 0 -0.1158807 0.9932632 
vn 0 0.3592918 -0.9332253 
vn 0 0.3592918 0.9332253 
vn -0.9332253 0.3592918 0 
vn 0.9332253 0.3592918 0 

vt 1.071063 11.02362 
vt 0.2836614 11.02362 
vt 1.071063 47.24409 
vt 0.2836614 47.24409 
vt -0.2836614 11.02362 
vt -1.071063 11.02362 
vt -0.2836614 47.24409 
vt -1.071063 47.24409 
vt 0 1.354724 
vt 0 0 
vt -1.354724 1.354724 
vt -1.354724 0 
vt 1.354724 0 
vt 1.354724 6.294714 
vt 0 6.294714 
vt -1.354724 6.294714 
vt 0 6.283421 
vt -1.354724 6.283421 
vt -0.2836614 11.02083 
vt -1.071063 11.02083 
vt 1.846642E-17 6.202303 
vt 0.2836614 10.93971 
vt 1.354724 6.202303 
vt 1.071063 10.93971 
vt 1.354724 6.283421 
vt 1.071063 11.02083 
vt 0.2836614 11.02083 
vt 2.194246E-17 6.202303 
vt -1.354724 6.202303 
vt -0.2836614 10.93971 
vt -1.071063 10.93971 
vt 0.9057087 0.4490157 
vt 0.4490157 0.9057087 
vt 0.4490157 0.4490157 
vt 0.9057087 0.9057087 
vt 0.2836614 47.04993 
vt 1.208858 48.23905 
vt 0.1458661 48.23905 
vt 1.071063 47.04993 
vt -1.208858 48.08206 
vt -0.2836614 46.89295 
vt -0.1458661 48.08206 
vt -1.071063 46.89295 
vt 1.208858 48.08206 
vt 0.2836614 46.89295 
vt 1.071063 46.89295 
vt 0.1458661 48.08206 
vt -0.1458661 48.23905 
vt -1.071063 47.04993 
vt -0.2836614 47.04993 
vt -1.208858 48.23905 
vt 0.9057087 46.08777 
vt 0.1458661 45.24403 
vt 1.208858 45.24403 
vt 0.4490157 46.08777 
vt -0.4490157 45.60103 
vt -1.208858 44.75729 
vt -0.1458661 44.75729 
vt -0.9057087 45.60103 
vt 1.208858 44.75729 
vt 0.4490157 45.60103 
vt 0.1458661 44.75729 
vt 0.9057087 45.60103 
vt -0.4490157 46.08777 
vt -1.208858 45.24403 
vt -0.1458661 45.24403 
vt -0.9057087 46.08777 

usemtl _defaultMat

f 52/102/6 51/101/6 53/103/6 
f 53/103/6 54/104/6 52/102/6 
f 56/106/19 55/105/19 57/107/19 
f 57/107/19 58/108/19 56/106/19 
f 60/110/27 59/109/27 61/111/27 
f 61/111/27 62/112/27 60/110/27 
f 53/104/28 51/102/28 56/101/28 
f 56/101/28 58/103/28 53/104/28 
f 52/105/29 54/107/29 57/108/29 
f 57/108/29 55/106/29 52/105/29 
f 60/110/6 62/113/6 63/114/6 
f 63/114/6 64/115/6 60/110/6 
f 63/115/28 62/110/28 61/113/28 
f 61/113/28 65/114/28 63/115/28 
f 61/112/19 59/110/19 66/115/19 
f 66/115/19 65/116/19 61/112/19 
f 60/110/29 64/115/29 66/116/29 
f 66/116/29 59/112/29 60/110/29 
f 66/118/30 64/117/30 52/119/30 
f 52/119/30 55/120/30 66/118/30 
f 51/122/31 63/121/31 65/123/31 
f 65/123/31 56/124/31 51/122/31 
f 64/117/32 63/125/32 51/126/32 
f 51/126/32 52/127/32 64/117/32 
f 65/129/33 66/128/33 55/130/33 
f 55/130/33 56/131/33 65/129/33 

usemtl grey

f 52/102/19 53/103/19 51/101/19 
f 53/103/19 52/102/19 54/104/19 
f 56/106/6 57/107/6 55/105/6 
f 57/107/6 56/106/6 58/108/6 
f 60/110/34 61/111/34 59/109/34 
f 61/111/34 60/110/34 62/112/34 
f 53/104/29 56/101/29 51/102/29 
f 56/101/29 53/104/29 58/103/29 
f 52/105/28 57/108/28 54/107/28 
f 57/108/28 52/105/28 55/106/28 
f 60/110/19 63/114/19 62/113/19 
f 63/114/19 60/110/19 64/115/19 
f 63/115/29 61/113/29 62/110/29 
f 61/113/29 63/115/29 65/114/29 
f 61/112/6 66/115/6 59/110/6 
f 66/115/6 61/112/6 65/116/6 
f 60/110/28 66/116/28 64/115/28 
f 66/116/28 60/110/28 59/112/28 
f 68/133/27 67/132/27 69/134/27 
f 67/132/27 68/133/27 70/135/27 
f 71/137/35 53/136/35 72/138/35 
f 53/136/35 71/137/35 58/139/35 
f 54/141/36 73/140/36 74/142/36 
f 73/140/36 54/141/36 57/143/36 
f 54/145/37 72/144/37 53/146/37 
f 72/144/37 54/145/37 74/147/37 
f 58/149/38 73/148/38 57/150/38 
f 73/148/38 58/149/38 71/151/38 
f 74/153/39 67/152/39 72/154/39 
f 67/152/39 74/153/39 69/155/39 
f 71/157/40 68/156/40 73/158/40 
f 68/156/40 71/157/40 70/159/40 
f 67/161/41 71/160/41 72/162/41 
f 71/160/41 67/161/41 70/163/41 
f 73/165/42 69/164/42 74/166/42 
f 69/164/42 73/165/42 68/167/42 
f 66/118/43 52/119/43 64/117/43 
f 52/119/43 66/118/43 55/120/43 
f 51/122/44 65/123/44 63/121/44 
f 65/123/44 51/122/44 56/124/44 
f 64/117/45 51/126/45 63/125/45 
f 51/126/45 64/117/45 52/127/45 
f 65/129/46 55/130/46 66/128/46 
f 55/130/46 65/129/46 56/131/46 

usemtl road

f 68/133/34 69/134/34 67/132/34 
f 67/132/34 70/135/34 68/133/34 
f 71/137/47 72/138/47 53/136/47 
f 53/136/47 58/139/47 71/137/47 
f 54/141/48 74/142/48 73/140/48 
f 73/140/48 57/143/48 54/141/48 
f 54/145/49 53/146/49 72/144/49 
f 72/144/49 74/147/49 54/145/49 
f 58/149/50 57/150/50 73/148/50 
f 73/148/50 71/151/50 58/149/50 
f 74/153/51 72/154/51 67/152/51 
f 67/152/51 69/155/51 74/153/51 
f 71/157/52 73/158/52 68/156/52 
f 68/156/52 70/159/52 71/157/52 
f 67/161/53 72/162/53 71/160/53 
f 71/160/53 70/163/53 67/161/53 
f 73/165/54 74/166/54 69/164/54 
f 69/164/54 68/167/54 73/165/54 
