# Created by Kenney (www.kenney.nl) 

mtllib pitsOffice.mtl 

g pitsOffice

v 0 0.51 1 
v -0.09442878 0.51 0.05442876 
v 0 0.51 -0.04000002 
v -1 0.51 -0.04000002 
v -0.9055713 0.51 0.05442876 
v -0.9055713 0.51 0.9055713 
v -0.09442878 0.51 0.9055713 
v -1 0.51 1 
v 0 0.3419098 0 
v 0 0.3115179 0 
v 0 0.3419098 1 
v 0 0.3115179 0.01999998 
v 0 0.07296238 0.01999998 
v 0 0 1 
v 0 0 0 
v 0 0.07296238 0 
v 0 0.3419098 -0.04000002 
v -1 0.3419098 0 
v -1 0.3419098 -0.04000002 
v -1 0 0 
v -1 0.07296238 0 
v -1 0.3115179 0 
v -0.4740607 0.3115179 0.01999998 
v -0.4740607 0.07296238 0.01999998 
v -0.4740607 0.3115179 0.04000002 
v -0.4740607 0.07296238 0.04000002 
v -0.05187869 0.07296238 0.01999998 
v -0.05187869 0.3115179 0.01999998 
v -0.05187869 0.07296238 0.04000002 
v -0.05187869 0.3115179 0.04000002 
v -0.5259393 0.07296238 0.01999998 
v -0.5259393 0.3115179 0.01999998 
v -0.5259393 0.07296238 0.04000002 
v -0.5259393 0.3115179 0.04000002 
v -0.9481213 0.3115179 0.01999998 
v -0.9481213 0.07296238 0.01999998 
v -0.9481213 0.3115179 0.04000002 
v -0.9481213 0.07296238 0.04000002 
v -1 0.3115179 0.01999998 
v -1 0.07296238 0.01999998 
v -0.09442878 0.46 0.05442876 
v -0.09442878 0.46 0.9055713 
v -0.9055713 0.46 0.05442876 
v -0.9055713 0.46 0.9055713 
v -1 0 1 
v -1 0.3419098 1 

vn 0 1 0 
vn 1 0 0 
vn 0 -1 0 
vn 0 0 -1 
vn -1 0 0 
vn 0 0 1 

vt 0 39.37008 
vt 3.717668 2.142865 
vt 0 -1.574803 
vt 39.37008 -1.574803 
vt 35.65241 2.142865 
vt 35.65241 35.65241 
vt 3.717668 35.65241 
vt 39.37008 39.37008 
vt 0 13.46102 
vt 0 12.26448 
vt -39.37008 13.46102 
vt -0.7874016 12.26448 
vt -0.7874016 2.872535 
vt -39.37008 0 
vt 0 0 
vt 0 2.872535 
vt -39.37008 -1.574803 
vt 39.37008 0 
vt 39.37008 2.872535 
vt 39.37008 12.26448 
vt 39.37008 13.46102 
vt -1.574803 12.26448 
vt -1.574803 2.872535 
vt 0.7874016 2.872535 
vt 0.7874016 12.26448 
vt 1.574803 2.872535 
vt 1.574803 12.26448 
vt 2.042468 2.872535 
vt 2.042468 12.26448 
vt -2.042468 1.574803 
vt -2.042468 0.7874016 
vt -18.66381 1.574803 
vt -18.66381 0.7874016 
vt 0 0.7874016 
vt -20.70627 0.7874016 
vt -37.32761 0.7874016 
vt -37.32761 1.574803 
vt -20.70627 1.574803 
vt -39.37008 0.7874016 
vt 20.70627 2.872535 
vt 18.66381 2.872535 
vt 20.70627 12.26448 
vt 18.66381 12.26448 
vt 37.32761 2.872535 
vt 37.32761 12.26448 
vt 2.042468 0.7874016 
vt 18.66381 0.7874016 
vt 2.042468 1.574803 
vt 20.70627 0.7874016 
vt 20.70627 1.574803 
vt 37.32761 0.7874016 
vt 39.37008 0.7874016 
vt 37.32761 1.574803 
vt 18.66381 1.574803 
vt -2.142865 20.07874 
vt -2.142865 18.11024 
vt -35.65241 20.07874 
vt -35.65241 18.11024 
vt 35.65241 18.11024 
vt 3.717668 18.11024 
vt 35.65241 20.07874 
vt 3.717668 20.07874 
vt 2.142865 18.11024 
vt 2.142865 20.07874 
vt -3.717668 18.11024 
vt -3.717668 20.07874 
vt -1.574803 13.46102 
vt -1.574803 20.07874 
vt 39.37008 20.07874 
vt 0 20.07874 
vt -39.37008 20.07874 
vt 1.574803 20.07874 
vt 1.574803 13.46102 

usemtl grey

f 2/2/1 1/1/1 3/3/1 
f 3/3/1 4/4/1 2/2/1 
f 4/4/1 5/5/1 2/2/1 
f 4/4/1 6/6/1 5/5/1 
f 1/1/1 2/2/1 7/7/1 
f 7/7/1 8/8/1 1/1/1 
f 7/7/1 6/6/1 8/8/1 
f 6/6/1 4/4/1 8/8/1 
f 10/10/2 9/9/2 11/11/2 
f 11/11/2 12/12/2 10/10/2 
f 11/11/2 13/13/2 12/12/2 
f 13/13/2 11/11/2 14/14/2 
f 13/13/2 14/14/2 15/15/2 
f 15/15/2 16/16/2 13/13/2 
f 17/3/3 9/15/3 18/14/3 
f 18/14/3 19/17/3 17/3/3 
f 15/15/4 20/18/4 21/19/4 
f 21/19/4 16/16/4 15/15/4 
f 10/10/4 22/20/4 18/21/4 
f 18/21/4 9/9/4 10/10/4 
f 24/13/2 23/12/2 25/22/2 
f 25/22/2 26/23/2 24/13/2 
f 28/25/5 27/24/5 29/26/5 
f 29/26/5 30/27/5 28/25/5 
f 32/25/5 31/24/5 33/26/5 
f 33/26/5 34/27/5 32/25/5 
f 36/13/2 35/12/2 37/22/2 
f 37/22/2 38/23/2 36/13/2 
f 13/16/4 27/28/4 28/29/4 
f 28/29/4 12/10/4 13/16/4 
f 28/31/3 30/30/3 25/32/3 
f 28/31/3 25/32/3 23/33/3 
f 28/31/3 23/33/3 22/14/3 
f 28/31/3 22/14/3 10/15/3 
f 10/15/3 12/34/3 28/31/3 
f 23/33/3 32/35/3 22/14/3 
f 32/35/3 35/36/3 22/14/3 
f 32/35/3 37/37/3 35/36/3 
f 32/35/3 34/38/3 37/37/3 
f 35/36/3 39/39/3 22/14/3 
f 24/41/4 31/40/4 32/42/4 
f 32/42/4 23/43/4 24/41/4 
f 36/44/4 40/19/4 39/20/4 
f 39/20/4 35/45/4 36/44/4 
f 13/34/1 16/15/1 21/18/1 
f 21/18/1 27/46/1 13/34/1 
f 21/18/1 24/47/1 27/46/1 
f 24/47/1 29/48/1 27/46/1 
f 21/18/1 31/49/1 24/47/1 
f 21/18/1 33/50/1 31/49/1 
f 21/18/1 36/51/1 33/50/1 
f 21/18/1 40/52/1 36/51/1 
f 33/50/1 36/51/1 38/53/1 
f 29/48/1 24/47/1 26/54/1 
f 42/7/1 41/2/1 43/5/1 
f 43/5/1 44/6/1 42/7/1 
f 43/56/2 5/55/2 6/57/2 
f 6/57/2 44/58/2 43/56/2 
f 42/60/4 44/59/4 6/61/4 
f 6/61/4 7/62/4 42/60/4 
f 2/64/5 41/63/5 42/59/5 
f 42/59/5 7/61/5 2/64/5 
f 43/58/6 41/65/6 2/66/6 
f 2/66/6 5/57/6 43/58/6 
f 21/16/5 20/15/5 45/18/5 
f 45/18/5 40/24/5 21/16/5 
f 45/18/5 39/25/5 40/24/5 
f 39/25/5 45/18/5 46/21/5 
f 39/25/5 46/21/5 18/9/5 
f 18/9/5 22/10/5 39/25/5 
f 45/14/6 14/15/6 11/9/6 
f 11/9/6 46/11/6 45/14/6 

usemtl red

f 4/68/5 19/67/5 18/9/5 
f 18/9/5 8/69/5 4/68/5 
f 18/9/5 46/21/5 8/69/5 
f 46/11/6 11/9/6 1/70/6 
f 1/70/6 8/71/6 46/11/6 
f 17/9/4 19/21/4 4/69/4 
f 4/69/4 3/70/4 17/9/4 
f 17/73/2 3/72/2 1/71/2 
f 1/71/2 9/9/2 17/73/2 
f 1/71/2 11/11/2 9/9/2 

usemtl glass

f 29/28/4 26/41/4 25/43/4 
f 25/43/4 30/29/4 29/28/4 
f 33/40/4 38/44/4 37/45/4 
f 37/45/4 34/42/4 33/40/4 

usemtl _defaultMat

f 9/71/3 11/11/3 46/9/3 
f 46/71/3 18/11/3 9/9/3 
g pitsOffice




usemtl grey

f 2/2/1 1/1/1 3/3/1 
f 3/3/1 4/4/1 2/2/1 
f 4/4/1 5/5/1 2/2/1 
f 4/4/1 6/6/1 5/5/1 
f 1/1/1 2/2/1 7/7/1 
f 7/7/1 8/8/1 1/1/1 
f 7/7/1 6/6/1 8/8/1 
f 6/6/1 4/4/1 8/8/1 
f 10/10/2 9/9/2 11/11/2 
f 11/11/2 12/12/2 10/10/2 
f 11/11/2 13/13/2 12/12/2 
f 13/13/2 11/11/2 14/14/2 
f 13/13/2 14/14/2 15/15/2 
f 15/15/2 16/16/2 13/13/2 
f 17/3/3 9/15/3 18/14/3 
f 18/14/3 19/17/3 17/3/3 
f 15/15/4 20/18/4 21/19/4 
f 21/19/4 16/16/4 15/15/4 
f 10/10/4 22/20/4 18/21/4 
f 18/21/4 9/9/4 10/10/4 
f 24/13/2 23/12/2 25/22/2 
f 25/22/2 26/23/2 24/13/2 
f 28/25/5 27/24/5 29/26/5 
f 29/26/5 30/27/5 28/25/5 
f 32/25/5 31/24/5 33/26/5 
f 33/26/5 34/27/5 32/25/5 
f 36/13/2 35/12/2 37/22/2 
f 37/22/2 38/23/2 36/13/2 
f 13/16/4 27/28/4 28/29/4 
f 28/29/4 12/10/4 13/16/4 
f 28/31/3 30/30/3 25/32/3 
f 28/31/3 25/32/3 23/33/3 
f 28/31/3 23/33/3 22/14/3 
f 28/31/3 22/14/3 10/15/3 
f 10/15/3 12/34/3 28/31/3 
f 23/33/3 32/35/3 22/14/3 
f 32/35/3 35/36/3 22/14/3 
f 32/35/3 37/37/3 35/36/3 
f 32/35/3 34/38/3 37/37/3 
f 35/36/3 39/39/3 22/14/3 
f 24/41/4 31/40/4 32/42/4 
f 32/42/4 23/43/4 24/41/4 
f 36/44/4 40/19/4 39/20/4 
f 39/20/4 35/45/4 36/44/4 
f 13/34/1 16/15/1 21/18/1 
f 21/18/1 27/46/1 13/34/1 
f 21/18/1 24/47/1 27/46/1 
f 24/47/1 29/48/1 27/46/1 
f 21/18/1 31/49/1 24/47/1 
f 21/18/1 33/50/1 31/49/1 
f 21/18/1 36/51/1 33/50/1 
f 21/18/1 40/52/1 36/51/1 
f 33/50/1 36/51/1 38/53/1 
f 29/48/1 24/47/1 26/54/1 
f 42/7/1 41/2/1 43/5/1 
f 43/5/1 44/6/1 42/7/1 
f 43/56/2 5/55/2 6/57/2 
f 6/57/2 44/58/2 43/56/2 
f 42/60/4 44/59/4 6/61/4 
f 6/61/4 7/62/4 42/60/4 
f 2/64/5 41/63/5 42/59/5 
f 42/59/5 7/61/5 2/64/5 
f 43/58/6 41/65/6 2/66/6 
f 2/66/6 5/57/6 43/58/6 
f 21/16/5 20/15/5 45/18/5 
f 45/18/5 40/24/5 21/16/5 
f 45/18/5 39/25/5 40/24/5 
f 39/25/5 45/18/5 46/21/5 
f 39/25/5 46/21/5 18/9/5 
f 18/9/5 22/10/5 39/25/5 
f 45/14/6 14/15/6 11/9/6 
f 11/9/6 46/11/6 45/14/6 

usemtl red

f 4/68/5 19/67/5 18/9/5 
f 18/9/5 8/69/5 4/68/5 
f 18/9/5 46/21/5 8/69/5 
f 46/11/6 11/9/6 1/70/6 
f 1/70/6 8/71/6 46/11/6 
f 17/9/4 19/21/4 4/69/4 
f 4/69/4 3/70/4 17/9/4 
f 17/73/2 3/72/2 1/71/2 
f 1/71/2 9/9/2 17/73/2 
f 1/71/2 11/11/2 9/9/2 

usemtl glass

f 29/28/4 26/41/4 25/43/4 
f 25/43/4 30/29/4 29/28/4 
f 33/40/4 38/44/4 37/45/4 
f 37/45/4 34/42/4 33/40/4 

usemtl _defaultMat

f 9/71/3 11/11/3 46/9/3 
f 46/71/3 18/11/3 9/9/3 
