# Created by Kenney (www.kenney.nl) 

mtllib pitsGarageCorner.mtl 

g pitsGarageCorner

v 0 0.7 0 
v 0 0 0 
v 0 0.7 1 
v 0 0 1 
v -1 0 1 
v -1 0.7 1 
v -0.6308534 0.5438117 0 
v -0.958235 0.5438117 0.04176503 
v -1 0.5438117 0.3691467 
v -1 0.5438117 0.04176503 
v -0.958235 0.5438117 0 
v -0.6308534 0 0 
v -0.2865719 0 0 
v -0.2865719 0.25 0 
v -0.1065719 0.25 0 
v -0.1065719 0 0 
v -1 0.7 0 
v -0.958235 0.137099 0 
v -1 0.137099 0 
v -1 0 0.3691467 
v -1 0 0.4543388 
v -1 0.3825424 0.4543388 
v -1 0.137099 0.04176503 
v -1 0.31 0.4543388 
v -1 0.3825424 0.8143388 
v -1 0.31 0.8143388 
v -1 0 0.8143388 
v -1.05 0.31 0.4543388 
v -1.05 0.3825424 0.4543388 
v -1.05 0.31 0.8143388 
v -1.05 0.3825424 0.8143388 
v -0.958235 0.137099 0.04176503 
v -0.958235 0 0.04176503 
v -1 0 0.04176503 
v -0.958235 0 0 
v -1 0 0 
v -0.2539514 0.03262052 0 
v -0.2539514 0.2173795 0 
v -0.1391924 0.2173795 0 
v -0.1391924 0.03262052 0 
v -1 0.03262052 0.4869593 
v -1 0.03262052 0.6217183 
v -1 0.03262052 0.6469593 
v -1 0.2773795 0.6217183 
v -1 0.03262052 0.7817181 
v -1 0.2773795 0.7817181 
v -1 0.2773795 0.4869593 
v -1 0.2773795 0.6469593 
v -0.1391924 0.03262052 0.01999998 
v -0.2539514 0.03262052 0.01999998 
v -0.2539514 0.2173795 0.01999998 
v -0.1391924 0.2173795 0.01999998 
v -0.98 0.03262052 0.6217183 
v -0.98 0.03262052 0.4869593 
v -0.98 0.2773795 0.6217183 
v -0.98 0.2773795 0.4869593 
v -0.98 0.03262052 0.7817181 
v -0.98 0.03262052 0.6469593 
v -0.98 0.2773795 0.7817181 
v -0.98 0.2773795 0.6469593 

vn 1 0 0 
vn 0 0 1 
vn 0 -1 0 
vn 0 0 -1 
vn -1 0 0 
vn 0 1 0 
vn -0.7071068 0 -0.7071068 

vt 0 27.55906 
vt 0 0 
vt -39.37008 27.55906 
vt -39.37008 0 
vt -24.83675 0 
vt -37.72579 1.644292 
vt -39.37008 14.53333 
vt -39.37008 1.644292 
vt -37.72579 0 
vt 24.83675 0 
vt 11.28236 0 
vt 24.83675 21.40991 
vt 11.28236 9.84252 
vt 4.195744 9.84252 
vt 4.195744 0 
vt 39.37008 27.55906 
vt 37.72579 21.40991 
vt 37.72579 5.397598 
vt 39.37008 5.397598 
vt 14.53333 1.571034E-12 
vt 14.53333 21.40991 
vt 17.88735 1.684674E-12 
vt 17.88735 15.06073 
vt 1.644292 21.40991 
vt -1.969464E-13 27.55906 
vt 1.644292 5.397598 
vt -1.969464E-13 5.397598 
vt 17.88735 12.20472 
vt 32.06058 15.06073 
vt 39.37008 1.571034E-12 
vt 32.06058 12.20472 
vt 32.06058 1.684674E-12 
vt -39.37008 32.06058 
vt -39.37008 17.88735 
vt -41.33858 32.06058 
vt -41.33858 17.88735 
vt -41.33858 12.20472 
vt -41.33858 15.06073 
vt -39.37008 12.20472 
vt -39.37008 15.06073 
vt 39.37008 32.06058 
vt 41.33858 32.06058 
vt 39.37008 17.88735 
vt 41.33858 17.88735 
vt 41.33858 12.20472 
vt 39.37008 12.20472 
vt 41.33858 15.06073 
vt 39.37008 15.06073 
vt 0 21.40991 
vt 0 5.397598 
vt -1.644292 21.40991 
vt -1.644292 5.397598 
vt -37.72579 5.397598 
vt -39.37008 5.397598 
vt -37.72579 21.40991 
vt -39.37008 21.40991 
vt -37.72579 1.421085E-14 
vt -39.37008 1.421085E-14 
vt 0 1.421085E-14 
vt -1.644292 1.421085E-14 
vt 39.37008 1.421085E-14 
vt 37.72579 1.421085E-14 
vt 9.612268E-12 -9.445883E-13 
vt 1.644292 -9.445883E-13 
vt 9.998085 1.284272 
vt 9.998085 8.558248 
vt 5.480016 8.558248 
vt 5.480016 1.284272 
vt 19.17163 1.284272 
vt 24.4771 1.284272 
vt 25.47084 1.284272 
vt 24.4771 10.92045 
vt 30.77631 1.284272 
vt 30.77631 10.92045 
vt 19.17163 10.92045 
vt 25.47084 10.92045 
vt 5.480016 0 
vt 5.480016 0.7874016 
vt 9.998085 0 
vt 9.998085 0.7874016 
vt 0 8.558248 
vt 0 1.284272 
vt -0.7874016 8.558248 
vt -0.7874016 1.284272 
vt -5.480016 0.7874016 
vt -5.480016 0 
vt -9.998085 0.7874016 
vt -9.998085 0 
vt 0.7874016 1.284272 
vt 0.7874016 8.558248 
vt 38.58268 24.4771 
vt 39.37008 24.4771 
vt 38.58268 19.17163 
vt 39.37008 19.17163 
vt 39.37008 1.284272 
vt 38.58268 1.284272 
vt 39.37008 10.92045 
vt 38.58268 10.92045 
vt -38.58268 24.4771 
vt -38.58268 19.17163 
vt -39.37008 24.4771 
vt -39.37008 19.17163 
vt -39.37008 1.284272 
vt -39.37008 10.92045 
vt -38.58268 1.284272 
vt -38.58268 10.92045 
vt 38.58268 30.77631 
vt 39.37008 30.77631 
vt 38.58268 25.47084 
vt 39.37008 25.47084 
vt -38.58268 30.77631 
vt -38.58268 25.47084 
vt -39.37008 30.77631 
vt -39.37008 25.47084 

usemtl grey

f 2/2/1 1/1/1 3/3/1 
f 3/3/1 4/4/1 2/2/1 
f 5/4/2 4/2/2 3/1/2 
f 3/1/2 6/3/2 5/4/2 
f 8/6/3 7/5/3 9/7/3 
f 9/7/3 10/8/3 8/6/3 
f 7/5/3 8/6/3 11/9/3 
f 13/11/4 12/10/4 7/12/4 
f 7/12/4 14/13/4 13/11/4 
f 7/12/4 15/14/4 14/13/4 
f 15/14/4 7/12/4 1/1/4 
f 15/14/4 1/1/4 2/2/4 
f 2/2/4 16/15/4 15/14/4 
f 7/12/4 17/16/4 1/1/4 
f 17/16/4 7/12/4 11/17/4 
f 17/16/4 11/17/4 18/18/4 
f 18/18/4 19/19/4 17/16/4 
f 9/21/5 20/20/5 21/22/5 
f 9/21/5 21/22/5 22/23/5 
f 9/21/5 22/23/5 6/16/5 
f 10/24/5 9/21/5 6/16/5 
f 10/24/5 6/16/5 17/25/5 
f 23/26/5 10/24/5 17/25/5 
f 17/25/5 19/27/5 23/26/5 
f 21/22/5 24/28/5 22/23/5 
f 22/23/5 25/29/5 6/16/5 
f 25/29/5 5/30/5 6/16/5 
f 5/30/5 25/29/5 26/31/5 
f 26/31/5 27/32/5 5/30/5 
f 29/23/5 28/28/5 30/31/5 
f 30/31/5 31/29/5 29/23/5 
f 24/34/3 26/33/3 30/35/3 
f 30/35/3 28/36/3 24/34/3 
f 31/38/2 30/37/2 26/39/2 
f 26/39/2 25/40/2 31/38/2 
f 31/42/6 25/41/6 22/43/6 
f 22/43/6 29/44/6 31/42/6 
f 24/46/4 28/45/4 29/47/4 
f 29/47/4 22/48/4 24/46/4 
f 18/50/1 11/49/1 8/51/1 
f 8/51/1 32/52/1 18/50/1 
f 23/54/2 32/53/2 8/55/2 
f 8/55/2 10/56/2 23/54/2 

usemtl _defaultMat

f 12/1/7 20/3/7 9/4/7 
f 9/1/7 7/3/7 12/4/7 
f 3/5/6 1/6/6 17/9/6 
f 17/5/6 6/6/6 3/9/6 
f 18/55/3 32/56/3 23/54/3 
f 23/55/3 19/56/3 18/54/3 

usemtl red

f 34/58/2 33/57/2 32/53/2 
f 32/53/2 23/54/2 34/58/2 
f 35/59/1 18/50/1 32/52/1 
f 32/52/1 33/60/1 35/59/1 
f 35/62/4 36/61/4 19/19/4 
f 19/19/4 18/18/4 35/62/4 
f 19/27/5 36/63/5 34/64/5 
f 34/64/5 23/26/5 19/27/5 

usemtl road

f 37/65/4 16/15/4 13/11/4 
f 13/11/4 14/13/4 37/65/4 
f 14/13/4 38/66/4 37/65/4 
f 14/13/4 39/67/4 38/66/4 
f 16/15/4 37/65/4 40/68/4 
f 40/68/4 15/14/4 16/15/4 
f 40/68/4 39/67/4 15/14/4 
f 39/67/4 14/13/4 15/14/4 
f 41/69/5 24/28/5 21/22/5 
f 21/22/5 27/32/5 41/69/5 
f 27/32/5 42/70/5 41/69/5 
f 27/32/5 43/71/5 42/70/5 
f 43/71/5 44/72/5 42/70/5 
f 27/32/5 45/73/5 43/71/5 
f 27/32/5 46/74/5 45/73/5 
f 24/28/5 41/69/5 47/75/5 
f 47/75/5 26/31/5 24/28/5 
f 47/75/5 44/72/5 26/31/5 
f 46/74/5 27/32/5 26/31/5 
f 44/72/5 48/76/5 26/31/5 
f 44/72/5 43/71/5 48/76/5 
f 48/76/5 46/74/5 26/31/5 
f 49/78/6 40/77/6 37/79/6 
f 37/79/6 50/80/6 49/78/6 
f 37/82/1 38/81/1 51/83/1 
f 51/83/1 50/84/1 37/82/1 
f 39/86/3 52/85/3 51/87/3 
f 51/87/3 38/88/3 39/86/3 
f 39/81/5 40/82/5 49/89/5 
f 49/89/5 52/90/5 39/81/5 
f 42/92/6 53/91/6 54/93/6 
f 54/93/6 41/94/6 42/92/6 
f 53/96/4 42/95/4 44/97/4 
f 44/97/4 55/98/4 53/96/4 
f 56/100/3 55/99/3 44/101/3 
f 44/101/3 47/102/3 56/100/3 
f 47/104/2 41/103/2 54/105/2 
f 54/105/2 56/106/2 47/104/2 
f 45/108/6 57/107/6 58/109/6 
f 58/109/6 43/110/6 45/108/6 
f 57/96/4 45/95/4 46/97/4 
f 46/97/4 59/98/4 57/96/4 
f 60/112/3 59/111/3 46/113/3 
f 46/113/3 48/114/3 60/112/3 
f 48/104/2 43/103/2 58/105/2 
f 58/105/2 60/106/2 48/104/2 

usemtl glass

f 49/68/4 50/65/4 51/66/4 
f 51/66/4 52/67/4 49/68/4 
f 56/75/5 54/69/5 53/70/5 
f 53/70/5 55/72/5 56/75/5 
f 60/76/5 58/71/5 57/73/5 
f 57/73/5 59/74/5 60/76/5 
g pitsGarageCorner




usemtl grey

f 2/2/1 1/1/1 3/3/1 
f 3/3/1 4/4/1 2/2/1 
f 5/4/2 4/2/2 3/1/2 
f 3/1/2 6/3/2 5/4/2 
f 8/6/3 7/5/3 9/7/3 
f 9/7/3 10/8/3 8/6/3 
f 7/5/3 8/6/3 11/9/3 
f 13/11/4 12/10/4 7/12/4 
f 7/12/4 14/13/4 13/11/4 
f 7/12/4 15/14/4 14/13/4 
f 15/14/4 7/12/4 1/1/4 
f 15/14/4 1/1/4 2/2/4 
f 2/2/4 16/15/4 15/14/4 
f 7/12/4 17/16/4 1/1/4 
f 17/16/4 7/12/4 11/17/4 
f 17/16/4 11/17/4 18/18/4 
f 18/18/4 19/19/4 17/16/4 
f 9/21/5 20/20/5 21/22/5 
f 9/21/5 21/22/5 22/23/5 
f 9/21/5 22/23/5 6/16/5 
f 10/24/5 9/21/5 6/16/5 
f 10/24/5 6/16/5 17/25/5 
f 23/26/5 10/24/5 17/25/5 
f 17/25/5 19/27/5 23/26/5 
f 21/22/5 24/28/5 22/23/5 
f 22/23/5 25/29/5 6/16/5 
f 25/29/5 5/30/5 6/16/5 
f 5/30/5 25/29/5 26/31/5 
f 26/31/5 27/32/5 5/30/5 
f 29/23/5 28/28/5 30/31/5 
f 30/31/5 31/29/5 29/23/5 
f 24/34/3 26/33/3 30/35/3 
f 30/35/3 28/36/3 24/34/3 
f 31/38/2 30/37/2 26/39/2 
f 26/39/2 25/40/2 31/38/2 
f 31/42/6 25/41/6 22/43/6 
f 22/43/6 29/44/6 31/42/6 
f 24/46/4 28/45/4 29/47/4 
f 29/47/4 22/48/4 24/46/4 
f 18/50/1 11/49/1 8/51/1 
f 8/51/1 32/52/1 18/50/1 
f 23/54/2 32/53/2 8/55/2 
f 8/55/2 10/56/2 23/54/2 

usemtl _defaultMat

f 12/1/7 20/3/7 9/4/7 
f 9/1/7 7/3/7 12/4/7 
f 3/5/6 1/6/6 17/9/6 
f 17/5/6 6/6/6 3/9/6 
f 18/55/3 32/56/3 23/54/3 
f 23/55/3 19/56/3 18/54/3 

usemtl red

f 34/58/2 33/57/2 32/53/2 
f 32/53/2 23/54/2 34/58/2 
f 35/59/1 18/50/1 32/52/1 
f 32/52/1 33/60/1 35/59/1 
f 35/62/4 36/61/4 19/19/4 
f 19/19/4 18/18/4 35/62/4 
f 19/27/5 36/63/5 34/64/5 
f 34/64/5 23/26/5 19/27/5 

usemtl road

f 37/65/4 16/15/4 13/11/4 
f 13/11/4 14/13/4 37/65/4 
f 14/13/4 38/66/4 37/65/4 
f 14/13/4 39/67/4 38/66/4 
f 16/15/4 37/65/4 40/68/4 
f 40/68/4 15/14/4 16/15/4 
f 40/68/4 39/67/4 15/14/4 
f 39/67/4 14/13/4 15/14/4 
f 41/69/5 24/28/5 21/22/5 
f 21/22/5 27/32/5 41/69/5 
f 27/32/5 42/70/5 41/69/5 
f 27/32/5 43/71/5 42/70/5 
f 43/71/5 44/72/5 42/70/5 
f 27/32/5 45/73/5 43/71/5 
f 27/32/5 46/74/5 45/73/5 
f 24/28/5 41/69/5 47/75/5 
f 47/75/5 26/31/5 24/28/5 
f 47/75/5 44/72/5 26/31/5 
f 46/74/5 27/32/5 26/31/5 
f 44/72/5 48/76/5 26/31/5 
f 44/72/5 43/71/5 48/76/5 
f 48/76/5 46/74/5 26/31/5 
f 49/78/6 40/77/6 37/79/6 
f 37/79/6 50/80/6 49/78/6 
f 37/82/1 38/81/1 51/83/1 
f 51/83/1 50/84/1 37/82/1 
f 39/86/3 52/85/3 51/87/3 
f 51/87/3 38/88/3 39/86/3 
f 39/81/5 40/82/5 49/89/5 
f 49/89/5 52/90/5 39/81/5 
f 42/92/6 53/91/6 54/93/6 
f 54/93/6 41/94/6 42/92/6 
f 53/96/4 42/95/4 44/97/4 
f 44/97/4 55/98/4 53/96/4 
f 56/100/3 55/99/3 44/101/3 
f 44/101/3 47/102/3 56/100/3 
f 47/104/2 41/103/2 54/105/2 
f 54/105/2 56/106/2 47/104/2 
f 45/108/6 57/107/6 58/109/6 
f 58/109/6 43/110/6 45/108/6 
f 57/96/4 45/95/4 46/97/4 
f 46/97/4 59/98/4 57/96/4 
f 60/112/3 59/111/3 46/113/3 
f 46/113/3 48/114/3 60/112/3 
f 48/104/2 43/103/2 58/105/2 
f 58/105/2 60/106/2 48/104/2 

usemtl glass

f 49/68/4 50/65/4 51/66/4 
f 51/66/4 52/67/4 49/68/4 
f 56/75/5 54/69/5 53/70/5 
f 53/70/5 55/72/5 56/75/5 
f 60/76/5 58/71/5 57/73/5 
f 57/73/5 59/74/5 60/76/5 
