# Created by Kenney (www.kenney.nl) 

mtllib pitsOfficeCorner.mtl 

g pitsOfficeCorner

v -0.05187869 0.07296238 0.01999998 
v -0.05187869 0.3115179 0.01999998 
v -0.05187869 0.07296238 0.04000002 
v -0.05187869 0.3115179 0.04000002 
v -0.09442878 0.46 0.05442876 
v -0.9455713 0.46 0.05442876 
v -0.09442878 0.51 0.05442876 
v -0.9455713 0.51 0.05442876 
v 0 0.07296238 0.01999998 
v 0 0.3115179 0.01999998 
v 0 0 1 
v -1 0 1 
v 0 0.51 1 
v -0.98 0.07296238 1 
v -0.98 0.3115179 1 
v -1 0.3115179 1 
v -1 0.3419098 1 
v -1.04 0.3419098 1 
v -1.04 0.51 1 
v -1 0.07296238 1 
v -0.09442878 0.46 0.9055713 
v -0.9455713 0.46 0.9055713 
v -1 0.3115179 0 
v 0 0.3115179 0 
v -1 0.3419098 0 
v 0 0.3419098 0 
v -0.5259393 0.07296238 0.01999998 
v -0.5259393 0.3115179 0.01999998 
v -0.5259393 0.07296238 0.04000002 
v -0.5259393 0.3115179 0.04000002 
v 0 0.51 -0.04000002 
v -1.04 0.51 -0.04000002 
v -0.9455713 0.51 0.9055713 
v -0.09442878 0.51 0.9055713 
v -0.4740607 0.3115179 0.01999998 
v -0.4740607 0.07296238 0.01999998 
v -0.4740607 0.3115179 0.04000002 
v -0.4740607 0.07296238 0.04000002 
v 0 0.3419098 -0.04000002 
v 0 0 0 
v 0 0.07296238 0 
v -0.9481213 0.3115179 0.01999998 
v -0.9481213 0.07296238 0.01999998 
v -0.9481213 0.3115179 0.04000002 
v -0.9481213 0.07296238 0.04000002 
v -1 0 0 
v -1 0.07296238 0 
v -0.96 0.07296238 0.05187869 
v -0.98 0.07296238 0.05187869 
v -0.96 0.3115179 0.05187869 
v -0.98 0.3115179 0.05187869 
v -0.98 0.07296238 0.01999998 
v -0.98 0.3115179 0.01999998 
v -0.98 0.07296238 0.9481213 
v -0.98 0.3115179 0.9481213 
v -0.98 0.07296238 0.4740607 
v -0.98 0.3115179 0.4740607 
v -0.98 0.07296238 0.5259393 
v -0.98 0.3115179 0.5259393 
v -0.96 0.07296238 0.9481213 
v -0.96 0.07296238 0.5259393 
v -0.96 0.07296238 0.4740607 
v -0.96 0.3115179 0.5259393 
v -0.96 0.3115179 0.4740607 
v -0.96 0.3115179 0.9481213 
v -1.04 0.3419098 -0.04000002 

vn -1 0 0 
vn 0 0 1 
vn 0 0 -1 
vn 0 1 0 
vn 1 0 0 
vn 0 -1 0 

vt 0.7874016 2.872535 
vt 0.7874016 12.26448 
vt 1.574803 2.872535 
vt 1.574803 12.26448 
vt -3.717668 18.11024 
vt -37.22721 18.11024 
vt -3.717668 20.07874 
vt -37.22721 20.07874 
vt 2.042468 2.872535 
vt 0 2.872535 
vt 2.042468 12.26448 
vt 7.105427E-14 12.26448 
vt -1.100648E-13 -1.332459E-13 
vt -39.37008 -1.332459E-13 
vt -1.811191E-13 20.07874 
vt -38.58268 2.872535 
vt -38.58268 12.26448 
vt -39.37008 12.26448 
vt -39.37008 13.46102 
vt -40.94488 13.46102 
vt -40.94488 20.07874 
vt -39.37008 2.872535 
vt 3.717668 2.142865 
vt 3.717668 35.65241 
vt 37.22721 2.142865 
vt 37.22721 35.65241 
vt 39.37008 12.26448 
vt 39.37008 13.46102 
vt 7.105427E-14 13.46102 
vt 7.105427E-14 39.37008 
vt 7.105427E-14 -1.574803 
vt 40.94488 -1.574803 
vt 40.94488 39.37008 
vt -0.7874016 12.26448 
vt -0.7874016 2.872535 
vt -1.574803 12.26448 
vt -1.574803 2.872535 
vt 1.574803 13.46102 
vt -1.421085E-14 13.46102 
vt 1.574803 20.07874 
vt -39.37008 20.07874 
vt -39.37008 4.486457E-29 
vt 0 0 
vt 1.84812E-29 12.26448 
vt 20.70627 2.872535 
vt 18.66381 2.872535 
vt 20.70627 12.26448 
vt 18.66381 12.26448 
vt 39.37008 0 
vt 39.37008 2.872535 
vt -2.142865 20.07874 
vt -2.142865 18.11024 
vt -35.65241 20.07874 
vt -35.65241 18.11024 
vt 37.22721 18.11024 
vt 3.717668 18.11024 
vt 37.22721 20.07874 
vt 3.717668 20.07874 
vt 2.142865 18.11024 
vt 2.142865 20.07874 
vt 35.65241 18.11024 
vt 35.65241 20.07874 
vt -37.79528 2.872535 
vt -37.79528 12.26448 
vt 2.557243E-11 0 
vt 2.557243E-11 2.872535 
vt 37.32761 2.872535 
vt 37.32761 12.26448 
vt 0 0.7874016 
vt 2.042468 0.7874016 
vt 18.66381 0.7874016 
vt 2.042468 1.574803 
vt 20.70627 0.7874016 
vt 20.70627 1.574803 
vt 37.32761 0.7874016 
vt 38.58268 0.7874016 
vt 38.58268 2.042468 
vt 38.58268 18.66381 
vt 38.58268 20.70627 
vt 38.58268 37.32761 
vt 38.58268 39.37008 
vt 39.37008 39.37008 
vt 37.79528 37.32761 
vt 37.79528 20.70627 
vt 37.79528 18.66381 
vt 37.79528 2.042468 
vt 37.32761 1.574803 
vt 18.66381 1.574803 
vt 38.58268 2.872535 
vt 37.79528 2.872535 
vt 38.58268 12.26448 
vt 37.79528 12.26448 
vt -2.042468 1.574803 
vt -2.042468 0.7874016 
vt -18.66381 1.574803 
vt -18.66381 0.7874016 
vt -39.37008 0 
vt -7.105427E-14 0 
vt -7.105427E-14 0.7874016 
vt -20.70627 0.7874016 
vt -37.32761 0.7874016 
vt -37.32761 1.574803 
vt -20.70627 1.574803 
vt -38.58268 0.7874016 
vt -38.58268 2.042468 
vt -38.58268 18.66381 
vt -37.79528 18.66381 
vt -37.79528 2.042468 
vt -38.58268 20.70627 
vt -38.58268 37.32761 
vt -37.79528 37.32761 
vt -37.79528 20.70627 
vt -38.58268 39.37008 
vt -39.37008 39.37008 
vt 2.557243E-11 12.26448 
vt 2.558664E-11 13.46102 
vt -7.105427E-14 1.421085E-14 
vt -7.105427E-14 -1.574803 
vt -39.37008 1.421085E-14 
vt -40.94488 -1.574803 
vt -40.94488 39.37008 
vt -1.574803 13.46102 
vt -1.574803 20.07874 
vt 39.37008 20.07874 
vt 40.94488 13.46102 
vt 40.94488 20.07874 
vt 7.105427E-14 20.07874 

usemtl grey

f 2/2/1 1/1/1 3/3/1 
f 3/3/1 4/4/1 2/2/1 
f 6/6/2 5/5/2 7/7/2 
f 7/7/2 8/8/2 6/6/2 
f 9/10/3 1/9/3 2/11/3 
f 2/11/3 10/12/3 9/10/3 
f 12/14/2 11/13/2 13/15/2 
f 13/15/2 14/16/2 12/14/2 
f 13/15/2 15/17/2 14/16/2 
f 13/15/2 16/18/2 15/17/2 
f 13/15/2 17/19/2 16/18/2 
f 13/15/2 18/20/2 17/19/2 
f 13/15/2 19/21/2 18/20/2 
f 12/14/2 14/16/2 20/22/2 
f 21/24/4 5/23/4 6/25/4 
f 6/25/4 22/26/4 21/24/4 
f 24/12/3 23/27/3 25/28/3 
f 25/28/3 26/29/3 24/12/3 
f 28/2/1 27/1/1 29/3/1 
f 29/3/1 30/4/1 28/2/1 
f 7/23/4 13/30/4 31/31/4 
f 31/31/4 32/32/4 7/23/4 
f 32/32/4 8/25/4 7/23/4 
f 32/32/4 33/26/4 8/25/4 
f 13/30/4 7/23/4 34/24/4 
f 34/24/4 19/33/4 13/30/4 
f 34/24/4 33/26/4 19/33/4 
f 33/26/4 32/32/4 19/33/4 
f 36/35/5 35/34/5 37/36/5 
f 37/36/5 38/37/5 36/35/5 
f 26/39/5 39/38/5 31/40/5 
f 31/40/5 13/41/5 26/39/5 
f 13/41/5 10/34/5 26/39/5 
f 13/41/5 9/35/5 10/34/5 
f 13/41/5 11/42/5 9/35/5 
f 9/35/5 11/42/5 40/43/5 
f 40/43/5 41/10/5 9/35/5 
f 24/44/5 26/39/5 10/34/5 
f 43/35/5 42/34/5 44/36/5 
f 44/36/5 45/37/5 43/35/5 
f 36/46/3 27/45/3 28/47/3 
f 28/47/3 35/48/3 36/46/3 
f 40/43/3 46/49/3 47/50/3 
f 47/50/3 41/10/3 40/43/3 
f 6/52/5 8/51/5 33/53/5 
f 33/53/5 22/54/5 6/52/5 
f 21/56/3 22/55/3 33/57/3 
f 33/57/3 34/58/3 21/56/3 
f 7/60/1 5/59/1 21/61/1 
f 21/61/1 34/62/1 7/60/1 
f 49/16/2 48/63/2 50/64/2 
f 50/64/2 51/17/2 49/16/2 
f 53/2/1 52/1/1 49/9/1 
f 49/9/1 51/11/1 53/2/1 
f 47/66/1 46/65/1 12/49/1 
f 12/49/1 20/50/1 47/66/1 
f 55/68/1 54/67/1 14/50/1 
f 14/50/1 15/27/1 55/68/1 
f 57/48/1 56/46/1 58/45/1 
f 58/45/1 59/47/1 57/48/1 
f 9/69/4 41/43/4 47/49/4 
f 47/49/4 1/70/4 9/69/4 
f 47/49/4 36/71/4 1/70/4 
f 36/71/4 3/72/4 1/70/4 
f 47/49/4 27/73/4 36/71/4 
f 47/49/4 29/74/4 27/73/4 
f 47/49/4 43/75/4 29/74/4 
f 47/49/4 52/76/4 43/75/4 
f 47/49/4 49/77/4 52/76/4 
f 47/49/4 56/78/4 49/77/4 
f 47/49/4 58/79/4 56/78/4 
f 47/49/4 54/80/4 58/79/4 
f 47/49/4 14/81/4 54/80/4 
f 47/49/4 20/82/4 14/81/4 
f 58/79/4 54/80/4 60/83/4 
f 60/83/4 61/84/4 58/79/4 
f 49/77/4 56/78/4 62/85/4 
f 62/85/4 48/86/4 49/77/4 
f 29/74/4 43/75/4 45/87/4 
f 3/72/4 36/71/4 38/88/4 
f 58/16/2 61/63/2 63/64/2 
f 63/64/2 59/17/2 58/16/2 
f 62/90/3 56/89/3 57/91/3 
f 57/91/3 64/92/3 62/90/3 
f 2/94/6 4/93/6 37/95/6 
f 2/94/6 37/95/6 35/96/6 
f 2/94/6 35/96/6 23/97/6 
f 2/94/6 23/97/6 24/98/6 
f 24/98/6 10/99/6 2/94/6 
f 35/96/6 28/100/6 23/97/6 
f 28/100/6 42/101/6 23/97/6 
f 28/100/6 44/102/6 42/101/6 
f 28/100/6 30/103/6 44/102/6 
f 42/101/6 53/104/6 23/97/6 
f 53/104/6 51/105/6 23/97/6 
f 51/105/6 57/106/6 23/97/6 
f 64/107/6 57/106/6 51/105/6 
f 51/105/6 50/108/6 64/107/6 
f 57/106/6 59/109/6 23/97/6 
f 59/109/6 55/110/6 23/97/6 
f 65/111/6 55/110/6 59/109/6 
f 59/109/6 63/112/6 65/111/6 
f 55/110/6 15/113/6 23/97/6 
f 15/113/6 16/114/6 23/97/6 
f 25/116/1 23/115/1 16/27/1 
f 16/27/1 17/28/1 25/116/1 
f 60/90/3 54/89/3 55/91/3 
f 55/91/3 65/92/3 60/90/3 
f 39/118/6 26/117/6 25/119/6 
f 25/119/6 66/120/6 39/118/6 
f 25/119/6 17/114/6 66/120/6 
f 17/114/6 18/121/6 66/120/6 
f 43/67/3 52/89/3 53/91/3 
f 53/91/3 42/68/3 43/67/3 

usemtl glass

f 29/45/3 45/67/3 44/68/3 
f 44/68/3 30/47/3 29/45/3 
f 3/9/3 38/46/3 37/48/3 
f 37/48/3 4/11/3 3/9/3 
f 63/47/1 61/45/1 60/67/1 
f 60/67/1 65/68/1 63/47/1 
f 50/11/1 48/9/1 62/46/1 
f 62/46/1 64/48/1 50/11/1 

usemtl red

f 32/123/1 66/122/1 18/28/1 
f 18/28/1 19/124/1 32/123/1 
f 39/29/3 66/125/3 32/126/3 
f 32/126/3 31/127/3 39/29/3 
g pitsOfficeCorner




usemtl grey

f 2/2/1 1/1/1 3/3/1 
f 3/3/1 4/4/1 2/2/1 
f 6/6/2 5/5/2 7/7/2 
f 7/7/2 8/8/2 6/6/2 
f 9/10/3 1/9/3 2/11/3 
f 2/11/3 10/12/3 9/10/3 
f 12/14/2 11/13/2 13/15/2 
f 13/15/2 14/16/2 12/14/2 
f 13/15/2 15/17/2 14/16/2 
f 13/15/2 16/18/2 15/17/2 
f 13/15/2 17/19/2 16/18/2 
f 13/15/2 18/20/2 17/19/2 
f 13/15/2 19/21/2 18/20/2 
f 12/14/2 14/16/2 20/22/2 
f 21/24/4 5/23/4 6/25/4 
f 6/25/4 22/26/4 21/24/4 
f 24/12/3 23/27/3 25/28/3 
f 25/28/3 26/29/3 24/12/3 
f 28/2/1 27/1/1 29/3/1 
f 29/3/1 30/4/1 28/2/1 
f 7/23/4 13/30/4 31/31/4 
f 31/31/4 32/32/4 7/23/4 
f 32/32/4 8/25/4 7/23/4 
f 32/32/4 33/26/4 8/25/4 
f 13/30/4 7/23/4 34/24/4 
f 34/24/4 19/33/4 13/30/4 
f 34/24/4 33/26/4 19/33/4 
f 33/26/4 32/32/4 19/33/4 
f 36/35/5 35/34/5 37/36/5 
f 37/36/5 38/37/5 36/35/5 
f 26/39/5 39/38/5 31/40/5 
f 31/40/5 13/41/5 26/39/5 
f 13/41/5 10/34/5 26/39/5 
f 13/41/5 9/35/5 10/34/5 
f 13/41/5 11/42/5 9/35/5 
f 9/35/5 11/42/5 40/43/5 
f 40/43/5 41/10/5 9/35/5 
f 24/44/5 26/39/5 10/34/5 
f 43/35/5 42/34/5 44/36/5 
f 44/36/5 45/37/5 43/35/5 
f 36/46/3 27/45/3 28/47/3 
f 28/47/3 35/48/3 36/46/3 
f 40/43/3 46/49/3 47/50/3 
f 47/50/3 41/10/3 40/43/3 
f 6/52/5 8/51/5 33/53/5 
f 33/53/5 22/54/5 6/52/5 
f 21/56/3 22/55/3 33/57/3 
f 33/57/3 34/58/3 21/56/3 
f 7/60/1 5/59/1 21/61/1 
f 21/61/1 34/62/1 7/60/1 
f 49/16/2 48/63/2 50/64/2 
f 50/64/2 51/17/2 49/16/2 
f 53/2/1 52/1/1 49/9/1 
f 49/9/1 51/11/1 53/2/1 
f 47/66/1 46/65/1 12/49/1 
f 12/49/1 20/50/1 47/66/1 
f 55/68/1 54/67/1 14/50/1 
f 14/50/1 15/27/1 55/68/1 
f 57/48/1 56/46/1 58/45/1 
f 58/45/1 59/47/1 57/48/1 
f 9/69/4 41/43/4 47/49/4 
f 47/49/4 1/70/4 9/69/4 
f 47/49/4 36/71/4 1/70/4 
f 36/71/4 3/72/4 1/70/4 
f 47/49/4 27/73/4 36/71/4 
f 47/49/4 29/74/4 27/73/4 
f 47/49/4 43/75/4 29/74/4 
f 47/49/4 52/76/4 43/75/4 
f 47/49/4 49/77/4 52/76/4 
f 47/49/4 56/78/4 49/77/4 
f 47/49/4 58/79/4 56/78/4 
f 47/49/4 54/80/4 58/79/4 
f 47/49/4 14/81/4 54/80/4 
f 47/49/4 20/82/4 14/81/4 
f 58/79/4 54/80/4 60/83/4 
f 60/83/4 61/84/4 58/79/4 
f 49/77/4 56/78/4 62/85/4 
f 62/85/4 48/86/4 49/77/4 
f 29/74/4 43/75/4 45/87/4 
f 3/72/4 36/71/4 38/88/4 
f 58/16/2 61/63/2 63/64/2 
f 63/64/2 59/17/2 58/16/2 
f 62/90/3 56/89/3 57/91/3 
f 57/91/3 64/92/3 62/90/3 
f 2/94/6 4/93/6 37/95/6 
f 2/94/6 37/95/6 35/96/6 
f 2/94/6 35/96/6 23/97/6 
f 2/94/6 23/97/6 24/98/6 
f 24/98/6 10/99/6 2/94/6 
f 35/96/6 28/100/6 23/97/6 
f 28/100/6 42/101/6 23/97/6 
f 28/100/6 44/102/6 42/101/6 
f 28/100/6 30/103/6 44/102/6 
f 42/101/6 53/104/6 23/97/6 
f 53/104/6 51/105/6 23/97/6 
f 51/105/6 57/106/6 23/97/6 
f 64/107/6 57/106/6 51/105/6 
f 51/105/6 50/108/6 64/107/6 
f 57/106/6 59/109/6 23/97/6 
f 59/109/6 55/110/6 23/97/6 
f 65/111/6 55/110/6 59/109/6 
f 59/109/6 63/112/6 65/111/6 
f 55/110/6 15/113/6 23/97/6 
f 15/113/6 16/114/6 23/97/6 
f 25/116/1 23/115/1 16/27/1 
f 16/27/1 17/28/1 25/116/1 
f 60/90/3 54/89/3 55/91/3 
f 55/91/3 65/92/3 60/90/3 
f 39/118/6 26/117/6 25/119/6 
f 25/119/6 66/120/6 39/118/6 
f 25/119/6 17/114/6 66/120/6 
f 17/114/6 18/121/6 66/120/6 
f 43/67/3 52/89/3 53/91/3 
f 53/91/3 42/68/3 43/67/3 

usemtl glass

f 29/45/3 45/67/3 44/68/3 
f 44/68/3 30/47/3 29/45/3 
f 3/9/3 38/46/3 37/48/3 
f 37/48/3 4/11/3 3/9/3 
f 63/47/1 61/45/1 60/67/1 
f 60/67/1 65/68/1 63/47/1 
f 50/11/1 48/9/1 62/46/1 
f 62/46/1 64/48/1 50/11/1 

usemtl red

f 32/123/1 66/122/1 18/28/1 
f 18/28/1 19/124/1 32/123/1 
f 39/29/3 66/125/3 32/126/3 
f 32/126/3 31/127/3 39/29/3 
