# Created by Kenney (www.kenney.nl) 

mtllib pylon.mtl 

g pylon

v 0.01679999 0.132 0 
v 0.04800001 0.012 0 
v 0.01622754 0.132 0.004348159 
v 0.04636443 0.012 0.01242334 
v -0.06 0 -0.06 
v 0.06 0 -0.06 
v -0.06 0.012 -0.06 
v 0.06 0.012 -0.06 
v 0.01454923 0.132 0.008400023 
v 0.0415692 0.012 0.02399999 
v 0.01187938 0.132 0.01187938 
v 0.03394112 0.012 0.03394115 
v 0 0.012 0.04799998 
v -0.01242331 0.012 0.04636443 
v 0 0.132 0.01679999 
v -0.004348159 0.132 0.01622754 
v -0.01242331 0.012 -0.04636443 
v 0 0.012 -0.04799998 
v -0.004348159 0.132 -0.01622754 
v 0 0.132 -0.01679999 
v 0.06 0.012 0.06 
v 0.04636443 0.012 -0.01242334 
v 0.0415692 0.012 -0.02399999 
v 0.03394112 0.012 -0.03394115 
v 0.02399999 0.012 -0.04156923 
v 0.01242331 0.012 -0.04636443 
v -0.02399999 0.012 -0.04156923 
v -0.03394112 0.012 -0.03394115 
v -0.0415692 0.012 -0.02399999 
v -0.04636443 0.012 -0.01242334 
v -0.04800001 0.012 0 
v -0.06 0.012 0.06 
v -0.04636443 0.012 0.01242334 
v -0.0415692 0.012 0.02399999 
v -0.03394112 0.012 0.03394115 
v -0.02399999 0.012 0.04156923 
v 0.01242331 0.012 0.04636443 
v 0.02399999 0.012 0.04156923 
v 0.008399993 0.132 0.01454926 
v -0.008399993 0.132 0.01454926 
v -0.008399993 0.132 -0.01454926 
v 0.004348159 0.132 0.01622754 
v 0.01622754 0.132 -0.004348159 
v 0.01454923 0.132 -0.008400023 
v 0.01187938 0.132 -0.01187938 
v 0.008399993 0.132 -0.01454926 
v 0.004348159 0.132 -0.01622754 
v -0.01187938 0.132 -0.01187938 
v -0.01187938 0.132 0.01187938 
v -0.01454923 0.132 0.008400023 
v -0.01454923 0.132 -0.008400023 
v -0.01622754 0.132 -0.004348159 
v -0.01622754 0.132 0.004348159 
v -0.01679999 0.132 0 
v 0.06 0 0.06 
v -0.06 0 0.06 

vn 0.9678225 0.2516339 0 
vn 0.9348448 0.2516339 0.2504909 
vn 0 0 -1 
vn 0.8381588 0.2516338 0.4839112 
vn 0.6843538 0.2516339 0.6843538 
vn 0 0.2516339 0.9678225 
vn -0.2504909 0.2516339 0.9348448 
vn -0.2504909 0.2516339 -0.9348448 
vn 0 0.2516339 -0.9678225 
vn 0 1 0 
vn 0.4839112 0.2516338 0.8381588 
vn -0.4839112 0.2516338 0.8381588 
vn -0.4839112 0.2516338 -0.8381588 
vn 0.2504909 0.2516339 0.9348448 
vn 0.8381588 0.2516338 -0.4839112 
vn 0.9348448 0.2516339 -0.2504909 
vn -0.9348448 0.2516339 -0.2504909 
vn -0.9678225 0.2516339 0 
vn -0.8381588 0.2516338 -0.4839112 
vn -0.9348448 0.2516339 0.2504909 
vn -0.8381588 0.2516338 0.4839112 
vn 0.2504909 0.2516339 -0.9348448 
vn 0.4839112 0.2516338 -0.8381588 
vn 0 -1 0 
vn -0.6843538 0.2516339 -0.6843538 
vn 0.6843538 0.2516339 -0.6843538 
vn -0.6843538 0.2516339 0.6843538 
vn -1 0 0 
vn 1 0 0 
vn 0 0 1 

vt 0.08633228 4.868656 
vt 0.2466637 -0.01019344 
vt -0.08633228 4.868656 
vt -0.2466637 -0.01019344 
vt 2.362205 0 
vt -2.362205 0 
vt 2.362205 0.472441 
vt -2.362205 0.472441 
vt -2.362205 2.362205 
vt -1.825372 -0.4891069 
vt -2.362205 -2.362205 
vt -1.636583 -0.9448819 
vt -1.336265 -1.336265 
vt -0.9448819 -1.636583 
vt -0.4891069 -1.825372 
vt 2.362205 -2.362205 
vt -1.889764 0 
vt 7.105427E-15 -1.889764 
vt 0.4891069 -1.825372 
vt 0.9448819 -1.636583 
vt 1.336265 -1.336265 
vt 1.636583 -0.9448819 
vt 1.825372 -0.4891069 
vt 1.889764 0 
vt -1.825372 0.4891069 
vt 2.362205 2.362205 
vt 1.825372 0.4891069 
vt 1.636583 0.9448819 
vt 1.336265 1.336265 
vt 0.9448819 1.636583 
vt 0.4891069 1.825372 
vt 7.105427E-15 1.889764 
vt -0.4891069 1.825372 
vt -0.9448819 1.636583 
vt -1.336265 1.336265 
vt -1.636583 0.9448819 
vt -0.6614173 0 
vt -0.6388801 0.1711874 
vt -0.6388801 -0.1711874 
vt -0.5728042 -0.3307087 
vt -0.5728042 0.3307087 
vt -0.4676927 -0.4676927 
vt -0.4676927 0.4676927 
vt -0.3307087 -0.5728042 
vt -0.3307087 0.5728042 
vt -0.1711874 -0.6388801 
vt -0.1711874 0.6388801 
vt 7.105427E-15 -0.6614173 
vt 7.105427E-15 0.6614173 
vt 0.1711874 -0.6388801 
vt 0.1711874 0.6388801 
vt 0.3307087 -0.5728042 
vt 0.3307087 0.5728042 
vt 0.4676927 -0.4676927 
vt 0.4676927 0.4676927 
vt 0.5728042 0.3307087 
vt 0.5728042 -0.3307087 
vt 0.6388801 -0.1711874 
vt 0.6388801 0.1711874 
vt 0.6614173 0 

usemtl pylon

f 2/2/1 1/1/1 3/3/2 
f 3/3/2 4/4/2 2/2/1 
f 6/6/3 5/5/3 7/7/3 
f 7/7/3 8/8/3 6/6/3 
f 10/2/4 9/1/4 11/3/5 
f 11/3/5 12/4/5 10/2/4 
f 14/4/7 13/2/6 15/1/6 
f 15/1/6 16/3/7 14/4/7 
f 18/4/9 17/2/8 19/1/8 
f 19/1/8 20/3/9 18/4/9 
f 22/10/10 21/9/10 8/11/10 
f 8/11/10 23/12/10 22/10/10 
f 8/11/10 24/13/10 23/12/10 
f 8/11/10 25/14/10 24/13/10 
f 8/11/10 26/15/10 25/14/10 
f 8/11/10 7/16/10 26/15/10 
f 22/10/10 2/17/10 21/9/10 
f 7/16/10 18/18/10 26/15/10 
f 7/16/10 17/19/10 18/18/10 
f 7/16/10 27/20/10 17/19/10 
f 7/16/10 28/21/10 27/20/10 
f 7/16/10 29/22/10 28/21/10 
f 7/16/10 30/23/10 29/22/10 
f 7/16/10 31/24/10 30/23/10 
f 21/9/10 2/17/10 4/25/10 
f 31/24/10 7/16/10 32/26/10 
f 33/27/10 31/24/10 32/26/10 
f 34/28/10 33/27/10 32/26/10 
f 35/29/10 34/28/10 32/26/10 
f 36/30/10 35/29/10 32/26/10 
f 14/31/10 36/30/10 32/26/10 
f 13/32/10 14/31/10 32/26/10 
f 37/33/10 13/32/10 32/26/10 
f 37/33/10 32/26/10 21/9/10 
f 21/9/10 38/34/10 37/33/10 
f 21/9/10 12/35/10 38/34/10 
f 21/9/10 10/36/10 12/35/10 
f 21/9/10 4/25/10 10/36/10 
f 38/4/11 12/2/5 11/1/5 
f 11/1/5 39/3/11 38/4/11 
f 36/4/12 14/2/7 16/1/7 
f 16/1/7 40/3/12 36/4/12 
f 17/4/8 27/2/13 41/1/13 
f 41/1/13 19/3/8 17/4/8 
f 13/4/6 37/2/14 42/1/14 
f 42/1/14 15/3/6 13/4/6 
f 37/4/14 38/2/11 39/1/11 
f 39/1/11 42/3/14 37/4/14 
f 3/38/10 1/37/10 43/39/10 
f 43/39/10 44/40/10 3/38/10 
f 44/40/10 9/41/10 3/38/10 
f 44/40/10 45/42/10 9/41/10 
f 45/42/10 11/43/10 9/41/10 
f 45/42/10 46/44/10 11/43/10 
f 46/44/10 39/45/10 11/43/10 
f 46/44/10 47/46/10 39/45/10 
f 47/46/10 42/47/10 39/45/10 
f 47/46/10 20/48/10 42/47/10 
f 20/48/10 15/49/10 42/47/10 
f 20/48/10 19/50/10 15/49/10 
f 19/50/10 16/51/10 15/49/10 
f 19/50/10 41/52/10 16/51/10 
f 41/52/10 40/53/10 16/51/10 
f 41/52/10 48/54/10 40/53/10 
f 48/54/10 49/55/10 40/53/10 
f 48/54/10 50/56/10 49/55/10 
f 48/54/10 51/57/10 50/56/10 
f 51/57/10 52/58/10 50/56/10 
f 52/58/10 53/59/10 50/56/10 
f 52/58/10 54/60/10 53/59/10 
f 22/4/16 23/2/15 44/1/15 
f 44/1/15 43/3/16 22/4/16 
f 52/3/17 30/4/17 31/2/18 
f 31/2/18 54/1/18 52/3/17 
f 51/3/19 29/4/19 30/2/17 
f 30/2/17 52/1/17 51/3/19 
f 50/1/21 53/3/20 33/4/20 
f 33/4/20 34/2/21 50/1/21 
f 25/4/23 26/2/22 47/1/22 
f 47/1/22 46/3/23 25/4/23 
f 54/3/18 31/4/18 33/2/20 
f 33/2/20 53/1/20 54/3/18 
f 6/16/24 55/26/24 56/9/24 
f 56/9/24 5/11/24 6/16/24 
f 27/4/13 28/2/25 48/1/25 
f 48/1/25 41/3/13 27/4/13 
f 24/4/26 25/2/23 46/1/23 
f 46/1/23 45/3/26 24/4/26 
f 4/2/2 3/1/2 9/3/4 
f 9/3/4 10/4/4 4/2/2 
f 2/4/1 22/2/16 43/1/16 
f 43/1/16 1/3/1 2/4/1 
f 48/3/25 28/4/25 29/2/19 
f 29/2/19 51/1/19 48/3/25 
f 35/4/27 36/2/12 40/1/12 
f 40/1/12 49/3/27 35/4/27 
f 7/8/28 5/6/28 56/5/28 
f 56/5/28 32/7/28 7/8/28 
f 6/5/29 8/7/29 21/8/29 
f 21/8/29 55/6/29 6/5/29 
f 26/4/22 18/2/9 20/1/9 
f 20/1/9 47/3/22 26/4/22 
f 56/6/30 55/5/30 21/7/30 
f 21/7/30 32/8/30 56/6/30 
f 49/1/27 50/3/21 34/4/21 
f 34/4/21 35/2/27 49/1/27 
f 23/4/15 24/2/26 45/1/26 
f 45/1/26 44/3/15 23/4/15 
g pylon




usemtl pylon

f 2/2/1 1/1/1 3/3/2 
f 3/3/2 4/4/2 2/2/1 
f 6/6/3 5/5/3 7/7/3 
f 7/7/3 8/8/3 6/6/3 
f 10/2/4 9/1/4 11/3/5 
f 11/3/5 12/4/5 10/2/4 
f 14/4/7 13/2/6 15/1/6 
f 15/1/6 16/3/7 14/4/7 
f 18/4/9 17/2/8 19/1/8 
f 19/1/8 20/3/9 18/4/9 
f 22/10/10 21/9/10 8/11/10 
f 8/11/10 23/12/10 22/10/10 
f 8/11/10 24/13/10 23/12/10 
f 8/11/10 25/14/10 24/13/10 
f 8/11/10 26/15/10 25/14/10 
f 8/11/10 7/16/10 26/15/10 
f 22/10/10 2/17/10 21/9/10 
f 7/16/10 18/18/10 26/15/10 
f 7/16/10 17/19/10 18/18/10 
f 7/16/10 27/20/10 17/19/10 
f 7/16/10 28/21/10 27/20/10 
f 7/16/10 29/22/10 28/21/10 
f 7/16/10 30/23/10 29/22/10 
f 7/16/10 31/24/10 30/23/10 
f 21/9/10 2/17/10 4/25/10 
f 31/24/10 7/16/10 32/26/10 
f 33/27/10 31/24/10 32/26/10 
f 34/28/10 33/27/10 32/26/10 
f 35/29/10 34/28/10 32/26/10 
f 36/30/10 35/29/10 32/26/10 
f 14/31/10 36/30/10 32/26/10 
f 13/32/10 14/31/10 32/26/10 
f 37/33/10 13/32/10 32/26/10 
f 37/33/10 32/26/10 21/9/10 
f 21/9/10 38/34/10 37/33/10 
f 21/9/10 12/35/10 38/34/10 
f 21/9/10 10/36/10 12/35/10 
f 21/9/10 4/25/10 10/36/10 
f 38/4/11 12/2/5 11/1/5 
f 11/1/5 39/3/11 38/4/11 
f 36/4/12 14/2/7 16/1/7 
f 16/1/7 40/3/12 36/4/12 
f 17/4/8 27/2/13 41/1/13 
f 41/1/13 19/3/8 17/4/8 
f 13/4/6 37/2/14 42/1/14 
f 42/1/14 15/3/6 13/4/6 
f 37/4/14 38/2/11 39/1/11 
f 39/1/11 42/3/14 37/4/14 
f 3/38/10 1/37/10 43/39/10 
f 43/39/10 44/40/10 3/38/10 
f 44/40/10 9/41/10 3/38/10 
f 44/40/10 45/42/10 9/41/10 
f 45/42/10 11/43/10 9/41/10 
f 45/42/10 46/44/10 11/43/10 
f 46/44/10 39/45/10 11/43/10 
f 46/44/10 47/46/10 39/45/10 
f 47/46/10 42/47/10 39/45/10 
f 47/46/10 20/48/10 42/47/10 
f 20/48/10 15/49/10 42/47/10 
f 20/48/10 19/50/10 15/49/10 
f 19/50/10 16/51/10 15/49/10 
f 19/50/10 41/52/10 16/51/10 
f 41/52/10 40/53/10 16/51/10 
f 41/52/10 48/54/10 40/53/10 
f 48/54/10 49/55/10 40/53/10 
f 48/54/10 50/56/10 49/55/10 
f 48/54/10 51/57/10 50/56/10 
f 51/57/10 52/58/10 50/56/10 
f 52/58/10 53/59/10 50/56/10 
f 52/58/10 54/60/10 53/59/10 
f 22/4/16 23/2/15 44/1/15 
f 44/1/15 43/3/16 22/4/16 
f 52/3/17 30/4/17 31/2/18 
f 31/2/18 54/1/18 52/3/17 
f 51/3/19 29/4/19 30/2/17 
f 30/2/17 52/1/17 51/3/19 
f 50/1/21 53/3/20 33/4/20 
f 33/4/20 34/2/21 50/1/21 
f 25/4/23 26/2/22 47/1/22 
f 47/1/22 46/3/23 25/4/23 
f 54/3/18 31/4/18 33/2/20 
f 33/2/20 53/1/20 54/3/18 
f 6/16/24 55/26/24 56/9/24 
f 56/9/24 5/11/24 6/16/24 
f 27/4/13 28/2/25 48/1/25 
f 48/1/25 41/3/13 27/4/13 
f 24/4/26 25/2/23 46/1/23 
f 46/1/23 45/3/26 24/4/26 
f 4/2/2 3/1/2 9/3/4 
f 9/3/4 10/4/4 4/2/2 
f 2/4/1 22/2/16 43/1/16 
f 43/1/16 1/3/1 2/4/1 
f 48/3/25 28/4/25 29/2/19 
f 29/2/19 51/1/19 48/3/25 
f 35/4/27 36/2/12 40/1/12 
f 40/1/12 49/3/27 35/4/27 
f 7/8/28 5/6/28 56/5/28 
f 56/5/28 32/7/28 7/8/28 
f 6/5/29 8/7/29 21/8/29 
f 21/8/29 55/6/29 6/5/29 
f 26/4/22 18/2/9 20/1/9 
f 20/1/9 47/3/22 26/4/22 
f 56/6/30 55/5/30 21/7/30 
f 21/7/30 32/8/30 56/6/30 
f 49/1/27 50/3/21 34/4/21 
f 34/4/21 35/2/27 49/1/27 
f 23/4/15 24/2/26 45/1/26 
f 45/1/26 44/3/15 23/4/15 
