# Created by Kenney (www.kenney.nl) 

mtllib roadBump.mtl 

g roadBump

v 0 0 0.5 
v 0 0 1.5 
v 0 0.08 0.75 
v 0 0.08 1.25 
v -1 0 0.5 
v -1 0.08 0.75 
v -1 0 1.5 
v -1 0.08 1.25 
v -0.9183474 0.08 0.75 
v -0.9183474 0.08 1.25 
v -0.08165261 0.08 0.75 
v -0.08165261 0.08 1.25 
v -0.9183474 0 0 
v -0.9183474 0 0.5 
v -1 0 0 
v 0 0 0 
v -0.08165261 0 0 
v -0.08165261 0 0.5 
v 0 0 2 
v -0.08165261 0 1.5 
v -0.08165261 0 2 
v -0.9183474 0 1.5 
v -0.9183474 0 2 
v -1 0 2 
v -0.8451352 0.1 0.75 
v -0.8451352 0.1 1.25 
v -0.9183474 0.1 0.75 
v -0.9183474 0.1 1.25 
v -0.8451352 0.09 0.75 
v -0.8451352 0.09 1.25 
v -0.8451352 0.01 0.5 
v -0.8451352 0.02 0.5 
v -0.8451352 0.01 0 
v -0.8451352 0.02 0 
v -0.8451352 0.02 1.5 
v -0.8451352 0.01 1.5 
v -0.8451352 0.02 2 
v -0.8451352 0.01 2 
v -0.9183474 0.02 0 
v -0.9183474 0.02 0.5 
v -0.9183474 0.02 1.5 
v -0.9183474 0.02 2 
v -0.1548649 0.01 0 
v -0.1548649 0.02 0 
v -0.1548649 0.01 0.5 
v -0.1548649 0.02 0.5 
v -0.1548649 0.09 0.75 
v -0.1548649 0.1 0.75 
v -0.1548649 0.09 1.25 
v -0.1548649 0.1 1.25 
v -0.1548649 0.01 1.5 
v -0.1548649 0.02 1.5 
v -0.1548649 0.01 2 
v -0.1548649 0.02 2 
v -0.08165261 0.02 0 
v -0.08165261 0.02 0.5 
v -0.08165261 0.02 1.5 
v -0.08165261 0.02 2 
v -0.08165261 0.1 1.25 
v -0.08165261 0.1 0.75 

vn 1 0 0 
vn -1 0 0 
vn 0 1 0 
vn 0 0.9524242 -0.3047757 
vn 0 0.9524242 0.3047757 

vt -19.68504 0 
vt -59.05512 0 
vt -29.52756 3.149606 
vt -49.2126 3.149606 
vt 19.68504 0 
vt 29.52756 3.149606 
vt 59.05512 0 
vt 49.2126 3.149606 
vt 36.15541 29.52756 
vt 36.15541 49.2126 
vt 39.37008 29.52756 
vt 39.37008 49.2126 
vt 0 29.52756 
vt 0 49.2126 
vt 3.21467 29.52756 
vt 3.21467 49.2126 
vt 36.15541 0 
vt 36.15541 19.68504 
vt 39.37008 0 
vt 39.37008 19.68504 
vt 0 0 
vt 0 19.68504 
vt 3.21467 0 
vt 3.21467 19.68504 
vt 0 59.05512 
vt 0 78.74016 
vt 3.21467 59.05512 
vt 3.21467 78.74016 
vt 36.15541 59.05512 
vt 36.15541 78.74016 
vt 39.37008 59.05512 
vt 39.37008 78.74016 
vt 36.15541 18.74851 
vt 36.15541 29.08268 
vt 39.37008 18.74851 
vt 39.37008 29.08268 
vt 0 18.74851 
vt 0 29.08268 
vt 3.21467 18.74851 
vt 3.21467 29.08268 
vt -36.15541 -45.91134 
vt -36.15541 -56.24552 
vt -39.37008 -45.91134 
vt -39.37008 -56.24552 
vt 0 -45.91134 
vt 0 -56.24552 
vt -3.21467 -45.91134 
vt -3.21467 -56.24552 
vt 33.27304 29.52756 
vt 33.27304 49.2126 
vt -29.52756 3.937008 
vt -29.52756 3.543307 
vt -49.2126 3.937008 
vt -49.2126 3.543307 
vt -19.68504 0.3937008 
vt -19.68504 0.7874016 
vt 0 0.3937008 
vt 0 0.7874016 
vt -59.05512 0.7874016 
vt -59.05512 0.3937008 
vt -78.74016 0.7874016 
vt -78.74016 0.3937008 
vt 19.68504 0.7874016 
vt 29.52756 3.937008 
vt 49.2126 3.937008 
vt 59.05512 0.7874016 
vt 78.74016 0 
vt 78.74016 0.7874016 
vt 33.27304 0 
vt 33.27304 19.68504 
vt 19.68504 0.3937008 
vt 29.52756 3.543307 
vt 49.2126 3.543307 
vt 59.05512 0.3937008 
vt 78.74016 0.3937008 
vt 6.097044 0 
vt 6.097044 19.68504 
vt -78.74016 0 
vt 6.097044 59.05512 
vt 6.097044 78.74016 
vt 33.27304 59.05512 
vt 33.27304 78.74016 
vt 6.097044 29.52756 
vt 6.097044 49.2126 
vt 33.27304 18.98849 
vt 33.27304 29.32266 
vt 36.15541 18.98849 
vt 36.15541 29.32266 
vt 3.21467 18.98849 
vt 3.21467 29.32266 
vt 6.097044 18.98849 
vt 6.097044 29.32266 
vt -33.27304 -45.67136 
vt -33.27304 -56.00554 
vt -36.15541 -45.67136 
vt -36.15541 -56.00554 
vt -3.21467 -45.67136 
vt -3.21467 -56.00554 
vt -6.097044 -45.67136 
vt -6.097044 -56.00554 
vt 6.097044 18.8685 
vt 6.097044 29.20267 
vt 33.27304 18.8685 
vt 33.27304 29.20267 
vt -6.097044 -45.79135 
vt -6.097044 -56.12553 
vt -33.27304 -45.79135 
vt -33.27304 -56.12553 

usemtl grass

f 2/2/1 1/1/1 3/3/1 
f 3/3/1 4/4/1 2/2/1 
f 6/6/2 5/5/2 7/7/2 
f 7/7/2 8/8/2 6/6/2 
f 10/10/3 9/9/3 6/11/3 
f 6/11/3 8/12/3 10/10/3 
f 4/14/3 3/13/3 11/15/3 
f 11/15/3 12/16/3 4/14/3 
f 14/18/3 13/17/3 15/19/3 
f 15/19/3 5/20/3 14/18/3 
f 1/22/3 16/21/3 17/23/3 
f 17/23/3 18/24/3 1/22/3 
f 19/26/3 2/25/3 20/27/3 
f 20/27/3 21/28/3 19/26/3 
f 23/30/3 22/29/3 7/31/3 
f 7/31/3 24/32/3 23/30/3 
f 9/34/4 14/33/4 5/35/4 
f 5/35/4 6/36/4 9/34/4 
f 3/38/4 1/37/4 18/39/4 
f 18/39/4 11/40/4 3/38/4 
f 22/42/5 10/41/5 8/43/5 
f 8/43/5 7/44/5 22/42/5 
f 2/46/5 4/45/5 12/47/5 
f 12/47/5 20/48/5 2/46/5 

usemtl grey

f 26/50/3 25/49/3 27/9/3 
f 27/9/3 28/10/3 26/50/3 
f 29/52/1 25/51/1 26/53/1 
f 26/53/1 30/54/1 29/52/1 
f 25/51/1 29/52/1 31/55/1 
f 31/55/1 32/56/1 25/51/1 
f 32/56/1 31/55/1 33/57/1 
f 33/57/1 34/58/1 32/56/1 
f 30/54/1 26/53/1 35/59/1 
f 35/59/1 36/60/1 30/54/1 
f 36/60/1 35/59/1 37/61/1 
f 37/61/1 38/62/1 36/60/1 
f 39/58/2 13/21/2 14/5/2 
f 14/5/2 40/63/2 39/58/2 
f 40/63/2 14/5/2 9/6/2 
f 9/6/2 27/64/2 40/63/2 
f 27/64/2 9/6/2 10/8/2 
f 10/8/2 28/65/2 27/64/2 
f 28/65/2 10/8/2 22/7/2 
f 22/7/2 41/66/2 28/65/2 
f 41/66/2 22/7/2 23/67/2 
f 23/67/2 42/68/2 41/66/2 
f 32/70/3 34/69/3 39/17/3 
f 39/17/3 40/18/3 32/70/3 
f 44/58/2 43/57/2 45/71/2 
f 45/71/2 46/63/2 44/58/2 
f 46/63/2 45/71/2 47/72/2 
f 47/72/2 48/64/2 46/63/2 
f 48/64/2 47/72/2 49/73/2 
f 49/73/2 50/65/2 48/64/2 
f 50/65/2 49/73/2 51/74/2 
f 51/74/2 52/66/2 50/65/2 
f 52/66/2 51/74/2 53/75/2 
f 53/75/2 54/68/2 52/66/2 
f 56/24/3 55/23/3 44/76/3 
f 44/76/3 46/77/3 56/24/3 
f 20/2/1 57/59/1 58/61/1 
f 58/61/1 21/78/1 20/2/1 
f 57/59/1 20/2/1 12/4/1 
f 12/4/1 59/53/1 57/59/1 
f 59/53/1 12/4/1 11/3/1 
f 11/3/1 60/51/1 59/53/1 
f 60/51/1 11/3/1 18/1/1 
f 18/1/1 56/56/1 60/51/1 
f 56/56/1 18/1/1 17/21/1 
f 17/21/1 55/58/1 56/56/1 
f 58/28/3 57/27/3 52/79/3 
f 52/79/3 54/80/3 58/28/3 
f 37/82/3 35/81/3 41/29/3 
f 41/29/3 42/30/3 37/82/3 
f 59/16/3 60/15/3 48/83/3 
f 48/83/3 50/84/3 59/16/3 
f 25/86/4 32/85/4 40/87/4 
f 40/87/4 27/88/4 25/86/4 
f 60/90/4 56/89/4 46/91/4 
f 46/91/4 48/92/4 60/90/4 
f 35/94/5 26/93/5 28/95/5 
f 28/95/5 41/96/5 35/94/5 
f 57/98/5 59/97/5 50/99/5 
f 50/99/5 52/100/5 57/98/5 

usemtl road

f 45/77/3 43/76/3 33/69/3 
f 33/69/3 31/70/3 45/77/3 
f 53/80/3 51/79/3 36/81/3 
f 36/81/3 38/82/3 53/80/3 
f 49/84/3 47/83/3 29/49/3 
f 29/49/3 30/50/3 49/84/3 
f 47/102/4 45/101/4 31/103/4 
f 31/103/4 29/104/4 47/102/4 
f 51/106/5 49/105/5 30/107/5 
f 30/107/5 36/108/5 51/106/5 
g roadBump




usemtl grass

f 2/2/1 1/1/1 3/3/1 
f 3/3/1 4/4/1 2/2/1 
f 6/6/2 5/5/2 7/7/2 
f 7/7/2 8/8/2 6/6/2 
f 10/10/3 9/9/3 6/11/3 
f 6/11/3 8/12/3 10/10/3 
f 4/14/3 3/13/3 11/15/3 
f 11/15/3 12/16/3 4/14/3 
f 14/18/3 13/17/3 15/19/3 
f 15/19/3 5/20/3 14/18/3 
f 1/22/3 16/21/3 17/23/3 
f 17/23/3 18/24/3 1/22/3 
f 19/26/3 2/25/3 20/27/3 
f 20/27/3 21/28/3 19/26/3 
f 23/30/3 22/29/3 7/31/3 
f 7/31/3 24/32/3 23/30/3 
f 9/34/4 14/33/4 5/35/4 
f 5/35/4 6/36/4 9/34/4 
f 3/38/4 1/37/4 18/39/4 
f 18/39/4 11/40/4 3/38/4 
f 22/42/5 10/41/5 8/43/5 
f 8/43/5 7/44/5 22/42/5 
f 2/46/5 4/45/5 12/47/5 
f 12/47/5 20/48/5 2/46/5 

usemtl grey

f 26/50/3 25/49/3 27/9/3 
f 27/9/3 28/10/3 26/50/3 
f 29/52/1 25/51/1 26/53/1 
f 26/53/1 30/54/1 29/52/1 
f 25/51/1 29/52/1 31/55/1 
f 31/55/1 32/56/1 25/51/1 
f 32/56/1 31/55/1 33/57/1 
f 33/57/1 34/58/1 32/56/1 
f 30/54/1 26/53/1 35/59/1 
f 35/59/1 36/60/1 30/54/1 
f 36/60/1 35/59/1 37/61/1 
f 37/61/1 38/62/1 36/60/1 
f 39/58/2 13/21/2 14/5/2 
f 14/5/2 40/63/2 39/58/2 
f 40/63/2 14/5/2 9/6/2 
f 9/6/2 27/64/2 40/63/2 
f 27/64/2 9/6/2 10/8/2 
f 10/8/2 28/65/2 27/64/2 
f 28/65/2 10/8/2 22/7/2 
f 22/7/2 41/66/2 28/65/2 
f 41/66/2 22/7/2 23/67/2 
f 23/67/2 42/68/2 41/66/2 
f 32/70/3 34/69/3 39/17/3 
f 39/17/3 40/18/3 32/70/3 
f 44/58/2 43/57/2 45/71/2 
f 45/71/2 46/63/2 44/58/2 
f 46/63/2 45/71/2 47/72/2 
f 47/72/2 48/64/2 46/63/2 
f 48/64/2 47/72/2 49/73/2 
f 49/73/2 50/65/2 48/64/2 
f 50/65/2 49/73/2 51/74/2 
f 51/74/2 52/66/2 50/65/2 
f 52/66/2 51/74/2 53/75/2 
f 53/75/2 54/68/2 52/66/2 
f 56/24/3 55/23/3 44/76/3 
f 44/76/3 46/77/3 56/24/3 
f 20/2/1 57/59/1 58/61/1 
f 58/61/1 21/78/1 20/2/1 
f 57/59/1 20/2/1 12/4/1 
f 12/4/1 59/53/1 57/59/1 
f 59/53/1 12/4/1 11/3/1 
f 11/3/1 60/51/1 59/53/1 
f 60/51/1 11/3/1 18/1/1 
f 18/1/1 56/56/1 60/51/1 
f 56/56/1 18/1/1 17/21/1 
f 17/21/1 55/58/1 56/56/1 
f 58/28/3 57/27/3 52/79/3 
f 52/79/3 54/80/3 58/28/3 
f 37/82/3 35/81/3 41/29/3 
f 41/29/3 42/30/3 37/82/3 
f 59/16/3 60/15/3 48/83/3 
f 48/83/3 50/84/3 59/16/3 
f 25/86/4 32/85/4 40/87/4 
f 40/87/4 27/88/4 25/86/4 
f 60/90/4 56/89/4 46/91/4 
f 46/91/4 48/92/4 60/90/4 
f 35/94/5 26/93/5 28/95/5 
f 28/95/5 41/96/5 35/94/5 
f 57/98/5 59/97/5 50/99/5 
f 50/99/5 52/100/5 57/98/5 

usemtl road

f 45/77/3 43/76/3 33/69/3 
f 33/69/3 31/70/3 45/77/3 
f 53/80/3 51/79/3 36/81/3 
f 36/81/3 38/82/3 53/80/3 
f 49/84/3 47/83/3 29/49/3 
f 29/49/3 30/50/3 49/84/3 
f 47/102/4 45/101/4 31/103/4 
f 31/103/4 29/104/4 47/102/4 
f 51/106/5 49/105/5 30/107/5 
f 30/107/5 36/108/5 51/106/5 
