# Created by Kenney (www.kenney.nl) 

mtllib roadCornerLargerSandInner.mtl 

g roadCornerLargerSandInner

v -1 0 0 
v -1.01711 0 0.2610524 
v -1.53 0 0 
v -1.068148 0 0.5176381 
v -1.152241 0 0.7653669 
v -1.267949 0 1 
v -1.413293 0 1.217523 
v -1.585786 0 1.414214 
v -1.542576 0 0.1918735 
v -1.580089 0 0.380464 
v -1.641897 0 0.5625447 
v -1.782477 0 1.586707 
v -1.726943 0 0.735 
v -1.833771 0 0.8948792 
v -2 0 1.732051 
v -1.960553 0 1.039447 
v -2.105121 0 1.166229 
v -2.234633 0 1.847759 
v -2.265 0 1.273057 
v -2.482362 0 1.931852 
v -2.437455 0 1.358103 
v -2.619536 0 1.419911 
v -2.738948 0 1.98289 
v -2.808126 0 1.457424 
v -3 0 2 
v -3 0 1.47 

vn 0 1 0 

vt 39.37008 0 
vt 40.04371 10.27765 
vt 60.23622 0 
vt 42.05309 20.37945 
vt 45.36382 30.13255 
vt 49.91926 39.37008 
vt 55.64147 47.93397 
vt 62.43254 55.6777 
vt 60.73134 7.554075 
vt 62.20823 14.9789 
vt 64.64162 22.14743 
vt 70.17626 62.46877 
vt 67.98987 28.93701 
vt 72.19569 35.23147 
vt 78.74016 68.19098 
vt 77.18713 40.92311 
vt 82.87877 45.91454 
vt 87.97768 72.74642 
vt 89.17323 50.12037 
vt 97.73078 76.05715 
vt 95.96281 53.46862 
vt 103.1313 55.90201 
vt 107.8326 78.06653 
vt 110.5562 57.37889 
vt 118.1102 78.74016 
vt 118.1102 57.87402 

usemtl sand

f 2/2/1 1/1/1 3/3/1 
f 3/3/1 4/4/1 2/2/1 
f 3/3/1 5/5/1 4/4/1 
f 3/3/1 6/6/1 5/5/1 
f 3/3/1 7/7/1 6/6/1 
f 3/3/1 8/8/1 7/7/1 
f 3/3/1 9/9/1 8/8/1 
f 9/9/1 10/10/1 8/8/1 
f 10/10/1 11/11/1 8/8/1 
f 11/11/1 12/12/1 8/8/1 
f 11/11/1 13/13/1 12/12/1 
f 13/13/1 14/14/1 12/12/1 
f 14/14/1 15/15/1 12/12/1 
f 14/14/1 16/16/1 15/15/1 
f 16/16/1 17/17/1 15/15/1 
f 17/17/1 18/18/1 15/15/1 
f 17/17/1 19/19/1 18/18/1 
f 19/19/1 20/20/1 18/18/1 
f 19/19/1 21/21/1 20/20/1 
f 21/21/1 22/22/1 20/20/1 
f 22/22/1 23/23/1 20/20/1 
f 22/22/1 24/24/1 23/23/1 
f 24/24/1 25/25/1 23/23/1 
f 24/24/1 26/26/1 25/25/1 
g roadCornerLargerSandInner




usemtl sand

f 2/2/1 1/1/1 3/3/1 
f 3/3/1 4/4/1 2/2/1 
f 3/3/1 5/5/1 4/4/1 
f 3/3/1 6/6/1 5/5/1 
f 3/3/1 7/7/1 6/6/1 
f 3/3/1 8/8/1 7/7/1 
f 3/3/1 9/9/1 8/8/1 
f 9/9/1 10/10/1 8/8/1 
f 10/10/1 11/11/1 8/8/1 
f 11/11/1 12/12/1 8/8/1 
f 11/11/1 13/13/1 12/12/1 
f 13/13/1 14/14/1 12/12/1 
f 14/14/1 15/15/1 12/12/1 
f 14/14/1 16/16/1 15/15/1 
f 16/16/1 17/17/1 15/15/1 
f 17/17/1 18/18/1 15/15/1 
f 17/17/1 19/19/1 18/18/1 
f 19/19/1 20/20/1 18/18/1 
f 19/19/1 21/21/1 20/20/1 
f 21/21/1 22/22/1 20/20/1 
f 22/22/1 23/23/1 20/20/1 
f 22/22/1 24/24/1 23/23/1 
f 24/24/1 25/25/1 23/23/1 
f 24/24/1 26/26/1 25/25/1 
