# Created by Kenney (www.kenney.nl) 

mtllib roadSplitLarge.mtl 

g roadSplitLarge

v -1.701099 0.01 1.115514 
v -1.84926 0.01 1.144985 
v -1.701099 0.02 1.115514 
v -1.84926 0.02 1.144985 
v -0.8550152 0.02 0.1507401 
v -0.8550152 0.01 0.1507401 
v -0.8844862 0.02 0.298901 
v -0.8844862 0.01 0.298901 
v -1.000683 0 0.4139305 
v -1.000683 0.02 0.4139305 
v -1.063261 0 0.5408262 
v -1.063261 0.02 0.5408262 
v -1.083784 0.02 0.7030371 
v -1.083784 0.01 0.7030371 
v -1.183387 0.02 0.8166128 
v -1.183387 0.01 0.8166128 
v -0.933044 0.02 0.4419477 
v -0.933044 0.01 0.4419477 
v -0.9998577 0.02 0.5774325 
v -0.9998577 0.01 0.5774325 
v -1.141867 0 0.6584684 
v -1.141867 0.02 0.6584684 
v -1.235156 0 0.7648438 
v -1.235156 0.02 0.7648438 
v -0.9183474 0.02 0.3986529 
v -0.9183474 0.01 0.3986529 
v -1.459174 0 0.9367386 
v -1.341532 0 0.8581327 
v -1.459174 0.02 0.9367386 
v -1.341532 0.02 0.8581327 
v -1.26588 0 1.772322 
v -1.503495 0 1.852981 
v -1.26588 0.02 1.772322 
v -1.503495 0.02 1.852981 
v -1.040826 0 1.661337 
v -1.040826 0.02 1.661337 
v -0.9183474 0 1.5795 
v -1 0 1.634058 
v -0.9183474 0.02 1.5795 
v -2 0.01 1.154865 
v -2 0.02 1.154865 
v -0.8451352 0.02 0 
v -0.9183474 0.02 0 
v -0.9276011 0.02 0.141184 
v -0.9552038 0.02 0.2799523 
v -1.296963 0.02 0.916216 
v -1.422567 0.02 1.000142 
v -1.558052 0.02 1.066956 
v -1.586069 0.02 0.9993167 
v -1.720048 0.02 1.044796 
v -1.858816 0.02 1.072399 
v -2 0.02 1.081653 
v -1.296963 0.01 0.916216 
v -1.422567 0.01 1.000142 
v -0.9552038 0 0.2799523 
v -1 0 0.4119177 
v -0.9183474 0 0 
v -0.9276011 0 0.141184 
v -1.720048 0 1.044796 
v -1.586069 0 0.9993167 
v -0.8451352 0.01 0 
v -1.858816 0 1.072399 
v -2 0 1.081653 
v -1.558052 0.01 1.066956 
v -2 0.01 1.845135 
v -1.759162 0.01 1.82935 
v -2 0.02 1.845135 
v -1.759162 0.02 1.82935 
v -1.522444 0.01 1.782264 
v -1.522444 0.02 1.782264 
v -1.077433 0.01 1.597934 
v -0.9183474 0.01 1.491636 
v -1.077433 0.02 1.597934 
v -0.8767529 0.01 1.463844 
v -0.9183474 0.02 1.491636 
v -0.8767529 0.02 1.463844 
v -1.749605 0 1.901936 
v -2 0 1.918347 
v -1.749605 0.02 1.901936 
v -2 0.02 1.918347 
v -1.293897 0.01 1.704682 
v -1.293897 0.02 1.704682 
v -0.8451352 0.02 1.436116 
v -0.8451352 0.01 1.436116 
v -0.8451352 0.02 2 
v -0.8451352 0.01 2 
v -0.08165261 0.02 0 
v -0.08165261 0 0 
v -0.08165261 0.02 2 
v -0.08165261 0 2 
v -0.1548649 0.02 0 
v -0.1548649 0.02 2 
v -0.1548649 0.01 0 
v -0.1548649 0.01 2 
v -0.9183474 0.02 2 
v -0.9183474 0 2 
v -1 0 0 
v -1.008555 0 0.1305262 
v -1.034074 0 0.258819 
v -1.07612 0 0.3826834 
v -1.133975 0 0.5 
v -1.206647 0 0.6087614 
v -1.292893 0 0.7071067 
v -1.391239 0 0.7933533 
v -1.5 0 0.8660254 
v -1.617317 0 0.9238795 
v -1.741181 0 0.9659258 
v -1.869474 0 0.9914449 
v -2 0 1 
v -1 0 1.732051 
v -1.234633 0 1.847759 
v -1.482362 0 1.931852 
v -1.738948 0 1.98289 
v -2 0 2 
v -1 0 2 
v 0 0 0 
v 0 0 2 

vn 0.258819 0 0.9659258 
vn 0.1305262 0 0.9914449 
vn 0.9914449 0 0.1305262 
vn 0.9659258 0 0.258819 
vn -0.9238795 0 -0.3826834 
vn -0.8660254 0 -0.5 
vn 0.7933533 0 0.6087614 
vn 0.7071068 0 0.7071068 
vn 0.9238795 0 0.3826834 
vn 0.8660254 0 0.5 
vn -0.7933533 0 -0.6087614 
vn -0.7071068 0 -0.7071068 
vn 0.9469302 0 0.3214395 
vn -0.5 0 -0.8660254 
vn -0.6087614 0 -0.7933533 
vn 0.3826834 0 0.9238795 
vn 0.5 0 0.8660254 
vn 0.5555702 0 0.8314696 
vn 0.06540313 0 0.9978589 
vn 0 1 0 
vn 0.6087614 0 0.7933533 
vn -0.9659258 0 -0.258819 
vn -0.9469302 0 -0.3214395 
vn -0.9978589 0 -0.06540313 
vn -0.9914449 0 -0.1305262 
vn -0.258819 0 -0.9659258 
vn -0.3826834 0 -0.9238795 
vn 0.9978589 0 0.06540313 
vn -0.1305262 0 -0.9914449 
vn -0.06540313 0 -0.9978589 
vn -0.5555702 0 -0.8314696 
vn 1 0 0 
vn -1 0 0 
vn -0.6593459 0 -0.7518399 

vt -74.25349 0.3937008 
vt -80.20088 0.3937008 
vt -74.25349 0.7874016 
vt -80.20088 0.7874016 
vt -12.38775 0.7874016 
vt -12.38775 0.3937008 
vt -18.33513 0.7874016 
vt -18.33513 0.3937008 
vt 32.04071 0 
vt 32.04071 0.7874016 
vt 37.61106 0 
vt 37.61106 0.7874016 
vt -48.9433 0.7874016 
vt -48.9433 0.3937008 
vt -54.89069 0.7874016 
vt -54.89069 0.3937008 
vt -31.85219 0.7874016 
vt -31.85219 0.3937008 
vt -37.79957 0.7874016 
vt -37.79957 0.3937008 
vt 49.13182 0 
vt 49.13182 0.7874016 
vt 54.70217 0 
vt 54.70217 0.7874016 
vt -22.3365 0.7874016 
vt -22.3365 0.3937008 
vt -26.48384 0.7874016 
vt -26.48384 0.3937008 
vt -28.28389 0.7874016 
vt -28.28389 0.3937008 
vt 68.25523 0 
vt 62.68487 0 
vt 68.25523 0.7874016 
vt 62.68487 0.7874016 
vt -69.62183 0 
vt -79.50103 0 
vt -69.62183 0.7874016 
vt -79.50103 0.7874016 
vt -65.6803 0 
vt -75.5595 0 
vt -65.6803 0.7874016 
vt -75.5595 0.7874016 
vt -40.772 0.7874016 
vt -40.772 0.3937008 
vt -46.71938 0.7874016 
vt -46.71938 0.3937008 
vt -64.61028 1.364965E-13 
vt -68.47652 1.364965E-13 
vt -64.61028 0.7874016 
vt -70.40965 0.7874016 
vt -70.40965 1.364965E-13 
vt -75.59788 0.3937008 
vt -81.54526 0.3937008 
vt -75.59788 0.7874016 
vt -81.54526 0.7874016 
vt 33.27304 -4.286712E-18 
vt 33.66201 5.93465 
vt 36.15541 -4.286712E-18 
vt 34.82229 11.76776 
vt 36.15541 15.695 
vt 36.51973 5.558425 
vt 36.73401 17.39952 
vt 37.60645 11.02174 
vt 39.36448 22.73356 
vt 39.39698 16.29648 
vt 42.66866 27.67863 
vt 41.86068 21.29237 
vt 44.95541 25.92395 
vt 46.59005 32.15011 
vt 48.62819 30.11197 
vt 51.06153 36.0715 
vt 52.8162 33.78475 
vt 56.0066 39.37568 
vt 57.44778 36.87947 
vt 61.34064 42.00615 
vt 62.44368 39.34318 
vt 66.9724 43.91787 
vt 67.71841 41.13371 
vt 72.8055 45.07814 
vt 73.18173 42.22043 
vt 78.74016 45.46712 
vt 78.74016 42.58475 
vt -56.22629 0.3937008 
vt -62.17368 0.3937008 
vt -56.22629 0.7874016 
vt -62.17368 0.7874016 
vt -62.49636 0.3937008 
vt -68.44374 0.3937008 
vt -62.49636 0.7874016 
vt -68.44374 0.7874016 
vt 61.98516 0 
vt 56.41481 0 
vt 61.98516 0.7874016 
vt 56.41481 0.7874016 
vt 22.52502 1.351561E-14 
vt 22.52502 0.7874016 
vt 28.01168 1.351561E-14 
vt 28.09537 0.7874016 
vt 28.09537 1.351561E-14 
vt 2.364677 0 
vt 2.364677 0.7874016 
vt 7.935029 0 
vt 7.935029 0.7874016 
vt 77.3466 0 
vt 71.77625 0 
vt 77.3466 0.7874016 
vt 71.77625 0.7874016 
vt -2.176161 0.7874016 
vt -2.176161 0.3937008 
vt -8.123545 0.7874016 
vt -8.123545 0.3937008 
vt 80.01236 0 
vt 74.44201 0 
vt 80.01236 0.7874016 
vt 74.44201 0.7874016 
vt 81.35674 0 
vt 75.78639 0 
vt 81.35674 0.7874016 
vt 75.78639 0.7874016 
vt -71.58774 0.3937008 
vt -77.53512 0.3937008 
vt -71.58774 0.7874016 
vt -77.53512 0.7874016 
vt -67.64621 0.3937008 
vt -73.59359 0.3937008 
vt -67.64621 0.7874016 
vt -73.59359 0.7874016 
vt 12.57627 0 
vt 12.57627 0.7874016 
vt 18.14662 0 
vt 18.14662 0.7874016 
vt 40.96051 0 
vt 40.96051 0.7874016 
vt 46.53086 0 
vt 46.53086 0.7874016 
vt 73.40508 0 
vt 67.83472 0 
vt 73.40508 0.7874016 
vt 67.83472 0.7874016 
vt 83.32265 0.3937008 
vt 73.82048 0.3937008 
vt 83.32265 0.7874016 
vt 73.82048 0.7874016 
vt 81.97827 0.3937008 
vt 72.4761 0.3937008 
vt 81.97827 0.7874016 
vt 72.4761 0.7874016 
vt 70.22114 0.3937008 
vt 62.68846 0.3937008 
vt 70.22114 0.7874016 
vt 60.71896 0.3937008 
vt 62.68846 0.7874016 
vt 60.71896 0.7874016 
vt -73.63197 0 
vt -83.51117 0 
vt -73.63197 0.7874016 
vt -83.51117 0.7874016 
vt 75.37099 0.3937008 
vt 65.86881 0.3937008 
vt 75.37099 0.7874016 
vt 65.86881 0.7874016 
vt 79.31252 0.3937008 
vt 69.81034 0.3937008 
vt 79.31252 0.7874016 
vt 69.81034 0.7874016 
vt -72.28758 0 
vt -82.16679 0 
vt -72.28758 0.7874016 
vt -82.16679 0.7874016 
vt -56.54 0.7874016 
vt -56.54 0.3937008 
vt -78.74016 0.7874016 
vt -78.74016 0.3937008 
vt 0 0.7874016 
vt 0 0 
vt -78.74016 6.310887E-30 
vt 3.21467 -3.883014E-17 
vt 3.21467 78.74016 
vt 6.097044 -3.883014E-17 
vt 6.097044 78.74016 
vt 4.373461E-15 0.3937008 
vt 4.373461E-15 0.7874016 
vt 78.74016 0.3937008 
vt 78.74016 0.7874016 
vt 36.15541 58.72585 
vt 36.15541 62.18503 
vt 42.4186 62.91078 
vt 40.97741 65.40699 
vt 49.83781 69.77645 
vt 50.94084 67.11349 
vt 59.19272 72.95202 
vt 59.93874 70.16786 
vt 68.8821 74.87936 
vt 69.25833 72.02164 
vt 78.74016 75.52549 
vt 78.74016 72.64311 
vt 36.15541 78.74016 
vt 34.51783 57.63166 
vt 33.27304 78.74016 
vt 33.27304 56.54 
vt 62.18503 -6.488835E-15 
vt 62.18503 0.7874016 
vt 78.74016 -6.488835E-15 
vt 62.29541 0.3937008 
vt 62.29541 0.7874016 
vt 63.95107 0.3937008 
vt 63.95107 0.7874016 
vt 36.15541 0 
vt 39.37008 0 
vt 39.37008 16.21723 
vt 39.70689 5.138826 
vt 40.71158 10.18973 
vt 42.36695 15.06628 
vt 44.64467 19.68504 
vt 47.50578 23.96699 
vt 50.90131 27.83885 
vt 54.77317 31.23438 
vt 59.05512 34.09549 
vt 63.67388 36.37321 
vt 68.55043 38.02858 
vt 73.60133 39.03326 
vt 78.74016 39.37008 
vt 39.37008 64.333 
vt 39.37008 68.19098 
vt 48.6076 72.74642 
vt 58.36071 76.05715 
vt 68.4625 78.06653 
vt 78.74016 78.74016 
vt 39.37008 78.74016 
vt 0 78.74016 
vt 3.21467 0 
vt 33.27304 -8.587203E-18 
vt 6.097044 -8.587203E-18 

usemtl grey

f 2/2/2 1/1/1 3/3/1 
f 3/3/1 4/4/2 2/2/2 
f 6/6/3 5/5/3 7/7/4 
f 7/7/4 8/8/4 6/6/3 
f 10/10/5 9/9/5 11/11/6 
f 11/11/6 12/12/6 10/10/5 
f 14/14/7 13/13/7 15/15/8 
f 15/15/8 16/16/8 14/14/7 
f 18/18/9 17/17/9 19/19/10 
f 19/19/10 20/20/10 18/18/9 
f 22/22/11 21/21/11 23/23/12 
f 23/23/12 24/24/12 22/22/11 
f 8/26/4 7/25/4 25/27/13 
f 25/27/13 26/28/13 8/26/4 
f 25/27/13 17/29/9 26/28/13 
f 17/29/9 18/30/9 26/28/13 
f 28/32/15 27/31/14 29/33/14 
f 29/33/14 30/34/15 28/32/15 
f 32/36/1 31/35/16 33/37/16 
f 33/37/16 34/38/1 32/36/1 
f 31/40/16 35/39/17 36/41/17 
f 36/41/17 33/42/16 31/40/16 
f 20/44/10 19/43/10 13/45/7 
f 13/45/7 14/46/7 20/44/10 
f 38/48/18 37/47/18 39/49/18 
f 38/48/18 39/49/18 36/50/17 
f 36/50/17 35/51/17 38/48/18 
f 40/53/19 2/52/2 4/54/2 
f 4/54/2 41/55/19 40/53/19 
f 5/57/20 42/56/20 43/58/20 
f 43/58/20 7/59/20 5/57/20 
f 43/58/20 25/60/20 7/59/20 
f 43/58/20 44/61/20 25/60/20 
f 44/61/20 17/62/20 25/60/20 
f 44/61/20 45/63/20 17/62/20 
f 45/63/20 19/64/20 17/62/20 
f 45/63/20 10/65/20 19/64/20 
f 10/65/20 13/66/20 19/64/20 
f 10/65/20 12/67/20 13/66/20 
f 12/67/20 22/68/20 13/66/20 
f 22/68/20 15/69/20 13/66/20 
f 22/68/20 24/70/20 15/69/20 
f 24/70/20 46/71/20 15/69/20 
f 24/70/20 30/72/20 46/71/20 
f 30/72/20 47/73/20 46/71/20 
f 30/72/20 29/74/20 47/73/20 
f 29/74/20 48/75/20 47/73/20 
f 29/74/20 49/76/20 48/75/20 
f 49/76/20 3/77/20 48/75/20 
f 49/76/20 50/78/20 3/77/20 
f 50/78/20 4/79/20 3/77/20 
f 50/78/20 51/80/20 4/79/20 
f 51/80/20 41/81/20 4/79/20 
f 51/80/20 52/82/20 41/81/20 
f 53/84/21 16/83/8 15/85/8 
f 15/85/8 46/86/21 53/84/21 
f 54/88/17 53/87/21 46/89/21 
f 46/89/21 47/90/17 54/88/17 
f 23/92/12 28/91/15 30/93/15 
f 30/93/15 24/94/12 23/92/12 
f 45/96/22 55/95/22 56/97/23 
f 56/97/23 10/98/5 45/96/22 
f 56/97/23 9/99/5 10/98/5 
f 43/101/24 57/100/24 58/102/25 
f 58/102/25 44/103/25 43/101/24 
f 60/105/27 59/104/26 50/106/26 
f 50/106/26 49/107/27 60/105/27 
f 61/109/28 42/108/28 5/110/3 
f 5/110/3 6/111/3 61/109/28 
f 59/113/26 62/112/29 51/114/29 
f 51/114/29 50/115/26 59/113/26 
f 62/117/29 63/116/30 52/118/30 
f 52/118/30 51/119/29 62/117/29 
f 1/121/1 64/120/16 48/122/16 
f 48/122/16 3/123/1 1/121/1 
f 64/125/16 54/124/17 47/126/17 
f 47/126/17 48/127/16 64/125/16 
f 44/129/25 58/128/25 55/130/22 
f 55/130/22 45/131/22 44/129/25 
f 12/133/6 11/132/6 21/134/11 
f 21/134/11 22/135/11 12/133/6 
f 27/137/14 60/136/27 49/138/27 
f 49/138/27 29/139/14 27/137/14 
f 66/141/29 65/140/30 67/142/30 
f 67/142/30 68/143/29 66/141/29 
f 69/145/26 66/144/29 68/146/29 
f 68/146/29 70/147/26 69/145/26 
f 72/149/31 71/148/14 73/150/14 
f 73/150/14 74/151/15 72/149/31 
f 73/150/14 75/152/31 74/151/15 
f 74/151/15 75/152/31 76/153/15 
f 78/155/19 77/154/2 79/156/2 
f 79/156/2 80/157/19 78/155/19 
f 71/159/14 81/158/27 82/160/27 
f 82/160/27 73/161/14 71/159/14 
f 81/163/27 69/162/26 70/164/26 
f 70/164/26 82/165/27 81/163/27 
f 77/167/2 32/166/1 34/168/1 
f 34/168/1 79/169/2 77/167/2 
f 84/171/32 83/170/32 85/172/32 
f 85/172/32 86/173/32 84/171/32 
f 88/175/32 87/174/32 89/172/32 
f 89/172/32 90/176/32 88/175/32 
f 89/178/20 87/177/20 91/179/20 
f 91/179/20 92/180/20 89/178/20 
f 91/182/33 93/181/33 94/183/33 
f 94/183/33 92/184/33 91/182/33 
f 39/186/20 75/185/20 73/187/20 
f 73/187/20 36/188/20 39/186/20 
f 73/187/20 33/189/20 36/188/20 
f 73/187/20 82/190/20 33/189/20 
f 82/190/20 34/191/20 33/189/20 
f 82/190/20 70/192/20 34/191/20 
f 70/192/20 79/193/20 34/191/20 
f 70/192/20 68/194/20 79/193/20 
f 68/194/20 80/195/20 79/193/20 
f 68/194/20 67/196/20 80/195/20 
f 75/185/20 39/186/20 95/197/20 
f 76/198/20 75/185/20 95/197/20 
f 76/198/20 95/197/20 85/199/20 
f 85/199/20 83/200/20 76/198/20 
f 39/202/33 37/201/33 96/203/33 
f 96/203/33 95/184/33 39/202/33 
f 83/205/34 84/204/34 74/206/15 
f 74/206/15 76/207/15 83/205/34 

usemtl grass

f 58/61/20 57/208/20 97/209/20 
f 97/209/20 55/63/20 58/61/20 
f 97/209/20 56/210/20 55/63/20 
f 97/209/20 98/211/20 56/210/20 
f 98/211/20 9/65/20 56/210/20 
f 98/211/20 11/67/20 9/65/20 
f 98/211/20 99/212/20 11/67/20 
f 99/212/20 100/213/20 11/67/20 
f 100/213/20 21/68/20 11/67/20 
f 100/213/20 101/214/20 21/68/20 
f 101/214/20 102/215/20 21/68/20 
f 102/215/20 23/70/20 21/68/20 
f 102/215/20 103/216/20 23/70/20 
f 103/216/20 28/72/20 23/70/20 
f 103/216/20 104/217/20 28/72/20 
f 104/217/20 27/74/20 28/72/20 
f 104/217/20 105/218/20 27/74/20 
f 105/218/20 60/76/20 27/74/20 
f 105/218/20 106/219/20 60/76/20 
f 106/219/20 59/78/20 60/76/20 
f 106/219/20 107/220/20 59/78/20 
f 107/220/20 62/80/20 59/78/20 
f 107/220/20 108/221/20 62/80/20 
f 108/221/20 63/82/20 62/80/20 
f 108/221/20 109/222/20 63/82/20 
f 96/197/20 37/186/20 38/223/20 
f 38/223/20 110/224/20 96/197/20 
f 38/223/20 111/225/20 110/224/20 
f 38/223/20 35/188/20 111/225/20 
f 35/188/20 31/189/20 111/225/20 
f 31/189/20 112/226/20 111/225/20 
f 31/189/20 32/191/20 112/226/20 
f 32/191/20 113/227/20 112/226/20 
f 32/191/20 77/193/20 113/227/20 
f 77/193/20 114/228/20 113/227/20 
f 77/193/20 78/195/20 114/228/20 
f 96/197/20 110/224/20 115/229/20 
f 117/230/20 116/175/20 88/231/20 
f 88/231/20 90/178/20 117/230/20 

usemtl road

f 84/200/20 61/232/20 6/57/20 
f 6/57/20 74/198/20 84/200/20 
f 6/57/20 8/59/20 74/198/20 
f 8/59/20 72/185/20 74/198/20 
f 8/59/20 26/60/20 72/185/20 
f 26/60/20 18/62/20 72/185/20 
f 18/62/20 71/187/20 72/185/20 
f 18/62/20 20/64/20 71/187/20 
f 20/64/20 14/66/20 71/187/20 
f 14/66/20 81/190/20 71/187/20 
f 14/66/20 16/69/20 81/190/20 
f 16/69/20 53/71/20 81/190/20 
f 53/71/20 69/192/20 81/190/20 
f 53/71/20 54/73/20 69/192/20 
f 54/73/20 64/75/20 69/192/20 
f 64/75/20 66/194/20 69/192/20 
f 64/75/20 1/77/20 66/194/20 
f 1/77/20 2/79/20 66/194/20 
f 2/79/20 65/196/20 66/194/20 
f 2/79/20 40/81/20 65/196/20 
f 94/180/20 93/233/20 61/232/20 
f 61/232/20 86/199/20 94/180/20 
f 61/232/20 84/200/20 86/199/20 
g roadSplitLarge




usemtl grey

f 2/2/2 1/1/1 3/3/1 
f 3/3/1 4/4/2 2/2/2 
f 6/6/3 5/5/3 7/7/4 
f 7/7/4 8/8/4 6/6/3 
f 10/10/5 9/9/5 11/11/6 
f 11/11/6 12/12/6 10/10/5 
f 14/14/7 13/13/7 15/15/8 
f 15/15/8 16/16/8 14/14/7 
f 18/18/9 17/17/9 19/19/10 
f 19/19/10 20/20/10 18/18/9 
f 22/22/11 21/21/11 23/23/12 
f 23/23/12 24/24/12 22/22/11 
f 8/26/4 7/25/4 25/27/13 
f 25/27/13 26/28/13 8/26/4 
f 25/27/13 17/29/9 26/28/13 
f 17/29/9 18/30/9 26/28/13 
f 28/32/15 27/31/14 29/33/14 
f 29/33/14 30/34/15 28/32/15 
f 32/36/1 31/35/16 33/37/16 
f 33/37/16 34/38/1 32/36/1 
f 31/40/16 35/39/17 36/41/17 
f 36/41/17 33/42/16 31/40/16 
f 20/44/10 19/43/10 13/45/7 
f 13/45/7 14/46/7 20/44/10 
f 38/48/18 37/47/18 39/49/18 
f 38/48/18 39/49/18 36/50/17 
f 36/50/17 35/51/17 38/48/18 
f 40/53/19 2/52/2 4/54/2 
f 4/54/2 41/55/19 40/53/19 
f 5/57/20 42/56/20 43/58/20 
f 43/58/20 7/59/20 5/57/20 
f 43/58/20 25/60/20 7/59/20 
f 43/58/20 44/61/20 25/60/20 
f 44/61/20 17/62/20 25/60/20 
f 44/61/20 45/63/20 17/62/20 
f 45/63/20 19/64/20 17/62/20 
f 45/63/20 10/65/20 19/64/20 
f 10/65/20 13/66/20 19/64/20 
f 10/65/20 12/67/20 13/66/20 
f 12/67/20 22/68/20 13/66/20 
f 22/68/20 15/69/20 13/66/20 
f 22/68/20 24/70/20 15/69/20 
f 24/70/20 46/71/20 15/69/20 
f 24/70/20 30/72/20 46/71/20 
f 30/72/20 47/73/20 46/71/20 
f 30/72/20 29/74/20 47/73/20 
f 29/74/20 48/75/20 47/73/20 
f 29/74/20 49/76/20 48/75/20 
f 49/76/20 3/77/20 48/75/20 
f 49/76/20 50/78/20 3/77/20 
f 50/78/20 4/79/20 3/77/20 
f 50/78/20 51/80/20 4/79/20 
f 51/80/20 41/81/20 4/79/20 
f 51/80/20 52/82/20 41/81/20 
f 53/84/21 16/83/8 15/85/8 
f 15/85/8 46/86/21 53/84/21 
f 54/88/17 53/87/21 46/89/21 
f 46/89/21 47/90/17 54/88/17 
f 23/92/12 28/91/15 30/93/15 
f 30/93/15 24/94/12 23/92/12 
f 45/96/22 55/95/22 56/97/23 
f 56/97/23 10/98/5 45/96/22 
f 56/97/23 9/99/5 10/98/5 
f 43/101/24 57/100/24 58/102/25 
f 58/102/25 44/103/25 43/101/24 
f 60/105/27 59/104/26 50/106/26 
f 50/106/26 49/107/27 60/105/27 
f 61/109/28 42/108/28 5/110/3 
f 5/110/3 6/111/3 61/109/28 
f 59/113/26 62/112/29 51/114/29 
f 51/114/29 50/115/26 59/113/26 
f 62/117/29 63/116/30 52/118/30 
f 52/118/30 51/119/29 62/117/29 
f 1/121/1 64/120/16 48/122/16 
f 48/122/16 3/123/1 1/121/1 
f 64/125/16 54/124/17 47/126/17 
f 47/126/17 48/127/16 64/125/16 
f 44/129/25 58/128/25 55/130/22 
f 55/130/22 45/131/22 44/129/25 
f 12/133/6 11/132/6 21/134/11 
f 21/134/11 22/135/11 12/133/6 
f 27/137/14 60/136/27 49/138/27 
f 49/138/27 29/139/14 27/137/14 
f 66/141/29 65/140/30 67/142/30 
f 67/142/30 68/143/29 66/141/29 
f 69/145/26 66/144/29 68/146/29 
f 68/146/29 70/147/26 69/145/26 
f 72/149/31 71/148/14 73/150/14 
f 73/150/14 74/151/15 72/149/31 
f 73/150/14 75/152/31 74/151/15 
f 74/151/15 75/152/31 76/153/15 
f 78/155/19 77/154/2 79/156/2 
f 79/156/2 80/157/19 78/155/19 
f 71/159/14 81/158/27 82/160/27 
f 82/160/27 73/161/14 71/159/14 
f 81/163/27 69/162/26 70/164/26 
f 70/164/26 82/165/27 81/163/27 
f 77/167/2 32/166/1 34/168/1 
f 34/168/1 79/169/2 77/167/2 
f 84/171/32 83/170/32 85/172/32 
f 85/172/32 86/173/32 84/171/32 
f 88/175/32 87/174/32 89/172/32 
f 89/172/32 90/176/32 88/175/32 
f 89/178/20 87/177/20 91/179/20 
f 91/179/20 92/180/20 89/178/20 
f 91/182/33 93/181/33 94/183/33 
f 94/183/33 92/184/33 91/182/33 
f 39/186/20 75/185/20 73/187/20 
f 73/187/20 36/188/20 39/186/20 
f 73/187/20 33/189/20 36/188/20 
f 73/187/20 82/190/20 33/189/20 
f 82/190/20 34/191/20 33/189/20 
f 82/190/20 70/192/20 34/191/20 
f 70/192/20 79/193/20 34/191/20 
f 70/192/20 68/194/20 79/193/20 
f 68/194/20 80/195/20 79/193/20 
f 68/194/20 67/196/20 80/195/20 
f 75/185/20 39/186/20 95/197/20 
f 76/198/20 75/185/20 95/197/20 
f 76/198/20 95/197/20 85/199/20 
f 85/199/20 83/200/20 76/198/20 
f 39/202/33 37/201/33 96/203/33 
f 96/203/33 95/184/33 39/202/33 
f 83/205/34 84/204/34 74/206/15 
f 74/206/15 76/207/15 83/205/34 

usemtl grass

f 58/61/20 57/208/20 97/209/20 
f 97/209/20 55/63/20 58/61/20 
f 97/209/20 56/210/20 55/63/20 
f 97/209/20 98/211/20 56/210/20 
f 98/211/20 9/65/20 56/210/20 
f 98/211/20 11/67/20 9/65/20 
f 98/211/20 99/212/20 11/67/20 
f 99/212/20 100/213/20 11/67/20 
f 100/213/20 21/68/20 11/67/20 
f 100/213/20 101/214/20 21/68/20 
f 101/214/20 102/215/20 21/68/20 
f 102/215/20 23/70/20 21/68/20 
f 102/215/20 103/216/20 23/70/20 
f 103/216/20 28/72/20 23/70/20 
f 103/216/20 104/217/20 28/72/20 
f 104/217/20 27/74/20 28/72/20 
f 104/217/20 105/218/20 27/74/20 
f 105/218/20 60/76/20 27/74/20 
f 105/218/20 106/219/20 60/76/20 
f 106/219/20 59/78/20 60/76/20 
f 106/219/20 107/220/20 59/78/20 
f 107/220/20 62/80/20 59/78/20 
f 107/220/20 108/221/20 62/80/20 
f 108/221/20 63/82/20 62/80/20 
f 108/221/20 109/222/20 63/82/20 
f 96/197/20 37/186/20 38/223/20 
f 38/223/20 110/224/20 96/197/20 
f 38/223/20 111/225/20 110/224/20 
f 38/223/20 35/188/20 111/225/20 
f 35/188/20 31/189/20 111/225/20 
f 31/189/20 112/226/20 111/225/20 
f 31/189/20 32/191/20 112/226/20 
f 32/191/20 113/227/20 112/226/20 
f 32/191/20 77/193/20 113/227/20 
f 77/193/20 114/228/20 113/227/20 
f 77/193/20 78/195/20 114/228/20 
f 96/197/20 110/224/20 115/229/20 
f 117/230/20 116/175/20 88/231/20 
f 88/231/20 90/178/20 117/230/20 

usemtl road

f 84/200/20 61/232/20 6/57/20 
f 6/57/20 74/198/20 84/200/20 
f 6/57/20 8/59/20 74/198/20 
f 8/59/20 72/185/20 74/198/20 
f 8/59/20 26/60/20 72/185/20 
f 26/60/20 18/62/20 72/185/20 
f 18/62/20 71/187/20 72/185/20 
f 18/62/20 20/64/20 71/187/20 
f 20/64/20 14/66/20 71/187/20 
f 14/66/20 81/190/20 71/187/20 
f 14/66/20 16/69/20 81/190/20 
f 16/69/20 53/71/20 81/190/20 
f 53/71/20 69/192/20 81/190/20 
f 53/71/20 54/73/20 69/192/20 
f 54/73/20 64/75/20 69/192/20 
f 64/75/20 66/194/20 69/192/20 
f 64/75/20 1/77/20 66/194/20 
f 1/77/20 2/79/20 66/194/20 
f 2/79/20 65/196/20 66/194/20 
f 2/79/20 40/81/20 65/196/20 
f 94/180/20 93/233/20 61/232/20 
f 61/232/20 86/199/20 94/180/20 
f 61/232/20 84/200/20 86/199/20 
