# Created by Kenney (www.kenney.nl) 

mtllib roadRampWall.mtl 

g roadRampWall

v -0.9183474 0 0 
v -0.9183474 0.25 1 
v -1 0 0 
v -1 0.25 1 
v 0 0 0 
v 0 0.25 1 
v -0.08165261 0 0 
v -0.08165261 0.25 1 
v -1 0 1 
v 0 0 1 
v -0.1548649 0.26 1 
v -0.08165261 0.27 1 
v -0.1548649 0.27 1 
v -0.8451352 0.26 1 
v -0.9183474 0.27 1 
v -0.8451352 0.27 1 
v -0.8451352 0.02 0 
v -0.9183474 0.02 0 
v -0.8451352 0.01 0 
v -0.08165261 0.02 0 
v -0.1548649 0.02 0 
v -0.1548649 0.01 0 

vn 0 0.9701425 -0.2425356 
vn -1 0 0 
vn 1 0 0 
vn 0 0 1 

vt 36.15541 0 
vt 36.15541 40.58175 
vt 39.37008 0 
vt 39.37008 40.58175 
vt 0 0 
vt -3.07747E-27 40.58175 
vt 3.21467 2.437808E-28 
vt 3.21467 40.58175 
vt 39.37008 9.84252 
vt -39.37008 9.84252 
vt -39.37008 0 
vt 0 9.84252 
vt -3.21467 9.84252 
vt -36.15541 9.84252 
vt -6.097044 10.23622 
vt -3.21467 10.62992 
vt -6.097044 10.62992 
vt -33.27304 10.23622 
vt -36.15541 10.62992 
vt -33.27304 10.62992 
vt 33.27304 0.1909729 
vt 33.27304 40.77272 
vt 36.15541 0.1909729 
vt 36.15541 40.77272 
vt 0 0.7874016 
vt 0 0.3937008 
vt -39.37008 10.62992 
vt -39.37008 10.23622 
vt 39.37008 10.62992 
vt 3.21467 0.1909729 
vt 3.21467 40.77272 
vt 6.097044 0.1909729 
vt 6.097044 40.77272 
vt 39.37008 10.23622 
vt 6.097044 0.09548647 
vt 6.097044 40.67723 
vt 33.27304 0.09548647 
vt 33.27304 40.67723 

usemtl wall

f 2/2/1 1/1/1 3/3/1 
f 3/3/1 4/4/1 2/2/1 
f 6/6/1 5/5/1 7/7/1 
f 7/7/1 8/8/1 6/6/1 
f 3/5/2 9/3/2 4/9/2 
f 5/5/3 6/10/3 10/11/3 
f 9/11/4 10/5/4 6/12/4 
f 6/12/4 4/10/4 9/11/4 
f 6/12/4 8/13/4 4/10/4 
f 8/13/4 2/14/4 4/10/4 
f 11/15/4 2/14/4 8/13/4 
f 8/13/4 12/16/4 11/15/4 
f 12/16/4 13/17/4 11/15/4 
f 2/14/4 11/15/4 14/18/4 
f 14/18/4 15/19/4 2/14/4 
f 14/18/4 16/20/4 15/19/4 

usemtl grey

f 16/22/1 17/21/1 18/23/1 
f 18/23/1 15/24/1 16/22/1 
f 19/26/3 17/25/3 16/27/3 
f 16/27/3 14/28/3 19/26/3 
f 18/25/2 1/5/2 2/9/2 
f 2/9/2 15/29/2 18/25/2 
f 7/5/3 20/25/3 12/27/3 
f 12/27/3 8/10/3 7/5/3 
f 12/31/1 20/30/1 21/32/1 
f 21/32/1 13/33/1 12/31/1 
f 21/25/2 22/26/2 11/34/2 
f 11/34/2 13/29/2 21/25/2 

usemtl road

f 11/36/1 22/35/1 19/37/1 
f 19/37/1 14/38/1 11/36/1 
g roadRampWall




usemtl wall

f 2/2/1 1/1/1 3/3/1 
f 3/3/1 4/4/1 2/2/1 
f 6/6/1 5/5/1 7/7/1 
f 7/7/1 8/8/1 6/6/1 
f 3/5/2 9/3/2 4/9/2 
f 5/5/3 6/10/3 10/11/3 
f 9/11/4 10/5/4 6/12/4 
f 6/12/4 4/10/4 9/11/4 
f 6/12/4 8/13/4 4/10/4 
f 8/13/4 2/14/4 4/10/4 
f 11/15/4 2/14/4 8/13/4 
f 8/13/4 12/16/4 11/15/4 
f 12/16/4 13/17/4 11/15/4 
f 2/14/4 11/15/4 14/18/4 
f 14/18/4 15/19/4 2/14/4 
f 14/18/4 16/20/4 15/19/4 

usemtl grey

f 16/22/1 17/21/1 18/23/1 
f 18/23/1 15/24/1 16/22/1 
f 19/26/3 17/25/3 16/27/3 
f 16/27/3 14/28/3 19/26/3 
f 18/25/2 1/5/2 2/9/2 
f 2/9/2 15/29/2 18/25/2 
f 7/5/3 20/25/3 12/27/3 
f 12/27/3 8/10/3 7/5/3 
f 12/31/1 20/30/1 21/32/1 
f 21/32/1 13/33/1 12/31/1 
f 21/25/2 22/26/2 11/34/2 
f 11/34/2 13/29/2 21/25/2 

usemtl road

f 11/36/1 22/35/1 19/37/1 
f 19/37/1 14/38/1 11/36/1 
