# Created by Kenney (www.kenney.nl) 

mtllib roadSplitSmall.mtl 

g roadSplitSmall

v -0.9245628 0 0.03124708 
v -0.9245628 0.02 0.03124708 
v -0.9292868 0 0.04082632 
v -0.9292868 0.02 0.04082632 
v -0.8451352 0.02 0 
v -0.8451352 0.01 0 
v -0.8464599 0.02 0.0202139 
v -0.8464599 0.01 0.0202139 
v -0.9687529 0 0.07543719 
v -0.9591737 0 0.07071322 
v -0.9687529 0.02 0.07543719 
v -0.9591737 0.02 0.07071322 
v -0.9352206 0 0.04970694 
v -0.9352206 0.02 0.04970694 
v -0.9422629 0 0.05773711 
v -0.9422629 0.02 0.05773711 
v -0.8658831 0.02 0.07743245 
v -0.8658831 0.01 0.07743245 
v -0.8771374 0.02 0.09427577 
v -0.8771374 0.01 0.09427577 
v -0.8569235 0.02 0.05926424 
v -0.8569235 0.01 0.05926424 
v -0.890494 0.02 0.109506 
v -0.890494 0.01 0.109506 
v -0.9502931 0 0.0647794 
v -0.9502931 0.02 0.0647794 
v -0.9225675 0.01 0.1341169 
v -0.9407358 0.01 0.1430765 
v -0.9225675 0.02 0.1341169 
v -0.9407358 0.02 0.1430765 
v -1 0 0.08165264 
v -0.9893422 0 0.08095407 
v -1 0.02 0.08165264 
v -0.9893422 0.02 0.08095407 
v -0.8451352 0.01 0.8290428 
v -0.8451352 0.02 0.8290428 
v -0.8896878 0.01 0.8379048 
v -0.8896878 0.02 0.8379048 
v -0.9183474 0.02 0 
v -0.850412 0.02 0.04008198 
v -0.9057242 0.02 0.1228626 
v -0.9183474 0.02 0.1312971 
v -0.9190459 0.02 0.01065779 
v -0.9211297 0.02 0.02113324 
v -0.959918 0.02 0.149588 
v -0.979786 0.02 0.15354 
v -0.9788667 0.02 0.07887036 
v -1 0.02 0.1548649 
v -0.850412 0.01 0.04008198 
v -0.959918 0.01 0.149588 
v -0.9190459 0 0.01065779 
v -0.9211297 0 0.02113324 
v -0.9183474 0 0 
v -0.9788667 0 0.07887036 
v -0.979786 0.01 0.15354 
v -1 0.01 0.1548649 
v -0.9057242 0.01 0.1228626 
v -0.9183474 0.01 0.1312971 
v -1 0.01 0.8451351 
v -0.9183474 0.01 0.8397833 
v -1 0.02 0.8451351 
v -0.9183474 0.02 0.8397833 
v -0.9183474 0.02 0.9129957 
v -1 0.02 0.9183472 
v -0.9183474 0.02 1 
v -0.8451352 0.02 1 
v -0.8451352 0.01 1 
v -0.9183474 0 0.9129957 
v -0.9183474 0 1 
v -0.08165261 0.02 0 
v -0.08165261 0 0 
v -0.08165261 0.02 1 
v -0.08165261 0 1 
v -0.1548649 0.01 0 
v -0.1548649 0.02 0 
v -0.1548649 0.01 1 
v -0.1548649 0.02 1 
v -1 0 0.9183472 
v -1 0 0 
v 0 0 0 
v 0 0 1 
v -1 0 1 

vn -0.9238795 0 -0.3826834 
vn -0.8660254 0 -0.5 
vn 0.9978589 0 0.06540313 
vn 0.9914449 0 0.1305262 
vn -0.3826834 0 -0.9238795 
vn -0.5 0 -0.8660254 
vn -0.7933533 0 -0.6087614 
vn -0.7071068 0 -0.7071068 
vn 0.8660254 0 0.5 
vn 0.7933533 0 0.6087614 
vn 0.9238795 0 0.3826834 
vn 0.7071068 0 0.7071068 
vn -0.6087614 0 -0.7933533 
vn 0.5 0 0.8660254 
vn 0.3826834 0 0.9238795 
vn -0.06540313 0 -0.9978589 
vn -0.1305262 0 -0.9914449 
vn -0.1950903 0 -0.9807853 
vn 0 1 0 
vn 0.9659258 0 0.258819 
vn 0.258819 0 0.9659258 
vn -0.9914449 0 -0.1305262 
vn -0.9659258 0 -0.258819 
vn -0.9978589 0 -0.06540313 
vn -0.258819 0 -0.9659258 
vn 0.1305262 0 0.9914449 
vn 0.06540313 0 0.9978589 
vn 0.6087614 0 0.7933533 
vn 0.5555702 0 0.8314696 
vn 1 0 0 
vn -1 0 0 

vt 17.20269 0 
vt 17.20269 0.7874016 
vt 17.62319 0 
vt 17.62319 0.7874016 
vt -2.176161 0.7874016 
vt -2.176161 0.3937008 
vt -2.973692 0.7874016 
vt -2.973692 0.3937008 
vt 35.5202 0 
vt 35.0997 0 
vt 35.5202 0.7874016 
vt 35.0997 0.7874016 
vt 25.74825 0 
vt 25.74825 0.7874016 
vt 26.16875 0 
vt 26.16875 0.7874016 
vt -21.47408 0.7874016 
vt -21.47408 0.3937008 
vt -22.27161 0.7874016 
vt -22.27161 0.3937008 
vt -17.01418 0.7874016 
vt -17.01418 0.3937008 
vt -17.81171 0.7874016 
vt -17.81171 0.3937008 
vt -25.55973 0.7874016 
vt -25.55973 0.3937008 
vt -26.35726 0.7874016 
vt -26.35726 0.3937008 
vt 29.81024 0 
vt 29.38974 0 
vt 29.81024 0.7874016 
vt 29.38974 0.7874016 
vt -34.91119 0.3937008 
vt -35.70872 0.3937008 
vt -34.91119 0.7874016 
vt -35.70872 0.7874016 
vt 39.49603 0 
vt 39.07553 0 
vt 39.49603 0.7874016 
vt 39.07553 0.7874016 
vt 39.00135 0.3937008 
vt 39.00135 0.7874016 
vt 40.78975 0.3937008 
vt 40.78975 0.7874016 
vt 33.27304 2.273736E-11 
vt 33.3252 0.7958239 
vt 36.15541 2.273736E-11 
vt 33.48079 1.578031 
vt 33.73714 2.333238 
vt 34.08989 3.048522 
vt 34.53297 3.711645 
vt 35.05882 4.311261 
vt 35.65843 4.83711 
vt 36.15541 5.169178 
vt 36.32156 5.280195 
vt 36.18291 0.4195987 
vt 36.26495 0.8320179 
vt 36.40011 1.230201 
vt 37.03684 5.632934 
vt 36.58609 1.607335 
vt 36.81971 1.956967 
vt 37.09696 2.273115 
vt 37.79205 5.889292 
vt 37.41311 2.550369 
vt 37.76274 2.783986 
vt 38.13988 2.969968 
vt 38.57425 6.044883 
vt 38.53806 3.105133 
vt 38.95048 3.187168 
vt 39.37008 6.097044 
vt 39.37008 3.21467 
vt -12.25633 0.7874016 
vt -12.25633 0.3937008 
vt -13.05386 0.7874016 
vt -13.05386 0.3937008 
vt -36.88195 0.3937008 
vt -37.67948 0.3937008 
vt -36.88195 0.7874016 
vt -37.67948 0.7874016 
vt 7.470472 0 
vt 7.470472 0.7874016 
vt 7.890971 0 
vt 7.890971 0.7874016 
vt 2.364677 0 
vt 2.364677 0.7874016 
vt 2.785176 0 
vt 2.785176 0.7874016 
vt 38.82384 0 
vt 38.40334 0 
vt 38.82384 0.7874016 
vt 38.40334 0.7874016 
vt -38.88702 0.3937008 
vt -39.68455 0.3937008 
vt -38.88702 0.7874016 
vt -39.68455 0.7874016 
vt -29.20123 0.3937008 
vt -29.99876 0.3937008 
vt -29.20123 0.7874016 
vt -29.99876 0.7874016 
vt -32.33626 0.3937008 
vt -32.93396 0.3937008 
vt -32.33626 0.7874016 
vt -33.13379 0.3937008 
vt -32.93396 0.7874016 
vt -33.13379 0.7874016 
vt 37.49096 0 
vt 37.07047 0 
vt 37.49096 0.7874016 
vt 37.07047 0.7874016 
vt -7.281956 0.7874016 
vt -7.281956 0.3937008 
vt -8.079487 0.7874016 
vt -8.079487 0.3937008 
vt 12.44485 0 
vt 12.44485 0.7874016 
vt 12.86535 0 
vt 12.86535 0.7874016 
vt 21.66259 0 
vt 21.66259 0.7874016 
vt 22.08309 0 
vt 22.08309 0.7874016 
vt -38.21483 0.3937008 
vt -39.01236 0.3937008 
vt -38.21483 0.7874016 
vt -39.01236 0.7874016 
vt 41.46194 0.3937008 
vt 38.24038 0.3937008 
vt 41.46194 0.7874016 
vt 37.10962 0.3937008 
vt 37.10962 0.7874016 
vt 38.24038 0.7874016 
vt 32.94527 0 
vt 32.52478 0 
vt 32.94527 0.7874016 
vt 32.52478 0.7874016 
vt 36.15541 33.06234 
vt 36.15541 35.94471 
vt 39.37008 33.27304 
vt 39.37008 36.15541 
vt 36.15541 39.37008 
vt 35.02708 32.98838 
vt 33.27304 39.37008 
vt 33.27304 32.63948 
vt -32.63948 0.7874016 
vt -32.63948 0.3937008 
vt -39.37008 0.7874016 
vt -39.37008 0.3937008 
vt 35.94471 3.078121E-30 
vt 35.94471 0.7874016 
vt 39.37008 6.705318E-30 
vt 39.37008 0.7874016 
vt -2.285105E-11 0.7874016 
vt -2.285105E-11 0 
vt -39.37008 6.705318E-30 
vt 2.274635E-11 0.3937008 
vt 2.274635E-11 0.7874016 
vt 39.37008 0.3937008 
vt 3.21467 2.285106E-11 
vt 3.21467 39.37008 
vt 6.097044 2.273737E-11 
vt 6.097044 39.37008 
vt -41.65046 0 
vt -41.65046 0.7874016 
vt -38.42889 3.078121E-30 
vt -38.42889 0.7874016 
vt 36.15541 2.273737E-11 
vt 39.37008 0 
vt 0 2.285105E-11 
vt 0 39.37008 
vt 3.21467 2.285105E-11 
vt 39.37008 39.37008 
vt 6.097044 2.273735E-11 
vt 33.27304 2.273735E-11 

usemtl grey

f 2/2/1 1/1/1 3/3/2 
f 3/3/2 4/4/2 2/2/1 
f 6/6/3 5/5/3 7/7/4 
f 7/7/4 8/8/4 6/6/3 
f 10/10/6 9/9/5 11/11/5 
f 11/11/5 12/12/6 10/10/6 
f 14/14/7 13/13/7 15/15/8 
f 15/15/8 16/16/8 14/14/7 
f 18/18/9 17/17/9 19/19/10 
f 19/19/10 20/20/10 18/18/9 
f 22/22/11 21/21/11 17/23/9 
f 17/23/9 18/24/9 22/22/11 
f 20/26/10 19/25/10 23/27/12 
f 23/27/12 24/28/12 20/26/10 
f 15/30/8 25/29/13 26/31/13 
f 26/31/13 16/32/8 15/30/8 
f 28/34/15 27/33/14 29/35/14 
f 29/35/14 30/36/15 28/34/15 
f 32/38/17 31/37/16 33/39/16 
f 33/39/16 34/40/17 32/38/17 
f 36/42/18 35/41/18 37/43/17 
f 37/43/17 38/44/17 36/42/18 
f 7/46/19 5/45/19 39/47/19 
f 39/47/19 40/48/19 7/46/19 
f 39/47/19 21/49/19 40/48/19 
f 39/47/19 17/50/19 21/49/19 
f 39/47/19 19/51/19 17/50/19 
f 39/47/19 23/52/19 19/51/19 
f 39/47/19 41/53/19 23/52/19 
f 39/47/19 42/54/19 41/53/19 
f 39/47/19 29/55/19 42/54/19 
f 39/47/19 43/56/19 29/55/19 
f 43/56/19 44/57/19 29/55/19 
f 44/57/19 2/58/19 29/55/19 
f 2/58/19 30/59/19 29/55/19 
f 2/58/19 4/60/19 30/59/19 
f 4/60/19 14/61/19 30/59/19 
f 14/61/19 16/62/19 30/59/19 
f 16/62/19 45/63/19 30/59/19 
f 16/62/19 26/64/19 45/63/19 
f 26/64/19 12/65/19 45/63/19 
f 12/65/19 11/66/19 45/63/19 
f 11/66/19 46/67/19 45/63/19 
f 11/66/19 47/68/19 46/67/19 
f 47/68/19 34/69/19 46/67/19 
f 34/69/19 48/70/19 46/67/19 
f 34/69/19 33/71/19 48/70/19 
f 49/73/20 40/72/20 21/74/11 
f 21/74/11 22/75/11 49/73/20 
f 50/77/21 28/76/15 30/78/15 
f 30/78/15 45/79/21 50/77/21 
f 43/81/22 51/80/22 52/82/23 
f 52/82/23 44/83/23 43/81/22 
f 39/85/24 53/84/24 51/86/22 
f 51/86/22 43/87/22 39/85/24 
f 54/89/25 32/88/17 34/90/17 
f 34/90/17 47/91/25 54/89/25 
f 56/93/27 55/92/26 46/94/26 
f 46/94/26 48/95/27 56/93/27 
f 57/97/28 24/96/12 23/98/12 
f 23/98/12 41/99/28 57/97/28 
f 58/101/29 57/100/28 41/102/28 
f 41/102/28 27/103/14 58/101/29 
f 41/102/28 42/104/29 27/103/14 
f 27/103/14 42/104/29 29/105/14 
f 9/107/5 54/106/25 47/108/25 
f 47/108/25 11/109/5 9/107/5 
f 8/111/4 7/110/4 40/112/20 
f 40/112/20 49/113/20 8/111/4 
f 44/115/23 52/114/23 1/116/1 
f 1/116/1 2/117/1 44/115/23 
f 4/119/2 3/118/2 13/120/7 
f 13/120/7 14/121/7 4/119/2 
f 55/123/26 50/122/21 45/124/21 
f 45/124/21 46/125/26 55/123/26 
f 60/127/16 59/126/16 61/128/16 
f 61/128/16 37/129/17 60/127/16 
f 61/128/16 38/130/17 37/129/17 
f 61/128/16 62/131/16 38/130/17 
f 25/133/13 10/132/6 12/134/6 
f 12/134/6 26/135/13 25/133/13 
f 63/137/19 62/136/19 61/138/19 
f 61/138/19 64/139/19 63/137/19 
f 62/136/19 63/137/19 65/140/19 
f 38/141/19 62/136/19 65/140/19 
f 38/141/19 65/140/19 66/142/19 
f 66/142/19 36/143/19 38/141/19 
f 35/145/30 36/144/30 66/146/30 
f 66/146/30 67/147/30 35/145/30 
f 63/149/31 68/148/31 69/150/31 
f 69/150/31 65/151/31 63/149/31 
f 71/153/30 70/152/30 72/146/30 
f 72/146/30 73/154/30 71/153/30 
f 75/156/31 74/155/31 76/157/31 
f 76/157/31 77/151/31 75/156/31 
f 72/159/19 70/158/19 75/160/19 
f 75/160/19 77/161/19 72/159/19 
f 64/163/27 78/162/27 68/164/27 
f 68/164/27 63/165/27 64/163/27 

usemtl grass

f 51/56/19 53/166/19 79/167/19 
f 79/167/19 52/57/19 51/56/19 
f 79/167/19 1/58/19 52/57/19 
f 79/167/19 3/60/19 1/58/19 
f 79/167/19 13/61/19 3/60/19 
f 79/167/19 15/62/19 13/61/19 
f 79/167/19 25/64/19 15/62/19 
f 79/167/19 10/65/19 25/64/19 
f 79/167/19 9/66/19 10/65/19 
f 79/167/19 54/68/19 9/66/19 
f 79/167/19 32/69/19 54/68/19 
f 79/167/19 31/71/19 32/69/19 
f 81/169/19 80/168/19 71/170/19 
f 71/170/19 73/159/19 81/169/19 
f 69/140/19 68/137/19 78/139/19 
f 78/139/19 82/171/19 69/140/19 

usemtl road

f 76/161/19 74/172/19 6/173/19 
f 6/173/19 35/143/19 76/161/19 
f 6/173/19 37/141/19 35/143/19 
f 6/173/19 8/46/19 37/141/19 
f 8/46/19 49/48/19 37/141/19 
f 49/48/19 22/49/19 37/141/19 
f 22/49/19 18/50/19 37/141/19 
f 18/50/19 20/51/19 37/141/19 
f 20/51/19 24/52/19 37/141/19 
f 24/52/19 60/136/19 37/141/19 
f 24/52/19 57/53/19 60/136/19 
f 57/53/19 58/54/19 60/136/19 
f 58/54/19 59/138/19 60/136/19 
f 58/54/19 27/55/19 59/138/19 
f 27/55/19 28/59/19 59/138/19 
f 28/59/19 50/63/19 59/138/19 
f 50/63/19 55/67/19 59/138/19 
f 55/67/19 56/70/19 59/138/19 
f 76/161/19 35/143/19 67/142/19 
g roadSplitSmall




usemtl grey

f 2/2/1 1/1/1 3/3/2 
f 3/3/2 4/4/2 2/2/1 
f 6/6/3 5/5/3 7/7/4 
f 7/7/4 8/8/4 6/6/3 
f 10/10/6 9/9/5 11/11/5 
f 11/11/5 12/12/6 10/10/6 
f 14/14/7 13/13/7 15/15/8 
f 15/15/8 16/16/8 14/14/7 
f 18/18/9 17/17/9 19/19/10 
f 19/19/10 20/20/10 18/18/9 
f 22/22/11 21/21/11 17/23/9 
f 17/23/9 18/24/9 22/22/11 
f 20/26/10 19/25/10 23/27/12 
f 23/27/12 24/28/12 20/26/10 
f 15/30/8 25/29/13 26/31/13 
f 26/31/13 16/32/8 15/30/8 
f 28/34/15 27/33/14 29/35/14 
f 29/35/14 30/36/15 28/34/15 
f 32/38/17 31/37/16 33/39/16 
f 33/39/16 34/40/17 32/38/17 
f 36/42/18 35/41/18 37/43/17 
f 37/43/17 38/44/17 36/42/18 
f 7/46/19 5/45/19 39/47/19 
f 39/47/19 40/48/19 7/46/19 
f 39/47/19 21/49/19 40/48/19 
f 39/47/19 17/50/19 21/49/19 
f 39/47/19 19/51/19 17/50/19 
f 39/47/19 23/52/19 19/51/19 
f 39/47/19 41/53/19 23/52/19 
f 39/47/19 42/54/19 41/53/19 
f 39/47/19 29/55/19 42/54/19 
f 39/47/19 43/56/19 29/55/19 
f 43/56/19 44/57/19 29/55/19 
f 44/57/19 2/58/19 29/55/19 
f 2/58/19 30/59/19 29/55/19 
f 2/58/19 4/60/19 30/59/19 
f 4/60/19 14/61/19 30/59/19 
f 14/61/19 16/62/19 30/59/19 
f 16/62/19 45/63/19 30/59/19 
f 16/62/19 26/64/19 45/63/19 
f 26/64/19 12/65/19 45/63/19 
f 12/65/19 11/66/19 45/63/19 
f 11/66/19 46/67/19 45/63/19 
f 11/66/19 47/68/19 46/67/19 
f 47/68/19 34/69/19 46/67/19 
f 34/69/19 48/70/19 46/67/19 
f 34/69/19 33/71/19 48/70/19 
f 49/73/20 40/72/20 21/74/11 
f 21/74/11 22/75/11 49/73/20 
f 50/77/21 28/76/15 30/78/15 
f 30/78/15 45/79/21 50/77/21 
f 43/81/22 51/80/22 52/82/23 
f 52/82/23 44/83/23 43/81/22 
f 39/85/24 53/84/24 51/86/22 
f 51/86/22 43/87/22 39/85/24 
f 54/89/25 32/88/17 34/90/17 
f 34/90/17 47/91/25 54/89/25 
f 56/93/27 55/92/26 46/94/26 
f 46/94/26 48/95/27 56/93/27 
f 57/97/28 24/96/12 23/98/12 
f 23/98/12 41/99/28 57/97/28 
f 58/101/29 57/100/28 41/102/28 
f 41/102/28 27/103/14 58/101/29 
f 41/102/28 42/104/29 27/103/14 
f 27/103/14 42/104/29 29/105/14 
f 9/107/5 54/106/25 47/108/25 
f 47/108/25 11/109/5 9/107/5 
f 8/111/4 7/110/4 40/112/20 
f 40/112/20 49/113/20 8/111/4 
f 44/115/23 52/114/23 1/116/1 
f 1/116/1 2/117/1 44/115/23 
f 4/119/2 3/118/2 13/120/7 
f 13/120/7 14/121/7 4/119/2 
f 55/123/26 50/122/21 45/124/21 
f 45/124/21 46/125/26 55/123/26 
f 60/127/16 59/126/16 61/128/16 
f 61/128/16 37/129/17 60/127/16 
f 61/128/16 38/130/17 37/129/17 
f 61/128/16 62/131/16 38/130/17 
f 25/133/13 10/132/6 12/134/6 
f 12/134/6 26/135/13 25/133/13 
f 63/137/19 62/136/19 61/138/19 
f 61/138/19 64/139/19 63/137/19 
f 62/136/19 63/137/19 65/140/19 
f 38/141/19 62/136/19 65/140/19 
f 38/141/19 65/140/19 66/142/19 
f 66/142/19 36/143/19 38/141/19 
f 35/145/30 36/144/30 66/146/30 
f 66/146/30 67/147/30 35/145/30 
f 63/149/31 68/148/31 69/150/31 
f 69/150/31 65/151/31 63/149/31 
f 71/153/30 70/152/30 72/146/30 
f 72/146/30 73/154/30 71/153/30 
f 75/156/31 74/155/31 76/157/31 
f 76/157/31 77/151/31 75/156/31 
f 72/159/19 70/158/19 75/160/19 
f 75/160/19 77/161/19 72/159/19 
f 64/163/27 78/162/27 68/164/27 
f 68/164/27 63/165/27 64/163/27 

usemtl grass

f 51/56/19 53/166/19 79/167/19 
f 79/167/19 52/57/19 51/56/19 
f 79/167/19 1/58/19 52/57/19 
f 79/167/19 3/60/19 1/58/19 
f 79/167/19 13/61/19 3/60/19 
f 79/167/19 15/62/19 13/61/19 
f 79/167/19 25/64/19 15/62/19 
f 79/167/19 10/65/19 25/64/19 
f 79/167/19 9/66/19 10/65/19 
f 79/167/19 54/68/19 9/66/19 
f 79/167/19 32/69/19 54/68/19 
f 79/167/19 31/71/19 32/69/19 
f 81/169/19 80/168/19 71/170/19 
f 71/170/19 73/159/19 81/169/19 
f 69/140/19 68/137/19 78/139/19 
f 78/139/19 82/171/19 69/140/19 

usemtl road

f 76/161/19 74/172/19 6/173/19 
f 6/173/19 35/143/19 76/161/19 
f 6/173/19 37/141/19 35/143/19 
f 6/173/19 8/46/19 37/141/19 
f 8/46/19 49/48/19 37/141/19 
f 49/48/19 22/49/19 37/141/19 
f 22/49/19 18/50/19 37/141/19 
f 18/50/19 20/51/19 37/141/19 
f 20/51/19 24/52/19 37/141/19 
f 24/52/19 60/136/19 37/141/19 
f 24/52/19 57/53/19 60/136/19 
f 57/53/19 58/54/19 60/136/19 
f 58/54/19 59/138/19 60/136/19 
f 58/54/19 27/55/19 59/138/19 
f 27/55/19 28/59/19 59/138/19 
f 28/59/19 50/63/19 59/138/19 
f 50/63/19 55/67/19 59/138/19 
f 55/67/19 56/70/19 59/138/19 
f 76/161/19 35/143/19 67/142/19 
