# Created by Kenney (www.kenney.nl) 

mtllib roadPitEntry.mtl 

g roadPitEntry

v -0.8451352 0.02 0 
v -0.8451352 0.01 0 
v -1.845135 0.02 2 
v -1.845135 0.01 2 
v -0.9183474 0 0 
v -0.9183474 0.02 0 
v -1.918347 0 2 
v -1.918347 0.02 2 
v -0.8451352 0.01 1.38054 
v -0.8451352 0.02 1.38054 
v -1.154865 0.01 2 
v -1.154865 0.02 2 
v -0.9183474 0.02 1.67339 
v -0.9183474 0 1.67339 
v -1.081653 0.02 2 
v -1.081653 0 2 
v -0.9183474 0 2 
v -0.9183474 0.02 2 
v -0.08165261 0.02 0 
v -0.08165261 0.02 2 
v -0.1548649 0.02 0 
v -0.1548649 0.02 2 
v -0.08165261 0 0 
v -0.08165261 0 2 
v -0.1548649 0.01 0 
v -0.1548649 0.01 2 
v -0.8451352 0.02 2 
v -0.8451352 0.01 2 
v -1 0 0 
v -2 0 2 
v 0 0 0 
v 0 0 2 

vn 0.8944272 0 0.4472136 
vn -0.8944272 0 -0.4472136 
vn 0 1 0 
vn -1 0 0 
vn 1 0 0 

vt -14.88015 0.7874016 
vt -14.88015 0.3937008 
vt -102.9143 0.7874016 
vt -102.9143 0.3937008 
vt 16.16919 -2.451382E-13 
vt 16.16919 0.7874016 
vt 104.2034 -2.451382E-13 
vt 104.2034 0.7874016 
vt 33.27304 9.030845E-18 
vt 72.64311 78.74016 
vt 36.15541 2.843074E-14 
vt 75.52549 78.74016 
vt 63.49405 0.3937008 
vt 63.49405 0.7874016 
vt 90.76086 0.3937008 
vt 90.76086 0.7874016 
vt -75.09538 0.7874016 
vt -75.09538 -4.605153E-15 
vt -89.47182 0.7874016 
vt -89.47182 -4.605153E-15 
vt 65.88148 2.640143E-30 
vt 65.88148 0.7874016 
vt 78.74016 6.310887E-30 
vt 78.74016 0.7874016 
vt 3.21467 2.841492E-14 
vt 3.21467 78.74016 
vt 6.097044 -6.785073E-18 
vt 6.097044 78.74016 
vt -2.856661E-14 0.7874016 
vt -2.856661E-14 1.731856E-14 
vt -78.74016 0.7874016 
vt -78.74016 1.731856E-14 
vt 4.549067E-15 0.3937008 
vt 4.549067E-15 0.7874016 
vt 78.74016 0.3937008 
vt -54.35198 0.7874016 
vt -54.35198 0.3937008 
vt -78.74016 0.3937008 
vt 33.27304 78.74016 
vt 36.15541 65.88148 
vt 33.27304 54.35198 
vt 45.46712 78.74016 
vt 42.58475 78.74016 
vt 36.15541 78.74016 
vt 36.15541 2.842171E-14 
vt 39.37008 0 
vt 78.74016 78.74016 
vt 0 0 
vt 0 78.74016 
vt 3.21467 2.842171E-14 
vt 33.27304 -2.497333E-19 
vt 6.097044 -2.497333E-19 

usemtl grey

f 2/2/1 1/1/1 3/3/1 
f 3/3/1 4/4/1 2/2/1 
f 6/6/2 5/5/2 7/7/2 
f 7/7/2 8/8/2 6/6/2 
f 3/10/3 1/9/3 6/11/3 
f 6/11/3 8/12/3 3/10/3 
f 10/14/2 9/13/2 11/15/2 
f 11/15/2 12/16/2 10/14/2 
f 14/18/1 13/17/1 15/19/1 
f 15/19/1 16/20/1 14/18/1 
f 13/22/4 14/21/4 17/23/4 
f 17/23/4 18/24/4 13/22/4 
f 20/26/3 19/25/3 21/27/3 
f 21/27/3 22/28/3 20/26/3 
f 23/30/5 19/29/5 20/31/5 
f 20/31/5 24/32/5 23/30/5 
f 21/34/4 25/33/4 26/35/4 
f 26/35/4 22/24/4 21/34/4 
f 9/37/5 10/36/5 27/31/5 
f 27/31/5 28/38/5 9/37/5 
f 13/40/3 27/39/3 10/41/3 
f 10/41/3 12/42/3 13/40/3 
f 12/42/3 15/43/3 13/40/3 
f 27/39/3 13/40/3 18/44/3 

usemtl grass

f 7/12/3 5/45/3 29/46/3 
f 29/46/3 30/47/3 7/12/3 
f 32/49/3 31/48/3 23/50/3 
f 23/50/3 24/26/3 32/49/3 
f 17/44/3 14/40/3 16/43/3 

usemtl road

f 9/41/3 2/51/3 4/10/3 
f 4/10/3 11/42/3 9/41/3 
f 2/51/3 9/41/3 28/39/3 
f 2/51/3 28/39/3 26/28/3 
f 26/28/3 25/52/3 2/51/3 
g roadPitEntry




usemtl grey

f 2/2/1 1/1/1 3/3/1 
f 3/3/1 4/4/1 2/2/1 
f 6/6/2 5/5/2 7/7/2 
f 7/7/2 8/8/2 6/6/2 
f 3/10/3 1/9/3 6/11/3 
f 6/11/3 8/12/3 3/10/3 
f 10/14/2 9/13/2 11/15/2 
f 11/15/2 12/16/2 10/14/2 
f 14/18/1 13/17/1 15/19/1 
f 15/19/1 16/20/1 14/18/1 
f 13/22/4 14/21/4 17/23/4 
f 17/23/4 18/24/4 13/22/4 
f 20/26/3 19/25/3 21/27/3 
f 21/27/3 22/28/3 20/26/3 
f 23/30/5 19/29/5 20/31/5 
f 20/31/5 24/32/5 23/30/5 
f 21/34/4 25/33/4 26/35/4 
f 26/35/4 22/24/4 21/34/4 
f 9/37/5 10/36/5 27/31/5 
f 27/31/5 28/38/5 9/37/5 
f 13/40/3 27/39/3 10/41/3 
f 10/41/3 12/42/3 13/40/3 
f 12/42/3 15/43/3 13/40/3 
f 27/39/3 13/40/3 18/44/3 

usemtl grass

f 7/12/3 5/45/3 29/46/3 
f 29/46/3 30/47/3 7/12/3 
f 32/49/3 31/48/3 23/50/3 
f 23/50/3 24/26/3 32/49/3 
f 17/44/3 14/40/3 16/43/3 

usemtl road

f 9/41/3 2/51/3 4/10/3 
f 4/10/3 11/42/3 9/41/3 
f 2/51/3 9/41/3 28/39/3 
f 2/51/3 28/39/3 26/28/3 
f 26/28/3 25/52/3 2/51/3 
