# Created by Kenney (www.kenney.nl) 

mtllib roadCornerSmall.mtl 

g roadCornerSmall

v -0.8464599 0.02 0.0202139 
v -0.8464599 0.01 0.0202139 
v -0.850412 0.02 0.04008198 
v -0.850412 0.01 0.04008198 
v -0.8569235 0.02 0.05926424 
v -0.8569235 0.01 0.05926424 
v -0.8658831 0.02 0.07743245 
v -0.8658831 0.01 0.07743245 
v -0.8451352 0.02 0 
v -0.8451352 0.01 0 
v -0.9183474 0.02 0 
v -0.8771374 0.02 0.09427577 
v -0.890494 0.02 0.109506 
v -0.9057242 0.02 0.1228626 
v -0.9225675 0.02 0.1341169 
v -0.9190459 0.02 0.01065779 
v -0.9211297 0.02 0.02113324 
v -0.9245628 0.02 0.03124708 
v -0.9407358 0.02 0.1430765 
v -0.9292868 0.02 0.04082632 
v -0.9352206 0.02 0.04970694 
v -0.9422629 0.02 0.05773711 
v -0.959918 0.02 0.149588 
v -0.9502931 0.02 0.0647794 
v -0.9591737 0.02 0.07071322 
v -0.9687529 0.02 0.07543719 
v -0.979786 0.02 0.15354 
v -0.9788667 0.02 0.07887036 
v -0.9893422 0.02 0.08095407 
v -1 0.02 0.1548649 
v -1 0.02 0.08165264 
v -0.9352206 0 0.04970694 
v -0.9422629 0 0.05773711 
v -0.9788667 0 0.07887036 
v -0.9687529 0 0.07543719 
v -0.9211297 0 0.02113324 
v -0.9245628 0 0.03124708 
v -0.9183474 0 0 
v -0.9190459 0 0.01065779 
v -0.9591737 0 0.07071322 
v -0.9502931 0 0.0647794 
v -0.9893422 0 0.08095407 
v -0.9292868 0 0.04082632 
v -1 0 0.08165264 
v -0.9407358 0.01 0.1430765 
v -0.959918 0.01 0.149588 
v -0.9225675 0.01 0.1341169 
v -0.9057242 0.01 0.1228626 
v -0.979786 0.01 0.15354 
v -1 0.01 0.1548649 
v -0.890494 0.01 0.109506 
v -0.8771374 0.01 0.09427577 
v -0.5774325 0.01 0.7319084 
v -0.4855143 0.01 0.6704907 
v -0.5774325 0.02 0.7319084 
v -0.4855143 0.02 0.6704907 
v -0.6765808 0.01 0.7808031 
v -0.6765808 0.02 0.7808031 
v -0.1548649 0.01 0 
v -0.1548649 0.02 0 
v -0.1620952 0.01 0.1103123 
v -0.1620952 0.02 0.1103123 
v -0.219197 0.01 0.3234192 
v -0.219197 0.02 0.3234192 
v -0.2680915 0.01 0.4225676 
v -0.2680915 0.02 0.4225676 
v -0.1836622 0.01 0.2187371 
v -0.1836622 0.02 0.2187371 
v -0.08165261 0.02 0 
v -0.08950922 0.02 0.1198684 
v -0.1129445 0.02 0.2376858 
v -0.1515577 0.02 0.3514363 
v -0.2046878 0.02 0.4591737 
v -0.2714261 0.02 0.5590545 
v -0.3295093 0.02 0.5144857 
v -0.3506303 0.02 0.6493696 
v -0.4023992 0.02 0.5976007 
v -0.4409455 0.02 0.7285739 
v -0.5408263 0.02 0.7953122 
v -0.6485636 0.02 0.8484423 
v -0.7623142 0.02 0.8870555 
v -0.7812629 0.02 0.8163377 
v -0.8801317 0.02 0.9104908 
v -0.8896878 0.02 0.8379048 
v -1 0.02 0.9183472 
v -1 0.02 0.8451351 
v -0.3295093 0.01 0.5144857 
v -0.4023992 0.01 0.5976007 
v -0.7812629 0.01 0.8163377 
v -0.2046878 0 0.4591737 
v -0.2714261 0 0.5590545 
v -0.1515577 0 0.3514363 
v -0.1129445 0 0.2376858 
v -0.08950922 0 0.1198684 
v -1 0.01 0.8451351 
v -0.8896878 0.01 0.8379048 
v -0.6485636 0 0.8484423 
v -0.7623142 0 0.8870555 
v -0.3506303 0 0.6493696 
v -0.5408263 0 0.7953122 
v -0.8801317 0 0.9104908 
v -1 0 0.9183472 
v -0.4409455 0 0.7285739 
v -0.08165261 0 0 
v 0 0 0 
v -0.008555144 0 0.1305262 
v -0.03407416 0 0.258819 
v -0.07612047 0 0.3826834 
v -0.1339746 0 0.5 
v -0.2066467 0 0.6087614 
v -0.2928932 0 0.7071067 
v -0.3912386 0 0.7933533 
v -0.5 0 0.8660254 
v -0.6173166 0 0.9238795 
v -0.741181 0 0.9659258 
v -0.8694738 0 0.9914449 
v -1 0 1 
v -1 0 0 

vn 0.9914449 0 0.1305262 
vn 0.9659258 0 0.258819 
vn 0.9238795 0 0.3826834 
vn 0.8660254 0 0.5 
vn 0.9978589 0 0.06540313 
vn 0 1 0 
vn -0.7933533 0 -0.6087614 
vn -0.7071068 0 -0.7071068 
vn -0.258819 0 -0.9659258 
vn -0.3826834 0 -0.9238795 
vn -0.9659258 0 -0.258819 
vn -0.9238795 0 -0.3826834 
vn -0.9978589 0 -0.06540313 
vn -0.9914449 0 -0.1305262 
vn -0.5 0 -0.8660254 
vn -0.6087614 0 -0.7933533 
vn -0.1305262 0 -0.9914449 
vn -0.8660254 0 -0.5 
vn -0.06540313 0 -0.9978589 
vn 0.3826834 0 0.9238795 
vn 0.258819 0 0.9659258 
vn 0.5 0 0.8660254 
vn 0.6087614 0 0.7933533 
vn 0.1305262 0 0.9914449 
vn 0.06540313 0 0.9978589 
vn 0.7071068 0 0.7071068 
vn 0.7933533 0 0.6087614 

vt -7.281956 0.7874016 
vt -7.281956 0.3937008 
vt -8.079487 0.7874016 
vt -8.079487 0.3937008 
vt -17.01418 0.7874016 
vt -17.01418 0.3937008 
vt -17.81171 0.7874016 
vt -17.81171 0.3937008 
vt -12.25633 0.7874016 
vt -12.25633 0.3937008 
vt -13.05386 0.7874016 
vt -13.05386 0.3937008 
vt -2.176161 0.7874016 
vt -2.176161 0.3937008 
vt -2.973692 0.7874016 
vt -2.973692 0.3937008 
vt 33.27304 2.278E-11 
vt 33.3252 0.7958239 
vt 36.15541 2.279421E-11 
vt 33.48079 1.578031 
vt 33.73714 2.333238 
vt 34.08989 3.048522 
vt 34.53297 3.711645 
vt 35.05882 4.311261 
vt 35.65843 4.83711 
vt 36.32156 5.280195 
vt 36.18291 0.4195987 
vt 36.26495 0.8320179 
vt 36.40011 1.230201 
vt 37.03684 5.632934 
vt 36.58609 1.607335 
vt 36.81971 1.956967 
vt 37.09696 2.273115 
vt 37.79205 5.889292 
vt 37.41311 2.550369 
vt 37.76274 2.783986 
vt 38.13988 2.969968 
vt 38.57425 6.044883 
vt 38.53806 3.105133 
vt 38.95048 3.187168 
vt 39.37008 6.097044 
vt 39.37008 3.21467 
vt 25.74825 0 
vt 25.74825 0.7874016 
vt 26.16875 0 
vt 26.16875 0.7874016 
vt 37.49096 0 
vt 37.07047 0 
vt 37.49096 0.7874016 
vt 37.07047 0.7874016 
vt 12.44485 0 
vt 12.44485 0.7874016 
vt 12.86535 0 
vt 12.86535 0.7874016 
vt 2.364677 0 
vt 2.364677 0.7874016 
vt 2.785176 0 
vt 2.785176 0.7874016 
vt 32.94527 0 
vt 32.52478 0 
vt 32.94527 0.7874016 
vt 32.52478 0.7874016 
vt 7.470472 0 
vt 7.470472 0.7874016 
vt 7.890971 0 
vt 7.890971 0.7874016 
vt 35.5202 0 
vt 35.0997 0 
vt 35.5202 0.7874016 
vt 35.0997 0.7874016 
vt 38.82384 0 
vt 38.40334 0 
vt 38.82384 0.7874016 
vt 38.40334 0.7874016 
vt 17.20269 0 
vt 17.20269 0.7874016 
vt 17.62319 0 
vt 17.62319 0.7874016 
vt 39.49603 0 
vt 39.07553 0 
vt 39.49603 0.7874016 
vt 39.07553 0.7874016 
vt 21.66259 0 
vt 21.66259 0.7874016 
vt 22.08309 0 
vt 22.08309 0.7874016 
vt -36.88195 0.3937008 
vt -37.67948 0.3937008 
vt -36.88195 0.7874016 
vt -37.67948 0.7874016 
vt -34.91119 0.3937008 
vt -35.70872 0.3937008 
vt -34.91119 0.7874016 
vt -35.70872 0.7874016 
vt -32.33626 0.3937008 
vt -33.13379 0.3937008 
vt -32.33626 0.7874016 
vt -33.13379 0.7874016 
vt -38.88702 0.3937008 
vt -39.68455 0.3937008 
vt -38.88702 0.7874016 
vt -39.68455 0.7874016 
vt -38.21483 0.3937008 
vt -39.01236 0.3937008 
vt -38.21483 0.7874016 
vt -39.01236 0.7874016 
vt -29.20123 0.3937008 
vt -29.99876 0.3937008 
vt -29.20123 0.7874016 
vt -29.99876 0.7874016 
vt -25.55973 0.7874016 
vt -25.55973 0.3937008 
vt -26.35726 0.7874016 
vt -26.35726 0.3937008 
vt -21.47408 0.7874016 
vt -21.47408 0.3937008 
vt -22.27161 0.7874016 
vt -22.27161 0.3937008 
vt 29.81024 0 
vt 29.38974 0 
vt 29.81024 0.7874016 
vt 29.38974 0.7874016 
vt 34.91119 0.3937008 
vt 30.55886 0.3937008 
vt 34.91119 0.7874016 
vt 30.55886 0.7874016 
vt 37.48611 0.3937008 
vt 33.13379 0.3937008 
vt 37.48611 0.7874016 
vt 33.13379 0.7874016 
vt 0.3987657 0.3937008 
vt 0.3987657 0.7874016 
vt 4.751087 0.3937008 
vt 4.751087 0.7874016 
vt 15.23678 0.3937008 
vt 15.23678 0.7874016 
vt 19.5891 0.3937008 
vt 19.5891 0.7874016 
vt 5.504561 0.3937008 
vt 5.504561 0.7874016 
vt 9.856882 0.3937008 
vt 9.856882 0.7874016 
vt 3.21467 2.281553E-11 
vt 3.523985 4.719228 
vt 6.097044 2.276579E-11 
vt 4.446636 9.357708 
vt 5.966837 13.83608 
vt 6.381699 4.343003 
vt 8.058577 18.0777 
vt 7.230795 8.611695 
vt 8.629803 12.73304 
vt 10.68606 22.01002 
vt 10.55478 16.63652 
vt 12.97281 20.25534 
vt 13.80434 25.56573 
vt 15.84249 23.52759 
vt 17.36006 28.68401 
vt 19.11474 26.39727 
vt 21.29237 31.3115 
vt 22.73356 28.81529 
vt 25.534 33.40324 
vt 26.63704 30.74028 
vt 30.01237 34.92344 
vt 30.75838 32.13928 
vt 34.65085 35.84609 
vt 35.02708 32.98838 
vt 39.37008 36.15541 
vt 39.37008 33.27304 
vt 10.47894 0.3937008 
vt 10.47894 0.7874016 
vt 14.83126 0.3937008 
vt 14.83126 0.7874016 
vt 19.69668 0.3937008 
vt 19.69668 0.7874016 
vt 24.049 0.3937008 
vt 24.049 0.7874016 
vt 23.78234 0.3937008 
vt 23.78234 0.7874016 
vt 28.13466 0.3937008 
vt 28.13466 0.7874016 
vt 31.77615 0.3937008 
vt 27.42383 0.3937008 
vt 31.77615 0.7874016 
vt 27.42383 0.7874016 
vt 39.45687 0.3937008 
vt 35.10455 0.3937008 
vt 39.45687 0.7874016 
vt 35.10455 0.7874016 
vt -19.50817 0.7874016 
vt -19.50817 0 
vt -24.23752 0.7874016 
vt -24.23752 0 
vt -15.04826 0.7874016 
vt -15.04826 0 
vt -19.77762 0.7874016 
vt -19.77762 0 
vt -10.29042 0.7874016 
vt -10.29042 0 
vt -15.01977 0.7874016 
vt -15.01977 0 
vt -5.316044 0.7874016 
vt -5.316044 0 
vt -10.0454 0.7874016 
vt -10.0454 0 
vt 41.46194 0.3937008 
vt 37.10962 0.3937008 
vt 41.46194 0.7874016 
vt 37.10962 0.7874016 
vt -34.91604 0 
vt -39.64539 0 
vt -34.91604 0.7874016 
vt -39.64539 0.7874016 
vt 40.78975 0.3937008 
vt 36.43743 0.3937008 
vt 40.78975 0.7874016 
vt 36.43743 0.7874016 
vt -23.59382 0.7874016 
vt -23.59382 0 
vt -28.32317 0.7874016 
vt -28.32317 0 
vt -32.94527 0 
vt -37.67463 0 
vt -32.94527 0.7874016 
vt -37.67463 0.7874016 
vt -36.92111 0 
vt -41.65046 0 
vt -36.92111 0.7874016 
vt -41.65046 0.7874016 
vt -30.37035 0 
vt -35.0997 0 
vt -30.37035 0.7874016 
vt -35.0997 0.7874016 
vt -27.23532 0 
vt -31.96467 0 
vt -27.23532 0.7874016 
vt -31.96467 0.7874016 
vt -36.24892 0 
vt -40.97827 0 
vt -36.24892 0.7874016 
vt -40.97827 0.7874016 
vt -0.2102495 0.7874016 
vt -0.2102495 0 
vt -4.939603 0.7874016 
vt -4.939603 0 
vt 0 2.280132E-11 
vt 0.3368165 5.138826 
vt 1.341503 10.18973 
vt 2.996869 15.06628 
vt 5.27459 19.68504 
vt 8.135695 23.96699 
vt 11.53123 27.83885 
vt 15.40309 31.23438 
vt 19.68504 34.09549 
vt 24.3038 36.37321 
vt 29.18035 38.02858 
vt 34.23125 39.03326 
vt 39.37008 39.37008 
vt 39.37008 0 

usemtl grey

f 2/2/1 1/1/1 3/3/2 
f 3/3/2 4/4/2 2/2/1 
f 6/6/3 5/5/3 7/7/4 
f 7/7/4 8/8/4 6/6/3 
f 4/10/2 3/9/2 5/11/3 
f 5/11/3 6/12/3 4/10/2 
f 10/14/5 9/13/5 1/15/1 
f 1/15/1 2/16/1 10/14/5 
f 1/18/6 9/17/6 11/19/6 
f 11/19/6 3/20/6 1/18/6 
f 11/19/6 5/21/6 3/20/6 
f 11/19/6 7/22/6 5/21/6 
f 11/19/6 12/23/6 7/22/6 
f 11/19/6 13/24/6 12/23/6 
f 11/19/6 14/25/6 13/24/6 
f 11/19/6 15/26/6 14/25/6 
f 11/19/6 16/27/6 15/26/6 
f 16/27/6 17/28/6 15/26/6 
f 17/28/6 18/29/6 15/26/6 
f 18/29/6 19/30/6 15/26/6 
f 18/29/6 20/31/6 19/30/6 
f 20/31/6 21/32/6 19/30/6 
f 21/32/6 22/33/6 19/30/6 
f 22/33/6 23/34/6 19/30/6 
f 22/33/6 24/35/6 23/34/6 
f 24/35/6 25/36/6 23/34/6 
f 25/36/6 26/37/6 23/34/6 
f 26/37/6 27/38/6 23/34/6 
f 26/37/6 28/39/6 27/38/6 
f 28/39/6 29/40/6 27/38/6 
f 29/40/6 30/41/6 27/38/6 
f 29/40/6 31/42/6 30/41/6 
f 21/44/7 32/43/7 33/45/8 
f 33/45/8 22/46/8 21/44/7 
f 35/48/10 34/47/9 28/49/9 
f 28/49/9 26/50/10 35/48/10 
f 17/52/11 36/51/11 37/53/12 
f 37/53/12 18/54/12 17/52/11 
f 11/56/13 38/55/13 39/57/14 
f 39/57/14 16/58/14 11/56/13 
f 41/60/16 40/59/15 25/61/15 
f 25/61/15 24/62/16 41/60/16 
f 16/64/14 39/63/14 36/65/11 
f 36/65/11 17/66/11 16/64/14 
f 40/68/15 35/67/10 26/69/10 
f 26/69/10 25/70/15 40/68/15 
f 34/72/9 42/71/17 29/73/17 
f 29/73/17 28/74/9 34/72/9 
f 18/76/12 37/75/12 43/77/18 
f 43/77/18 20/78/18 18/76/12 
f 42/80/17 44/79/19 31/81/19 
f 31/81/19 29/82/17 42/80/17 
f 20/84/18 43/83/18 32/85/7 
f 32/85/7 21/86/7 20/84/18 
f 46/88/21 45/87/20 19/89/20 
f 19/89/20 23/90/21 46/88/21 
f 45/92/20 47/91/22 15/93/22 
f 15/93/22 19/94/20 45/92/20 
f 47/96/22 48/95/23 14/97/23 
f 14/97/23 15/98/22 47/96/22 
f 50/100/25 49/99/24 27/101/24 
f 27/101/24 30/102/25 50/100/25 
f 49/104/24 46/103/21 23/105/21 
f 23/105/21 27/106/24 49/104/24 
f 48/108/23 51/107/26 13/109/26 
f 13/109/26 14/110/23 48/108/23 
f 52/112/27 12/111/27 13/113/26 
f 13/113/26 51/114/26 52/112/27 
f 8/116/4 7/115/4 12/117/27 
f 12/117/27 52/118/27 8/116/4 
f 33/120/8 41/119/16 24/121/16 
f 24/121/16 22/122/8 33/120/8 
f 54/124/16 53/123/15 55/125/15 
f 55/125/15 56/126/16 54/124/16 
f 53/128/15 57/127/10 58/129/10 
f 58/129/10 55/130/15 53/128/15 
f 60/132/13 59/131/13 61/133/14 
f 61/133/14 62/134/14 60/132/13 
f 64/136/12 63/135/12 65/137/18 
f 65/137/18 66/138/18 64/136/12 
f 62/140/14 61/139/14 67/141/11 
f 67/141/11 68/142/11 62/140/14 
f 70/144/6 69/143/6 60/145/6 
f 60/145/6 71/146/6 70/144/6 
f 60/145/6 72/147/6 71/146/6 
f 60/145/6 62/148/6 72/147/6 
f 62/148/6 73/149/6 72/147/6 
f 62/148/6 68/150/6 73/149/6 
f 68/150/6 64/151/6 73/149/6 
f 64/151/6 74/152/6 73/149/6 
f 64/151/6 66/153/6 74/152/6 
f 66/153/6 75/154/6 74/152/6 
f 75/154/6 76/155/6 74/152/6 
f 75/154/6 77/156/6 76/155/6 
f 77/156/6 78/157/6 76/155/6 
f 77/156/6 56/158/6 78/157/6 
f 56/158/6 79/159/6 78/157/6 
f 56/158/6 55/160/6 79/159/6 
f 55/160/6 80/161/6 79/159/6 
f 55/160/6 58/162/6 80/161/6 
f 58/162/6 81/163/6 80/161/6 
f 58/162/6 82/164/6 81/163/6 
f 82/164/6 83/165/6 81/163/6 
f 82/164/6 84/166/6 83/165/6 
f 84/166/6 85/167/6 83/165/6 
f 84/166/6 86/168/6 85/167/6 
f 68/170/11 67/169/11 63/171/12 
f 63/171/12 64/172/12 68/170/11 
f 66/174/18 65/173/18 87/175/7 
f 87/175/7 75/176/7 66/174/18 
f 75/178/7 87/177/7 88/179/8 
f 88/179/8 77/180/8 75/178/7 
f 88/182/8 54/181/16 56/183/16 
f 56/183/16 77/184/8 88/182/8 
f 57/186/10 89/185/9 82/187/9 
f 82/187/9 58/188/10 57/186/10 
f 90/190/4 73/189/4 74/191/27 
f 74/191/27 91/192/27 90/190/4 
f 92/194/3 72/193/3 73/195/4 
f 73/195/4 90/196/4 92/194/3 
f 93/198/2 71/197/2 72/199/3 
f 72/199/3 92/200/3 93/198/2 
f 94/202/1 70/201/1 71/203/2 
f 71/203/2 93/204/2 94/202/1 
f 96/206/17 95/205/19 86/207/19 
f 86/207/19 84/208/17 96/206/17 
f 98/210/21 97/209/20 80/211/20 
f 80/211/20 81/212/21 98/210/21 
f 89/214/9 96/213/17 84/215/17 
f 84/215/17 82/216/9 89/214/9 
f 91/218/27 74/217/27 76/219/26 
f 76/219/26 99/220/26 91/218/27 
f 97/222/20 100/221/22 79/223/22 
f 79/223/22 80/224/20 97/222/20 
f 102/226/25 101/225/24 83/227/24 
f 83/227/24 85/228/25 102/226/25 
f 100/230/22 103/229/23 78/231/23 
f 78/231/23 79/232/22 100/230/22 
f 103/234/23 99/233/26 76/235/26 
f 76/235/26 78/236/23 103/234/23 
f 101/238/24 98/237/21 81/239/21 
f 81/239/21 83/240/24 101/238/24 
f 104/242/5 69/241/5 70/243/1 
f 70/243/1 94/244/1 104/242/5 

usemtl grass

f 106/246/6 105/245/6 104/143/6 
f 104/143/6 107/247/6 106/246/6 
f 104/143/6 108/248/6 107/247/6 
f 104/143/6 94/144/6 108/248/6 
f 94/144/6 109/249/6 108/248/6 
f 94/144/6 93/146/6 109/249/6 
f 93/146/6 92/147/6 109/249/6 
f 92/147/6 110/250/6 109/249/6 
f 92/147/6 90/149/6 110/250/6 
f 90/149/6 91/152/6 110/250/6 
f 91/152/6 111/251/6 110/250/6 
f 91/152/6 99/155/6 111/251/6 
f 99/155/6 112/252/6 111/251/6 
f 99/155/6 103/157/6 112/252/6 
f 103/157/6 113/253/6 112/252/6 
f 103/157/6 100/159/6 113/253/6 
f 100/159/6 114/254/6 113/253/6 
f 100/159/6 97/161/6 114/254/6 
f 97/161/6 115/255/6 114/254/6 
f 97/161/6 98/163/6 115/255/6 
f 98/163/6 116/256/6 115/255/6 
f 98/163/6 101/165/6 116/256/6 
f 101/165/6 117/257/6 116/256/6 
f 101/165/6 102/167/6 117/257/6 
f 39/27/6 38/19/6 118/258/6 
f 118/258/6 36/28/6 39/27/6 
f 118/258/6 37/29/6 36/28/6 
f 118/258/6 43/31/6 37/29/6 
f 118/258/6 32/32/6 43/31/6 
f 118/258/6 33/33/6 32/32/6 
f 118/258/6 41/35/6 33/33/6 
f 118/258/6 40/36/6 41/35/6 
f 118/258/6 35/37/6 40/36/6 
f 118/258/6 34/39/6 35/37/6 
f 118/258/6 42/40/6 34/39/6 
f 118/258/6 44/42/6 42/40/6 

usemtl road

f 61/148/6 59/145/6 10/17/6 
f 10/17/6 67/150/6 61/148/6 
f 10/17/6 63/151/6 67/150/6 
f 10/17/6 65/153/6 63/151/6 
f 10/17/6 87/154/6 65/153/6 
f 10/17/6 88/156/6 87/154/6 
f 10/17/6 54/158/6 88/156/6 
f 10/17/6 53/160/6 54/158/6 
f 10/17/6 57/162/6 53/160/6 
f 10/17/6 89/164/6 57/162/6 
f 10/17/6 96/166/6 89/164/6 
f 10/17/6 2/18/6 96/166/6 
f 2/18/6 4/20/6 96/166/6 
f 4/20/6 6/21/6 96/166/6 
f 6/21/6 8/22/6 96/166/6 
f 8/22/6 52/23/6 96/166/6 
f 52/23/6 51/24/6 96/166/6 
f 51/24/6 95/168/6 96/166/6 
f 51/24/6 48/25/6 95/168/6 
f 48/25/6 47/26/6 95/168/6 
f 47/26/6 45/30/6 95/168/6 
f 45/30/6 46/34/6 95/168/6 
f 46/34/6 49/38/6 95/168/6 
f 49/38/6 50/41/6 95/168/6 
g roadCornerSmall




usemtl grey

f 2/2/1 1/1/1 3/3/2 
f 3/3/2 4/4/2 2/2/1 
f 6/6/3 5/5/3 7/7/4 
f 7/7/4 8/8/4 6/6/3 
f 4/10/2 3/9/2 5/11/3 
f 5/11/3 6/12/3 4/10/2 
f 10/14/5 9/13/5 1/15/1 
f 1/15/1 2/16/1 10/14/5 
f 1/18/6 9/17/6 11/19/6 
f 11/19/6 3/20/6 1/18/6 
f 11/19/6 5/21/6 3/20/6 
f 11/19/6 7/22/6 5/21/6 
f 11/19/6 12/23/6 7/22/6 
f 11/19/6 13/24/6 12/23/6 
f 11/19/6 14/25/6 13/24/6 
f 11/19/6 15/26/6 14/25/6 
f 11/19/6 16/27/6 15/26/6 
f 16/27/6 17/28/6 15/26/6 
f 17/28/6 18/29/6 15/26/6 
f 18/29/6 19/30/6 15/26/6 
f 18/29/6 20/31/6 19/30/6 
f 20/31/6 21/32/6 19/30/6 
f 21/32/6 22/33/6 19/30/6 
f 22/33/6 23/34/6 19/30/6 
f 22/33/6 24/35/6 23/34/6 
f 24/35/6 25/36/6 23/34/6 
f 25/36/6 26/37/6 23/34/6 
f 26/37/6 27/38/6 23/34/6 
f 26/37/6 28/39/6 27/38/6 
f 28/39/6 29/40/6 27/38/6 
f 29/40/6 30/41/6 27/38/6 
f 29/40/6 31/42/6 30/41/6 
f 21/44/7 32/43/7 33/45/8 
f 33/45/8 22/46/8 21/44/7 
f 35/48/10 34/47/9 28/49/9 
f 28/49/9 26/50/10 35/48/10 
f 17/52/11 36/51/11 37/53/12 
f 37/53/12 18/54/12 17/52/11 
f 11/56/13 38/55/13 39/57/14 
f 39/57/14 16/58/14 11/56/13 
f 41/60/16 40/59/15 25/61/15 
f 25/61/15 24/62/16 41/60/16 
f 16/64/14 39/63/14 36/65/11 
f 36/65/11 17/66/11 16/64/14 
f 40/68/15 35/67/10 26/69/10 
f 26/69/10 25/70/15 40/68/15 
f 34/72/9 42/71/17 29/73/17 
f 29/73/17 28/74/9 34/72/9 
f 18/76/12 37/75/12 43/77/18 
f 43/77/18 20/78/18 18/76/12 
f 42/80/17 44/79/19 31/81/19 
f 31/81/19 29/82/17 42/80/17 
f 20/84/18 43/83/18 32/85/7 
f 32/85/7 21/86/7 20/84/18 
f 46/88/21 45/87/20 19/89/20 
f 19/89/20 23/90/21 46/88/21 
f 45/92/20 47/91/22 15/93/22 
f 15/93/22 19/94/20 45/92/20 
f 47/96/22 48/95/23 14/97/23 
f 14/97/23 15/98/22 47/96/22 
f 50/100/25 49/99/24 27/101/24 
f 27/101/24 30/102/25 50/100/25 
f 49/104/24 46/103/21 23/105/21 
f 23/105/21 27/106/24 49/104/24 
f 48/108/23 51/107/26 13/109/26 
f 13/109/26 14/110/23 48/108/23 
f 52/112/27 12/111/27 13/113/26 
f 13/113/26 51/114/26 52/112/27 
f 8/116/4 7/115/4 12/117/27 
f 12/117/27 52/118/27 8/116/4 
f 33/120/8 41/119/16 24/121/16 
f 24/121/16 22/122/8 33/120/8 
f 54/124/16 53/123/15 55/125/15 
f 55/125/15 56/126/16 54/124/16 
f 53/128/15 57/127/10 58/129/10 
f 58/129/10 55/130/15 53/128/15 
f 60/132/13 59/131/13 61/133/14 
f 61/133/14 62/134/14 60/132/13 
f 64/136/12 63/135/12 65/137/18 
f 65/137/18 66/138/18 64/136/12 
f 62/140/14 61/139/14 67/141/11 
f 67/141/11 68/142/11 62/140/14 
f 70/144/6 69/143/6 60/145/6 
f 60/145/6 71/146/6 70/144/6 
f 60/145/6 72/147/6 71/146/6 
f 60/145/6 62/148/6 72/147/6 
f 62/148/6 73/149/6 72/147/6 
f 62/148/6 68/150/6 73/149/6 
f 68/150/6 64/151/6 73/149/6 
f 64/151/6 74/152/6 73/149/6 
f 64/151/6 66/153/6 74/152/6 
f 66/153/6 75/154/6 74/152/6 
f 75/154/6 76/155/6 74/152/6 
f 75/154/6 77/156/6 76/155/6 
f 77/156/6 78/157/6 76/155/6 
f 77/156/6 56/158/6 78/157/6 
f 56/158/6 79/159/6 78/157/6 
f 56/158/6 55/160/6 79/159/6 
f 55/160/6 80/161/6 79/159/6 
f 55/160/6 58/162/6 80/161/6 
f 58/162/6 81/163/6 80/161/6 
f 58/162/6 82/164/6 81/163/6 
f 82/164/6 83/165/6 81/163/6 
f 82/164/6 84/166/6 83/165/6 
f 84/166/6 85/167/6 83/165/6 
f 84/166/6 86/168/6 85/167/6 
f 68/170/11 67/169/11 63/171/12 
f 63/171/12 64/172/12 68/170/11 
f 66/174/18 65/173/18 87/175/7 
f 87/175/7 75/176/7 66/174/18 
f 75/178/7 87/177/7 88/179/8 
f 88/179/8 77/180/8 75/178/7 
f 88/182/8 54/181/16 56/183/16 
f 56/183/16 77/184/8 88/182/8 
f 57/186/10 89/185/9 82/187/9 
f 82/187/9 58/188/10 57/186/10 
f 90/190/4 73/189/4 74/191/27 
f 74/191/27 91/192/27 90/190/4 
f 92/194/3 72/193/3 73/195/4 
f 73/195/4 90/196/4 92/194/3 
f 93/198/2 71/197/2 72/199/3 
f 72/199/3 92/200/3 93/198/2 
f 94/202/1 70/201/1 71/203/2 
f 71/203/2 93/204/2 94/202/1 
f 96/206/17 95/205/19 86/207/19 
f 86/207/19 84/208/17 96/206/17 
f 98/210/21 97/209/20 80/211/20 
f 80/211/20 81/212/21 98/210/21 
f 89/214/9 96/213/17 84/215/17 
f 84/215/17 82/216/9 89/214/9 
f 91/218/27 74/217/27 76/219/26 
f 76/219/26 99/220/26 91/218/27 
f 97/222/20 100/221/22 79/223/22 
f 79/223/22 80/224/20 97/222/20 
f 102/226/25 101/225/24 83/227/24 
f 83/227/24 85/228/25 102/226/25 
f 100/230/22 103/229/23 78/231/23 
f 78/231/23 79/232/22 100/230/22 
f 103/234/23 99/233/26 76/235/26 
f 76/235/26 78/236/23 103/234/23 
f 101/238/24 98/237/21 81/239/21 
f 81/239/21 83/240/24 101/238/24 
f 104/242/5 69/241/5 70/243/1 
f 70/243/1 94/244/1 104/242/5 

usemtl grass

f 106/246/6 105/245/6 104/143/6 
f 104/143/6 107/247/6 106/246/6 
f 104/143/6 108/248/6 107/247/6 
f 104/143/6 94/144/6 108/248/6 
f 94/144/6 109/249/6 108/248/6 
f 94/144/6 93/146/6 109/249/6 
f 93/146/6 92/147/6 109/249/6 
f 92/147/6 110/250/6 109/249/6 
f 92/147/6 90/149/6 110/250/6 
f 90/149/6 91/152/6 110/250/6 
f 91/152/6 111/251/6 110/250/6 
f 91/152/6 99/155/6 111/251/6 
f 99/155/6 112/252/6 111/251/6 
f 99/155/6 103/157/6 112/252/6 
f 103/157/6 113/253/6 112/252/6 
f 103/157/6 100/159/6 113/253/6 
f 100/159/6 114/254/6 113/253/6 
f 100/159/6 97/161/6 114/254/6 
f 97/161/6 115/255/6 114/254/6 
f 97/161/6 98/163/6 115/255/6 
f 98/163/6 116/256/6 115/255/6 
f 98/163/6 101/165/6 116/256/6 
f 101/165/6 117/257/6 116/256/6 
f 101/165/6 102/167/6 117/257/6 
f 39/27/6 38/19/6 118/258/6 
f 118/258/6 36/28/6 39/27/6 
f 118/258/6 37/29/6 36/28/6 
f 118/258/6 43/31/6 37/29/6 
f 118/258/6 32/32/6 43/31/6 
f 118/258/6 33/33/6 32/32/6 
f 118/258/6 41/35/6 33/33/6 
f 118/258/6 40/36/6 41/35/6 
f 118/258/6 35/37/6 40/36/6 
f 118/258/6 34/39/6 35/37/6 
f 118/258/6 42/40/6 34/39/6 
f 118/258/6 44/42/6 42/40/6 

usemtl road

f 61/148/6 59/145/6 10/17/6 
f 10/17/6 67/150/6 61/148/6 
f 10/17/6 63/151/6 67/150/6 
f 10/17/6 65/153/6 63/151/6 
f 10/17/6 87/154/6 65/153/6 
f 10/17/6 88/156/6 87/154/6 
f 10/17/6 54/158/6 88/156/6 
f 10/17/6 53/160/6 54/158/6 
f 10/17/6 57/162/6 53/160/6 
f 10/17/6 89/164/6 57/162/6 
f 10/17/6 96/166/6 89/164/6 
f 10/17/6 2/18/6 96/166/6 
f 2/18/6 4/20/6 96/166/6 
f 4/20/6 6/21/6 96/166/6 
f 6/21/6 8/22/6 96/166/6 
f 8/22/6 52/23/6 96/166/6 
f 52/23/6 51/24/6 96/166/6 
f 51/24/6 95/168/6 96/166/6 
f 51/24/6 48/25/6 95/168/6 
f 48/25/6 47/26/6 95/168/6 
f 47/26/6 45/30/6 95/168/6 
f 45/30/6 46/34/6 95/168/6 
f 46/34/6 49/38/6 95/168/6 
f 49/38/6 50/41/6 95/168/6 
