# Created by Kenney (www.kenney.nl) 

mtllib roadStraightLongMid.mtl 

g roadStraightLongMid

v -0.9183474 0 0 
v -0.9183474 0 2 
v -1 0 0 
v -1 0 2 
v 0 0 0 
v 0 0 2 
v -0.08165261 0 0 
v -0.08165261 0 2 
v -0.8451352 0.02 0 
v -0.8451352 0.02 2 
v -0.9183474 0.02 0 
v -0.9183474 0.02 2 
v -0.8451352 0.01 0 
v -0.8451352 0.01 2 
v -0.08165261 0.02 0 
v -0.08165261 0.02 2 
v -0.1548649 0.02 0 
v -0.1548649 0.02 2 
v -0.1548649 0.01 0 
v -0.1548649 0.01 2 
v -0.4440918 0.02 0.4010433 
v -0.4440918 0.02 1.598957 
v -0.4459968 0.02 0.3865732 
v -0.4459968 0.02 1.613427 
v -0.451582 0.02 0.3730892 
v -0.451582 0.02 1.626911 
v -0.4604669 0.02 0.3615102 
v -0.4604669 0.02 1.63849 
v -0.4720459 0.02 0.3526254 
v -0.4720459 0.02 1.647375 
v -0.4855299 0.02 0.3470401 
v -0.4855299 0.02 1.65296 
v -0.5 0.02 0.3451351 
v -0.5 0.02 1.654865 
v -0.5144701 0.02 0.3470401 
v -0.5144701 0.02 1.65296 
v -0.5279541 0.02 0.3526254 
v -0.5279541 0.02 1.647375 
v -0.5395331 0.02 0.3615102 
v -0.5395331 0.02 1.63849 
v -0.5484179 0.02 0.3730892 
v -0.5484179 0.02 1.626911 
v -0.5540032 0.02 0.3865732 
v -0.5540032 0.02 1.613427 
v -0.5559082 0.02 0.4010433 
v -0.5559082 0.02 1.598957 
v -0.4440918 0.01 0.4010433 
v -0.4440918 0.01 1.598957 
v -0.4459968 0.01 0.3865732 
v -0.451582 0.01 0.3730892 
v -0.4604669 0.01 0.3615102 
v -0.4720459 0.01 0.3526254 
v -0.4855299 0.01 0.3470401 
v -0.5 0.01 0.3451351 
v -0.5144701 0.01 0.3470401 
v -0.5279541 0.01 0.3526254 
v -0.5395331 0.01 0.3615102 
v -0.5484179 0.01 0.3730892 
v -0.5540032 0.01 0.3865732 
v -0.5559082 0.01 0.4010433 
v -0.5559082 0.01 1.598957 
v -0.5540032 0.01 1.613427 
v -0.5484179 0.01 1.626911 
v -0.5395331 0.01 1.63849 
v -0.5279541 0.01 1.647375 
v -0.5144701 0.01 1.65296 
v -0.5 0.01 1.654865 
v -0.4855299 0.01 1.65296 
v -0.4720459 0.01 1.647375 
v -0.4604669 0.01 1.63849 
v -0.451582 0.01 1.626911 
v -0.4459968 0.01 1.613427 

vn 0 1 0 
vn 1 0 0 
vn -1 0 0 
vn 0.9659258 0 -0.258819 
vn 0.9914449 0 -0.1305262 
vn 0.8660254 0 -0.5 
vn 0.7071068 0 -0.7071068 
vn 0.5 0 -0.8660254 
vn 0.258819 0 -0.9659258 
vn 0 0 -1 
vn -0.258819 0 -0.9659258 
vn -0.5 0 -0.8660254 
vn -0.7071068 0 -0.7071068 
vn -0.8660254 0 -0.5 
vn -0.9659258 0 -0.258819 
vn -0.9914449 0 -0.1305262 
vn -0.9914449 0 0.1305262 
vn -0.9659258 0 0.258819 
vn -0.8660254 0 0.5 
vn -0.7071068 0 0.7071068 
vn -0.5 0 0.8660254 
vn -0.258819 0 0.9659258 
vn 0 0 1 
vn 0.258819 0 0.9659258 
vn 0.5 0 0.8660254 
vn 0.7071068 0 0.7071068 
vn 0.8660254 0 0.5 
vn 0.9659258 0 0.258819 
vn 0.9914449 0 0.1305262 

vt 36.15541 0 
vt 36.15541 78.74016 
vt 39.37008 0 
vt 39.37008 78.74016 
vt 0 0 
vt 0 78.74016 
vt 3.21467 0 
vt 3.21467 78.74016 
vt 33.27304 8.326673E-18 
vt 33.27304 78.74016 
vt 36.15541 8.326673E-18 
vt 0 0.7874016 
vt 0 0.3937008 
vt -78.74016 0.7874016 
vt -78.74016 0.3937008 
vt 78.74016 6.310887E-30 
vt 78.74016 0.7874016 
vt -78.74016 6.310887E-30 
vt 3.21467 -6.106227E-18 
vt 6.097044 -6.106227E-18 
vt 6.097044 78.74016 
vt 4.401525E-15 0.3937008 
vt 4.401525E-15 0.7874016 
vt 78.74016 0.3937008 
vt 17.48393 15.78911 
vt 17.48393 62.95105 
vt 17.55893 15.21942 
vt 17.55893 63.52074 
vt 17.77882 14.68855 
vt 17.77882 64.05161 
vt 18.12862 14.23269 
vt 18.12862 64.50747 
vt 18.58448 13.88289 
vt 18.58448 64.85727 
vt 19.11535 13.663 
vt 19.11535 65.07716 
vt 19.68504 13.588 
vt 19.68504 65.15216 
vt 20.25473 13.663 
vt 20.25473 65.07716 
vt 20.78559 13.88289 
vt 20.78559 64.85727 
vt 21.24146 14.23269 
vt 21.24146 64.50747 
vt 21.59126 14.68855 
vt 21.59126 64.05161 
vt 21.81115 15.21942 
vt 21.81115 63.52074 
vt 21.88615 15.78911 
vt 21.88615 62.95105 
vt -15.78911 0.7874016 
vt -15.78911 0.3937008 
vt -62.95105 0.7874016 
vt -62.95105 0.3937008 
vt -12.79731 0.7874016 
vt -12.79731 0.3937008 
vt -13.37192 0.7874016 
vt -13.37192 0.3937008 
vt -6.766792 0.7874016 
vt -6.766792 0.3937008 
vt -7.341397 0.7874016 
vt -7.341397 0.3937008 
vt -0.2555456 0.7874016 
vt -0.2555456 0.3937008 
vt -0.830151 0.7874016 
vt -0.830151 0.3937008 
vt 6.292695 0.3937008 
vt 5.71809 0.3937008 
vt 6.292695 0.7874016 
vt 5.71809 0.7874016 
vt 12.43168 0.3937008 
vt 11.85707 0.3937008 
vt 12.43168 0.7874016 
vt 11.85707 0.7874016 
vt 17.74304 0.3937008 
vt 17.16844 0.3937008 
vt 17.74304 0.7874016 
vt 17.16844 0.7874016 
vt 21.86483 0.3937008 
vt 21.29022 0.3937008 
vt 21.86483 0.7874016 
vt 21.29022 0.7874016 
vt 24.51614 0.3937008 
vt 23.94153 0.3937008 
vt 24.51614 0.7874016 
vt 23.94153 0.7874016 
vt 25.51629 0.3937008 
vt 24.94169 0.3937008 
vt 25.51629 0.7874016 
vt 24.94169 0.7874016 
vt 24.22253 0.3937008 
vt 24.22253 0.7874016 
vt 24.79714 0.3937008 
vt 24.79714 0.7874016 
vt 21.83307 0.3937008 
vt 21.83307 0.7874016 
vt 22.40767 0.3937008 
vt 22.40767 0.7874016 
vt 17.93614 0.3937008 
vt 17.93614 0.7874016 
vt 18.51075 0.3937008 
vt 18.51075 0.7874016 
vt 15.78911 0.3937008 
vt 15.78911 0.7874016 
vt 62.95105 0.3937008 
vt 62.95105 0.7874016 
vt 59.55578 0.3937008 
vt 59.55578 0.7874016 
vt 60.13039 0.3937008 
vt 60.13039 0.7874016 
vt 50.33875 0.3937008 
vt 50.33875 0.7874016 
vt 50.91335 0.3937008 
vt 50.91335 0.7874016 
vt 37.67163 0.3937008 
vt 37.67163 0.7874016 
vt 38.24623 0.3937008 
vt 38.24623 0.7874016 
vt 22.99228 0.3937008 
vt 22.41768 0.3937008 
vt 22.99228 0.7874016 
vt 22.41768 0.7874016 
vt 6.191022 0.3937008 
vt 5.616416 0.3937008 
vt 6.191022 0.7874016 
vt 5.616416 0.7874016 
vt -11.01257 0.3937008 
vt -11.58717 0.3937008 
vt -11.01257 0.7874016 
vt -11.58717 0.7874016 
vt -27.44609 0.3937008 
vt -28.02069 0.3937008 
vt -27.44609 0.7874016 
vt -28.02069 0.7874016 
vt -41.98963 0.3937008 
vt -42.56423 0.3937008 
vt -41.98963 0.7874016 
vt -42.56423 0.7874016 
vt -53.65206 0.3937008 
vt -54.22667 0.3937008 
vt -53.65206 0.7874016 
vt -54.22667 0.7874016 
vt -61.63861 0.7874016 
vt -61.63861 0.3937008 
vt -62.21322 0.7874016 
vt -62.21322 0.3937008 
vt -65.40502 0.7874016 
vt -65.40502 0.3937008 
vt -65.97963 0.7874016 
vt -65.97963 0.3937008 
vt -64.6946 0.7874016 
vt -64.6946 0.3937008 
vt -65.26921 0.7874016 
vt -65.26921 0.3937008 
vt 6.097044 0 
vt 33.27304 0 

usemtl grass

f 2/2/1 1/1/1 3/3/1 
f 3/3/1 4/4/1 2/2/1 
f 6/6/1 5/5/1 7/7/1 
f 7/7/1 8/8/1 6/6/1 

usemtl grey

f 10/10/1 9/9/1 11/11/1 
f 11/11/1 12/2/1 10/10/1 
f 13/13/2 9/12/2 10/14/2 
f 10/14/2 14/15/2 13/13/2 
f 11/12/3 1/5/3 2/16/3 
f 2/16/3 12/17/3 11/12/3 
f 7/5/2 15/12/2 16/14/2 
f 16/14/2 8/18/2 7/5/2 
f 16/8/1 15/19/1 17/20/1 
f 17/20/1 18/21/1 16/8/1 
f 17/23/3 19/22/3 20/24/3 
f 20/24/3 18/17/3 17/23/3 
f 22/26/1 21/25/1 23/27/1 
f 23/27/1 24/28/1 22/26/1 
f 23/27/1 25/29/1 24/28/1 
f 25/29/1 26/30/1 24/28/1 
f 25/29/1 27/31/1 26/30/1 
f 27/31/1 28/32/1 26/30/1 
f 27/31/1 29/33/1 28/32/1 
f 29/33/1 30/34/1 28/32/1 
f 29/33/1 31/35/1 30/34/1 
f 31/35/1 32/36/1 30/34/1 
f 31/35/1 33/37/1 32/36/1 
f 33/37/1 34/38/1 32/36/1 
f 33/37/1 35/39/1 34/38/1 
f 35/39/1 36/40/1 34/38/1 
f 35/39/1 37/41/1 36/40/1 
f 37/41/1 38/42/1 36/40/1 
f 37/41/1 39/43/1 38/42/1 
f 39/43/1 40/44/1 38/42/1 
f 39/43/1 41/45/1 40/44/1 
f 41/45/1 42/46/1 40/44/1 
f 41/45/1 43/47/1 42/46/1 
f 43/47/1 44/48/1 42/46/1 
f 43/47/1 45/49/1 44/48/1 
f 45/49/1 46/50/1 44/48/1 
f 47/52/2 21/51/2 22/53/2 
f 22/53/2 48/54/2 47/52/2 
f 49/56/4 23/55/4 21/57/5 
f 21/57/5 47/58/5 49/56/4 
f 50/60/6 25/59/6 23/61/4 
f 23/61/4 49/62/4 50/60/6 
f 51/64/7 27/63/7 25/65/6 
f 25/65/6 50/66/6 51/64/7 
f 51/68/7 52/67/8 29/69/8 
f 29/69/8 27/70/7 51/68/7 
f 52/72/8 53/71/9 31/73/9 
f 31/73/9 29/74/8 52/72/8 
f 53/76/9 54/75/10 33/77/10 
f 33/77/10 31/78/9 53/76/9 
f 54/80/10 55/79/11 35/81/11 
f 35/81/11 33/82/10 54/80/10 
f 55/84/11 56/83/12 37/85/12 
f 37/85/12 35/86/11 55/84/11 
f 56/88/12 57/87/13 39/89/13 
f 39/89/13 37/90/12 56/88/12 
f 39/92/13 57/91/13 58/93/14 
f 58/93/14 41/94/14 39/92/13 
f 41/96/14 58/95/14 59/97/15 
f 59/97/15 43/98/15 41/96/14 
f 43/100/15 59/99/15 60/101/16 
f 60/101/16 45/102/16 43/100/15 
f 45/104/3 60/103/3 61/105/3 
f 61/105/3 46/106/3 45/104/3 
f 46/108/17 61/107/17 62/109/18 
f 62/109/18 44/110/18 46/108/17 
f 44/112/18 62/111/18 63/113/19 
f 63/113/19 42/114/19 44/112/18 
f 42/116/19 63/115/19 64/117/20 
f 64/117/20 40/118/20 42/116/19 
f 64/120/20 65/119/21 38/121/21 
f 38/121/21 40/122/20 64/120/20 
f 65/124/21 66/123/22 36/125/22 
f 36/125/22 38/126/21 65/124/21 
f 66/128/22 67/127/23 34/129/23 
f 34/129/23 36/130/22 66/128/22 
f 67/132/23 68/131/24 32/133/24 
f 32/133/24 34/134/23 67/132/23 
f 68/136/24 69/135/25 30/137/25 
f 30/137/25 32/138/24 68/136/24 
f 69/140/25 70/139/26 28/141/26 
f 28/141/26 30/142/25 69/140/25 
f 71/144/27 26/143/27 28/145/26 
f 28/145/26 70/146/26 71/144/27 
f 72/148/28 24/147/28 26/149/27 
f 26/149/27 71/150/27 72/148/28 
f 48/152/29 22/151/29 24/153/28 
f 24/153/28 72/154/28 48/152/29 

usemtl road

f 49/27/1 20/21/1 19/155/1 
f 19/155/1 50/29/1 49/27/1 
f 19/155/1 51/31/1 50/29/1 
f 19/155/1 13/156/1 51/31/1 
f 49/27/1 47/25/1 20/21/1 
f 13/156/1 52/33/1 51/31/1 
f 13/156/1 53/35/1 52/33/1 
f 13/156/1 54/37/1 53/35/1 
f 13/156/1 55/39/1 54/37/1 
f 13/156/1 56/41/1 55/39/1 
f 13/156/1 57/43/1 56/41/1 
f 13/156/1 58/45/1 57/43/1 
f 13/156/1 59/47/1 58/45/1 
f 13/156/1 60/49/1 59/47/1 
f 13/156/1 61/50/1 60/49/1 
f 61/50/1 13/156/1 14/10/1 
f 62/48/1 61/50/1 14/10/1 
f 63/46/1 62/48/1 14/10/1 
f 64/44/1 63/46/1 14/10/1 
f 65/42/1 64/44/1 14/10/1 
f 66/40/1 65/42/1 14/10/1 
f 67/38/1 66/40/1 14/10/1 
f 68/36/1 67/38/1 14/10/1 
f 69/34/1 68/36/1 14/10/1 
f 70/32/1 69/34/1 14/10/1 
f 70/32/1 14/10/1 20/21/1 
f 20/21/1 71/30/1 70/32/1 
f 20/21/1 72/28/1 71/30/1 
f 20/21/1 48/26/1 72/28/1 
f 20/21/1 47/25/1 48/26/1 
g roadStraightLongMid




usemtl grass

f 2/2/1 1/1/1 3/3/1 
f 3/3/1 4/4/1 2/2/1 
f 6/6/1 5/5/1 7/7/1 
f 7/7/1 8/8/1 6/6/1 

usemtl grey

f 10/10/1 9/9/1 11/11/1 
f 11/11/1 12/2/1 10/10/1 
f 13/13/2 9/12/2 10/14/2 
f 10/14/2 14/15/2 13/13/2 
f 11/12/3 1/5/3 2/16/3 
f 2/16/3 12/17/3 11/12/3 
f 7/5/2 15/12/2 16/14/2 
f 16/14/2 8/18/2 7/5/2 
f 16/8/1 15/19/1 17/20/1 
f 17/20/1 18/21/1 16/8/1 
f 17/23/3 19/22/3 20/24/3 
f 20/24/3 18/17/3 17/23/3 
f 22/26/1 21/25/1 23/27/1 
f 23/27/1 24/28/1 22/26/1 
f 23/27/1 25/29/1 24/28/1 
f 25/29/1 26/30/1 24/28/1 
f 25/29/1 27/31/1 26/30/1 
f 27/31/1 28/32/1 26/30/1 
f 27/31/1 29/33/1 28/32/1 
f 29/33/1 30/34/1 28/32/1 
f 29/33/1 31/35/1 30/34/1 
f 31/35/1 32/36/1 30/34/1 
f 31/35/1 33/37/1 32/36/1 
f 33/37/1 34/38/1 32/36/1 
f 33/37/1 35/39/1 34/38/1 
f 35/39/1 36/40/1 34/38/1 
f 35/39/1 37/41/1 36/40/1 
f 37/41/1 38/42/1 36/40/1 
f 37/41/1 39/43/1 38/42/1 
f 39/43/1 40/44/1 38/42/1 
f 39/43/1 41/45/1 40/44/1 
f 41/45/1 42/46/1 40/44/1 
f 41/45/1 43/47/1 42/46/1 
f 43/47/1 44/48/1 42/46/1 
f 43/47/1 45/49/1 44/48/1 
f 45/49/1 46/50/1 44/48/1 
f 47/52/2 21/51/2 22/53/2 
f 22/53/2 48/54/2 47/52/2 
f 49/56/4 23/55/4 21/57/5 
f 21/57/5 47/58/5 49/56/4 
f 50/60/6 25/59/6 23/61/4 
f 23/61/4 49/62/4 50/60/6 
f 51/64/7 27/63/7 25/65/6 
f 25/65/6 50/66/6 51/64/7 
f 51/68/7 52/67/8 29/69/8 
f 29/69/8 27/70/7 51/68/7 
f 52/72/8 53/71/9 31/73/9 
f 31/73/9 29/74/8 52/72/8 
f 53/76/9 54/75/10 33/77/10 
f 33/77/10 31/78/9 53/76/9 
f 54/80/10 55/79/11 35/81/11 
f 35/81/11 33/82/10 54/80/10 
f 55/84/11 56/83/12 37/85/12 
f 37/85/12 35/86/11 55/84/11 
f 56/88/12 57/87/13 39/89/13 
f 39/89/13 37/90/12 56/88/12 
f 39/92/13 57/91/13 58/93/14 
f 58/93/14 41/94/14 39/92/13 
f 41/96/14 58/95/14 59/97/15 
f 59/97/15 43/98/15 41/96/14 
f 43/100/15 59/99/15 60/101/16 
f 60/101/16 45/102/16 43/100/15 
f 45/104/3 60/103/3 61/105/3 
f 61/105/3 46/106/3 45/104/3 
f 46/108/17 61/107/17 62/109/18 
f 62/109/18 44/110/18 46/108/17 
f 44/112/18 62/111/18 63/113/19 
f 63/113/19 42/114/19 44/112/18 
f 42/116/19 63/115/19 64/117/20 
f 64/117/20 40/118/20 42/116/19 
f 64/120/20 65/119/21 38/121/21 
f 38/121/21 40/122/20 64/120/20 
f 65/124/21 66/123/22 36/125/22 
f 36/125/22 38/126/21 65/124/21 
f 66/128/22 67/127/23 34/129/23 
f 34/129/23 36/130/22 66/128/22 
f 67/132/23 68/131/24 32/133/24 
f 32/133/24 34/134/23 67/132/23 
f 68/136/24 69/135/25 30/137/25 
f 30/137/25 32/138/24 68/136/24 
f 69/140/25 70/139/26 28/141/26 
f 28/141/26 30/142/25 69/140/25 
f 71/144/27 26/143/27 28/145/26 
f 28/145/26 70/146/26 71/144/27 
f 72/148/28 24/147/28 26/149/27 
f 26/149/27 71/150/27 72/148/28 
f 48/152/29 22/151/29 24/153/28 
f 24/153/28 72/154/28 48/152/29 

usemtl road

f 49/27/1 20/21/1 19/155/1 
f 19/155/1 50/29/1 49/27/1 
f 19/155/1 51/31/1 50/29/1 
f 19/155/1 13/156/1 51/31/1 
f 49/27/1 47/25/1 20/21/1 
f 13/156/1 52/33/1 51/31/1 
f 13/156/1 53/35/1 52/33/1 
f 13/156/1 54/37/1 53/35/1 
f 13/156/1 55/39/1 54/37/1 
f 13/156/1 56/41/1 55/39/1 
f 13/156/1 57/43/1 56/41/1 
f 13/156/1 58/45/1 57/43/1 
f 13/156/1 59/47/1 58/45/1 
f 13/156/1 60/49/1 59/47/1 
f 13/156/1 61/50/1 60/49/1 
f 61/50/1 13/156/1 14/10/1 
f 62/48/1 61/50/1 14/10/1 
f 63/46/1 62/48/1 14/10/1 
f 64/44/1 63/46/1 14/10/1 
f 65/42/1 64/44/1 14/10/1 
f 66/40/1 65/42/1 14/10/1 
f 67/38/1 66/40/1 14/10/1 
f 68/36/1 67/38/1 14/10/1 
f 69/34/1 68/36/1 14/10/1 
f 70/32/1 69/34/1 14/10/1 
f 70/32/1 14/10/1 20/21/1 
f 20/21/1 71/30/1 70/32/1 
f 20/21/1 72/28/1 71/30/1 
f 20/21/1 48/26/1 72/28/1 
f 20/21/1 47/25/1 48/26/1 
