# Created by Kenney (www.kenney.nl) 

mtllib roadCornerLargeBorderInner.mtl 

g roadCornerLargeBorderInner

v -1.133975 0.02 0.5 
v -1.206647 0.02 0.6087614 
v -1.31584 0.02 0.395 
v -1.292893 0.02 0.7071067 
v -1.373251 0.02 0.4809215 
v -1.441386 0.02 0.5586144 
v -1.31584 0 0.395 
v -1.373251 0 0.4809215 
v -1.133975 0 0.5 
v -1.206647 0 0.6087614 
v -1.292893 0 0.7071067 
v -1.441386 0 0.5586144 
v -1.69768 0 0.7298648 
v -1.605 0 0.6841601 
v -1.69768 0.02 0.7298648 
v -1.605 0.02 0.6841601 
v -1.5 0.02 0.8660254 
v -1.617317 0.02 0.9238795 
v -1.741181 0.02 0.9659258 
v -1.795533 0.02 0.7630814 
v -1.617317 0 0.9238795 
v -1.741181 0 0.9659258 
v -1.795533 0 0.7630814 
v -1.5 0 0.8660254 
v -1.008555 0.02 0.1305262 
v -1.008555 0 0.1305262 
v -1.034074 0.02 0.258819 
v -1.034074 0 0.258819 
v -1 0.02 0 
v -1 0 0 
v -1.21 0.02 0 
v -1.216759 0.02 0.1031157 
v -1.236919 0.02 0.2044671 
v -1.21 0 0 
v -1.216759 0 0.1031157 
v -1.236919 0 0.2044671 
v -1.519078 0 0.6267492 
v -1.519078 0.02 0.6267492 
v -1.391239 0.02 0.7933533 
v -1.391239 0 0.7933533 
v -1.869474 0.02 0.9914449 
v -1.896884 0.02 0.7832414 
v -2 0.02 1 
v -2 0.02 0.79 
v -1.896884 0 0.7832414 
v -1.07612 0.02 0.3826834 
v -1.270135 0.02 0.3023199 
v -1.869474 0 0.9914449 
v -1.270135 0 0.3023199 
v -1.07612 0 0.3826834 
v -2 0 1 
v -2 0 0.79 

vn 0 1 0 
vn -0.8314696 0 -0.5555702 
vn -0.7933533 0 -0.6087614 
vn 0.8314696 0 0.5555702 
vn 0.7933533 0 0.6087614 
vn 0.7518399 0 0.6593459 
vn -0.7518399 0 -0.6593459 
vn -0.3826834 0 -0.9238795 
vn -0.4422887 0 -0.8968728 
vn 0.3826834 0 0.9238795 
vn 0.3214395 0 0.9469302 
vn -0.3214395 0 -0.9469302 
vn 0.4422887 0 0.8968728 
vn 0.9914449 0 0.1305262 
vn 0.9807853 0 0.1950903 
vn 0.9978589 0 0.06540313 
vn 0 0 -1 
vn -0.9978589 0 -0.06540313 
vn -0.9914449 0 -0.1305262 
vn -0.9807853 0 -0.1950903 
vn -0.6087614 0 -0.7933533 
vn -0.6593459 0 -0.7518399 
vn 0.6593459 0 0.7518399 
vn 0.6087614 0 0.7933533 
vn -0.5555702 0 -0.8314696 
vn -0.1305262 0 -0.9914449 
vn -0.1950903 0 -0.9807853 
vn 0.5555702 0 0.8314696 
vn 0.1950903 0 0.9807853 
vn 0.1305262 0 0.9914449 
vn -0.9469302 0 -0.3214395 
vn -0.9238795 0 -0.3826834 
vn 0.9469302 0 0.3214395 
vn 0.9238795 0 0.3826834 
vn -0.8968728 0 -0.4422887 
vn 0.8968728 0 0.4422887 
vn 0.06540313 0 0.9978589 
vn -0.06540313 0 -0.9978589 
vn -1 0 0 

vt 44.64467 19.68504 
vt 47.50578 23.96699 
vt 51.80472 15.55118 
vt 50.90131 27.83885 
vt 54.06499 18.93392 
vt 56.74747 21.99269 
vt 41.71149 8.854906E-16 
vt 41.71149 0.7874016 
vt 45.77988 8.854906E-16 
vt 45.77988 0.7874016 
vt -41.17076 0.7874016 
vt -41.17076 -1.275943E-15 
vt -46.32061 0.7874016 
vt -46.32061 -1.275943E-15 
vt -49.34207 0.7874016 
vt -49.34207 -1.361724E-15 
vt -54.49192 0.7874016 
vt -54.49192 -1.361724E-15 
vt 49.8828 -2.392332E-15 
vt 49.8828 0.7874016 
vt 53.95118 -2.392332E-15 
vt 53.95118 0.7874016 
vt 72.65409 0 
vt 68.58571 0 
vt 72.65409 0.7874016 
vt 68.58571 0.7874016 
vt 59.05512 34.09549 
vt 63.67388 36.37321 
vt 63.18898 26.93544 
vt 66.8378 28.73484 
vt 68.55043 38.02858 
vt 70.69028 30.04258 
vt -71.9865 0 
vt -77.13635 0 
vt -71.9865 0.7874016 
vt -77.13635 0.7874016 
vt 76.59562 0 
vt 72.52724 0 
vt 76.59562 0.7874016 
vt 72.52724 0.7874016 
vt -68.04498 0 
vt -73.19482 0 
vt -68.04498 0.7874016 
vt -73.19482 0.7874016 
vt -12.78652 0.7874016 
vt -12.78652 0 
vt -17.93637 0.7874016 
vt -17.93637 0 
vt -2.574926 0.7874016 
vt -2.574926 0 
vt -7.724779 0.7874016 
vt -7.724779 0 
vt 39.37008 0 
vt 39.70689 5.138826 
vt 47.63779 0 
vt 40.71158 10.18973 
vt 47.90388 4.059673 
vt 48.69758 8.049884 
vt 47.63779 0.7874016 
vt 39.37008 0.7874016 
vt 3.115661 0 
vt 3.115661 0.7874016 
vt 7.184044 0 
vt 7.184044 0.7874016 
vt 13.32725 0 
vt 13.32725 0.7874016 
vt 17.39563 0 
vt 17.39563 0.7874016 
vt 61.23418 -1.427849E-15 
vt 57.16579 -1.427849E-15 
vt 61.23418 0.7874016 
vt 57.16579 0.7874016 
vt 54.77317 31.23438 
vt 59.80624 24.67516 
vt -56.62506 -1.072923E-15 
vt -61.77491 -1.072923E-15 
vt -56.62506 0.7874016 
vt -61.77491 0.7874016 
vt 67.50424 0 
vt 63.43586 0 
vt 67.50424 0.7874016 
vt 63.43586 0.7874016 
vt 73.60133 39.03326 
vt 74.68048 30.83628 
vt 78.74016 39.37008 
vt 78.74016 31.10236 
vt 79.26138 0 
vt 75.19299 0 
vt 79.26138 0.7874016 
vt 75.19299 0.7874016 
vt -62.89512 0 
vt -62.89512 0.7874016 
vt 42.36695 15.06628 
vt 50.00532 11.90236 
vt -74.65226 0 
vt -79.80212 0 
vt -74.65226 0.7874016 
vt -79.80212 0.7874016 
vt 23.276 -2.640839E-15 
vt 23.276 0.7874016 
vt 27.34439 -2.640839E-15 
vt 27.34439 0.7874016 
vt -22.73527 0.7874016 
vt -22.73527 -1.179979E-15 
vt -27.88512 0.7874016 
vt -27.88512 -1.179979E-15 
vt 32.79169 0 
vt 32.79169 0.7874016 
vt 36.86007 0 
vt 36.86007 0.7874016 
vt -32.25095 0.7874016 
vt -32.25095 0 
vt -37.40081 0.7874016 
vt -37.40081 0 
vt -75.99664 0 
vt -81.14649 0 
vt -75.99664 0.7874016 
vt -81.14649 0.7874016 
vt 80.60576 0 
vt 76.53738 0 
vt 80.60576 0.7874016 
vt 76.53738 0.7874016 
vt 31.10236 0 
vt 31.10236 0.7874016 

usemtl red

f 2/2/1 1/1/1 3/3/1 
f 3/3/1 4/4/1 2/2/1 
f 3/3/1 5/5/1 4/4/1 
f 5/5/1 6/6/1 4/4/1 
f 3/8/2 7/7/2 8/9/3 
f 8/9/3 5/10/3 3/8/2 
f 9/12/4 1/11/4 2/13/5 
f 2/13/5 10/14/5 9/12/4 
f 10/16/5 2/15/5 4/17/6 
f 4/17/6 11/18/6 10/16/5 
f 5/20/3 8/19/3 12/21/7 
f 12/21/7 6/22/7 5/20/3 
f 14/24/9 13/23/8 15/25/8 
f 15/25/8 16/26/9 14/24/9 
f 18/28/1 17/27/1 16/29/1 
f 16/29/1 15/30/1 18/28/1 
f 15/30/1 19/31/1 18/28/1 
f 15/30/1 20/32/1 19/31/1 
f 22/34/11 21/33/10 18/35/10 
f 18/35/10 19/36/11 22/34/11 
f 13/38/8 23/37/12 20/39/12 
f 20/39/12 15/40/8 13/38/8 
f 21/42/10 24/41/13 17/43/13 
f 17/43/13 18/44/10 21/42/10 
f 26/46/14 25/45/14 27/47/15 
f 27/47/15 28/48/15 26/46/14 
f 30/50/16 29/49/16 25/51/14 
f 25/51/14 26/52/14 30/50/16 
f 25/54/1 29/53/1 31/55/1 
f 31/55/1 27/56/1 25/54/1 
f 31/55/1 32/57/1 27/56/1 
f 32/57/1 33/58/1 27/56/1 
f 30/53/17 34/55/17 31/59/17 
f 31/59/17 29/60/17 30/53/17 
f 31/62/18 34/61/18 35/63/19 
f 35/63/19 32/64/19 31/62/18 
f 32/66/19 35/65/19 36/67/20 
f 36/67/20 33/68/20 32/66/19 

usemtl white

f 12/70/22 37/69/21 38/71/21 
f 38/71/21 6/72/22 12/70/22 
f 39/73/1 4/4/1 6/6/1 
f 6/6/1 17/27/1 39/73/1 
f 6/6/1 38/74/1 17/27/1 
f 38/74/1 16/29/1 17/27/1 
f 40/76/24 11/75/23 4/77/23 
f 4/77/23 39/78/24 40/76/24 
f 37/80/21 14/79/25 16/81/25 
f 16/81/25 38/82/21 37/80/21 
f 41/83/1 19/31/1 20/32/1 
f 20/32/1 42/84/1 41/83/1 
f 42/84/1 43/85/1 41/83/1 
f 42/84/1 44/86/1 43/85/1 
f 23/88/27 45/87/26 42/89/26 
f 42/89/26 20/90/27 23/88/27 
f 24/41/28 40/91/24 39/92/24 
f 39/92/24 17/43/28 24/41/28 
f 46/93/1 27/56/1 33/58/1 
f 33/58/1 1/1/1 46/93/1 
f 33/58/1 47/94/1 1/1/1 
f 47/94/1 3/3/1 1/1/1 
f 48/96/30 22/95/29 19/97/29 
f 19/97/29 41/98/30 48/96/30 
f 33/100/31 36/99/31 49/101/32 
f 49/101/32 47/102/32 33/100/31 
f 28/104/33 27/103/33 46/105/34 
f 46/105/34 50/106/34 28/104/33 
f 47/108/32 49/107/32 7/109/35 
f 7/109/35 3/110/35 47/108/32 
f 50/112/34 46/111/34 1/113/36 
f 1/113/36 9/114/36 50/112/34 
f 51/116/37 48/115/30 41/117/30 
f 41/117/30 43/118/37 51/116/37 
f 45/120/26 52/119/38 44/121/38 
f 44/121/38 42/122/26 45/120/26 
f 44/124/39 52/123/39 51/53/39 
f 51/53/39 43/60/39 44/124/39 
g roadCornerLargeBorderInner




usemtl red

f 2/2/1 1/1/1 3/3/1 
f 3/3/1 4/4/1 2/2/1 
f 3/3/1 5/5/1 4/4/1 
f 5/5/1 6/6/1 4/4/1 
f 3/8/2 7/7/2 8/9/3 
f 8/9/3 5/10/3 3/8/2 
f 9/12/4 1/11/4 2/13/5 
f 2/13/5 10/14/5 9/12/4 
f 10/16/5 2/15/5 4/17/6 
f 4/17/6 11/18/6 10/16/5 
f 5/20/3 8/19/3 12/21/7 
f 12/21/7 6/22/7 5/20/3 
f 14/24/9 13/23/8 15/25/8 
f 15/25/8 16/26/9 14/24/9 
f 18/28/1 17/27/1 16/29/1 
f 16/29/1 15/30/1 18/28/1 
f 15/30/1 19/31/1 18/28/1 
f 15/30/1 20/32/1 19/31/1 
f 22/34/11 21/33/10 18/35/10 
f 18/35/10 19/36/11 22/34/11 
f 13/38/8 23/37/12 20/39/12 
f 20/39/12 15/40/8 13/38/8 
f 21/42/10 24/41/13 17/43/13 
f 17/43/13 18/44/10 21/42/10 
f 26/46/14 25/45/14 27/47/15 
f 27/47/15 28/48/15 26/46/14 
f 30/50/16 29/49/16 25/51/14 
f 25/51/14 26/52/14 30/50/16 
f 25/54/1 29/53/1 31/55/1 
f 31/55/1 27/56/1 25/54/1 
f 31/55/1 32/57/1 27/56/1 
f 32/57/1 33/58/1 27/56/1 
f 30/53/17 34/55/17 31/59/17 
f 31/59/17 29/60/17 30/53/17 
f 31/62/18 34/61/18 35/63/19 
f 35/63/19 32/64/19 31/62/18 
f 32/66/19 35/65/19 36/67/20 
f 36/67/20 33/68/20 32/66/19 

usemtl white

f 12/70/22 37/69/21 38/71/21 
f 38/71/21 6/72/22 12/70/22 
f 39/73/1 4/4/1 6/6/1 
f 6/6/1 17/27/1 39/73/1 
f 6/6/1 38/74/1 17/27/1 
f 38/74/1 16/29/1 17/27/1 
f 40/76/24 11/75/23 4/77/23 
f 4/77/23 39/78/24 40/76/24 
f 37/80/21 14/79/25 16/81/25 
f 16/81/25 38/82/21 37/80/21 
f 41/83/1 19/31/1 20/32/1 
f 20/32/1 42/84/1 41/83/1 
f 42/84/1 43/85/1 41/83/1 
f 42/84/1 44/86/1 43/85/1 
f 23/88/27 45/87/26 42/89/26 
f 42/89/26 20/90/27 23/88/27 
f 24/41/28 40/91/24 39/92/24 
f 39/92/24 17/43/28 24/41/28 
f 46/93/1 27/56/1 33/58/1 
f 33/58/1 1/1/1 46/93/1 
f 33/58/1 47/94/1 1/1/1 
f 47/94/1 3/3/1 1/1/1 
f 48/96/30 22/95/29 19/97/29 
f 19/97/29 41/98/30 48/96/30 
f 33/100/31 36/99/31 49/101/32 
f 49/101/32 47/102/32 33/100/31 
f 28/104/33 27/103/33 46/105/34 
f 46/105/34 50/106/34 28/104/33 
f 47/108/32 49/107/32 7/109/35 
f 7/109/35 3/110/35 47/108/32 
f 50/112/34 46/111/34 1/113/36 
f 1/113/36 9/114/36 50/112/34 
f 51/116/37 48/115/30 41/117/30 
f 41/117/30 43/118/37 51/116/37 
f 45/120/26 52/119/38 44/121/38 
f 44/121/38 42/122/26 45/120/26 
f 44/124/39 52/123/39 51/53/39 
f 51/53/39 43/60/39 44/124/39 
