# Created by Kenney (www.kenney.nl) 

mtllib roadStraight.mtl 

g roadStraight

v -0.9183474 0 0 
v -0.9183474 0 1 
v -1 0 0 
v -1 0 1 
v 0 0 0 
v 0 0 1 
v -0.08165261 0 0 
v -0.08165261 0 1 
v -0.8451352 0.02 0 
v -0.8451352 0.02 1 
v -0.9183474 0.02 0 
v -0.9183474 0.02 1 
v -0.8451352 0.01 0 
v -0.8451352 0.01 1 
v -0.08165261 0.02 0 
v -0.08165261 0.02 1 
v -0.1548649 0.02 0 
v -0.1548649 0.02 1 
v -0.1548649 0.01 0 
v -0.1548649 0.01 1 

vn 0 1 0 
vn 1 0 0 
vn -1 0 0 

vt 36.15541 0 
vt 36.15541 39.37008 
vt 39.37008 0 
vt 39.37008 39.37008 
vt 0 0 
vt 0 39.37008 
vt 3.21467 0 
vt 3.21467 39.37008 
vt 33.27304 0 
vt 33.27304 39.37008 
vt 0 0.7874016 
vt 0 0.3937008 
vt -39.37008 0.7874016 
vt -39.37008 0.3937008 
vt 39.37008 0.7874016 
vt -39.37008 0 
vt 6.097044 0 
vt 6.097044 39.37008 
vt 39.37008 0.3937008 

usemtl grass

f 2/2/1 1/1/1 3/3/1 
f 3/3/1 4/4/1 2/2/1 
f 6/6/1 5/5/1 7/7/1 
f 7/7/1 8/8/1 6/6/1 

usemtl grey

f 10/10/1 9/9/1 11/1/1 
f 11/1/1 12/2/1 10/10/1 
f 13/12/2 9/11/2 10/13/2 
f 10/13/2 14/14/2 13/12/2 
f 11/11/3 1/5/3 2/3/3 
f 2/3/3 12/15/3 11/11/3 
f 7/5/2 15/11/2 16/13/2 
f 16/13/2 8/16/2 7/5/2 
f 16/8/1 15/7/1 17/17/1 
f 17/17/1 18/18/1 16/8/1 
f 17/11/3 19/12/3 20/19/3 
f 20/19/3 18/15/3 17/11/3 

usemtl road

f 20/18/1 19/17/1 13/9/1 
f 13/9/1 14/10/1 20/18/1 
g roadStraight




usemtl grass

f 2/2/1 1/1/1 3/3/1 
f 3/3/1 4/4/1 2/2/1 
f 6/6/1 5/5/1 7/7/1 
f 7/7/1 8/8/1 6/6/1 

usemtl grey

f 10/10/1 9/9/1 11/1/1 
f 11/1/1 12/2/1 10/10/1 
f 13/12/2 9/11/2 10/13/2 
f 10/13/2 14/14/2 13/12/2 
f 11/11/3 1/5/3 2/3/3 
f 2/3/3 12/15/3 11/11/3 
f 7/5/2 15/11/2 16/13/2 
f 16/13/2 8/16/2 7/5/2 
f 16/8/1 15/7/1 17/17/1 
f 17/17/1 18/18/1 16/8/1 
f 17/11/3 19/12/3 20/19/3 
f 20/19/3 18/15/3 17/11/3 

usemtl road

f 20/18/1 19/17/1 13/9/1 
f 13/9/1 14/10/1 20/18/1 
