# Created by Kenney (www.kenney.nl) 

mtllib roadStartPositions.mtl 

g roadStartPositions

v -0.9183474 0 0 
v -0.9183474 0 2 
v -1 0 0 
v -1 0 2 
v 0 0 0 
v 0 0 2 
v -0.08165261 0 0 
v -0.08165261 0 2 
v -0.8451352 0.02 0 
v -0.8451352 0.02 2 
v -0.9183474 0.02 0 
v -0.9183474 0.02 2 
v -0.8451352 0.01 0 
v -0.8451352 0.01 2 
v -0.08165261 0.02 0 
v -0.08165261 0.02 2 
v -0.1548649 0.02 0 
v -0.1548649 0.02 2 
v -0.1548649 0.01 0 
v -0.1548649 0.01 2 
v -0.7433162 0.01 0.5772268 
v -0.7433162 0.01 0.8859558 
v -0.7761869 0.01 0.5772268 
v -0.7761869 0.01 0.9227732 
v -0.6018189 0.01 0.8859558 
v -0.5689481 0.01 0.9227732 
v -0.6018189 0.01 0.5772268 
v -0.5689481 0.01 0.5772268 
v -0.7433162 0.01 1.577227 
v -0.7433162 0.01 1.885956 
v -0.7761869 0.01 1.577227 
v -0.7761869 0.01 1.922773 
v -0.6018189 0.01 1.885956 
v -0.5689481 0.01 1.922773 
v -0.6018189 0.01 1.577227 
v -0.5689481 0.01 1.577227 
v -0.3981811 0.01 1.077227 
v -0.3981811 0.01 1.385956 
v -0.4310518 0.01 1.077227 
v -0.4310518 0.01 1.422773 
v -0.2566839 0.01 1.385956 
v -0.2238131 0.01 1.422773 
v -0.2566839 0.01 1.077227 
v -0.2238131 0.01 1.077227 
v -0.3981811 0.01 0.07722664 
v -0.3981811 0.01 0.3859558 
v -0.4310518 0.01 0.07722664 
v -0.4310518 0.01 0.4227734 
v -0.2566839 0.01 0.3859558 
v -0.2238131 0.01 0.4227734 
v -0.2566839 0.01 0.07722664 
v -0.2238131 0.01 0.07722664 

vn 0 1 0 
vn 1 0 0 
vn -1 0 0 

vt 36.15541 1.421085E-14 
vt 36.15541 78.74016 
vt 39.37008 0 
vt 39.37008 78.74016 
vt 0 0 
vt 0 78.74016 
vt 3.21467 1.421085E-14 
vt 3.21467 78.74016 
vt 33.27304 8.326673E-18 
vt 33.27304 78.74016 
vt 36.15541 1.421918E-14 
vt 1.099267E-29 0.7874016 
vt 1.099267E-29 0.3937008 
vt -78.74016 0.7874016 
vt -78.74016 0.3937008 
vt 1.421085E-14 0 
vt 1.421085E-14 0.7874016 
vt 78.74016 0 
vt 78.74016 0.7874016 
vt -1.421085E-14 0.7874016 
vt -1.421085E-14 0 
vt -78.74016 0 
vt 3.21467 1.420475E-14 
vt 6.097044 -6.106227E-18 
vt 6.097044 78.74016 
vt 3.912467E-15 0.3937008 
vt 3.912467E-15 0.7874016 
vt 78.74016 0.3937008 
vt 29.26442 22.72546 
vt 29.26442 34.88015 
vt 30.55854 22.72546 
vt 30.55854 36.32966 
vt 23.69366 34.88015 
vt 22.39953 36.32966 
vt 23.69366 22.72546 
vt 22.39953 22.72546 
vt 29.26442 62.09554 
vt 29.26442 74.25023 
vt 30.55854 62.09554 
vt 30.55854 75.69974 
vt 23.69366 74.25023 
vt 22.39953 75.69974 
vt 23.69366 62.09554 
vt 22.39953 62.09554 
vt 15.67642 42.4105 
vt 15.67642 54.56519 
vt 16.97054 42.4105 
vt 16.97054 56.0147 
vt 10.10566 54.56519 
vt 8.811538 56.0147 
vt 10.10566 42.4105 
vt 8.811538 42.4105 
vt 15.67642 3.04042 
vt 15.67642 15.19511 
vt 16.97054 3.04042 
vt 16.97054 16.64462 
vt 10.10566 15.19511 
vt 8.811538 16.64462 
vt 10.10566 3.04042 
vt 8.811538 3.04042 
vt 33.27304 0 
vt 6.097044 0 

usemtl grass

f 2/2/1 1/1/1 3/3/1 
f 3/3/1 4/4/1 2/2/1 
f 6/6/1 5/5/1 7/7/1 
f 7/7/1 8/8/1 6/6/1 

usemtl grey

f 10/10/1 9/9/1 11/11/1 
f 11/11/1 12/2/1 10/10/1 
f 13/13/2 9/12/2 10/14/2 
f 10/14/2 14/15/2 13/13/2 
f 11/17/3 1/16/3 2/18/3 
f 2/18/3 12/19/3 11/17/3 
f 7/21/2 15/20/2 16/14/2 
f 16/14/2 8/22/2 7/21/2 
f 16/8/1 15/23/1 17/24/1 
f 17/24/1 18/25/1 16/8/1 
f 17/27/3 19/26/3 20/28/3 
f 20/28/3 18/19/3 17/27/3 
f 22/30/1 21/29/1 23/31/1 
f 22/30/1 23/31/1 24/32/1 
f 25/33/1 22/30/1 24/32/1 
f 25/33/1 24/32/1 26/34/1 
f 27/35/1 25/33/1 26/34/1 
f 26/34/1 28/36/1 27/35/1 
f 30/38/1 29/37/1 31/39/1 
f 30/38/1 31/39/1 32/40/1 
f 33/41/1 30/38/1 32/40/1 
f 33/41/1 32/40/1 34/42/1 
f 35/43/1 33/41/1 34/42/1 
f 34/42/1 36/44/1 35/43/1 
f 38/46/1 37/45/1 39/47/1 
f 38/46/1 39/47/1 40/48/1 
f 41/49/1 38/46/1 40/48/1 
f 41/49/1 40/48/1 42/50/1 
f 43/51/1 41/49/1 42/50/1 
f 42/50/1 44/52/1 43/51/1 
f 46/54/1 45/53/1 47/55/1 
f 46/54/1 47/55/1 48/56/1 
f 49/57/1 46/54/1 48/56/1 
f 49/57/1 48/56/1 50/58/1 
f 51/59/1 49/57/1 50/58/1 
f 50/58/1 52/60/1 51/59/1 

usemtl road

f 49/57/1 45/53/1 46/54/1 
f 45/53/1 49/57/1 51/59/1 
f 13/61/1 45/53/1 51/59/1 
f 13/61/1 51/59/1 52/60/1 
f 19/62/1 13/61/1 52/60/1 
f 52/60/1 20/25/1 19/62/1 
f 13/61/1 47/55/1 45/53/1 
f 13/61/1 48/56/1 47/55/1 
f 13/61/1 28/36/1 48/56/1 
f 28/36/1 39/47/1 48/56/1 
f 28/36/1 40/48/1 39/47/1 
f 13/61/1 27/35/1 28/36/1 
f 13/61/1 25/33/1 27/35/1 
f 13/61/1 21/29/1 25/33/1 
f 25/33/1 21/29/1 22/30/1 
f 13/61/1 23/31/1 21/29/1 
f 13/61/1 24/32/1 23/31/1 
f 13/61/1 31/39/1 24/32/1 
f 13/61/1 32/40/1 31/39/1 
f 40/48/1 28/36/1 34/42/1 
f 34/42/1 14/10/1 20/25/1 
f 34/42/1 32/40/1 14/10/1 
f 32/40/1 13/61/1 14/10/1 
f 20/25/1 42/50/1 34/42/1 
f 42/50/1 40/48/1 34/42/1 
f 20/25/1 52/60/1 42/50/1 
f 52/60/1 50/58/1 42/50/1 
f 50/58/1 44/52/1 42/50/1 
f 24/32/1 31/39/1 29/37/1 
f 24/32/1 29/37/1 33/41/1 
f 33/41/1 29/37/1 30/38/1 
f 24/32/1 33/41/1 35/43/1 
f 24/32/1 35/43/1 36/44/1 
f 26/34/1 36/44/1 34/42/1 
f 28/36/1 26/34/1 34/42/1 
f 36/44/1 26/34/1 24/32/1 
f 44/52/1 50/58/1 48/56/1 
f 48/56/1 43/51/1 44/52/1 
f 48/56/1 41/49/1 43/51/1 
f 48/56/1 37/45/1 41/49/1 
f 41/49/1 37/45/1 38/46/1 
f 48/56/1 39/47/1 37/45/1 
g roadStartPositions




usemtl grass

f 2/2/1 1/1/1 3/3/1 
f 3/3/1 4/4/1 2/2/1 
f 6/6/1 5/5/1 7/7/1 
f 7/7/1 8/8/1 6/6/1 

usemtl grey

f 10/10/1 9/9/1 11/11/1 
f 11/11/1 12/2/1 10/10/1 
f 13/13/2 9/12/2 10/14/2 
f 10/14/2 14/15/2 13/13/2 
f 11/17/3 1/16/3 2/18/3 
f 2/18/3 12/19/3 11/17/3 
f 7/21/2 15/20/2 16/14/2 
f 16/14/2 8/22/2 7/21/2 
f 16/8/1 15/23/1 17/24/1 
f 17/24/1 18/25/1 16/8/1 
f 17/27/3 19/26/3 20/28/3 
f 20/28/3 18/19/3 17/27/3 
f 22/30/1 21/29/1 23/31/1 
f 22/30/1 23/31/1 24/32/1 
f 25/33/1 22/30/1 24/32/1 
f 25/33/1 24/32/1 26/34/1 
f 27/35/1 25/33/1 26/34/1 
f 26/34/1 28/36/1 27/35/1 
f 30/38/1 29/37/1 31/39/1 
f 30/38/1 31/39/1 32/40/1 
f 33/41/1 30/38/1 32/40/1 
f 33/41/1 32/40/1 34/42/1 
f 35/43/1 33/41/1 34/42/1 
f 34/42/1 36/44/1 35/43/1 
f 38/46/1 37/45/1 39/47/1 
f 38/46/1 39/47/1 40/48/1 
f 41/49/1 38/46/1 40/48/1 
f 41/49/1 40/48/1 42/50/1 
f 43/51/1 41/49/1 42/50/1 
f 42/50/1 44/52/1 43/51/1 
f 46/54/1 45/53/1 47/55/1 
f 46/54/1 47/55/1 48/56/1 
f 49/57/1 46/54/1 48/56/1 
f 49/57/1 48/56/1 50/58/1 
f 51/59/1 49/57/1 50/58/1 
f 50/58/1 52/60/1 51/59/1 

usemtl road

f 49/57/1 45/53/1 46/54/1 
f 45/53/1 49/57/1 51/59/1 
f 13/61/1 45/53/1 51/59/1 
f 13/61/1 51/59/1 52/60/1 
f 19/62/1 13/61/1 52/60/1 
f 52/60/1 20/25/1 19/62/1 
f 13/61/1 47/55/1 45/53/1 
f 13/61/1 48/56/1 47/55/1 
f 13/61/1 28/36/1 48/56/1 
f 28/36/1 39/47/1 48/56/1 
f 28/36/1 40/48/1 39/47/1 
f 13/61/1 27/35/1 28/36/1 
f 13/61/1 25/33/1 27/35/1 
f 13/61/1 21/29/1 25/33/1 
f 25/33/1 21/29/1 22/30/1 
f 13/61/1 23/31/1 21/29/1 
f 13/61/1 24/32/1 23/31/1 
f 13/61/1 31/39/1 24/32/1 
f 13/61/1 32/40/1 31/39/1 
f 40/48/1 28/36/1 34/42/1 
f 34/42/1 14/10/1 20/25/1 
f 34/42/1 32/40/1 14/10/1 
f 32/40/1 13/61/1 14/10/1 
f 20/25/1 42/50/1 34/42/1 
f 42/50/1 40/48/1 34/42/1 
f 20/25/1 52/60/1 42/50/1 
f 52/60/1 50/58/1 42/50/1 
f 50/58/1 44/52/1 42/50/1 
f 24/32/1 31/39/1 29/37/1 
f 24/32/1 29/37/1 33/41/1 
f 33/41/1 29/37/1 30/38/1 
f 24/32/1 33/41/1 35/43/1 
f 24/32/1 35/43/1 36/44/1 
f 26/34/1 36/44/1 34/42/1 
f 28/36/1 26/34/1 34/42/1 
f 36/44/1 26/34/1 24/32/1 
f 44/52/1 50/58/1 48/56/1 
f 48/56/1 43/51/1 44/52/1 
f 48/56/1 41/49/1 43/51/1 
f 48/56/1 37/45/1 41/49/1 
f 41/49/1 37/45/1 38/46/1 
f 48/56/1 39/47/1 37/45/1 
