# Created by Kenney (www.kenney.nl) 

mtllib roadCornerLargerBorder.mtl 

g roadCornerLargerBorder

v -2.608421 0 2.974334 
v -2.223543 0 2.897777 
v -2.608421 0.02 2.974334 
v -2.223543 0.02 2.897777 
v -2.169191 0 3.100622 
v -2.581011 0 3.182538 
v -2.169191 0.02 3.100622 
v -2.581011 0.02 3.182538 
v -1.395 0.02 2.779942 
v -1.771586 0.02 2.965653 
v -1.5 0.02 2.598076 
v -1.85195 0.02 2.771638 
v -1.85195 0 2.771638 
v -1.5 0 2.598076 
v -1.395 0 2.779942 
v -1.771586 0 2.965653 
v -0.7301872 0 2.269813 
v -1.045876 0 2.546664 
v -0.7301872 0.02 2.269813 
v -1.045876 0.02 2.546664 
v -1.173716 0 2.38006 
v -0.8786798 0 2.12132 
v -1.173716 0.02 2.38006 
v -0.8786798 0.02 2.12132 
v -0.2200584 0.02 1.605 
v -0.4533358 0.02 1.954124 
v -0.4019238 0.02 1.5 
v -0.61994 0.02 1.826284 
v -0.4019238 0 1.5 
v -0.61994 0 1.826284 
v -0.2200584 0 1.605 
v -0.4533358 0 1.954124 
v 0.1006219 0.02 0.8308092 
v -0.0343467 0.02 1.228414 
v -0.1022225 0.02 0.7764572 
v -0.2283614 0.02 1.14805 
v -0.1022225 0 0.7764572 
v -0.2283614 0 1.14805 
v 0.1006219 0 0.8308092 
v -0.0343467 0 1.228414 
v 0 0 0 
v 0 0.02 0 
v -0.0256654 0 0.3915786 
v -0.0256654 0.02 0.3915786 
v 0.21 0.02 0 
v 0.21 0 0 
v 0.182538 0.02 0.4189891 
v 0.182538 0 0.4189891 
v -3 0.02 3.21 
v -3 0.02 3 
v -3 0 3 
v -3 0 3.21 
v -1.872768 0.02 3 
v -1.872768 0 3 

vn -0.1950903 0 -0.9807853 
vn 0.1950903 0 0.9807853 
vn 0 1 0 
vn -0.4422887 0 -0.8968728 
vn 0.4422887 0 0.8968728 
vn 0.6593459 0 0.7518399 
vn -0.6593459 0 -0.7518399 
vn -0.8314696 0 -0.5555702 
vn 0.8314696 0 0.5555702 
vn -0.9469302 0 -0.3214395 
vn 0.9469302 0 0.3214395 
vn -0.9978589 0 -0.06540313 
vn 0.9978589 0 0.06540313 
vn 0 0 -1 
vn -0.06540313 0 -0.9978589 
vn 0.06540313 0 0.9978589 
vn -1 0 0 
vn 0.3214395 0 0.9469302 
vn -0.3214395 0 -0.9469302 
vn -0.5555702 0 -0.8314696 
vn 0.5555702 0 0.8314696 
vn -0.7518399 0 -0.6593459 
vn 0.7518399 0 0.6593459 
vn 0.8968728 0 0.4422887 
vn -0.8968728 0 -0.4422887 
vn -0.9807853 0 -0.1950903 
vn 0.9807853 0 0.1950903 

vt 123.5656 0 
vt 108.116 0 
vt 123.5656 0.7874016 
vt 108.116 0.7874016 
vt -107.5753 0 
vt -124.1063 0 
vt -107.5753 0.7874016 
vt -124.1063 0.7874016 
vt 85.40121 122.0717 
vt 101.6146 125.2968 
vt 87.54106 114.0857 
vt 102.6938 117.0998 
vt 54.92126 109.4465 
vt 69.74749 116.758 
vt 59.05512 102.2865 
vt 72.91141 109.1196 
vt 113.6546 -5.778903E-16 
vt 98.20507 -5.778903E-16 
vt 113.6546 0.7874016 
vt 98.20507 0.7874016 
vt -97.66434 -6.505467E-16 
vt -114.1954 -6.505467E-16 
vt -97.66434 0.7874016 
vt -114.1954 0.7874016 
vt -80.53446 0 
vt -97.06549 0 
vt -80.53446 0.7874016 
vt -97.06549 0.7874016 
vt 96.52476 0 
vt 81.0752 0 
vt 96.52476 0.7874016 
vt 81.0752 0.7874016 
vt 28.74753 89.36271 
vt 41.17621 100.2624 
vt 34.59369 83.51655 
vt 46.20928 93.70315 
vt 8.663718 63.18898 
vt 17.84787 76.93402 
vt 15.82377 59.05512 
vt 24.40709 71.90096 
vt 57.89375 0 
vt 57.89375 0.7874016 
vt 73.34331 0 
vt 73.34331 0.7874016 
vt -57.35302 0.7874016 
vt -57.35302 0 
vt -73.88405 0.7874016 
vt -73.88405 0 
vt -3.961492 32.70902 
vt 1.352232 48.36275 
vt 4.024508 30.56918 
vt 8.990606 45.19883 
vt 30.24051 0 
vt 30.24051 0.7874016 
vt 45.69007 0 
vt 45.69007 0.7874016 
vt -29.69978 0.7874016 
vt -29.69978 0 
vt -46.2308 0.7874016 
vt -46.2308 0 
vt 0 0 
vt 0 0.7874016 
vt 15.44956 0 
vt 15.44956 0.7874016 
vt 0.5407345 0.7874016 
vt 0.5407345 0 
vt -15.99029 0.7874016 
vt -15.99029 0 
vt -8.267716 0 
vt -7.186536 16.49563 
vt 1.010449 15.41648 
vt -8.267716 0.7874016 
vt 118.1102 126.378 
vt 118.1102 118.1102 
vt 125.5821 0 
vt 110.1326 0 
vt 125.5821 0.7874016 
vt 110.1326 0.7874016 
vt -109.5918 0 
vt -126.1229 0 
vt -109.5918 0.7874016 
vt -126.1229 0.7874016 
vt 118.1102 0 
vt 118.1102 0.7874016 
vt 126.378 0 
vt 126.378 0.7874016 
vt 73.73103 118.1102 
vt -107.7834 0 
vt -120.1077 0 
vt -107.7834 0.7874016 
vt -120.1077 0.7874016 
vt -103.5766 0.7874016 
vt -103.5766 0 
vt 119.5669 0 
vt 104.1174 0 
vt 119.5669 0.7874016 
vt 104.1174 0.7874016 
vt 105.9298 1.411179E-16 
vt 90.48029 1.411179E-16 
vt 105.9298 0.7874016 
vt 90.48029 0.7874016 
vt -89.93956 -1.78489E-14 
vt -106.4706 -1.78489E-14 
vt -89.93956 0.7874016 
vt -106.4706 0.7874016 
vt 70.15071 0 
vt 70.15071 0.7874016 
vt 85.60027 0 
vt 85.60027 0.7874016 
vt -69.60998 0.7874016 
vt -69.60998 0 
vt -86.14101 0.7874016 
vt -86.14101 0 
vt -43.97331 0.7874016 
vt -43.97331 -7.103011E-15 
vt -60.50433 0.7874016 
vt -60.50433 -7.103011E-15 
vt 44.51404 -3.676516E-16 
vt 44.51404 0.7874016 
vt 59.9636 -3.676516E-16 
vt 59.9636 0.7874016 
vt 15.31738 6.466973E-17 
vt 15.31738 0.7874016 
vt 30.76694 6.466973E-17 
vt 30.76694 0.7874016 
vt -14.77665 0.7874016 
vt -14.77665 1.763869E-15 
vt -31.30768 0.7874016 
vt -31.30768 1.763869E-15 

usemtl red

f 2/2/1 1/1/1 3/3/1 
f 3/3/1 4/4/1 2/2/1 
f 6/6/2 5/5/2 7/7/2 
f 7/7/2 8/8/2 6/6/2 
f 8/10/3 7/9/3 4/11/3 
f 4/11/3 3/12/3 8/10/3 
f 10/14/3 9/13/3 11/15/3 
f 11/15/3 12/16/3 10/14/3 
f 14/18/4 13/17/4 12/19/4 
f 12/19/4 11/20/4 14/18/4 
f 16/22/5 15/21/5 9/23/5 
f 9/23/5 10/24/5 16/22/5 
f 18/26/6 17/25/6 19/27/6 
f 19/27/6 20/28/6 18/26/6 
f 22/30/7 21/29/7 23/31/7 
f 23/31/7 24/32/7 22/30/7 
f 20/34/3 19/33/3 24/35/3 
f 24/35/3 23/36/3 20/34/3 
f 26/38/3 25/37/3 27/39/3 
f 27/39/3 28/40/3 26/38/3 
f 27/42/8 29/41/8 30/43/8 
f 30/43/8 28/44/8 27/42/8 
f 31/46/9 25/45/9 26/47/9 
f 26/47/9 32/48/9 31/46/9 
f 34/50/3 33/49/3 35/51/3 
f 35/51/3 36/52/3 34/50/3 
f 35/54/10 37/53/10 38/55/10 
f 38/55/10 36/56/10 35/54/10 
f 39/58/11 33/57/11 34/59/11 
f 34/59/11 40/60/11 39/58/11 
f 42/62/12 41/61/12 43/63/12 
f 43/63/12 44/64/12 42/62/12 
f 46/66/13 45/65/13 47/67/13 
f 47/67/13 48/68/13 46/66/13 
f 47/70/3 45/69/3 42/61/3 
f 42/61/3 44/71/3 47/70/3 
f 46/69/14 41/61/14 42/62/14 
f 42/62/14 45/72/14 46/69/14 

usemtl white

f 49/73/3 8/10/3 3/12/3 
f 3/12/3 50/74/3 49/73/3 
f 1/76/15 51/75/15 50/77/15 
f 50/77/15 3/78/15 1/76/15 
f 52/80/16 6/79/16 8/81/16 
f 8/81/16 49/82/16 52/80/16 
f 50/84/17 51/83/17 52/85/17 
f 52/85/17 49/86/17 50/84/17 
f 53/87/3 10/14/3 12/16/3 
f 12/16/3 4/11/3 53/87/3 
f 4/11/3 7/9/3 53/87/3 
f 5/89/18 54/88/18 53/90/18 
f 53/90/18 7/91/18 5/89/18 
f 10/92/18 53/90/18 54/88/18 
f 54/88/18 16/93/18 10/92/18 
f 13/95/19 2/94/19 4/96/19 
f 4/96/19 12/97/19 13/95/19 
f 9/13/3 20/34/3 23/36/3 
f 23/36/3 11/15/3 9/13/3 
f 21/99/20 14/98/20 11/100/20 
f 11/100/20 23/101/20 21/99/20 
f 15/103/21 18/102/21 20/104/21 
f 20/104/21 9/105/21 15/103/21 
f 28/107/22 30/106/22 22/108/22 
f 22/108/22 24/109/22 28/107/22 
f 19/33/3 26/38/3 28/40/3 
f 28/40/3 24/35/3 19/33/3 
f 32/111/23 26/110/23 19/112/23 
f 19/112/23 17/113/23 32/111/23 
f 40/115/24 34/114/24 25/116/24 
f 25/116/24 31/117/24 40/115/24 
f 36/119/25 38/118/25 29/120/25 
f 29/120/25 27/121/25 36/119/25 
f 25/37/3 34/50/3 36/52/3 
f 36/52/3 27/39/3 25/37/3 
f 44/123/26 43/122/26 37/124/26 
f 37/124/26 35/125/26 44/123/26 
f 48/127/27 47/126/27 33/128/27 
f 33/128/27 39/129/27 48/127/27 
f 33/49/3 47/70/3 44/71/3 
f 44/71/3 35/51/3 33/49/3 
g roadCornerLargerBorder




usemtl red

f 2/2/1 1/1/1 3/3/1 
f 3/3/1 4/4/1 2/2/1 
f 6/6/2 5/5/2 7/7/2 
f 7/7/2 8/8/2 6/6/2 
f 8/10/3 7/9/3 4/11/3 
f 4/11/3 3/12/3 8/10/3 
f 10/14/3 9/13/3 11/15/3 
f 11/15/3 12/16/3 10/14/3 
f 14/18/4 13/17/4 12/19/4 
f 12/19/4 11/20/4 14/18/4 
f 16/22/5 15/21/5 9/23/5 
f 9/23/5 10/24/5 16/22/5 
f 18/26/6 17/25/6 19/27/6 
f 19/27/6 20/28/6 18/26/6 
f 22/30/7 21/29/7 23/31/7 
f 23/31/7 24/32/7 22/30/7 
f 20/34/3 19/33/3 24/35/3 
f 24/35/3 23/36/3 20/34/3 
f 26/38/3 25/37/3 27/39/3 
f 27/39/3 28/40/3 26/38/3 
f 27/42/8 29/41/8 30/43/8 
f 30/43/8 28/44/8 27/42/8 
f 31/46/9 25/45/9 26/47/9 
f 26/47/9 32/48/9 31/46/9 
f 34/50/3 33/49/3 35/51/3 
f 35/51/3 36/52/3 34/50/3 
f 35/54/10 37/53/10 38/55/10 
f 38/55/10 36/56/10 35/54/10 
f 39/58/11 33/57/11 34/59/11 
f 34/59/11 40/60/11 39/58/11 
f 42/62/12 41/61/12 43/63/12 
f 43/63/12 44/64/12 42/62/12 
f 46/66/13 45/65/13 47/67/13 
f 47/67/13 48/68/13 46/66/13 
f 47/70/3 45/69/3 42/61/3 
f 42/61/3 44/71/3 47/70/3 
f 46/69/14 41/61/14 42/62/14 
f 42/62/14 45/72/14 46/69/14 

usemtl white

f 49/73/3 8/10/3 3/12/3 
f 3/12/3 50/74/3 49/73/3 
f 1/76/15 51/75/15 50/77/15 
f 50/77/15 3/78/15 1/76/15 
f 52/80/16 6/79/16 8/81/16 
f 8/81/16 49/82/16 52/80/16 
f 50/84/17 51/83/17 52/85/17 
f 52/85/17 49/86/17 50/84/17 
f 53/87/3 10/14/3 12/16/3 
f 12/16/3 4/11/3 53/87/3 
f 4/11/3 7/9/3 53/87/3 
f 5/89/18 54/88/18 53/90/18 
f 53/90/18 7/91/18 5/89/18 
f 10/92/18 53/90/18 54/88/18 
f 54/88/18 16/93/18 10/92/18 
f 13/95/19 2/94/19 4/96/19 
f 4/96/19 12/97/19 13/95/19 
f 9/13/3 20/34/3 23/36/3 
f 23/36/3 11/15/3 9/13/3 
f 21/99/20 14/98/20 11/100/20 
f 11/100/20 23/101/20 21/99/20 
f 15/103/21 18/102/21 20/104/21 
f 20/104/21 9/105/21 15/103/21 
f 28/107/22 30/106/22 22/108/22 
f 22/108/22 24/109/22 28/107/22 
f 19/33/3 26/38/3 28/40/3 
f 28/40/3 24/35/3 19/33/3 
f 32/111/23 26/110/23 19/112/23 
f 19/112/23 17/113/23 32/111/23 
f 40/115/24 34/114/24 25/116/24 
f 25/116/24 31/117/24 40/115/24 
f 36/119/25 38/118/25 29/120/25 
f 29/120/25 27/121/25 36/119/25 
f 25/37/3 34/50/3 36/52/3 
f 36/52/3 27/39/3 25/37/3 
f 44/123/26 43/122/26 37/124/26 
f 37/124/26 35/125/26 44/123/26 
f 48/127/27 47/126/27 33/128/27 
f 33/128/27 39/129/27 48/127/27 
f 33/49/3 47/70/3 44/71/3 
f 44/71/3 35/51/3 33/49/3 
