# Created by Kenney (www.kenney.nl) 

mtllib roadEnd.mtl 

g roadEnd

v -0.9183474 0 1 
v -0.9183474 0.02 1 
v -0.9040926 0 1.108276 
v -0.9040926 0.02 1.108276 
v -0.6725675 0.01 1.298896 
v -0.5893275 0.01 1.333375 
v -0.6725675 0.02 1.298896 
v -0.5893275 0.02 1.333375 
v -0.5 0.01 1.345135 
v -0.5 0.02 1.345135 
v -0.8333749 0.02 1.089327 
v -0.8333749 0.01 1.089327 
v -0.7988958 0.02 1.172568 
v -0.7988958 0.01 1.172568 
v -0.3274325 0.01 1.298896 
v -0.2559526 0.01 1.244047 
v -0.3274325 0.02 1.298896 
v -0.2559526 0.02 1.244047 
v -0.8451352 0.02 1 
v -0.8451352 0.01 1 
v -0.7440473 0.02 1.244047 
v -0.7440473 0.01 1.244047 
v -0.4106725 0.01 1.333375 
v -0.4106725 0.02 1.333375 
v -0.1548649 0.01 1 
v -0.1548649 0.02 1 
v -0.1666251 0.01 1.089327 
v -0.1666251 0.02 1.089327 
v -0.2011042 0.01 1.172568 
v -0.2011042 0.02 1.172568 
v -0.2908263 0 1.3623 
v -0.3917237 0 1.404092 
v -0.2908263 0.02 1.3623 
v -0.3917237 0.02 1.404092 
v -0.09590748 0.02 1.108276 
v -0.09590748 0 1.108276 
v -0.1377005 0.02 1.209174 
v -0.1377005 0 1.209174 
v -0.08165261 0.02 1 
v -0.08165261 0 1 
v -0.6082763 0 1.404092 
v -0.7091737 0 1.3623 
v -0.6082763 0.02 1.404092 
v -0.7091737 0.02 1.3623 
v -0.2041837 0.02 1.295816 
v -0.2041837 0 1.295816 
v -0.5 0 1.418347 
v -0.5 0.02 1.418347 
v -0.8622996 0 1.209174 
v -0.8622996 0.02 1.209174 
v -0.7958162 0 1.295816 
v -0.7958162 0.02 1.295816 
v -0.1548649 0.01 0 
v -0.1548649 0.02 0 
v -0.8451352 0.02 0 
v -0.8451352 0.01 0 
v -0.9183474 0 0 
v -0.9183474 0.02 0 
v -0.08165261 0.02 0 
v -0.08165261 0 0 
v -1 0 0 
v -0.9330127 0 1.25 
v -0.9829628 0 1.12941 
v -1 0 1 
v -0.8535534 0 1.353553 
v -0.75 0 1.433013 
v -0.6294096 0 1.482963 
v -0.5 0 1.5 
v -0.3705905 0 1.482963 
v -0.25 0 1.433013 
v -0.1464466 0 1.353553 
v -0.06698731 0 1.25 
v -0.01703709 0 1.12941 
v 0 0 1 
v 0 0 0 

vn -0.9978589 0 0.06540313 
vn -0.9659258 0 0.258819 
vn 0.5 0 -0.8660254 
vn 0.258819 0 -0.9659258 
vn 0.2588191 0 -0.9659258 
vn 0 0 -1 
vn 0.9659258 0 -0.258819 
vn 0.8660254 0 -0.5 
vn -0.5 0 -0.8660254 
vn -0.7071068 0 -0.7071067 
vn -0.5 0 -0.8660254 
vn -0.7071067 0 -0.7071068 
vn 0.9978589 0 -0.06540313 
vn 0.7071068 0 -0.7071068 
vn -0.2588191 0 -0.9659258 
vn -0.258819 0 -0.9659258 
vn -0.9978589 0 -0.06540313 
vn -0.9659258 0 -0.258819 
vn -0.9659258 0 -0.2588191 
vn -0.8660254 0 -0.5 
vn -0.8660254 0 -0.5 
vn 0.5 0 0.8660254 
vn 0.258819 0 0.9659258 
vn 0.9659258 0 0.258819 
vn 0.8660254 0 0.5 
vn 0.9978589 0 0.06540313 
vn -0.258819 0 0.9659258 
vn -0.5 0 0.8660254 
vn 0.7071068 0 0.7071068 
vn 0 0 1 
vn -0.8660254 0 0.5 
vn -0.7071068 0 0.7071068 
vn -1 0 0 
vn 1 0 0 
vn 0 1 0 

vt 34.31403 0 
vt 34.31403 0.7874016 
vt 38.61366 0 
vt 38.61366 0.7874016 
vt 4.893918 0.393701 
vt 1.346739 0.393701 
vt 4.893918 0.7874017 
vt 1.346739 0.7874017 
vt 16.15139 0.3937009 
vt 12.60422 0.3937009 
vt 16.15139 0.7874017 
vt 12.60422 0.7874017 
vt -27.06648 0.7874017 
vt -27.06648 0.3937009 
vt -30.61366 0.7874017 
vt -30.61366 0.3937009 
vt 41.35777 0.3937009 
vt 37.81059 0.3937009 
vt 41.35777 0.7874017 
vt 37.81059 0.7874017 
vt -34.69026 0.7874017 
vt -34.69026 0.3937009 
vt -38.23744 0.7874017 
vt -38.23744 0.3937009 
vt -17.4773 0.7874017 
vt -17.4773 0.3937009 
vt -21.02448 0.7874017 
vt -21.02448 0.3937009 
vt 35.02647 0.3937009 
vt 31.47929 0.3937009 
vt 35.02647 0.7874017 
vt 31.47929 0.7874017 
vt -6.576204 0.393701 
vt -10.12338 0.393701 
vt -6.576204 0.7874017 
vt -10.12338 0.7874017 
vt 39.82909 0.3937008 
vt 39.82909 0.7874016 
vt 43.37627 0.3937008 
vt 43.37627 0.7874016 
vt 26.42905 0.3937009 
vt 22.88187 0.3937009 
vt 26.42905 0.7874017 
vt 22.88187 0.7874017 
vt 42.13276 0.3937008 
vt 42.13276 0.7874016 
vt 45.67994 0.3937008 
vt 45.67994 0.7874016 
vt 41.44429 0.3937008 
vt 41.44429 0.7874016 
vt 44.99147 0.3937008 
vt 44.99147 0.7874016 
vt -31.10307 0 
vt -35.40269 0 
vt -31.10307 0.7874016 
vt -35.40269 0.7874016 
vt -41.75653 0.7874016 
vt -41.75653 0 
vt -46.05616 0.7874016 
vt -46.05616 0 
vt -39.45286 0.7874016 
vt -39.45286 0 
vt -43.75249 0.7874016 
vt -43.75249 0 
vt -0.9705135 0 
vt -5.270143 0 
vt -0.9705135 0.7874016 
vt -5.270143 0.7874016 
vt -41.06806 0.7874016 
vt -41.06806 0 
vt -45.36769 0.7874016 
vt -45.36769 0 
vt -12.22799 0 
vt -16.52762 0 
vt -12.22799 0.7874016 
vt -16.52762 0.7874016 
vt 26.69026 0 
vt 26.69026 0.7874016 
vt 30.98989 0 
vt 30.98989 0.7874016 
vt -22.50564 0 
vt -26.80527 0 
vt -22.50564 0.7874016 
vt -26.80527 0.7874016 
vt 10.49961 0 
vt 6.199979 0 
vt 10.49961 0.7874016 
vt 6.199979 0.7874016 
vt -37.43436 0 
vt -41.73399 0 
vt -37.43436 0.7874016 
vt -41.73399 0.7874016 
vt 17.10108 0 
vt 17.10108 0.7874016 
vt 21.40071 0 
vt 21.40071 0.7874016 
vt 0 0.3937008 
vt 0 0.7874016 
vt 39.37008 0.3937008 
vt 39.37008 0.7874016 
vt -39.37008 0.7874016 
vt -39.37008 0.3937008 
vt 0 0 
vt 39.37008 0 
vt 33.27304 0 
vt 33.27304 39.37008 
vt 36.15541 0 
vt 33.9488 47.60526 
vt 35.59419 43.63292 
vt 36.15541 39.37008 
vt 32.81004 42.88691 
vt 31.45259 46.16408 
vt 31.33135 51.01639 
vt 29.2932 48.97824 
vt 27.92022 53.63384 
vt 26.47904 51.13763 
vt 23.94789 55.27923 
vt 23.20187 52.49508 
vt 19.68504 55.84045 
vt 19.68504 52.95807 
vt 16.16821 52.49508 
vt 15.42219 55.27923 
vt 12.89104 51.13763 
vt 11.44985 53.63384 
vt 10.07688 48.97824 
vt 8.03873 51.01639 
vt 7.91749 46.16408 
vt 6.560043 42.88691 
vt 5.421281 47.60526 
vt 6.097044 39.37008 
vt 6.097044 0 
vt 3.775884 43.63292 
vt 3.21467 39.37008 
vt 3.21467 0 
vt -39.37008 0 
vt 36.73278 49.2126 
vt 38.69933 44.46494 
vt 39.37008 39.37008 
vt 33.60447 53.28951 
vt 29.52756 56.41782 
vt 24.7799 58.38437 
vt 19.68504 59.05512 
vt 14.59018 58.38437 
vt 9.84252 56.41782 
vt 5.765615 53.28951 
vt 2.637295 49.2126 
vt 0.6707515 44.46494 
vt 0 39.37008 

usemtl grey

f 2/2/1 1/1/1 3/3/2 
f 3/3/2 4/4/2 2/2/1 
f 6/6/4 5/5/3 7/7/3 
f 7/7/3 8/8/5 6/6/4 
f 9/10/6 6/9/4 8/11/5 
f 8/11/5 10/12/6 9/10/6 
f 12/14/7 11/13/7 13/15/8 
f 13/15/8 14/16/8 12/14/7 
f 16/18/10 15/17/9 17/19/11 
f 17/19/11 18/20/12 16/18/10 
f 20/22/13 19/21/13 11/23/7 
f 11/23/7 12/24/7 20/22/13 
f 14/26/8 13/25/8 21/27/14 
f 21/27/14 22/28/14 14/26/8 
f 15/30/9 23/29/15 24/31/16 
f 24/31/16 17/32/11 15/30/9 
f 5/34/3 22/33/14 21/35/14 
f 21/35/14 7/36/3 5/34/3 
f 26/38/17 25/37/17 27/39/18 
f 27/39/18 28/40/19 26/38/17 
f 23/42/15 9/41/6 10/43/6 
f 10/43/6 24/44/16 23/42/15 
f 28/46/19 27/45/18 29/47/20 
f 29/47/20 30/48/21 28/46/19 
f 30/50/21 29/49/20 16/51/10 
f 16/51/10 18/52/12 30/50/21 
f 32/54/23 31/53/22 33/55/22 
f 33/55/22 34/56/23 32/54/23 
f 36/58/24 35/57/24 37/59/25 
f 37/59/25 38/60/25 36/58/24 
f 40/62/26 39/61/26 35/63/24 
f 35/63/24 36/64/24 40/62/26 
f 42/66/28 41/65/27 43/67/27 
f 43/67/27 44/68/28 42/66/28 
f 38/70/25 37/69/25 45/71/29 
f 45/71/29 46/72/29 38/70/25 
f 41/74/27 47/73/30 48/75/30 
f 48/75/30 43/76/27 41/74/27 
f 4/78/2 3/77/2 49/79/31 
f 49/79/31 50/80/31 4/78/2 
f 47/82/30 32/81/23 34/83/23 
f 34/83/23 48/84/30 47/82/30 
f 51/86/32 42/85/28 44/87/28 
f 44/87/28 52/88/32 51/86/32 
f 31/90/22 46/89/29 45/91/29 
f 45/91/29 33/92/22 31/90/22 
f 50/94/31 49/93/31 51/95/32 
f 51/95/32 52/96/32 50/94/31 
f 54/98/33 53/97/33 25/99/17 
f 25/99/17 26/100/17 54/98/33 
f 56/97/34 55/98/34 19/101/13 
f 19/101/13 20/102/13 56/97/34 
f 58/98/33 57/103/33 1/104/1 
f 1/104/1 2/100/1 58/98/33 
f 19/106/35 55/105/35 58/107/35 
f 58/107/35 50/108/35 19/106/35 
f 58/107/35 4/109/35 50/108/35 
f 58/107/35 2/110/35 4/109/35 
f 11/111/35 19/106/35 50/108/35 
f 13/112/35 11/111/35 50/108/35 
f 13/112/35 50/108/35 52/113/35 
f 21/114/35 13/112/35 52/113/35 
f 21/114/35 52/113/35 44/115/35 
f 7/116/35 21/114/35 44/115/35 
f 7/116/35 44/115/35 43/117/35 
f 8/118/35 7/116/35 43/117/35 
f 8/118/35 43/117/35 48/119/35 
f 10/120/35 8/118/35 48/119/35 
f 24/121/35 10/120/35 48/119/35 
f 24/121/35 48/119/35 34/122/35 
f 17/123/35 24/121/35 34/122/35 
f 17/123/35 34/122/35 33/124/35 
f 18/125/35 17/123/35 33/124/35 
f 18/125/35 33/124/35 45/126/35 
f 30/127/35 18/125/35 45/126/35 
f 28/128/35 30/127/35 45/126/35 
f 28/128/35 45/126/35 37/129/35 
f 26/130/35 28/128/35 37/129/35 
f 54/131/35 26/130/35 37/129/35 
f 54/131/35 37/129/35 35/132/35 
f 54/131/35 35/132/35 39/133/35 
f 39/133/35 59/134/35 54/131/35 
f 60/103/34 59/98/34 39/101/26 
f 39/101/26 40/135/26 60/103/34 

usemtl grass

f 1/110/35 57/107/35 61/104/35 
f 61/104/35 62/136/35 1/110/35 
f 61/104/35 63/137/35 62/136/35 
f 61/104/35 64/138/35 63/137/35 
f 3/109/35 1/110/35 62/136/35 
f 49/108/35 3/109/35 62/136/35 
f 49/108/35 62/136/35 65/139/35 
f 51/113/35 49/108/35 65/139/35 
f 51/113/35 65/139/35 66/140/35 
f 42/115/35 51/113/35 66/140/35 
f 42/115/35 66/140/35 67/141/35 
f 41/117/35 42/115/35 67/141/35 
f 41/117/35 67/141/35 68/142/35 
f 47/119/35 41/117/35 68/142/35 
f 32/122/35 47/119/35 68/142/35 
f 32/122/35 68/142/35 69/143/35 
f 31/124/35 32/122/35 69/143/35 
f 31/124/35 69/143/35 70/144/35 
f 46/126/35 31/124/35 70/144/35 
f 46/126/35 70/144/35 71/145/35 
f 38/129/35 46/126/35 71/145/35 
f 36/132/35 38/129/35 71/145/35 
f 36/132/35 71/145/35 72/146/35 
f 40/133/35 36/132/35 72/146/35 
f 60/134/35 40/133/35 72/146/35 
f 60/134/35 72/146/35 73/147/35 
f 60/134/35 73/147/35 74/148/35 
f 74/148/35 75/103/35 60/134/35 

usemtl road

f 25/130/35 53/131/35 56/105/35 
f 56/105/35 27/128/35 25/130/35 
f 56/105/35 29/127/35 27/128/35 
f 56/105/35 16/125/35 29/127/35 
f 56/105/35 15/123/35 16/125/35 
f 56/105/35 23/121/35 15/123/35 
f 56/105/35 9/120/35 23/121/35 
f 56/105/35 6/118/35 9/120/35 
f 56/105/35 5/116/35 6/118/35 
f 56/105/35 22/114/35 5/116/35 
f 56/105/35 14/112/35 22/114/35 
f 56/105/35 12/111/35 14/112/35 
f 56/105/35 20/106/35 12/111/35 
g roadEnd




usemtl grey

f 2/2/1 1/1/1 3/3/2 
f 3/3/2 4/4/2 2/2/1 
f 6/6/4 5/5/3 7/7/3 
f 7/7/3 8/8/5 6/6/4 
f 9/10/6 6/9/4 8/11/5 
f 8/11/5 10/12/6 9/10/6 
f 12/14/7 11/13/7 13/15/8 
f 13/15/8 14/16/8 12/14/7 
f 16/18/10 15/17/9 17/19/11 
f 17/19/11 18/20/12 16/18/10 
f 20/22/13 19/21/13 11/23/7 
f 11/23/7 12/24/7 20/22/13 
f 14/26/8 13/25/8 21/27/14 
f 21/27/14 22/28/14 14/26/8 
f 15/30/9 23/29/15 24/31/16 
f 24/31/16 17/32/11 15/30/9 
f 5/34/3 22/33/14 21/35/14 
f 21/35/14 7/36/3 5/34/3 
f 26/38/17 25/37/17 27/39/18 
f 27/39/18 28/40/19 26/38/17 
f 23/42/15 9/41/6 10/43/6 
f 10/43/6 24/44/16 23/42/15 
f 28/46/19 27/45/18 29/47/20 
f 29/47/20 30/48/21 28/46/19 
f 30/50/21 29/49/20 16/51/10 
f 16/51/10 18/52/12 30/50/21 
f 32/54/23 31/53/22 33/55/22 
f 33/55/22 34/56/23 32/54/23 
f 36/58/24 35/57/24 37/59/25 
f 37/59/25 38/60/25 36/58/24 
f 40/62/26 39/61/26 35/63/24 
f 35/63/24 36/64/24 40/62/26 
f 42/66/28 41/65/27 43/67/27 
f 43/67/27 44/68/28 42/66/28 
f 38/70/25 37/69/25 45/71/29 
f 45/71/29 46/72/29 38/70/25 
f 41/74/27 47/73/30 48/75/30 
f 48/75/30 43/76/27 41/74/27 
f 4/78/2 3/77/2 49/79/31 
f 49/79/31 50/80/31 4/78/2 
f 47/82/30 32/81/23 34/83/23 
f 34/83/23 48/84/30 47/82/30 
f 51/86/32 42/85/28 44/87/28 
f 44/87/28 52/88/32 51/86/32 
f 31/90/22 46/89/29 45/91/29 
f 45/91/29 33/92/22 31/90/22 
f 50/94/31 49/93/31 51/95/32 
f 51/95/32 52/96/32 50/94/31 
f 54/98/33 53/97/33 25/99/17 
f 25/99/17 26/100/17 54/98/33 
f 56/97/34 55/98/34 19/101/13 
f 19/101/13 20/102/13 56/97/34 
f 58/98/33 57/103/33 1/104/1 
f 1/104/1 2/100/1 58/98/33 
f 19/106/35 55/105/35 58/107/35 
f 58/107/35 50/108/35 19/106/35 
f 58/107/35 4/109/35 50/108/35 
f 58/107/35 2/110/35 4/109/35 
f 11/111/35 19/106/35 50/108/35 
f 13/112/35 11/111/35 50/108/35 
f 13/112/35 50/108/35 52/113/35 
f 21/114/35 13/112/35 52/113/35 
f 21/114/35 52/113/35 44/115/35 
f 7/116/35 21/114/35 44/115/35 
f 7/116/35 44/115/35 43/117/35 
f 8/118/35 7/116/35 43/117/35 
f 8/118/35 43/117/35 48/119/35 
f 10/120/35 8/118/35 48/119/35 
f 24/121/35 10/120/35 48/119/35 
f 24/121/35 48/119/35 34/122/35 
f 17/123/35 24/121/35 34/122/35 
f 17/123/35 34/122/35 33/124/35 
f 18/125/35 17/123/35 33/124/35 
f 18/125/35 33/124/35 45/126/35 
f 30/127/35 18/125/35 45/126/35 
f 28/128/35 30/127/35 45/126/35 
f 28/128/35 45/126/35 37/129/35 
f 26/130/35 28/128/35 37/129/35 
f 54/131/35 26/130/35 37/129/35 
f 54/131/35 37/129/35 35/132/35 
f 54/131/35 35/132/35 39/133/35 
f 39/133/35 59/134/35 54/131/35 
f 60/103/34 59/98/34 39/101/26 
f 39/101/26 40/135/26 60/103/34 

usemtl grass

f 1/110/35 57/107/35 61/104/35 
f 61/104/35 62/136/35 1/110/35 
f 61/104/35 63/137/35 62/136/35 
f 61/104/35 64/138/35 63/137/35 
f 3/109/35 1/110/35 62/136/35 
f 49/108/35 3/109/35 62/136/35 
f 49/108/35 62/136/35 65/139/35 
f 51/113/35 49/108/35 65/139/35 
f 51/113/35 65/139/35 66/140/35 
f 42/115/35 51/113/35 66/140/35 
f 42/115/35 66/140/35 67/141/35 
f 41/117/35 42/115/35 67/141/35 
f 41/117/35 67/141/35 68/142/35 
f 47/119/35 41/117/35 68/142/35 
f 32/122/35 47/119/35 68/142/35 
f 32/122/35 68/142/35 69/143/35 
f 31/124/35 32/122/35 69/143/35 
f 31/124/35 69/143/35 70/144/35 
f 46/126/35 31/124/35 70/144/35 
f 46/126/35 70/144/35 71/145/35 
f 38/129/35 46/126/35 71/145/35 
f 36/132/35 38/129/35 71/145/35 
f 36/132/35 71/145/35 72/146/35 
f 40/133/35 36/132/35 72/146/35 
f 60/134/35 40/133/35 72/146/35 
f 60/134/35 72/146/35 73/147/35 
f 60/134/35 73/147/35 74/148/35 
f 74/148/35 75/103/35 60/134/35 

usemtl road

f 25/130/35 53/131/35 56/105/35 
f 56/105/35 27/128/35 25/130/35 
f 56/105/35 29/127/35 27/128/35 
f 56/105/35 16/125/35 29/127/35 
f 56/105/35 15/123/35 16/125/35 
f 56/105/35 23/121/35 15/123/35 
f 56/105/35 9/120/35 23/121/35 
f 56/105/35 6/118/35 9/120/35 
f 56/105/35 5/116/35 6/118/35 
f 56/105/35 22/114/35 5/116/35 
f 56/105/35 14/112/35 22/114/35 
f 56/105/35 12/111/35 14/112/35 
f 56/105/35 20/106/35 12/111/35 
