# Created by Kenney (www.kenney.nl) 

mtllib roadCornerSmallBorder.mtl 

g roadCornerSmallBorder

v -0.2066467 0 0.6087614 
v -0.2066467 0.02 0.6087614 
v -0.2928932 0 0.7071067 
v -0.2928932 0.02 0.7071067 
v -0.04004246 0.02 0.7366012 
v -0.04004246 0 0.7366012 
v -0.1444008 0.02 0.8555993 
v -0.1444008 0 0.8555993 
v 0.04789075 0.02 0.6049999 
v -0.1339746 0.02 0.5 
v -0.1339746 0 0.5 
v 0.04789075 0 0.6049999 
v 0 0 0 
v 0 0.02 0 
v -0.008555144 0 0.1305262 
v -0.008555144 0.02 0.1305262 
v 0.21 0.02 0 
v 0.21 0 0 
v 0.1996483 0.02 0.1579367 
v 0.1996483 0 0.1579367 
v 0.1687702 0.02 0.313171 
v 0.1687702 0 0.313171 
v -0.03407416 0.02 0.258819 
v -0.03407416 0 0.258819 
v -0.741181 0 0.9659258 
v -0.6173166 0 0.9238795 
v -0.741181 0.02 0.9659258 
v -0.6173166 0.02 0.9238795 
v -0.395 0.02 1.047891 
v -0.536953 0.02 1.117894 
v -0.5 0.02 0.8660254 
v -0.686829 0.02 1.16877 
v -0.5 0 0.8660254 
v -0.536953 0 1.117894 
v -0.686829 0 1.16877 
v -0.395 0 1.047891 
v 0.1178942 0.02 0.4630469 
v 0.1178942 0 0.4630469 
v -0.07612047 0 0.3826834 
v -0.07612047 0.02 0.3826834 
v -0.8420633 0 1.199648 
v -1 0 1.21 
v -0.8420633 0.02 1.199648 
v -1 0.02 1.21 
v -1 0 1 
v -1 0.02 1 
v -0.8694738 0 0.9914449 
v -0.8694738 0.02 0.9914449 
v -0.2633987 0.02 0.9599576 
v -0.3912386 0.02 0.7933533 
v -0.3912386 0 0.7933533 
v -0.2633987 0 0.9599576 

vn -0.7933533 0 -0.6087614 
vn -0.7518399 0 -0.6593459 
vn 0.7933533 0 0.6087614 
vn 0.7518399 0 0.6593459 
vn 0 1 0 
vn -0.8314696 0 -0.5555702 
vn 0.8314696 0 0.5555702 
vn -0.9978589 0 -0.06540313 
vn -0.9914449 0 -0.1305262 
vn 0.9978589 0 0.06540313 
vn 0.9914449 0 0.1305262 
vn 0.9807853 0 0.1950903 
vn 0 0 -1 
vn -0.9807853 0 -0.1950903 
vn -0.3214395 0 -0.9469302 
vn -0.3826834 0 -0.9238795 
vn -0.4422887 0 -0.8968728 
vn 0.3826834 0 0.9238795 
vn 0.3214395 0 0.9469302 
vn 0.4422887 0 0.8968728 
vn 0.9238795 0 0.3826834 
vn 0.8968728 0 0.4422887 
vn -0.9238795 0 -0.3826834 
vn -0.8968728 0 -0.4422887 
vn -0.9469302 0 -0.3214395 
vn 0.9469302 0 0.3214395 
vn 0.1305262 0 0.9914449 
vn 0.06540313 0 0.9978589 
vn -1 0 0 
vn -0.1305262 0 -0.9914449 
vn -0.1950903 0 -0.9807853 
vn 0.1950903 0 0.9807853 
vn -0.06540313 0 -0.9978589 
vn -0.5555702 0 -0.8314696 
vn -0.6087614 0 -0.7933533 
vn 0.6087614 0 0.7933533 
vn 0.5555702 0 0.8314696 
vn -0.6593459 0 -0.7518399 
vn 0.6593459 0 0.7518399 

vt 23.38357 0 
vt 23.38357 0.7874016 
vt 28.53342 0 
vt 28.53342 0.7874016 
vt -22.84284 0.7874016 
vt -22.84284 0 
vt -29.07416 0.7874016 
vt -29.07416 0 
vt -1.885462 23.8189 
vt 1.576475 29.00005 
vt 5.27459 19.68504 
vt 5.685071 33.68501 
vt 8.135695 23.96699 
vt 11.53123 27.83885 
vt 19.29792 0 
vt 19.29792 0.7874016 
vt 24.44777 0 
vt 24.44777 0.7874016 
vt -18.75718 0.7874016 
vt -18.75718 0 
vt -24.9885 0.7874016 
vt -24.9885 0 
vt 0 0 
vt 0 0.7874016 
vt 5.149853 0 
vt 5.149853 0.7874016 
vt 0.5407345 0.7874016 
vt 0.5407345 0 
vt -5.690587 0.7874016 
vt -5.690587 0 
vt -4.565061 0.7874016 
vt -4.565061 0 
vt -10.79638 0.7874016 
vt -10.79638 0 
vt -8.267716 -2.285105E-11 
vt -7.860168 6.21798 
vt -6.644498 12.32957 
vt 0.3368165 5.138826 
vt 1.341503 10.18973 
vt -8.267716 0 
vt -8.267716 0.7874016 
vt 5.105795 0 
vt 5.105795 0.7874016 
vt 10.25565 0 
vt 10.25565 0.7874016 
vt 39.85564 0 
vt 34.70579 0 
vt 39.85564 0.7874016 
vt 34.70579 0.7874016 
vt 15.55118 41.25554 
vt 21.13988 44.01159 
vt 19.68504 34.09549 
vt 24.3038 36.37321 
vt 27.04051 46.01458 
vt 29.18035 38.02858 
vt 37.88488 0 
vt 32.73502 0 
vt 37.88488 0.7874016 
vt 32.73502 0.7874016 
vt -34.16505 0 
vt -40.39637 0 
vt -34.16505 0.7874016 
vt -40.39637 0.7874016 
vt -32.19429 0 
vt -38.42561 0 
vt -32.19429 0.7874016 
vt -38.42561 0.7874016 
vt -14.29728 0.7874016 
vt -14.29728 0 
vt -20.5286 0.7874016 
vt -20.5286 0 
vt 14.83801 0 
vt 14.83801 0.7874016 
vt 19.98787 0 
vt 19.98787 0.7874016 
vt -4.641505 18.23019 
vt 2.996869 15.06628 
vt 10.08017 0 
vt 10.08017 0.7874016 
vt 15.23002 0 
vt 15.23002 0.7874016 
vt -9.539436 0.7874016 
vt -9.539436 0 
vt -15.77076 0.7874016 
vt -15.77076 0 
vt -36.17012 0 
vt -42.40144 0 
vt -36.17012 0.7874016 
vt -42.40144 0.7874016 
vt 39.37008 0 
vt 39.37008 0.7874016 
vt 47.63779 0 
vt 47.63779 0.7874016 
vt 41.18852 0 
vt 36.03867 0 
vt 41.18852 0.7874016 
vt 36.03867 0.7874016 
vt 33.1521 47.23025 
vt 34.23125 39.03326 
vt 39.37008 47.63779 
vt 39.37008 39.37008 
vt -35.49793 0 
vt -41.72926 0 
vt -35.49793 0.7874016 
vt -41.72926 0.7874016 
vt 41.86071 0 
vt 36.71086 0 
vt 41.86071 0.7874016 
vt 36.71086 0.7874016 
vt 10.37003 37.79361 
vt 15.40309 31.23438 
vt 35.30995 0 
vt 30.1601 0 
vt 35.30995 0.7874016 
vt 30.1601 0.7874016 
vt -29.61936 0 
vt -35.85069 0 
vt -29.61936 0.7874016 
vt -35.85069 0.7874016 
vt 32.17492 0 
vt 27.02507 0 
vt 32.17492 0.7874016 
vt 27.02507 0.7874016 
vt -26.48433 0 
vt -32.71565 0 
vt -26.48433 0.7874016 
vt -32.71565 0.7874016 

usemtl red

f 2/2/1 1/1/1 3/3/2 
f 3/3/2 4/4/2 2/2/1 
f 6/6/3 5/5/3 7/7/4 
f 7/7/4 8/8/4 6/6/3 
f 5/10/5 9/9/5 10/11/5 
f 10/11/5 7/12/5 5/10/5 
f 10/11/5 2/13/5 7/12/5 
f 2/13/5 4/14/5 7/12/5 
f 10/16/6 11/15/6 1/17/1 
f 1/17/1 2/18/1 10/16/6 
f 12/20/7 9/19/7 5/21/3 
f 5/21/3 6/22/3 12/20/7 
f 14/24/8 13/23/8 15/25/9 
f 15/25/9 16/26/9 14/24/8 
f 18/28/10 17/27/10 19/29/11 
f 19/29/11 20/30/11 18/28/10 
f 20/32/11 19/31/11 21/33/12 
f 21/33/12 22/34/12 20/32/11 
f 19/36/5 17/35/5 14/23/5 
f 14/23/5 21/37/5 19/36/5 
f 14/23/5 16/38/5 21/37/5 
f 16/38/5 23/39/5 21/37/5 
f 18/40/13 13/23/13 14/24/13 
f 14/24/13 17/41/13 18/40/13 
f 16/43/9 15/42/9 24/44/14 
f 24/44/14 23/45/14 16/43/9 
f 26/47/16 25/46/15 27/48/15 
f 27/48/15 28/49/16 26/47/16 
f 30/51/5 29/50/5 31/52/5 
f 31/52/5 28/53/5 30/51/5 
f 28/53/5 32/54/5 30/51/5 
f 28/53/5 27/55/5 32/54/5 
f 33/57/17 26/56/16 28/58/16 
f 28/58/16 31/59/17 33/57/17 
f 35/61/19 34/60/18 30/62/18 
f 30/62/18 32/63/19 35/61/19 
f 34/65/18 36/64/20 29/66/20 
f 29/66/20 30/67/18 34/65/18 

usemtl white

f 38/69/21 37/68/21 9/70/22 
f 9/70/22 12/71/22 38/69/21 
f 40/73/23 39/72/23 11/74/24 
f 11/74/24 10/75/24 40/73/23 
f 37/76/5 21/37/5 23/39/5 
f 23/39/5 9/9/5 37/76/5 
f 23/39/5 40/77/5 9/9/5 
f 40/77/5 10/11/5 9/9/5 
f 23/79/25 24/78/25 39/80/23 
f 39/80/23 40/81/23 23/79/25 
f 22/83/26 21/82/26 37/84/21 
f 37/84/21 38/85/21 22/83/26 
f 42/87/28 41/86/27 43/88/27 
f 43/88/27 44/89/28 42/87/28 
f 46/91/29 45/90/29 42/92/29 
f 42/92/29 44/93/29 46/91/29 
f 25/95/31 47/94/30 48/96/30 
f 48/96/30 27/97/31 25/95/31 
f 43/98/5 32/54/5 27/55/5 
f 27/55/5 48/99/5 43/98/5 
f 48/99/5 44/100/5 43/98/5 
f 48/99/5 46/101/5 44/100/5 
f 41/103/27 35/102/32 32/104/32 
f 32/104/32 43/105/27 41/103/27 
f 47/107/30 45/106/33 46/108/33 
f 46/108/33 48/109/30 47/107/30 
f 49/110/5 7/12/5 4/14/5 
f 4/14/5 29/50/5 49/110/5 
f 4/14/5 50/111/5 29/50/5 
f 50/111/5 31/52/5 29/50/5 
f 51/113/35 33/112/34 31/114/34 
f 31/114/34 50/115/35 51/113/35 
f 36/117/37 52/116/36 49/118/36 
f 49/118/36 29/119/37 36/117/37 
f 3/121/38 51/120/35 50/122/35 
f 50/122/35 4/123/38 3/121/38 
f 52/125/36 8/124/39 7/126/39 
f 7/126/39 49/127/36 52/125/36 
g roadCornerSmallBorder




usemtl red

f 2/2/1 1/1/1 3/3/2 
f 3/3/2 4/4/2 2/2/1 
f 6/6/3 5/5/3 7/7/4 
f 7/7/4 8/8/4 6/6/3 
f 5/10/5 9/9/5 10/11/5 
f 10/11/5 7/12/5 5/10/5 
f 10/11/5 2/13/5 7/12/5 
f 2/13/5 4/14/5 7/12/5 
f 10/16/6 11/15/6 1/17/1 
f 1/17/1 2/18/1 10/16/6 
f 12/20/7 9/19/7 5/21/3 
f 5/21/3 6/22/3 12/20/7 
f 14/24/8 13/23/8 15/25/9 
f 15/25/9 16/26/9 14/24/8 
f 18/28/10 17/27/10 19/29/11 
f 19/29/11 20/30/11 18/28/10 
f 20/32/11 19/31/11 21/33/12 
f 21/33/12 22/34/12 20/32/11 
f 19/36/5 17/35/5 14/23/5 
f 14/23/5 21/37/5 19/36/5 
f 14/23/5 16/38/5 21/37/5 
f 16/38/5 23/39/5 21/37/5 
f 18/40/13 13/23/13 14/24/13 
f 14/24/13 17/41/13 18/40/13 
f 16/43/9 15/42/9 24/44/14 
f 24/44/14 23/45/14 16/43/9 
f 26/47/16 25/46/15 27/48/15 
f 27/48/15 28/49/16 26/47/16 
f 30/51/5 29/50/5 31/52/5 
f 31/52/5 28/53/5 30/51/5 
f 28/53/5 32/54/5 30/51/5 
f 28/53/5 27/55/5 32/54/5 
f 33/57/17 26/56/16 28/58/16 
f 28/58/16 31/59/17 33/57/17 
f 35/61/19 34/60/18 30/62/18 
f 30/62/18 32/63/19 35/61/19 
f 34/65/18 36/64/20 29/66/20 
f 29/66/20 30/67/18 34/65/18 

usemtl white

f 38/69/21 37/68/21 9/70/22 
f 9/70/22 12/71/22 38/69/21 
f 40/73/23 39/72/23 11/74/24 
f 11/74/24 10/75/24 40/73/23 
f 37/76/5 21/37/5 23/39/5 
f 23/39/5 9/9/5 37/76/5 
f 23/39/5 40/77/5 9/9/5 
f 40/77/5 10/11/5 9/9/5 
f 23/79/25 24/78/25 39/80/23 
f 39/80/23 40/81/23 23/79/25 
f 22/83/26 21/82/26 37/84/21 
f 37/84/21 38/85/21 22/83/26 
f 42/87/28 41/86/27 43/88/27 
f 43/88/27 44/89/28 42/87/28 
f 46/91/29 45/90/29 42/92/29 
f 42/92/29 44/93/29 46/91/29 
f 25/95/31 47/94/30 48/96/30 
f 48/96/30 27/97/31 25/95/31 
f 43/98/5 32/54/5 27/55/5 
f 27/55/5 48/99/5 43/98/5 
f 48/99/5 44/100/5 43/98/5 
f 48/99/5 46/101/5 44/100/5 
f 41/103/27 35/102/32 32/104/32 
f 32/104/32 43/105/27 41/103/27 
f 47/107/30 45/106/33 46/108/33 
f 46/108/33 48/109/30 47/107/30 
f 49/110/5 7/12/5 4/14/5 
f 4/14/5 29/50/5 49/110/5 
f 4/14/5 50/111/5 29/50/5 
f 50/111/5 31/52/5 29/50/5 
f 51/113/35 33/112/34 31/114/34 
f 31/114/34 50/115/35 51/113/35 
f 36/117/37 52/116/36 49/118/36 
f 49/118/36 29/119/37 36/117/37 
f 3/121/38 51/120/35 50/122/35 
f 50/122/35 4/123/38 3/121/38 
f 52/125/36 8/124/39 7/126/39 
f 7/126/39 49/127/36 52/125/36 
