# Created by Kenney (www.kenney.nl) 

mtllib roadCornerSmallWall.mtl 

g roadCornerSmallWall

v 0.5799999 0.04 0 
v 0.5664828 0.04 0.2062314 
v 0.53 0.04 0 
v 0.5169106 0.04 0.1997051 
v 0.53 0 0 
v 0.5169106 0 0.1997051 
v 0.5799999 0 0 
v 0.5664828 0 0.2062314 
v 0.5261627 0.04 0.4089341 
v 0.4597296 0.04 0.6046399 
v 0.4778665 0.04 0.3959931 
v 0.4135357 0.04 0.5855056 
v 0.4778665 0 0.3959931 
v 0.4135357 0 0.5855056 
v 0.5261627 0 0.4089341 
v 0.4597296 0 0.6046399 
v 0.3683201 0.04 0.79 
v 0.2534983 0.04 0.961843 
v 0.3250189 0.04 0.765 
v 0.2138306 0.04 0.9314049 
v 0.3250189 0 0.765 
v 0.2138306 0 0.9314049 
v 0.3683201 0 0.79 
v 0.2534983 0 0.961843 
v 0.1172287 0.04 1.117229 
v -0.03815696 0.04 1.253498 
v 0.08187339 0.04 1.081873 
v -0.06859502 0.04 1.213831 
v -0.06859502 0 1.213831 
v 0.08187339 0 1.081873 
v 0.1172287 0 1.117229 
v -0.03815696 0 1.253498 
v -0.21 0.04 1.36832 
v -0.3953602 0.04 1.45973 
v -0.235 0.04 1.325019 
v -0.4144944 0.04 1.413536 
v -0.4144944 0 1.413536 
v -0.235 0 1.325019 
v -0.21 0 1.36832 
v -0.3953602 0 1.45973 
v -0.5910659 0.04 1.526163 
v -0.7937686 0.04 1.566483 
v -0.6040069 0.04 1.477866 
v -0.8002949 0.04 1.516911 
v -0.8002949 0 1.516911 
v -0.6040069 0 1.477866 
v -0.5910659 0 1.526163 
v -0.7937686 0 1.566483 
v -1 0.04 1.58 
v -1 0.04 1.53 
v -1 0 1.58 
v -1 0 1.53 

vn 0 1 0 
vn -0.9978589 0 -0.06540313 
vn 0.9978589 0 0.06540313 
vn 0 0 -1 
vn -0.9469302 0 -0.3214395 
vn 0.9469302 0 0.3214395 
vn -0.8314696 0 -0.5555702 
vn 0.8314696 0 0.5555702 
vn -0.6593459 0 -0.7518399 
vn 0.6593459 0 0.7518399 
vn -0.4422887 0 -0.8968728 
vn 0.4422887 0 0.8968728 
vn -0.1950903 0 -0.9807853 
vn 0.1950903 0 0.9807853 
vn -0.9807853 0 -0.1950903 
vn 0.9807853 0 0.1950903 
vn -0.8968728 0 -0.4422887 
vn 0.8968728 0 0.4422887 
vn -0.7518399 0 -0.6593459 
vn 0.7518399 0 0.6593459 
vn -0.5555702 0 -0.8314696 
vn 0.5555702 0 0.8314696 
vn -0.3214395 0 -0.9469302 
vn 0.3214395 0 0.9469302 
vn 0.06540313 0 0.9978589 
vn -0.06540313 0 -0.9978589 
vn -1 0 0 

vt -22.83465 0 
vt -22.30247 8.119346 
vt -20.86614 0 
vt -20.35081 7.862404 
vt -1.364711 0 
vt -1.364711 1.574803 
vt 6.514564 0 
vt 6.514564 1.574803 
vt 1.493457 1.574803 
vt 1.493457 0 
vt -6.64331 1.574803 
vt -6.64331 0 
vt -20.86614 1.574803 
vt -22.83465 1.574803 
vt -20.71507 16.09977 
vt -18.09959 23.80472 
vt -18.81364 15.59028 
vt -16.28093 23.0514 
vt 8.71546 0 
vt 8.71546 1.574803 
vt 16.59473 0 
vt 16.59473 1.574803 
vt -8.586714 1.574803 
vt -8.586714 0 
vt -16.72348 1.574803 
vt -16.72348 0 
vt -14.50079 31.10236 
vt -9.980247 37.86784 
vt -12.79602 30.11811 
vt -8.418528 36.66949 
vt 17.93321 0 
vt 17.93321 1.574803 
vt 25.81248 0 
vt 25.81248 1.574803 
vt -17.80446 1.574803 
vt -17.80446 0 
vt -25.94123 1.574803 
vt -25.94123 0 
vt -4.615304 43.98538 
vt 1.502242 49.35033 
vt -3.223361 42.59344 
vt 2.700591 47.78861 
vt 33.53963 0 
vt 25.66035 0 
vt 33.53963 1.574803 
vt 25.66035 1.574803 
vt -25.53161 0 
vt -33.66838 0 
vt -25.53161 1.574803 
vt -33.66838 1.574803 
vt 8.267716 53.87087 
vt 15.56536 57.46967 
vt 9.251968 52.1661 
vt 16.31868 55.65101 
vt 39.24959 0 
vt 31.37031 0 
vt 39.24959 1.574803 
vt 31.37031 1.574803 
vt -31.24157 0 
vt -39.37833 0 
vt -31.24157 1.574803 
vt -39.37833 1.574803 
vt 23.27031 60.08515 
vt 31.25073 61.67255 
vt 23.7798 58.18372 
vt 31.50768 59.72089 
vt 42.55323 0 
vt 34.67396 0 
vt 42.55323 1.574803 
vt 34.67396 1.574803 
vt -34.54521 0 
vt -42.68198 0 
vt -34.54521 1.574803 
vt -42.68198 1.574803 
vt 3.741084 0 
vt 3.741084 1.574803 
vt 11.62036 0 
vt 11.62036 1.574803 
vt -3.612338 1.574803 
vt -3.612338 0 
vt -11.7491 1.574803 
vt -11.7491 0 
vt 13.4733 0 
vt 13.4733 1.574803 
vt 21.35258 0 
vt 21.35258 1.574803 
vt -13.34456 1.574803 
vt -13.34456 0 
vt -21.48132 1.574803 
vt -21.48132 0 
vt 22.01886 0 
vt 22.01886 1.574803 
vt 29.89813 0 
vt 29.89813 1.574803 
vt -21.89011 1.574803 
vt -21.89011 0 
vt -30.02688 1.574803 
vt -30.02688 0 
vt 36.67466 0 
vt 28.79539 0 
vt 36.67466 1.574803 
vt 28.79539 1.574803 
vt -28.66664 0 
vt -36.80341 0 
vt -28.66664 1.574803 
vt -36.80341 1.574803 
vt 41.22035 0 
vt 33.34108 0 
vt 41.22035 1.574803 
vt 33.34108 1.574803 
vt -33.21233 0 
vt -41.3491 0 
vt -33.21233 1.574803 
vt -41.3491 1.574803 
vt 39.37008 62.20472 
vt 39.37008 60.23622 
vt -35.2174 0 
vt -43.35417 0 
vt -35.2174 1.574803 
vt -43.35417 1.574803 
vt 43.22542 0 
vt 35.34615 0 
vt 43.22542 1.574803 
vt 35.34615 1.574803 
vt 60.23622 0 
vt 60.23622 1.574803 
vt 62.20472 0 
vt 62.20472 1.574803 

usemtl red

f 2/2/1 1/1/1 3/3/1 
f 3/3/1 4/4/1 2/2/1 
f 3/6/2 5/5/2 6/7/2 
f 6/7/2 4/8/2 3/6/2 
f 7/10/3 1/9/3 2/11/3 
f 2/11/3 8/12/3 7/10/3 
f 7/1/4 5/3/4 3/13/4 
f 3/13/4 1/14/4 7/1/4 
f 10/16/1 9/15/1 11/17/1 
f 11/17/1 12/18/1 10/16/1 
f 11/20/5 13/19/5 14/21/5 
f 14/21/5 12/22/5 11/20/5 
f 15/24/6 9/23/6 10/25/6 
f 10/25/6 16/26/6 15/24/6 
f 18/28/1 17/27/1 19/29/1 
f 19/29/1 20/30/1 18/28/1 
f 19/32/7 21/31/7 22/33/7 
f 22/33/7 20/34/7 19/32/7 
f 23/36/8 17/35/8 18/37/8 
f 18/37/8 24/38/8 23/36/8 
f 26/40/1 25/39/1 27/41/1 
f 27/41/1 28/42/1 26/40/1 
f 30/44/9 29/43/9 28/45/9 
f 28/45/9 27/46/9 30/44/9 
f 32/48/10 31/47/10 25/49/10 
f 25/49/10 26/50/10 32/48/10 
f 34/52/1 33/51/1 35/53/1 
f 35/53/1 36/54/1 34/52/1 
f 38/56/11 37/55/11 36/57/11 
f 36/57/11 35/58/11 38/56/11 
f 40/60/12 39/59/12 33/61/12 
f 33/61/12 34/62/12 40/60/12 
f 42/64/1 41/63/1 43/65/1 
f 43/65/1 44/66/1 42/64/1 
f 46/68/13 45/67/13 44/69/13 
f 44/69/13 43/70/13 46/68/13 
f 48/72/14 47/71/14 41/73/14 
f 41/73/14 42/74/14 48/72/14 

usemtl white

f 9/15/1 2/2/1 4/4/1 
f 4/4/1 11/17/1 9/15/1 
f 4/76/15 6/75/15 13/77/15 
f 13/77/15 11/78/15 4/76/15 
f 8/80/16 2/79/16 9/81/16 
f 9/81/16 15/82/16 8/80/16 
f 17/27/1 10/16/1 12/18/1 
f 12/18/1 19/29/1 17/27/1 
f 12/84/17 14/83/17 21/85/17 
f 21/85/17 19/86/17 12/84/17 
f 16/88/18 10/87/18 17/89/18 
f 17/89/18 23/90/18 16/88/18 
f 25/39/1 18/28/1 20/30/1 
f 20/30/1 27/41/1 25/39/1 
f 20/92/19 22/91/19 30/93/19 
f 30/93/19 27/94/19 20/92/19 
f 24/96/20 18/95/20 25/97/20 
f 25/97/20 31/98/20 24/96/20 
f 33/51/1 26/40/1 28/42/1 
f 28/42/1 35/53/1 33/51/1 
f 29/100/21 38/99/21 35/101/21 
f 35/101/21 28/102/21 29/100/21 
f 39/104/22 32/103/22 26/105/22 
f 26/105/22 33/106/22 39/104/22 
f 41/63/1 34/52/1 36/54/1 
f 36/54/1 43/65/1 41/63/1 
f 37/108/23 46/107/23 43/109/23 
f 43/109/23 36/110/23 37/108/23 
f 47/112/24 40/111/24 34/113/24 
f 34/113/24 41/114/24 47/112/24 
f 49/115/1 42/64/1 44/66/1 
f 44/66/1 50/116/1 49/115/1 
f 51/118/25 48/117/25 42/119/25 
f 42/119/25 49/120/25 51/118/25 
f 45/122/26 52/121/26 50/123/26 
f 50/123/26 44/124/26 45/122/26 
f 50/126/27 52/125/27 51/127/27 
f 51/127/27 49/128/27 50/126/27 
g roadCornerSmallWall




usemtl red

f 2/2/1 1/1/1 3/3/1 
f 3/3/1 4/4/1 2/2/1 
f 3/6/2 5/5/2 6/7/2 
f 6/7/2 4/8/2 3/6/2 
f 7/10/3 1/9/3 2/11/3 
f 2/11/3 8/12/3 7/10/3 
f 7/1/4 5/3/4 3/13/4 
f 3/13/4 1/14/4 7/1/4 
f 10/16/1 9/15/1 11/17/1 
f 11/17/1 12/18/1 10/16/1 
f 11/20/5 13/19/5 14/21/5 
f 14/21/5 12/22/5 11/20/5 
f 15/24/6 9/23/6 10/25/6 
f 10/25/6 16/26/6 15/24/6 
f 18/28/1 17/27/1 19/29/1 
f 19/29/1 20/30/1 18/28/1 
f 19/32/7 21/31/7 22/33/7 
f 22/33/7 20/34/7 19/32/7 
f 23/36/8 17/35/8 18/37/8 
f 18/37/8 24/38/8 23/36/8 
f 26/40/1 25/39/1 27/41/1 
f 27/41/1 28/42/1 26/40/1 
f 30/44/9 29/43/9 28/45/9 
f 28/45/9 27/46/9 30/44/9 
f 32/48/10 31/47/10 25/49/10 
f 25/49/10 26/50/10 32/48/10 
f 34/52/1 33/51/1 35/53/1 
f 35/53/1 36/54/1 34/52/1 
f 38/56/11 37/55/11 36/57/11 
f 36/57/11 35/58/11 38/56/11 
f 40/60/12 39/59/12 33/61/12 
f 33/61/12 34/62/12 40/60/12 
f 42/64/1 41/63/1 43/65/1 
f 43/65/1 44/66/1 42/64/1 
f 46/68/13 45/67/13 44/69/13 
f 44/69/13 43/70/13 46/68/13 
f 48/72/14 47/71/14 41/73/14 
f 41/73/14 42/74/14 48/72/14 

usemtl white

f 9/15/1 2/2/1 4/4/1 
f 4/4/1 11/17/1 9/15/1 
f 4/76/15 6/75/15 13/77/15 
f 13/77/15 11/78/15 4/76/15 
f 8/80/16 2/79/16 9/81/16 
f 9/81/16 15/82/16 8/80/16 
f 17/27/1 10/16/1 12/18/1 
f 12/18/1 19/29/1 17/27/1 
f 12/84/17 14/83/17 21/85/17 
f 21/85/17 19/86/17 12/84/17 
f 16/88/18 10/87/18 17/89/18 
f 17/89/18 23/90/18 16/88/18 
f 25/39/1 18/28/1 20/30/1 
f 20/30/1 27/41/1 25/39/1 
f 20/92/19 22/91/19 30/93/19 
f 30/93/19 27/94/19 20/92/19 
f 24/96/20 18/95/20 25/97/20 
f 25/97/20 31/98/20 24/96/20 
f 33/51/1 26/40/1 28/42/1 
f 28/42/1 35/53/1 33/51/1 
f 29/100/21 38/99/21 35/101/21 
f 35/101/21 28/102/21 29/100/21 
f 39/104/22 32/103/22 26/105/22 
f 26/105/22 33/106/22 39/104/22 
f 41/63/1 34/52/1 36/54/1 
f 36/54/1 43/65/1 41/63/1 
f 37/108/23 46/107/23 43/109/23 
f 43/109/23 36/110/23 37/108/23 
f 47/112/24 40/111/24 34/113/24 
f 34/113/24 41/114/24 47/112/24 
f 49/115/1 42/64/1 44/66/1 
f 44/66/1 50/116/1 49/115/1 
f 51/118/25 48/117/25 42/119/25 
f 42/119/25 49/120/25 51/118/25 
f 45/122/26 52/121/26 50/123/26 
f 50/123/26 44/124/26 45/122/26 
f 50/126/27 52/125/27 51/127/27 
f 51/127/27 49/128/27 50/126/27 
