# Created by Kenney (www.kenney.nl) 

mtllib roadStart.mtl 

g roadStart

v 0 0 1.095 
v -0.13 0 1.095 
v 0 0.5382 1.095 
v -0.13 0.5382 1.095 
v -0.001112163 0.5551684 1.095 
v -1.258888 0.5551684 1.095 
v -1.25557 0.5718465 1.095 
v -0.004429638 0.5718465 1.095 
v -1.250104 0.5879489 1.095 
v -0.009895653 0.5879489 1.095 
v -1.242583 0.6032 1.095 
v -0.01741669 0.6032 1.095 
v -1.233136 0.617339 1.095 
v -0.02686408 0.617339 1.095 
v -1.221924 0.6301239 1.095 
v -0.03807613 0.6301239 1.095 
v -1.209139 0.641336 1.095 
v -0.050861 0.641336 1.095 
v -1.195 0.6507833 1.095 
v -0.065 0.6507833 1.095 
v -1.179749 0.6583043 1.095 
v -0.08025116 0.6583043 1.095 
v -1.163646 0.6637703 1.095 
v -0.09635353 0.6637703 1.095 
v -1.146968 0.6670878 1.095 
v -0.1130316 0.6670878 1.095 
v -1.13 0.6682 1.095 
v -0.13 0.6682 1.095 
v -1.13 0 1.095 
v -1.26 0 1.095 
v -1.13 0.5382 1.095 
v -1.26 0.5382 1.095 
v -1.233136 0.617339 0.965 
v -1.221924 0.6301239 0.965 
v 0 0 0.905 
v 0 0.5382 0.965 
v -1.25557 0.5718465 0.965 
v -1.250104 0.5879489 0.965 
v -1.179749 0.6583043 0.965 
v -1.195 0.6507833 0.965 
v -0.01741669 0.6032 0.965 
v -0.009895653 0.5879489 0.965 
v -1.26 0 0.905 
v -1.13 0 0.905 
v -1.26 0.5382 0.965 
v -1.13 0.5382 0.965 
v -1.242583 0.6032 0.965 
v -1.163646 0.6637703 0.965 
v -0.004429638 0.5718465 0.965 
v -1.13 0.6682 0.965 
v -1.146968 0.6670878 0.965 
v -1.209139 0.641336 0.965 
v -0.02686408 0.617339 0.965 
v -0.03807613 0.6301239 0.965 
v -0.08025116 0.6583043 0.965 
v -0.09635353 0.6637703 0.965 
v -0.1130316 0.6670878 0.965 
v -0.001112163 0.5551684 0.965 
v -1.258888 0.5551684 0.965 
v -0.13 0.6682 0.965 
v -0.13 0 0.905 
v -0.13 0.5382 0.965 
v -0.2535352 0.5382 0.965 
v -0.5006056 0.5382 0.965 
v -0.7593943 0.5382 0.965 
v -1.006465 0.5382 0.965 
v -0.050861 0.641336 0.965 
v -0.2535352 0.6682 0.915 
v -0.2535352 0.6682 0.965 
v -0.5006056 0.6682 0.915 
v -0.5006056 0.6682 0.965 
v -0.7593943 0.6682 0.965 
v -1.006465 0.6682 0.965 
v -1.006465 0.6682 0.915 
v -0.7593943 0.6682 0.915 
v -0.065 0.6507833 0.965 
v -0.9751351 0.02 0 
v -0.9751351 0.02 2 
v -1.048347 0.02 0 
v -1.048347 0.02 2 
v -0.9751351 0.01 0 
v -0.9751351 0.01 1.045914 
v -0.9751351 0.01 1.095 
v -0.9751351 0.01 2 
v -1.048347 0 0 
v -1.048347 0 2 
v -0.2848649 0.01 0 
v -0.2848649 0.02 0 
v -0.2848649 0.01 1.045914 
v -0.2848649 0.02 2 
v -0.2848649 0.01 1.095 
v -0.2848649 0.01 2 
v -0.2116526 0.02 0 
v -0.2116526 0 0 
v -0.2116526 0.02 2 
v -0.2116526 0 2 
v -1.006465 0.6512776 0.915 
v -0.7593943 0.6512776 0.915 
v -0.5006056 0.6512776 0.915 
v -0.2535352 0.6512776 0.915 
v -1.13 0 0 
v -1.13 0 2 
v -0.13 0 0 
v -0.13 0 2 

vn 0 0 1 
vn -0.7933533 0.6087614 0 
vn -0.7071068 0.7071068 0 
vn 1 0 0 
vn -0.9659258 0.258819 0 
vn -0.9238795 0.3826834 0 
vn -0.3826834 0.9238795 0 
vn -0.5 0.8660254 0 
vn 0.8660254 0.5 0 
vn 0.9238795 0.3826834 0 
vn 0 0.1107963 -0.9938431 
vn -0.8660254 0.5 0 
vn -0.258819 0.9659258 0 
vn 0.9659258 0.258819 0 
vn -0.06540313 0.9978589 0 
vn -0.1305262 0.9914449 0 
vn -0.6087614 0.7933533 0 
vn 0.7933533 0.6087614 0 
vn 0.7071068 0.7071068 0 
vn 0.3826834 0.9238795 0 
vn 0.258819 0.9659258 0 
vn 0.1305262 0.9914449 0 
vn 0.9914449 0.1305262 0 
vn 0.9978589 0.06540313 0 
vn -0.9978589 0.06540313 0 
vn -0.9914449 0.1305262 0 
vn 0.06540313 0.9978589 0 
vn -1 0 0 
vn 0 -1 0 
vn 0.6087614 0.7933533 0 
vn 0 1 0 
vn 0.5 0.8660254 0 
vn 0 0 -1 
vn 0 -0.4044039 -0.9145805 

vt -3.226272E-13 -4.262925E-15 
vt -5.11811 -4.262925E-15 
vt -3.226272E-13 21.18898 
vt -5.11811 21.18898 
vt -0.04378614 21.85702 
vt -49.56251 21.85702 
vt -49.4319 22.51364 
vt -0.1743954 22.51364 
vt -49.21671 23.14759 
vt -0.3895929 23.14759 
vt -48.9206 23.74803 
vt -0.6856968 23.74803 
vt -48.54866 24.30468 
vt -1.05764 24.30468 
vt -48.10724 24.80803 
vt -1.49906 24.80803 
vt -47.6039 25.24945 
vt -2.002402 25.24945 
vt -47.04725 25.62139 
vt -2.559055 25.62139 
vt -46.4468 25.91749 
vt -3.159494 25.91749 
vt -45.81285 26.13269 
vt -3.793446 26.13269 
vt -45.15623 26.2633 
vt -4.450063 26.2633 
vt -44.48819 26.30709 
vt -5.11811 26.30709 
vt -44.48819 -4.262925E-15 
vt -49.6063 -4.262925E-15 
vt -44.48819 21.18898 
vt -49.6063 21.18898 
vt 37.99213 -13.73713 
vt 37.99213 -13.06765 
vt 43.11024 -13.73713 
vt 43.11024 -13.06765 
vt -35.62992 1.785489E-28 
vt -43.11024 1.82614E-28 
vt -37.99213 21.18898 
vt -43.11024 21.18898 
vt 37.99213 5.42948 
vt 37.99213 6.098961 
vt 43.11024 5.42948 
vt 43.11024 6.098961 
vt 43.11024 -30.19386 
vt 43.11024 -30.86334 
vt 37.99213 -30.19386 
vt 37.99213 -30.86334 
vt -37.99213 21.60224 
vt -37.99213 20.93276 
vt -43.11024 21.60224 
vt -43.11024 20.93276 
vt 49.6063 3.947665 
vt 44.48819 3.947665 
vt 49.6063 25.26791 
vt 44.48819 25.26791 
vt 37.99213 -1.007548 
vt 37.99213 -0.3380671 
vt 43.11024 -1.007548 
vt 43.11024 -0.3380671 
vt 43.11024 -34.98149 
vt 43.11024 -35.65097 
vt 37.99213 -34.98149 
vt 37.99213 -35.65097 
vt -37.99213 22.04438 
vt -37.99213 21.3749 
vt -43.11024 22.04438 
vt -43.11024 21.3749 
vt 43.11024 -42.67237 
vt 43.11024 -43.34185 
vt 37.99213 -42.67237 
vt 37.99213 -43.34185 
vt 43.11024 -19.14239 
vt 43.11024 -19.81187 
vt 37.99213 -19.14239 
vt 37.99213 -19.81187 
vt -37.99213 18.97058 
vt -43.11024 18.97058 
vt -37.99213 19.64006 
vt -43.11024 19.64006 
vt -43.11024 11.32273 
vt -43.11024 11.99221 
vt -37.99213 11.32273 
vt -37.99213 11.99221 
vt -43.11024 8.818791 
vt -43.11024 9.488272 
vt -37.99213 8.818791 
vt -37.99213 9.488272 
vt -37.99213 21.81309 
vt -37.99213 21.14361 
vt -43.11024 21.81309 
vt -43.11024 21.14361 
vt 37.99213 17.8992 
vt 37.99213 18.56868 
vt 43.11024 17.8992 
vt 43.11024 18.56868 
vt 43.11024 -24.88387 
vt 43.11024 -25.55335 
vt 37.99213 -24.88387 
vt 37.99213 -25.55335 
vt -43.11024 6.158237 
vt -43.11024 6.827718 
vt -37.99213 6.158237 
vt -37.99213 6.827718 
vt 37.99213 -7.433064 
vt 37.99213 -6.763583 
vt 43.11024 -7.433064 
vt 43.11024 -6.763583 
vt 35.62992 2.486997E-15 
vt 37.99213 21.18898 
vt 43.11024 2.486997E-15 
vt 43.11024 21.18898 
vt -5.11811 43.11024 
vt -5.11811 37.99213 
vt -44.48819 43.11024 
vt -9.981702 37.99213 
vt -19.70888 37.99213 
vt -29.89742 37.99213 
vt -39.6246 37.99213 
vt -44.48819 37.99213 
vt -35.62992 2.161774E-14 
vt -43.11024 2.161774E-14 
vt -43.11024 17.48412 
vt -43.11024 18.1536 
vt -37.99213 17.48412 
vt -37.99213 18.1536 
vt -37.99213 22.11507 
vt -37.99213 21.44559 
vt -43.11024 22.11507 
vt -43.11024 21.44559 
vt 37.99213 11.76788 
vt 37.99213 12.43736 
vt 43.11024 11.76788 
vt 43.11024 12.43736 
vt 5.11811 3.947665 
vt 3.540312E-13 3.947665 
vt 5.11811 25.26791 
vt 3.737342E-13 25.26791 
vt 43.11024 -39.16486 
vt 43.11024 -39.83434 
vt 37.99213 -39.16486 
vt 37.99213 -39.83434 
vt 9.981702 36.02362 
vt 9.981702 37.99213 
vt 19.70888 36.02362 
vt 19.70888 37.99213 
vt 44.48819 43.11024 
vt 5.11811 37.99213 
vt 5.11811 43.11024 
vt 29.89742 37.99213 
vt 39.6246 37.99213 
vt 39.6246 36.02362 
vt 29.89742 36.02362 
vt 44.48819 37.99213 
vt -43.11024 15.69278 
vt -43.11024 16.36226 
vt -37.99213 15.69278 
vt -37.99213 16.36226 
vt -37.99213 20.7962 
vt -37.99213 20.12672 
vt -43.11024 20.7962 
vt -43.11024 20.12672 
vt -43.11024 13.6272 
vt -43.11024 14.29668 
vt -37.99213 13.6272 
vt -37.99213 14.29668 
vt 35.62992 2.410474E-14 
vt 43.11024 2.410474E-14 
vt 38.39114 8.326673E-18 
vt 38.39114 78.74016 
vt 41.27352 1.421918E-14 
vt 41.27352 78.74016 
vt 0 0.7874016 
vt 0 0.3937008 
vt -78.74016 0.7874016 
vt -41.1777 0.3937008 
vt -43.11024 0.3937008 
vt -78.74016 0.3937008 
vt 1.421085E-14 0 
vt 1.421085E-14 0.7874016 
vt 78.74016 0 
vt 78.74016 0.7874016 
vt 8.226271E-15 0.3937008 
vt 8.226271E-15 0.7874016 
vt 41.1777 0.3937008 
vt 43.11024 0.3937008 
vt 78.74016 0.3937008 
vt -1.421085E-14 0.7874016 
vt -1.421085E-14 0 
vt -78.74016 0 
vt 8.332781 1.420475E-14 
vt 8.332781 78.74016 
vt 11.21515 -6.106227E-18 
vt 11.21515 78.74016 
vt 11.21515 41.1777 
vt 11.21515 43.11024 
vt 38.39114 41.1777 
vt 38.39114 43.11024 
vt 39.6246 25.64085 
vt 29.89742 25.64085 
vt 39.6246 26.30709 
vt 29.89742 26.30709 
vt -36.02362 26.30709 
vt -36.02362 25.64085 
vt -37.99213 26.30709 
vt 36.02362 25.64085 
vt 36.02362 26.30709 
vt 37.99213 26.30709 
vt 49.6063 21.18898 
vt 44.48819 21.18898 
vt 49.56251 21.85702 
vt 39.6246 21.18898 
vt 49.4319 22.51364 
vt 49.21671 23.14759 
vt 48.9206 23.74803 
vt 48.54866 24.30468 
vt 48.10724 24.80803 
vt 47.6039 25.24945 
vt 47.04725 25.62139 
vt 46.4468 25.91749 
vt 45.81285 26.13269 
vt 45.15623 26.2633 
vt 44.48819 26.30709 
vt 19.70888 25.64085 
vt 9.981702 25.64085 
vt 19.70888 26.30709 
vt 9.981702 26.30709 
vt 29.89742 21.18898 
vt 19.70888 21.18898 
vt 5.11811 21.18898 
vt 5.91503E-13 21.18898 
vt 9.981702 21.18898 
vt 0.04378614 21.85702 
vt 0.1743954 22.51364 
vt 0.3895929 23.14759 
vt 0.6856968 23.74803 
vt 1.05764 24.30468 
vt 1.49906 24.80803 
vt 2.002402 25.24945 
vt 2.559055 25.62139 
vt 3.159494 25.91749 
vt 3.793446 26.13269 
vt 4.450063 26.2633 
vt 5.11811 26.30709 
vt 44.48819 0 
vt 44.48819 35.62992 
vt 44.48819 78.74016 
vt 41.27352 1.421085E-14 
vt 5.11811 0 
vt 5.11811 35.62992 
vt 8.332781 1.421085E-14 
vt 5.11811 78.74016 
vt 11.21515 0 
vt 38.39114 0 
vt 39.6246 4.014861 
vt 29.89742 4.014861 
vt 39.6246 8.882529 
vt 29.89742 8.882529 
vt 19.70888 4.014861 
vt 9.981702 4.014861 
vt 19.70888 8.882529 
vt 9.981702 8.882529 

usemtl grey

f 2/2/1 1/1/1 3/3/1 
f 3/3/1 4/4/1 2/2/1 
f 3/3/1 5/5/1 4/4/1 
f 5/5/1 6/6/1 4/4/1 
f 5/5/1 7/7/1 6/6/1 
f 5/5/1 8/8/1 7/7/1 
f 8/8/1 9/9/1 7/7/1 
f 8/8/1 10/10/1 9/9/1 
f 10/10/1 11/11/1 9/9/1 
f 10/10/1 12/12/1 11/11/1 
f 12/12/1 13/13/1 11/11/1 
f 12/12/1 14/14/1 13/13/1 
f 14/14/1 15/15/1 13/13/1 
f 14/14/1 16/16/1 15/15/1 
f 16/16/1 17/17/1 15/15/1 
f 16/16/1 18/18/1 17/17/1 
f 18/18/1 19/19/1 17/17/1 
f 18/18/1 20/20/1 19/19/1 
f 20/20/1 21/21/1 19/19/1 
f 20/20/1 22/22/1 21/21/1 
f 22/22/1 23/23/1 21/21/1 
f 22/22/1 24/24/1 23/23/1 
f 24/24/1 25/25/1 23/23/1 
f 24/24/1 26/26/1 25/25/1 
f 26/26/1 27/27/1 25/25/1 
f 26/26/1 28/28/1 27/27/1 
f 30/30/1 29/29/1 31/31/1 
f 31/31/1 32/32/1 30/30/1 
f 31/31/1 4/4/1 32/32/1 
f 4/4/1 6/6/1 32/32/1 
f 34/34/3 33/33/2 13/35/2 
f 13/35/2 15/36/3 34/34/3 
f 1/38/4 35/37/4 36/39/4 
f 36/39/4 3/40/4 1/38/4 
f 38/42/6 37/41/5 7/43/5 
f 7/43/5 9/44/6 38/42/6 
f 19/46/8 21/45/7 39/47/7 
f 39/47/7 40/48/8 19/46/8 
f 42/50/10 41/49/9 12/51/9 
f 12/51/9 10/52/10 42/50/10 
f 44/54/11 43/53/11 45/55/11 
f 45/55/11 46/56/11 44/54/11 
f 47/58/12 38/57/6 9/59/6 
f 9/59/6 11/60/12 47/58/12 
f 21/62/7 23/61/13 48/63/13 
f 48/63/13 39/64/7 21/62/7 
f 49/66/14 42/65/10 10/67/10 
f 10/67/10 8/68/14 49/66/14 
f 25/70/16 27/69/15 50/71/15 
f 50/71/15 51/72/16 25/70/16 
f 15/74/3 17/73/17 52/75/17 
f 52/75/17 34/76/3 15/74/3 
f 14/78/18 53/77/18 54/79/19 
f 54/79/19 16/80/19 14/78/18 
f 24/82/21 22/81/20 55/83/20 
f 55/83/20 56/84/21 24/82/21 
f 26/86/22 24/85/21 56/87/21 
f 56/87/21 57/88/22 26/86/22 
f 36/90/24 58/89/23 5/91/23 
f 5/91/23 3/92/24 36/90/24 
f 59/94/26 45/93/25 32/95/25 
f 32/95/25 6/96/26 59/94/26 
f 17/98/17 19/97/8 40/99/8 
f 40/99/8 52/100/17 17/98/17 
f 28/102/27 26/101/22 57/103/22 
f 57/103/22 60/104/27 28/102/27 
f 33/106/2 47/105/12 11/107/12 
f 11/107/12 13/108/2 33/106/2 
f 62/110/28 61/109/28 2/111/28 
f 2/111/28 4/112/28 62/110/28 
f 62/114/29 4/113/29 31/115/29 
f 31/115/29 63/116/29 62/114/29 
f 31/115/29 64/117/29 63/116/29 
f 31/115/29 65/118/29 64/117/29 
f 31/115/29 66/119/29 65/118/29 
f 31/115/29 46/120/29 66/119/29 
f 29/122/4 44/121/4 46/39/4 
f 46/39/4 31/40/4 29/122/4 
f 18/124/30 16/123/19 54/125/19 
f 54/125/19 67/126/30 18/124/30 
f 58/128/23 49/127/14 8/129/14 
f 8/129/14 5/130/23 58/128/23 
f 37/132/5 59/131/26 6/133/26 
f 6/133/26 7/134/5 37/132/5 
f 35/136/11 61/135/11 62/137/11 
f 62/137/11 36/138/11 35/136/11 
f 23/140/13 25/139/16 51/141/16 
f 51/141/16 48/142/13 23/140/13 
f 69/144/31 68/143/31 70/145/31 
f 69/144/31 70/145/31 71/146/31 
f 69/144/31 71/146/31 27/147/31 
f 60/148/31 69/144/31 27/147/31 
f 27/147/31 28/149/31 60/148/31 
f 71/146/31 72/150/31 27/147/31 
f 72/150/31 73/151/31 27/147/31 
f 72/150/31 74/152/31 73/151/31 
f 72/150/31 75/153/31 74/152/31 
f 73/151/31 50/154/31 27/147/31 
f 20/156/32 18/155/30 67/157/30 
f 67/157/30 76/158/32 20/156/32 
f 41/160/9 53/159/18 14/161/18 
f 14/161/18 12/162/9 41/160/9 
f 22/164/20 20/163/32 76/165/32 
f 76/165/32 55/166/20 22/164/20 
f 45/110/28 43/167/28 30/168/28 
f 30/168/28 32/112/28 45/110/28 
f 78/170/31 77/169/31 79/171/31 
f 79/171/31 80/172/31 78/170/31 
f 81/174/4 77/173/4 78/175/4 
f 78/175/4 82/176/4 81/174/4 
f 78/175/4 83/177/4 82/176/4 
f 78/175/4 84/178/4 83/177/4 
f 79/180/28 85/179/28 86/181/28 
f 86/181/28 80/182/28 79/180/28 
f 88/184/28 87/183/28 89/185/28 
f 89/185/28 90/182/28 88/184/28 
f 89/185/28 91/186/28 90/182/28 
f 91/186/28 92/187/28 90/182/28 
f 94/189/4 93/188/4 95/175/4 
f 95/175/4 96/190/4 94/189/4 
f 95/192/31 93/191/31 88/193/31 
f 88/193/31 90/194/31 95/192/31 
f 91/196/31 89/195/31 82/197/31 
f 82/197/31 83/198/31 91/196/31 
f 98/200/33 97/199/33 74/201/33 
f 74/201/33 75/202/33 98/200/33 
f 98/204/4 75/203/4 72/205/4 
f 72/205/4 65/39/4 98/204/4 
f 74/207/28 97/206/28 66/110/28 
f 66/110/28 73/208/28 74/207/28 
f 46/210/33 45/209/33 59/211/33 
f 59/211/33 66/212/33 46/210/33 
f 59/211/33 73/201/33 66/212/33 
f 59/211/33 37/213/33 73/201/33 
f 37/213/33 38/214/33 73/201/33 
f 38/214/33 47/215/33 73/201/33 
f 47/215/33 33/216/33 73/201/33 
f 33/216/33 34/217/33 73/201/33 
f 34/217/33 52/218/33 73/201/33 
f 52/218/33 40/219/33 73/201/33 
f 40/219/33 39/220/33 73/201/33 
f 39/220/33 48/221/33 73/201/33 
f 48/221/33 51/222/33 73/201/33 
f 51/222/33 50/223/33 73/201/33 
f 100/225/33 99/224/33 70/226/33 
f 70/226/33 68/227/33 100/225/33 
f 70/207/28 99/206/28 64/110/28 
f 64/110/28 71/208/28 70/207/28 
f 100/204/4 68/203/4 69/205/4 
f 69/205/4 63/39/4 100/204/4 
f 64/229/33 65/228/33 72/202/33 
f 72/202/33 71/226/33 64/229/33 
f 36/231/33 62/230/33 63/232/33 
f 63/232/33 58/233/33 36/231/33 
f 63/232/33 69/227/33 58/233/33 
f 69/227/33 49/234/33 58/233/33 
f 69/227/33 42/235/33 49/234/33 
f 69/227/33 41/236/33 42/235/33 
f 69/227/33 53/237/33 41/236/33 
f 69/227/33 54/238/33 53/237/33 
f 69/227/33 67/239/33 54/238/33 
f 69/227/33 76/240/33 67/239/33 
f 69/227/33 55/241/33 76/240/33 
f 69/227/33 56/242/33 55/241/33 
f 69/227/33 57/243/33 56/242/33 
f 69/227/33 60/244/33 57/243/33 

usemtl grass

f 29/147/31 101/245/31 44/246/31 
f 101/245/31 29/147/31 102/247/31 
f 101/245/31 102/247/31 86/172/31 
f 86/172/31 85/248/31 101/245/31 
f 61/250/31 103/249/31 94/251/31 
f 61/250/31 94/251/31 96/192/31 
f 61/250/31 96/192/31 104/252/31 
f 104/252/31 2/149/31 61/250/31 

usemtl road

f 89/195/31 87/253/31 81/254/31 
f 81/254/31 82/197/31 89/195/31 
f 92/194/31 91/196/31 83/198/31 
f 83/198/31 84/170/31 92/194/31 
f 65/256/34 66/255/34 97/257/34 
f 97/257/34 98/258/34 65/256/34 
f 63/260/34 64/259/34 99/261/34 
f 99/261/34 100/262/34 63/260/34 
g roadStart




usemtl grey

f 2/2/1 1/1/1 3/3/1 
f 3/3/1 4/4/1 2/2/1 
f 3/3/1 5/5/1 4/4/1 
f 5/5/1 6/6/1 4/4/1 
f 5/5/1 7/7/1 6/6/1 
f 5/5/1 8/8/1 7/7/1 
f 8/8/1 9/9/1 7/7/1 
f 8/8/1 10/10/1 9/9/1 
f 10/10/1 11/11/1 9/9/1 
f 10/10/1 12/12/1 11/11/1 
f 12/12/1 13/13/1 11/11/1 
f 12/12/1 14/14/1 13/13/1 
f 14/14/1 15/15/1 13/13/1 
f 14/14/1 16/16/1 15/15/1 
f 16/16/1 17/17/1 15/15/1 
f 16/16/1 18/18/1 17/17/1 
f 18/18/1 19/19/1 17/17/1 
f 18/18/1 20/20/1 19/19/1 
f 20/20/1 21/21/1 19/19/1 
f 20/20/1 22/22/1 21/21/1 
f 22/22/1 23/23/1 21/21/1 
f 22/22/1 24/24/1 23/23/1 
f 24/24/1 25/25/1 23/23/1 
f 24/24/1 26/26/1 25/25/1 
f 26/26/1 27/27/1 25/25/1 
f 26/26/1 28/28/1 27/27/1 
f 30/30/1 29/29/1 31/31/1 
f 31/31/1 32/32/1 30/30/1 
f 31/31/1 4/4/1 32/32/1 
f 4/4/1 6/6/1 32/32/1 
f 34/34/3 33/33/2 13/35/2 
f 13/35/2 15/36/3 34/34/3 
f 1/38/4 35/37/4 36/39/4 
f 36/39/4 3/40/4 1/38/4 
f 38/42/6 37/41/5 7/43/5 
f 7/43/5 9/44/6 38/42/6 
f 19/46/8 21/45/7 39/47/7 
f 39/47/7 40/48/8 19/46/8 
f 42/50/10 41/49/9 12/51/9 
f 12/51/9 10/52/10 42/50/10 
f 44/54/11 43/53/11 45/55/11 
f 45/55/11 46/56/11 44/54/11 
f 47/58/12 38/57/6 9/59/6 
f 9/59/6 11/60/12 47/58/12 
f 21/62/7 23/61/13 48/63/13 
f 48/63/13 39/64/7 21/62/7 
f 49/66/14 42/65/10 10/67/10 
f 10/67/10 8/68/14 49/66/14 
f 25/70/16 27/69/15 50/71/15 
f 50/71/15 51/72/16 25/70/16 
f 15/74/3 17/73/17 52/75/17 
f 52/75/17 34/76/3 15/74/3 
f 14/78/18 53/77/18 54/79/19 
f 54/79/19 16/80/19 14/78/18 
f 24/82/21 22/81/20 55/83/20 
f 55/83/20 56/84/21 24/82/21 
f 26/86/22 24/85/21 56/87/21 
f 56/87/21 57/88/22 26/86/22 
f 36/90/24 58/89/23 5/91/23 
f 5/91/23 3/92/24 36/90/24 
f 59/94/26 45/93/25 32/95/25 
f 32/95/25 6/96/26 59/94/26 
f 17/98/17 19/97/8 40/99/8 
f 40/99/8 52/100/17 17/98/17 
f 28/102/27 26/101/22 57/103/22 
f 57/103/22 60/104/27 28/102/27 
f 33/106/2 47/105/12 11/107/12 
f 11/107/12 13/108/2 33/106/2 
f 62/110/28 61/109/28 2/111/28 
f 2/111/28 4/112/28 62/110/28 
f 62/114/29 4/113/29 31/115/29 
f 31/115/29 63/116/29 62/114/29 
f 31/115/29 64/117/29 63/116/29 
f 31/115/29 65/118/29 64/117/29 
f 31/115/29 66/119/29 65/118/29 
f 31/115/29 46/120/29 66/119/29 
f 29/122/4 44/121/4 46/39/4 
f 46/39/4 31/40/4 29/122/4 
f 18/124/30 16/123/19 54/125/19 
f 54/125/19 67/126/30 18/124/30 
f 58/128/23 49/127/14 8/129/14 
f 8/129/14 5/130/23 58/128/23 
f 37/132/5 59/131/26 6/133/26 
f 6/133/26 7/134/5 37/132/5 
f 35/136/11 61/135/11 62/137/11 
f 62/137/11 36/138/11 35/136/11 
f 23/140/13 25/139/16 51/141/16 
f 51/141/16 48/142/13 23/140/13 
f 69/144/31 68/143/31 70/145/31 
f 69/144/31 70/145/31 71/146/31 
f 69/144/31 71/146/31 27/147/31 
f 60/148/31 69/144/31 27/147/31 
f 27/147/31 28/149/31 60/148/31 
f 71/146/31 72/150/31 27/147/31 
f 72/150/31 73/151/31 27/147/31 
f 72/150/31 74/152/31 73/151/31 
f 72/150/31 75/153/31 74/152/31 
f 73/151/31 50/154/31 27/147/31 
f 20/156/32 18/155/30 67/157/30 
f 67/157/30 76/158/32 20/156/32 
f 41/160/9 53/159/18 14/161/18 
f 14/161/18 12/162/9 41/160/9 
f 22/164/20 20/163/32 76/165/32 
f 76/165/32 55/166/20 22/164/20 
f 45/110/28 43/167/28 30/168/28 
f 30/168/28 32/112/28 45/110/28 
f 78/170/31 77/169/31 79/171/31 
f 79/171/31 80/172/31 78/170/31 
f 81/174/4 77/173/4 78/175/4 
f 78/175/4 82/176/4 81/174/4 
f 78/175/4 83/177/4 82/176/4 
f 78/175/4 84/178/4 83/177/4 
f 79/180/28 85/179/28 86/181/28 
f 86/181/28 80/182/28 79/180/28 
f 88/184/28 87/183/28 89/185/28 
f 89/185/28 90/182/28 88/184/28 
f 89/185/28 91/186/28 90/182/28 
f 91/186/28 92/187/28 90/182/28 
f 94/189/4 93/188/4 95/175/4 
f 95/175/4 96/190/4 94/189/4 
f 95/192/31 93/191/31 88/193/31 
f 88/193/31 90/194/31 95/192/31 
f 91/196/31 89/195/31 82/197/31 
f 82/197/31 83/198/31 91/196/31 
f 98/200/33 97/199/33 74/201/33 
f 74/201/33 75/202/33 98/200/33 
f 98/204/4 75/203/4 72/205/4 
f 72/205/4 65/39/4 98/204/4 
f 74/207/28 97/206/28 66/110/28 
f 66/110/28 73/208/28 74/207/28 
f 46/210/33 45/209/33 59/211/33 
f 59/211/33 66/212/33 46/210/33 
f 59/211/33 73/201/33 66/212/33 
f 59/211/33 37/213/33 73/201/33 
f 37/213/33 38/214/33 73/201/33 
f 38/214/33 47/215/33 73/201/33 
f 47/215/33 33/216/33 73/201/33 
f 33/216/33 34/217/33 73/201/33 
f 34/217/33 52/218/33 73/201/33 
f 52/218/33 40/219/33 73/201/33 
f 40/219/33 39/220/33 73/201/33 
f 39/220/33 48/221/33 73/201/33 
f 48/221/33 51/222/33 73/201/33 
f 51/222/33 50/223/33 73/201/33 
f 100/225/33 99/224/33 70/226/33 
f 70/226/33 68/227/33 100/225/33 
f 70/207/28 99/206/28 64/110/28 
f 64/110/28 71/208/28 70/207/28 
f 100/204/4 68/203/4 69/205/4 
f 69/205/4 63/39/4 100/204/4 
f 64/229/33 65/228/33 72/202/33 
f 72/202/33 71/226/33 64/229/33 
f 36/231/33 62/230/33 63/232/33 
f 63/232/33 58/233/33 36/231/33 
f 63/232/33 69/227/33 58/233/33 
f 69/227/33 49/234/33 58/233/33 
f 69/227/33 42/235/33 49/234/33 
f 69/227/33 41/236/33 42/235/33 
f 69/227/33 53/237/33 41/236/33 
f 69/227/33 54/238/33 53/237/33 
f 69/227/33 67/239/33 54/238/33 
f 69/227/33 76/240/33 67/239/33 
f 69/227/33 55/241/33 76/240/33 
f 69/227/33 56/242/33 55/241/33 
f 69/227/33 57/243/33 56/242/33 
f 69/227/33 60/244/33 57/243/33 

usemtl grass

f 29/147/31 101/245/31 44/246/31 
f 101/245/31 29/147/31 102/247/31 
f 101/245/31 102/247/31 86/172/31 
f 86/172/31 85/248/31 101/245/31 
f 61/250/31 103/249/31 94/251/31 
f 61/250/31 94/251/31 96/192/31 
f 61/250/31 96/192/31 104/252/31 
f 104/252/31 2/149/31 61/250/31 

usemtl road

f 89/195/31 87/253/31 81/254/31 
f 81/254/31 82/197/31 89/195/31 
f 92/194/31 91/196/31 83/198/31 
f 83/198/31 84/170/31 92/194/31 
f 65/256/34 66/255/34 97/257/34 
f 97/257/34 98/258/34 65/256/34 
f 63/260/34 64/259/34 99/261/34 
f 99/261/34 100/262/34 63/260/34 
