# Created by Kenney (www.kenney.nl) 

mtllib roadCornerLargeSand.mtl 

g roadCornerLargeSand

v 0.53 0 0 
v 0.5083555 0 0.3302313 
v 0 0 0 
v 0.4437924 0 0.6548122 
v 0.3374152 0 0.9681891 
v 0.1910442 0 1.265 
v 0.007183939 0 1.540166 
v -0.01711029 0 0.2610524 
v -0.2110198 0 1.78898 
v -0.06814834 0 0.5176381 
v -0.1522409 0 0.7653669 
v -0.2679492 0 1 
v -0.4598336 0 2.007184 
v -0.4132933 0 1.217523 
v -0.5857864 0 1.414214 
v -0.735 0 2.191044 
v -0.7824771 0 1.586707 
v -1.031811 0 2.337415 
v -1 0 1.732051 
v -1.234633 0 1.847759 
v -1.345188 0 2.443792 
v -1.482362 0 1.931852 
v -1.669769 0 2.508355 
v -1.738948 0 1.98289 
v -2 0 2.53 
v -2 0 2 

vn 0 1 0 

vt -20.86614 0 
vt -20.014 13.00123 
vt 0 0 
vt -17.47214 25.78001 
vt -13.28406 38.11768 
vt -7.521428 49.80315 
vt -0.2828327 60.63647 
vt 0.673633 10.27765 
vt 8.307868 70.43229 
vt 2.683006 20.37945 
vt 5.993738 30.13255 
vt 10.54918 39.37008 
vt 18.10369 79.02299 
vt 16.27139 47.93397 
vt 23.06246 55.6777 
vt 28.93701 86.26159 
vt 30.80619 62.46877 
vt 40.62248 92.02422 
vt 39.37008 68.19098 
vt 48.6076 72.74642 
vt 52.96015 96.2123 
vt 58.36071 76.05715 
vt 65.73893 98.75415 
vt 68.4625 78.06653 
vt 78.74016 99.6063 
vt 78.74016 78.74016 

usemtl sand

f 2/2/1 1/1/1 3/3/1 
f 3/3/1 4/4/1 2/2/1 
f 3/3/1 5/5/1 4/4/1 
f 3/3/1 6/6/1 5/5/1 
f 3/3/1 7/7/1 6/6/1 
f 3/3/1 8/8/1 7/7/1 
f 8/8/1 9/9/1 7/7/1 
f 8/8/1 10/10/1 9/9/1 
f 10/10/1 11/11/1 9/9/1 
f 11/11/1 12/12/1 9/9/1 
f 12/12/1 13/13/1 9/9/1 
f 12/12/1 14/14/1 13/13/1 
f 14/14/1 15/15/1 13/13/1 
f 15/15/1 16/16/1 13/13/1 
f 15/15/1 17/17/1 16/16/1 
f 17/17/1 18/18/1 16/16/1 
f 17/17/1 19/19/1 18/18/1 
f 19/19/1 20/20/1 18/18/1 
f 20/20/1 21/21/1 18/18/1 
f 20/20/1 22/22/1 21/21/1 
f 22/22/1 23/23/1 21/21/1 
f 22/22/1 24/24/1 23/23/1 
f 24/24/1 25/25/1 23/23/1 
f 24/24/1 26/26/1 25/25/1 
g roadCornerLargeSand




usemtl sand

f 2/2/1 1/1/1 3/3/1 
f 3/3/1 4/4/1 2/2/1 
f 3/3/1 5/5/1 4/4/1 
f 3/3/1 6/6/1 5/5/1 
f 3/3/1 7/7/1 6/6/1 
f 3/3/1 8/8/1 7/7/1 
f 8/8/1 9/9/1 7/7/1 
f 8/8/1 10/10/1 9/9/1 
f 10/10/1 11/11/1 9/9/1 
f 11/11/1 12/12/1 9/9/1 
f 12/12/1 13/13/1 9/9/1 
f 12/12/1 14/14/1 13/13/1 
f 14/14/1 15/15/1 13/13/1 
f 15/15/1 16/16/1 13/13/1 
f 15/15/1 17/17/1 16/16/1 
f 17/17/1 18/18/1 16/16/1 
f 17/17/1 19/19/1 18/18/1 
f 19/19/1 20/20/1 18/18/1 
f 20/20/1 21/21/1 18/18/1 
f 20/20/1 22/22/1 21/21/1 
f 22/22/1 23/23/1 21/21/1 
f 22/22/1 24/24/1 23/23/1 
f 24/24/1 25/25/1 23/23/1 
f 24/24/1 26/26/1 25/25/1 
