# Created by Kenney (www.kenney.nl) 

mtllib roadCornerLargerBorderInner.mtl 

g roadCornerLargerBorderInner

v -2.482362 0 1.931852 
v -2.738948 0 1.98289 
v -2.482362 0.02 1.931852 
v -2.738948 0.02 1.98289 
v -2.766358 0 1.774686 
v -2.536714 0 1.729007 
v -2.766358 0.02 1.774686 
v -2.536714 0.02 1.729007 
v -2.314997 0 1.653744 
v -2.105 0 1.550185 
v -2.314997 0.02 1.653744 
v -2.105 0.02 1.550185 
v -2 0 1.732051 
v -2.234633 0 1.847759 
v -2 0.02 1.732051 
v -2.234633 0.02 1.847759 
v -1.585786 0.02 1.414214 
v -1.782477 0.02 1.586707 
v -1.734279 0.02 1.265721 
v -1.910317 0.02 1.420102 
v -1.585786 0 1.414214 
v -1.782477 0 1.586707 
v -1.910317 0 1.420102 
v -1.734279 0 1.265721 
v -1.068148 0.02 0.5176381 
v -1.152241 0.02 0.7653669 
v -1.270993 0.02 0.463286 
v -1.346256 0.02 0.6850034 
v -1.270993 0 0.463286 
v -1.346256 0 0.6850034 
v -1.068148 0 0.5176381 
v -1.152241 0 0.7653669 
v -1.267949 0.02 1 
v -1.413293 0.02 1.217523 
v -1.449814 0.02 0.895 
v -1.579898 0.02 1.089683 
v -1.267949 0 1 
v -1.413293 0 1.217523 
v -1.449814 0 0.895 
v -1.579898 0 1.089683 
v -1 0.02 0 
v -1 0 0 
v -1.01711 0.02 0.2610524 
v -1.01711 0 0.2610524 
v -1.21 0 0 
v -1.21 0.02 0 
v -1.225314 0.02 0.2336419 
v -1.225314 0 0.2336419 
v -3 0.02 2 
v -3 0.02 1.79 
v -3 0 1.79 
v -3 0 2 

vn 0.1950903 0 0.9807853 
vn -0.1950903 0 -0.9807853 
vn 0 1 0 
vn -0.4422887 0 -0.8968728 
vn 0.4422887 0 0.8968728 
vn 0.6593459 0 0.7518399 
vn -0.6593459 0 -0.7518399 
vn -0.9469302 0 -0.3214395 
vn 0.9469302 0 0.3214395 
vn 0.8314696 0 0.5555702 
vn -0.8314696 0 -0.5555702 
vn 0.9978589 0 0.06540313 
vn 0 0 -1 
vn -0.9978589 0 -0.06540313 
vn -1 0 0 
vn -0.06540313 0 -0.9978589 
vn 0.06540313 0 0.9978589 
vn -0.3214395 0 -0.9469302 
vn 0.3214395 0 0.9469302 
vn -0.5555702 0 -0.8314696 
vn 0.5555702 0 0.8314696 
vn 0.7518399 0 0.6593459 
vn -0.7518399 0 -0.6593459 
vn 0.8968728 0 0.4422887 
vn -0.8968728 0 -0.4422887 
vn -0.9807853 0 -0.1950903 
vn 0.9807853 0 0.1950903 

vt -110.6909 0 
vt -120.9906 0 
vt -110.6909 0.7874016 
vt -120.9906 0.7874016 
vt 120.4499 0 
vt 111.2317 0 
vt 120.4499 0.7874016 
vt 111.2317 0.7874016 
vt 97.73078 76.05715 
vt 107.8326 78.06653 
vt 99.87063 68.07115 
vt 108.9117 69.86954 
vt 110.539 0 
vt 101.3207 0 
vt 110.539 0.7874016 
vt 101.3207 0.7874016 
vt -100.78 0 
vt -111.0797 0 
vt -100.78 0.7874016 
vt -111.0797 0.7874016 
vt 78.74016 68.19098 
vt 87.97768 72.74642 
vt 82.87402 61.03093 
vt 91.1416 65.10805 
vt 62.43254 55.6777 
vt 70.17626 62.46877 
vt 68.27869 49.83154 
vt 75.20934 55.90955 
vt -83.65012 0 
vt -93.94983 0 
vt -83.65012 0.7874016 
vt -93.94983 0.7874016 
vt 93.4091 0 
vt 84.19086 0 
vt 93.4091 0.7874016 
vt 84.19086 0.7874016 
vt 42.05309 20.37945 
vt 45.36382 30.13255 
vt 50.03909 18.23961 
vt 53.00219 26.96864 
vt 33.35617 0 
vt 33.35617 0.7874016 
vt 42.57441 0 
vt 42.57441 0.7874016 
vt -32.81544 0.7874016 
vt -32.81544 0 
vt -43.11514 0.7874016 
vt -43.11514 0 
vt 49.91926 39.37008 
vt 55.64147 47.93397 
vt 57.07931 35.23622 
vt 62.20069 42.90091 
vt -60.46868 0.7874016 
vt -60.46868 0 
vt -70.76839 0.7874016 
vt -70.76839 0 
vt 61.00941 0 
vt 61.00941 0.7874016 
vt 70.22765 0 
vt 70.22765 0.7874016 
vt -2.574926 0.7874016 
vt -2.574926 0 
vt -12.87463 0.7874016 
vt -12.87463 0 
vt 47.63779 0 
vt 39.37008 0 
vt 47.63779 0.7874016 
vt 39.37008 0.7874016 
vt 40.04371 10.27765 
vt 48.2407 9.1985 
vt 3.115661 0 
vt 3.115661 0.7874016 
vt 12.3339 0 
vt 12.3339 0.7874016 
vt 118.1102 78.74016 
vt 118.1102 70.47244 
vt 70.47244 0 
vt 70.47244 0.7874016 
vt 78.74016 0 
vt 78.74016 0.7874016 
vt 122.4665 0 
vt 113.2482 0 
vt 122.4665 0.7874016 
vt 113.2482 0.7874016 
vt -112.7075 0 
vt -123.0072 0 
vt -112.7075 0.7874016 
vt -123.0072 0.7874016 
vt 116.4513 0 
vt 107.233 0 
vt 116.4513 0.7874016 
vt 107.233 0.7874016 
vt -106.6923 0 
vt -116.992 0 
vt -106.6923 0.7874016 
vt -116.992 0.7874016 
vt 102.8142 0 
vt 93.59595 0 
vt 102.8142 0.7874016 
vt 93.59595 0.7874016 
vt -93.05522 0 
vt -103.3549 0 
vt -93.05522 0.7874016 
vt -103.3549 0.7874016 
vt -72.72564 0.7874016 
vt -72.72564 0 
vt -83.02534 0.7874016 
vt -83.02534 0 
vt 73.26637 0 
vt 73.26637 0.7874016 
vt 82.48461 0 
vt 82.48461 0.7874016 
vt -47.08897 0.7874016 
vt -47.08897 0 
vt -57.38868 0.7874016 
vt -57.38868 0 
vt 47.6297 0 
vt 47.6297 0.7874016 
vt 56.84794 0 
vt 56.84794 0.7874016 
vt 18.43305 0 
vt 18.43305 0.7874016 
vt 27.65128 0 
vt 27.65128 0.7874016 
vt -17.89231 0.7874016 
vt -17.89231 0 
vt -28.19202 0.7874016 
vt -28.19202 0 

usemtl red

f 2/2/1 1/1/1 3/3/1 
f 3/3/1 4/4/1 2/2/1 
f 6/6/2 5/5/2 7/7/2 
f 7/7/2 8/8/2 6/6/2 
f 4/10/3 3/9/3 8/11/3 
f 8/11/3 7/12/3 4/10/3 
f 10/14/4 9/13/4 11/15/4 
f 11/15/4 12/16/4 10/14/4 
f 14/18/5 13/17/5 15/19/5 
f 15/19/5 16/20/5 14/18/5 
f 16/22/3 15/21/3 12/23/3 
f 12/23/3 11/24/3 16/22/3 
f 18/26/3 17/25/3 19/27/3 
f 19/27/3 20/28/3 18/26/3 
f 22/30/6 21/29/6 17/31/6 
f 17/31/6 18/32/6 22/30/6 
f 24/34/7 23/33/7 20/35/7 
f 20/35/7 19/36/7 24/34/7 
f 26/38/3 25/37/3 27/39/3 
f 27/39/3 28/40/3 26/38/3 
f 27/42/8 29/41/8 30/43/8 
f 30/43/8 28/44/8 27/42/8 
f 31/46/9 25/45/9 26/47/9 
f 26/47/9 32/48/9 31/46/9 
f 34/50/3 33/49/3 35/51/3 
f 35/51/3 36/52/3 34/50/3 
f 37/54/10 33/53/10 34/55/10 
f 34/55/10 38/56/10 37/54/10 
f 35/58/11 39/57/11 40/59/11 
f 40/59/11 36/60/11 35/58/11 
f 42/62/12 41/61/12 43/63/12 
f 43/63/12 44/64/12 42/62/12 
f 42/66/13 45/65/13 46/67/13 
f 46/67/13 41/68/13 42/66/13 
f 43/69/3 41/66/3 46/65/3 
f 46/65/3 47/70/3 43/69/3 
f 46/72/14 45/71/14 48/73/14 
f 48/73/14 47/74/14 46/72/14 

usemtl white

f 49/75/3 4/10/3 7/12/3 
f 7/12/3 50/76/3 49/75/3 
f 50/78/15 51/77/15 52/79/15 
f 52/79/15 49/80/15 50/78/15 
f 5/82/16 51/81/16 50/83/16 
f 50/83/16 7/84/16 5/82/16 
f 52/86/17 2/85/17 4/87/17 
f 4/87/17 49/88/17 52/86/17 
f 9/90/18 6/89/18 8/91/18 
f 8/91/18 11/92/18 9/90/18 
f 3/9/3 16/22/3 11/24/3 
f 11/24/3 8/11/3 3/9/3 
f 1/94/19 14/93/19 16/95/19 
f 16/95/19 3/96/19 1/94/19 
f 23/98/20 10/97/20 12/99/20 
f 12/99/20 20/100/20 23/98/20 
f 15/21/3 18/26/3 20/28/3 
f 20/28/3 12/23/3 15/21/3 
f 13/102/21 22/101/21 18/103/21 
f 18/103/21 15/104/21 13/102/21 
f 17/25/3 34/50/3 36/52/3 
f 36/52/3 19/27/3 17/25/3 
f 38/106/22 34/105/22 17/107/22 
f 17/107/22 21/108/22 38/106/22 
f 36/110/23 40/109/23 24/111/23 
f 24/111/23 19/112/23 36/110/23 
f 32/114/24 26/113/24 33/115/24 
f 33/115/24 37/116/24 32/114/24 
f 28/118/25 30/117/25 39/119/25 
f 39/119/25 35/120/25 28/118/25 
f 33/49/3 26/38/3 28/40/3 
f 28/40/3 35/51/3 33/49/3 
f 47/122/26 48/121/26 29/123/26 
f 29/123/26 27/124/26 47/122/26 
f 44/126/27 43/125/27 25/127/27 
f 25/127/27 31/128/27 44/126/27 
f 25/37/3 43/69/3 47/70/3 
f 47/70/3 27/39/3 25/37/3 
g roadCornerLargerBorderInner




usemtl red

f 2/2/1 1/1/1 3/3/1 
f 3/3/1 4/4/1 2/2/1 
f 6/6/2 5/5/2 7/7/2 
f 7/7/2 8/8/2 6/6/2 
f 4/10/3 3/9/3 8/11/3 
f 8/11/3 7/12/3 4/10/3 
f 10/14/4 9/13/4 11/15/4 
f 11/15/4 12/16/4 10/14/4 
f 14/18/5 13/17/5 15/19/5 
f 15/19/5 16/20/5 14/18/5 
f 16/22/3 15/21/3 12/23/3 
f 12/23/3 11/24/3 16/22/3 
f 18/26/3 17/25/3 19/27/3 
f 19/27/3 20/28/3 18/26/3 
f 22/30/6 21/29/6 17/31/6 
f 17/31/6 18/32/6 22/30/6 
f 24/34/7 23/33/7 20/35/7 
f 20/35/7 19/36/7 24/34/7 
f 26/38/3 25/37/3 27/39/3 
f 27/39/3 28/40/3 26/38/3 
f 27/42/8 29/41/8 30/43/8 
f 30/43/8 28/44/8 27/42/8 
f 31/46/9 25/45/9 26/47/9 
f 26/47/9 32/48/9 31/46/9 
f 34/50/3 33/49/3 35/51/3 
f 35/51/3 36/52/3 34/50/3 
f 37/54/10 33/53/10 34/55/10 
f 34/55/10 38/56/10 37/54/10 
f 35/58/11 39/57/11 40/59/11 
f 40/59/11 36/60/11 35/58/11 
f 42/62/12 41/61/12 43/63/12 
f 43/63/12 44/64/12 42/62/12 
f 42/66/13 45/65/13 46/67/13 
f 46/67/13 41/68/13 42/66/13 
f 43/69/3 41/66/3 46/65/3 
f 46/65/3 47/70/3 43/69/3 
f 46/72/14 45/71/14 48/73/14 
f 48/73/14 47/74/14 46/72/14 

usemtl white

f 49/75/3 4/10/3 7/12/3 
f 7/12/3 50/76/3 49/75/3 
f 50/78/15 51/77/15 52/79/15 
f 52/79/15 49/80/15 50/78/15 
f 5/82/16 51/81/16 50/83/16 
f 50/83/16 7/84/16 5/82/16 
f 52/86/17 2/85/17 4/87/17 
f 4/87/17 49/88/17 52/86/17 
f 9/90/18 6/89/18 8/91/18 
f 8/91/18 11/92/18 9/90/18 
f 3/9/3 16/22/3 11/24/3 
f 11/24/3 8/11/3 3/9/3 
f 1/94/19 14/93/19 16/95/19 
f 16/95/19 3/96/19 1/94/19 
f 23/98/20 10/97/20 12/99/20 
f 12/99/20 20/100/20 23/98/20 
f 15/21/3 18/26/3 20/28/3 
f 20/28/3 12/23/3 15/21/3 
f 13/102/21 22/101/21 18/103/21 
f 18/103/21 15/104/21 13/102/21 
f 17/25/3 34/50/3 36/52/3 
f 36/52/3 19/27/3 17/25/3 
f 38/106/22 34/105/22 17/107/22 
f 17/107/22 21/108/22 38/106/22 
f 36/110/23 40/109/23 24/111/23 
f 24/111/23 19/112/23 36/110/23 
f 32/114/24 26/113/24 33/115/24 
f 33/115/24 37/116/24 32/114/24 
f 28/118/25 30/117/25 39/119/25 
f 39/119/25 35/120/25 28/118/25 
f 33/49/3 26/38/3 28/40/3 
f 28/40/3 35/51/3 33/49/3 
f 47/122/26 48/121/26 29/123/26 
f 29/123/26 27/124/26 47/122/26 
f 44/126/27 43/125/27 25/127/27 
f 25/127/27 31/128/27 44/126/27 
f 25/37/3 43/69/3 47/70/3 
f 47/70/3 27/39/3 25/37/3 
