# Created by Kenney (www.kenney.nl) 

mtllib roadPitGarage.mtl 

g roadPitGarage

v -0.08165261 0.02 0 
v -0.08165264 0.02 1 
v -0.1548649 0.02 0 
v -0.1548649 0.02 1 
v -0.1548649 0.01 0 
v -0.1548649 0.01 1 
v -0.08165261 0 0 
v -0.08165264 0 1 
v -0.8451352 0.02 0.9151636 
v -0.8451352 0.01 0.9151636 
v -0.8451352 0.02 1 
v -0.8451352 0.01 1 
v -1 0.02 0.9151636 
v -0.9183475 0.02 1 
v -1 0.02 1 
v -0.8451352 0.02 0 
v -0.8451352 0.01 0 
v -0.8451352 0.02 0.08483636 
v -0.8451352 0.01 0.08483636 
v -1 0.01 0.08483636 
v -1 0.02 0.08483636 
v -1 0 0 
v -0.9183474 0 0 
v -1 0.02 0 
v -0.9183474 0.02 0 
v -0.8451352 0.02 0.4575818 
v -0.8451352 0.02 0.5424181 
v -1 0.02 0.4575818 
v -1 0.02 0.5424181 
v -1 0.01 0.9151636 
v -0.9183475 0 1 
v -1 0 1 
v -0.8451352 0.01 0.4575818 
v -0.8451352 0.01 0.5424181 
v -1 0.01 0.5424181 
v -1 0.01 0.4575818 
v 0 0 0 
v 0 0 1 
v -1 0 0.08483636 
v -1 0 0.4575818 
v -1 0 0.5424181 
v -1 0 0.9151636 

vn 0 1 0 
vn -1 0 0 
vn 1 0 0 
vn 0 0 1 
vn 0 0 -1 

vt 3.21467 5.38751E-07 
vt 3.214671 39.37008 
vt 6.097044 4.958008E-07 
vt 6.097044 39.37008 
vt 5.866527E-07 0.3937008 
vt 5.866527E-07 0.7874016 
vt 39.37008 0.3937008 
vt 39.37008 0.7874016 
vt -5.866527E-07 0.7874016 
vt -5.866527E-07 0 
vt -39.37008 0.7874016 
vt -39.37008 0 
vt -36.03006 0.7874016 
vt -36.03006 0.3937008 
vt -39.37008 0.3937008 
vt 33.27304 36.03006 
vt 33.27304 39.37008 
vt 39.37008 36.03006 
vt 36.15541 39.37008 
vt 39.37008 39.37008 
vt -5.866527E-07 0.3937008 
vt -3.340016 0.7874016 
vt -3.340016 0.3937008 
vt -33.27304 0.3937008 
vt -33.27304 0.7874016 
vt 39.37008 -4.173039E-34 
vt 36.15541 -4.173039E-34 
vt 36.15541 0.7874016 
vt 33.27304 18.01503 
vt 33.27304 21.35505 
vt 39.37008 18.01503 
vt 39.37008 21.35505 
vt 33.27304 9.085193E-08 
vt 33.27304 3.340016 
vt 36.15541 4.790172E-08 
vt 39.37008 3.340016 
vt 39.37008 8.780135E-16 
vt 33.27304 0.3937008 
vt 33.27304 0.7874016 
vt -36.15541 1.052407E-22 
vt -39.37008 1.052407E-22 
vt -36.15541 0.7874016 
vt -18.01503 0.7874016 
vt -18.01503 0.3937008 
vt -21.35505 0.7874016 
vt -21.35505 0.3937008 
vt 0 5.866527E-07 
vt 5.866527E-07 39.37008 
vt -2.577576E-06 -3.244781E-14 
vt -2.577576E-06 0.7874016 
vt 3.340013 -2.706323E-14 
vt 3.340013 0.7874016 
vt 3.340013 0.3937008 
vt 3.340016 0.3937008 
vt 18.01503 -3.678897E-14 
vt 18.01503 0.3937008 
vt 21.35505 -1.300559E-14 
vt 18.01503 0.7874016 
vt 21.35505 0.7874016 
vt 21.35505 0.3937008 
vt 21.35505 0.3937008 
vt 36.03007 4.813451E-15 
vt 36.03007 0.3937008 
vt 39.37009 9.276703E-16 
vt 36.03007 0.7874016 
vt 39.37009 0.7874016 

usemtl grey

f 2/2/1 1/1/1 3/3/1 
f 3/3/1 4/4/1 2/2/1 
f 3/6/2 5/5/2 6/7/2 
f 6/7/2 4/8/2 3/6/2 
f 7/10/3 1/9/3 2/11/3 
f 2/11/3 8/12/3 7/10/3 
f 10/14/3 9/13/3 11/11/3 
f 11/11/3 12/15/3 10/14/3 
f 11/17/1 9/16/1 13/18/1 
f 13/18/1 14/19/1 11/17/1 
f 13/18/1 15/20/1 14/19/1 
f 17/21/3 16/9/3 18/22/3 
f 18/22/3 19/23/3 17/21/3 
f 20/15/4 19/24/4 18/25/4 
f 18/25/4 21/11/4 20/15/4 
f 23/27/5 22/26/5 24/8/5 
f 24/8/5 25/28/5 23/27/5 
f 27/30/1 26/29/1 28/31/1 
f 28/31/1 29/32/1 27/30/1 
f 18/34/1 16/33/1 25/35/1 
f 25/35/1 21/36/1 18/34/1 
f 25/35/1 24/37/1 21/36/1 
f 10/38/5 30/7/5 13/8/5 
f 13/8/5 9/39/5 10/38/5 
f 32/41/4 31/40/4 14/42/4 
f 14/42/4 15/11/4 32/41/4 
f 33/44/3 26/43/3 27/45/3 
f 27/45/3 34/46/3 33/44/3 
f 35/15/4 34/24/4 27/25/4 
f 27/25/4 29/11/4 35/15/4 
f 26/39/5 33/38/5 36/7/5 
f 36/7/5 28/8/5 26/39/5 

usemtl road

f 33/29/1 19/34/1 20/36/1 
f 20/36/1 36/31/1 33/29/1 
f 19/34/1 33/29/1 12/17/1 
f 19/34/1 12/17/1 6/4/1 
f 17/33/1 19/34/1 6/4/1 
f 6/4/1 5/3/1 17/33/1 
f 33/29/1 34/30/1 12/17/1 
f 34/30/1 10/16/1 12/17/1 
f 10/16/1 34/30/1 35/32/1 
f 35/32/1 30/18/1 10/16/1 

usemtl grass

f 38/48/1 37/47/1 7/1/1 
f 7/1/1 8/2/1 38/48/1 
f 24/50/2 22/49/2 39/51/2 
f 39/51/2 21/52/2 24/50/2 
f 39/51/2 20/53/2 21/52/2 
f 20/54/2 39/51/2 40/55/2 
f 40/55/2 36/56/2 20/54/2 
f 36/56/2 40/55/2 41/57/2 
f 41/57/2 28/58/2 36/56/2 
f 41/57/2 29/59/2 28/58/2 
f 41/57/2 35/60/2 29/59/2 
f 35/61/2 41/57/2 42/62/2 
f 42/62/2 30/63/2 35/61/2 
f 30/63/2 42/62/2 32/64/2 
f 32/64/2 13/65/2 30/63/2 
f 32/64/2 15/66/2 13/65/2 
g roadPitGarage




usemtl grey

f 2/2/1 1/1/1 3/3/1 
f 3/3/1 4/4/1 2/2/1 
f 3/6/2 5/5/2 6/7/2 
f 6/7/2 4/8/2 3/6/2 
f 7/10/3 1/9/3 2/11/3 
f 2/11/3 8/12/3 7/10/3 
f 10/14/3 9/13/3 11/11/3 
f 11/11/3 12/15/3 10/14/3 
f 11/17/1 9/16/1 13/18/1 
f 13/18/1 14/19/1 11/17/1 
f 13/18/1 15/20/1 14/19/1 
f 17/21/3 16/9/3 18/22/3 
f 18/22/3 19/23/3 17/21/3 
f 20/15/4 19/24/4 18/25/4 
f 18/25/4 21/11/4 20/15/4 
f 23/27/5 22/26/5 24/8/5 
f 24/8/5 25/28/5 23/27/5 
f 27/30/1 26/29/1 28/31/1 
f 28/31/1 29/32/1 27/30/1 
f 18/34/1 16/33/1 25/35/1 
f 25/35/1 21/36/1 18/34/1 
f 25/35/1 24/37/1 21/36/1 
f 10/38/5 30/7/5 13/8/5 
f 13/8/5 9/39/5 10/38/5 
f 32/41/4 31/40/4 14/42/4 
f 14/42/4 15/11/4 32/41/4 
f 33/44/3 26/43/3 27/45/3 
f 27/45/3 34/46/3 33/44/3 
f 35/15/4 34/24/4 27/25/4 
f 27/25/4 29/11/4 35/15/4 
f 26/39/5 33/38/5 36/7/5 
f 36/7/5 28/8/5 26/39/5 

usemtl road

f 33/29/1 19/34/1 20/36/1 
f 20/36/1 36/31/1 33/29/1 
f 19/34/1 33/29/1 12/17/1 
f 19/34/1 12/17/1 6/4/1 
f 17/33/1 19/34/1 6/4/1 
f 6/4/1 5/3/1 17/33/1 
f 33/29/1 34/30/1 12/17/1 
f 34/30/1 10/16/1 12/17/1 
f 10/16/1 34/30/1 35/32/1 
f 35/32/1 30/18/1 10/16/1 

usemtl grass

f 38/48/1 37/47/1 7/1/1 
f 7/1/1 8/2/1 38/48/1 
f 24/50/2 22/49/2 39/51/2 
f 39/51/2 21/52/2 24/50/2 
f 39/51/2 20/53/2 21/52/2 
f 20/54/2 39/51/2 40/55/2 
f 40/55/2 36/56/2 20/54/2 
f 36/56/2 40/55/2 41/57/2 
f 41/57/2 28/58/2 36/56/2 
f 41/57/2 29/59/2 28/58/2 
f 41/57/2 35/60/2 29/59/2 
f 35/61/2 41/57/2 42/62/2 
f 42/62/2 30/63/2 35/61/2 
f 30/63/2 42/62/2 32/64/2 
f 32/64/2 13/65/2 30/63/2 
f 32/64/2 15/66/2 13/65/2 
