# Created by Kenney (www.kenney.nl) 

mtllib roadCornerLargerWallInner.mtl 

g roadCornerLargerWallInner

v -1.770244 0 0.7099999 
v -1.770244 0.04 0.7099999 
v -1.873438 0 0.8644413 
v -1.873438 0.04 0.8644413 
v -2.265 0 1.273057 
v -2.437455 0 1.358103 
v -2.265 0.04 1.273057 
v -2.437455 0.04 1.358103 
v -1.592148 0 0.1853472 
v -1.592148 0.04 0.1853472 
v -1.628385 0 0.3675231 
v -1.628385 0.04 0.3675231 
v -1.53 0.04 0 
v -1.542576 0.04 0.1918735 
v -1.58 0.04 0 
v -1.580089 0.04 0.380464 
v -1.726943 0.04 0.735 
v -1.833771 0.04 0.8948792 
v -1.960553 0.04 1.039447 
v -1.995908 0.04 1.004092 
v -1.58 0 0 
v -2.619536 0 1.419911 
v -2.619536 0.04 1.419911 
v -2.29 0.04 1.229756 
v -2.456589 0.04 1.311909 
v -2.632477 0.04 1.371615 
v -1.726943 0 0.735 
v -1.833771 0 0.8948792 
v -1.53 0 0 
v -1.995908 0 1.004092 
v -2.632477 0 1.371615 
v -2.456589 0 1.311909 
v -1.542576 0 0.1918735 
v -1.580089 0 0.380464 
v -2.29 0 1.229756 
v -1.960553 0 1.039447 
v -2.808126 0.04 1.457424 
v -2.814653 0.04 1.407852 
v -3 0.04 1.47 
v -3 0.04 1.42 
v -3 0 1.42 
v -3 0 1.47 
v -2.135559 0 1.126562 
v -2.135559 0.04 1.126562 
v -2.808126 0 1.457424 
v -1.688091 0 0.5434104 
v -1.688091 0.04 0.5434104 
v -2.105121 0 1.166229 
v -2.105121 0.04 1.166229 
v -1.641897 0.04 0.5625447 
v -1.641897 0 0.5625447 
v -2.814653 0 1.407852 

vn -0.8314696 0 -0.5555702 
vn -0.7933533 0 -0.6087614 
vn 0.4422887 0 0.8968728 
vn 0.3826834 0 0.9238795 
vn -0.9914449 0 -0.1305262 
vn -0.9807853 0 -0.1950903 
vn 0 1 0 
vn -0.9978589 0 -0.06540313 
vn 0.3214395 0 0.9469302 
vn 0.8314696 0 0.5555702 
vn 0.7933533 0 0.6087614 
vn 0 0 -1 
vn -0.7518399 0 -0.6593459 
vn -0.3214395 0 -0.9469302 
vn -0.3826834 0 -0.9238795 
vn 0.9914449 0 0.1305262 
vn 0.9807853 0 0.1950903 
vn -0.4422887 0 -0.8968728 
vn 0.9978589 0 0.06540313 
vn 0.7518399 0 0.6593459 
vn -1 0 0 
vn -0.6087614 0 -0.7933533 
vn -0.6593459 0 -0.7518399 
vn 0.1305262 0 0.9914449 
vn 0.06540313 0 0.9978589 
vn -0.9238795 0 -0.3826834 
vn -0.8968728 0 -0.4422887 
vn -0.5555702 0 -0.8314696 
vn 0.6087614 0 0.7933533 
vn 0.5555702 0 0.8314696 
vn 0.6593459 0 0.7518399 
vn -0.9469302 0 -0.3214395 
vn 0.9238795 0 0.3826834 
vn 0.8968728 0 0.4422887 
vn -0.1305262 0 -0.9914449 
vn -0.1950903 0 -0.9807853 
vn 0.1950903 0 0.9807853 
vn 0.9469302 0 0.3214395 
vn -0.06540313 0 -0.9978589 

vt 61.96214 0 
vt 61.96214 1.574803 
vt 69.27493 0 
vt 69.27493 1.574803 
vt -102.1447 0 
vt -109.715 0 
vt -102.1447 1.574803 
vt -109.715 1.574803 
vt 19.38577 0 
vt 19.38577 1.574803 
vt 26.69856 0 
vt 26.69856 1.574803 
vt 60.23622 0 
vt 60.73134 7.554075 
vt 62.20472 0 
vt 62.20823 14.9789 
vt 62.683 7.297133 
vt 64.10966 14.46941 
vt 67.98987 28.93701 
vt 72.19569 35.23147 
vt 69.69464 27.95275 
vt 73.75741 34.03312 
vt 77.18713 40.92311 
vt 78.57907 39.53117 
vt 4.068384 0 
vt 4.068384 1.574803 
vt 11.38117 0 
vt 11.38117 1.574803 
vt -108.057 0 
vt -115.6273 0 
vt -108.057 1.574803 
vt -115.6273 1.574803 
vt 89.17323 50.12037 
vt 95.96281 53.46862 
vt 90.15748 48.41559 
vt 96.71613 51.64996 
vt 103.1313 55.90201 
vt 103.6408 54.00058 
vt -61.83339 1.574803 
vt -61.83339 0 
vt -69.40367 1.574803 
vt -69.40367 0 
vt 62.20472 1.574803 
vt 60.23622 1.574803 
vt 74.21909 0 
vt 74.21909 1.574803 
vt 81.53188 0 
vt 81.53188 1.574803 
vt 115.4985 0 
vt 108.1857 0 
vt 115.4985 1.574803 
vt 108.1857 1.574803 
vt -19.25702 1.574803 
vt -19.25702 0 
vt -26.8273 1.574803 
vt -26.8273 0 
vt 109.5863 0 
vt 102.2735 0 
vt 109.5863 1.574803 
vt 102.2735 1.574803 
vt -3.939637 1.574803 
vt -3.939637 0 
vt -11.50992 1.574803 
vt -11.50992 0 
vt -74.09035 1.574803 
vt -74.09035 0 
vt -81.66063 1.574803 
vt -81.66063 0 
vt 110.5562 57.37889 
vt 110.8131 55.42723 
vt 118.1102 57.87402 
vt 118.1102 55.90551 
vt 55.90551 0 
vt 55.90551 1.574803 
vt 57.87402 0 
vt 57.87402 1.574803 
vt 92.45638 0 
vt 85.14359 0 
vt 92.45638 1.574803 
vt 85.14359 1.574803 
vt -114.0722 0 
vt -121.6425 0 
vt -114.0722 1.574803 
vt -121.6425 1.574803 
vt 48.58243 0 
vt 48.58243 1.574803 
vt 55.89522 0 
vt 55.89522 1.574803 
vt 101.8615 0 
vt 94.54868 0 
vt 101.8615 1.574803 
vt 94.54868 1.574803 
vt -94.41993 0 
vt -101.9902 0 
vt -94.41993 1.574803 
vt -101.9902 1.574803 
vt 64.64162 22.14743 
vt 66.46028 21.39411 
vt -85.01484 0 
vt -92.58512 0 
vt -85.01484 1.574803 
vt -92.58512 1.574803 
vt 34.3089 0 
vt 34.3089 1.574803 
vt 41.62169 0 
vt 41.62169 1.574803 
vt 82.87877 45.91454 
vt 84.07712 44.35283 
vt -48.45368 1.574803 
vt -48.45368 0 
vt -56.02396 1.574803 
vt -56.02396 0 
vt 119.4972 0 
vt 112.1844 0 
vt 119.4972 1.574803 
vt 112.1844 1.574803 
vt -112.0556 0 
vt -119.6259 0 
vt -112.0556 1.574803 
vt -119.6259 1.574803 
vt -34.18015 1.574803 
vt -34.18015 0 
vt -41.75043 1.574803 
vt -41.75043 0 
vt 121.5137 0 
vt 114.201 0 
vt 121.5137 1.574803 
vt 114.201 1.574803 

usemtl red

f 2/2/1 1/1/1 3/3/2 
f 3/3/2 4/4/2 2/2/1 
f 6/6/4 5/5/3 7/7/3 
f 7/7/3 8/8/4 6/6/4 
f 10/10/5 9/9/5 11/11/6 
f 11/11/6 12/12/6 10/10/5 
f 14/14/7 13/13/7 15/15/7 
f 15/15/7 16/16/7 14/14/7 
f 15/15/7 10/17/7 16/16/7 
f 10/17/7 12/18/7 16/16/7 
f 18/20/7 17/19/7 2/21/7 
f 2/21/7 4/22/7 18/20/7 
f 4/22/7 19/23/7 18/20/7 
f 4/22/7 20/24/7 19/23/7 
f 15/26/8 21/25/8 9/27/5 
f 9/27/5 10/28/5 15/26/8 
f 22/30/9 6/29/4 8/31/4 
f 8/31/4 23/32/9 22/30/9 
f 8/34/7 7/33/7 24/35/7 
f 24/35/7 25/36/7 8/34/7 
f 25/36/7 23/37/7 8/34/7 
f 25/36/7 26/38/7 23/37/7 
f 27/40/10 17/39/10 18/41/11 
f 18/41/11 28/42/11 27/40/10 
f 29/13/12 21/15/12 15/43/12 
f 15/43/12 13/44/12 29/13/12 
f 4/46/2 3/45/2 30/47/13 
f 30/47/13 20/48/13 4/46/2 
f 32/50/15 31/49/14 26/51/14 
f 26/51/14 25/52/15 32/50/15 
f 33/54/16 14/53/16 16/55/17 
f 16/55/17 34/56/17 33/54/16 
f 35/58/18 32/57/15 25/59/15 
f 25/59/15 24/60/18 35/58/18 
f 29/62/19 13/61/19 14/63/16 
f 14/63/16 33/64/16 29/62/19 
f 28/66/11 18/65/11 19/67/20 
f 19/67/20 36/68/20 28/66/11 

usemtl white

f 37/69/7 23/37/7 26/38/7 
f 26/38/7 38/70/7 37/69/7 
f 38/70/7 39/71/7 37/69/7 
f 38/70/7 40/72/7 39/71/7 
f 40/74/21 41/73/21 42/75/21 
f 42/75/21 39/76/21 40/74/21 
f 30/78/23 43/77/22 44/79/22 
f 44/79/22 20/80/23 30/78/23 
f 42/82/25 45/81/24 37/83/24 
f 37/83/24 39/84/25 42/82/25 
f 47/86/26 46/85/26 1/87/27 
f 1/87/27 2/88/27 47/86/26 
f 43/90/22 35/89/28 24/91/28 
f 24/91/28 44/92/22 43/90/22 
f 5/94/30 48/93/29 49/95/29 
f 49/95/29 7/96/30 5/94/30 
f 50/97/7 16/16/7 12/18/7 
f 12/18/7 47/98/7 50/97/7 
f 47/98/7 17/19/7 50/97/7 
f 47/98/7 2/21/7 17/19/7 
f 48/100/29 36/99/31 19/101/31 
f 19/101/31 49/102/29 48/100/29 
f 12/104/32 11/103/32 46/105/26 
f 46/105/26 47/106/26 12/104/32 
f 49/107/7 19/23/7 20/24/7 
f 20/24/7 44/108/7 49/107/7 
f 44/108/7 7/33/7 49/107/7 
f 44/108/7 24/35/7 7/33/7 
f 51/110/33 50/109/33 17/111/34 
f 17/111/34 27/112/34 51/110/33 
f 31/114/36 52/113/35 38/115/35 
f 38/115/35 26/116/36 31/114/36 
f 45/118/24 22/117/37 23/119/37 
f 23/119/37 37/120/24 45/118/24 
f 34/122/38 16/121/38 50/123/33 
f 50/123/33 51/124/33 34/122/38 
f 52/126/35 41/125/39 40/127/39 
f 40/127/39 38/128/35 52/126/35 
g roadCornerLargerWallInner




usemtl red

f 2/2/1 1/1/1 3/3/2 
f 3/3/2 4/4/2 2/2/1 
f 6/6/4 5/5/3 7/7/3 
f 7/7/3 8/8/4 6/6/4 
f 10/10/5 9/9/5 11/11/6 
f 11/11/6 12/12/6 10/10/5 
f 14/14/7 13/13/7 15/15/7 
f 15/15/7 16/16/7 14/14/7 
f 15/15/7 10/17/7 16/16/7 
f 10/17/7 12/18/7 16/16/7 
f 18/20/7 17/19/7 2/21/7 
f 2/21/7 4/22/7 18/20/7 
f 4/22/7 19/23/7 18/20/7 
f 4/22/7 20/24/7 19/23/7 
f 15/26/8 21/25/8 9/27/5 
f 9/27/5 10/28/5 15/26/8 
f 22/30/9 6/29/4 8/31/4 
f 8/31/4 23/32/9 22/30/9 
f 8/34/7 7/33/7 24/35/7 
f 24/35/7 25/36/7 8/34/7 
f 25/36/7 23/37/7 8/34/7 
f 25/36/7 26/38/7 23/37/7 
f 27/40/10 17/39/10 18/41/11 
f 18/41/11 28/42/11 27/40/10 
f 29/13/12 21/15/12 15/43/12 
f 15/43/12 13/44/12 29/13/12 
f 4/46/2 3/45/2 30/47/13 
f 30/47/13 20/48/13 4/46/2 
f 32/50/15 31/49/14 26/51/14 
f 26/51/14 25/52/15 32/50/15 
f 33/54/16 14/53/16 16/55/17 
f 16/55/17 34/56/17 33/54/16 
f 35/58/18 32/57/15 25/59/15 
f 25/59/15 24/60/18 35/58/18 
f 29/62/19 13/61/19 14/63/16 
f 14/63/16 33/64/16 29/62/19 
f 28/66/11 18/65/11 19/67/20 
f 19/67/20 36/68/20 28/66/11 

usemtl white

f 37/69/7 23/37/7 26/38/7 
f 26/38/7 38/70/7 37/69/7 
f 38/70/7 39/71/7 37/69/7 
f 38/70/7 40/72/7 39/71/7 
f 40/74/21 41/73/21 42/75/21 
f 42/75/21 39/76/21 40/74/21 
f 30/78/23 43/77/22 44/79/22 
f 44/79/22 20/80/23 30/78/23 
f 42/82/25 45/81/24 37/83/24 
f 37/83/24 39/84/25 42/82/25 
f 47/86/26 46/85/26 1/87/27 
f 1/87/27 2/88/27 47/86/26 
f 43/90/22 35/89/28 24/91/28 
f 24/91/28 44/92/22 43/90/22 
f 5/94/30 48/93/29 49/95/29 
f 49/95/29 7/96/30 5/94/30 
f 50/97/7 16/16/7 12/18/7 
f 12/18/7 47/98/7 50/97/7 
f 47/98/7 17/19/7 50/97/7 
f 47/98/7 2/21/7 17/19/7 
f 48/100/29 36/99/31 19/101/31 
f 19/101/31 49/102/29 48/100/29 
f 12/104/32 11/103/32 46/105/26 
f 46/105/26 47/106/26 12/104/32 
f 49/107/7 19/23/7 20/24/7 
f 20/24/7 44/108/7 49/107/7 
f 44/108/7 7/33/7 49/107/7 
f 44/108/7 24/35/7 7/33/7 
f 51/110/33 50/109/33 17/111/34 
f 17/111/34 27/112/34 51/110/33 
f 31/114/36 52/113/35 38/115/35 
f 38/115/35 26/116/36 31/114/36 
f 45/118/24 22/117/37 23/119/37 
f 23/119/37 37/120/24 45/118/24 
f 34/122/38 16/121/38 50/123/33 
f 50/123/33 51/124/33 34/122/38 
f 52/126/35 41/125/39 40/127/39 
f 40/127/39 38/128/35 52/126/35 
