# Created by Kenney (www.kenney.nl) 

mtllib roadStraightBridge.mtl 

g roadStraightBridge

v -0.9183474 0.5 0 
v -0.9183474 0.5 1 
v -1 0.5 0 
v -1 0.5 1 
v 0 0.5 0 
v 0 0.5 1 
v -0.08165261 0.5 0 
v -0.08165261 0.5 1 
v -1 0 0 
v -1 0 1 
v 0 0 1 
v -0.1548649 0.51 1 
v -0.08165261 0.52 1 
v -0.1548649 0.52 1 
v -0.8451352 0.51 1 
v -0.9183474 0.52 1 
v -0.8451352 0.52 1 
v 0 0 0 
v -0.8451352 0.51 0 
v -0.9183474 0.52 0 
v -0.8451352 0.52 0 
v -0.1548649 0.51 0 
v -0.08165261 0.52 0 
v -0.1548649 0.52 0 

vn 0 1 0 
vn -1 0 0 
vn 0 0 1 
vn 1 0 0 
vn 0 0 -1 
vn 0 -1 0 

vt 36.15541 0 
vt 36.15541 39.37008 
vt 39.37008 0 
vt 39.37008 39.37008 
vt 0 0 
vt 0 39.37008 
vt 3.21467 0 
vt 3.21467 39.37008 
vt 0 19.68504 
vt 39.37008 19.68504 
vt -39.37008 0 
vt -39.37008 19.68504 
vt -3.21467 19.68504 
vt -36.15541 19.68504 
vt -6.097044 20.07874 
vt -3.21467 20.47244 
vt -6.097044 20.47244 
vt -33.27304 20.07874 
vt -36.15541 20.47244 
vt -33.27304 20.47244 
vt 36.15541 19.68504 
vt 3.21467 19.68504 
vt 33.27304 20.07874 
vt 36.15541 20.47244 
vt 33.27304 20.47244 
vt 6.097044 20.07874 
vt 3.21467 20.47244 
vt 6.097044 20.47244 
vt 33.27304 0 
vt 33.27304 39.37008 
vt 0 20.47244 
vt 0 20.07874 
vt -39.37008 20.47244 
vt -39.37008 20.07874 
vt 39.37008 20.47244 
vt 6.097044 0 
vt 6.097044 39.37008 
vt 39.37008 20.07874 

usemtl wall

f 2/2/1 1/1/1 3/3/1 
f 3/3/1 4/4/1 2/2/1 
f 6/6/1 5/5/1 7/7/1 
f 7/7/1 8/8/1 6/6/1 
f 3/9/2 9/5/2 10/3/2 
f 10/3/2 4/10/2 3/9/2 
f 10/11/3 11/5/3 6/9/3 
f 6/9/3 4/12/3 10/11/3 
f 6/9/3 8/13/3 4/12/3 
f 8/13/3 2/14/3 4/12/3 
f 12/15/3 2/14/3 8/13/3 
f 8/13/3 13/16/3 12/15/3 
f 13/16/3 14/17/3 12/15/3 
f 2/14/3 12/15/3 15/18/3 
f 15/18/3 16/19/3 2/14/3 
f 15/18/3 17/20/3 16/19/3 
f 18/5/4 5/9/4 6/12/4 
f 6/12/4 11/11/4 18/5/4 
f 18/5/5 9/3/5 3/10/5 
f 3/10/5 5/9/5 18/5/5 
f 3/10/5 1/21/5 5/9/5 
f 1/21/5 7/22/5 5/9/5 
f 19/23/5 7/22/5 1/21/5 
f 1/21/5 20/24/5 19/23/5 
f 20/24/5 21/25/5 19/23/5 
f 7/22/5 19/23/5 22/26/5 
f 22/26/5 23/27/5 7/22/5 
f 22/26/5 24/28/5 23/27/5 

usemtl grey

f 17/30/1 21/29/1 20/1/1 
f 20/1/1 16/2/1 17/30/1 
f 19/32/4 21/31/4 17/33/4 
f 17/33/4 15/34/4 19/32/4 
f 20/31/2 1/9/2 2/10/2 
f 2/10/2 16/35/2 20/31/2 
f 7/9/4 23/31/4 13/33/4 
f 13/33/4 8/12/4 7/9/4 
f 13/8/1 23/7/1 24/36/1 
f 24/36/1 14/37/1 13/8/1 
f 24/31/2 22/32/2 12/38/2 
f 12/38/2 14/35/2 24/31/2 

usemtl road

f 12/37/1 22/36/1 19/29/1 
f 19/29/1 15/30/1 12/37/1 

usemtl _defaultMat

f 18/26/6 11/28/6 10/27/6 
f 10/26/6 9/28/6 18/27/6 
g roadStraightBridge




usemtl wall

f 2/2/1 1/1/1 3/3/1 
f 3/3/1 4/4/1 2/2/1 
f 6/6/1 5/5/1 7/7/1 
f 7/7/1 8/8/1 6/6/1 
f 3/9/2 9/5/2 10/3/2 
f 10/3/2 4/10/2 3/9/2 
f 10/11/3 11/5/3 6/9/3 
f 6/9/3 4/12/3 10/11/3 
f 6/9/3 8/13/3 4/12/3 
f 8/13/3 2/14/3 4/12/3 
f 12/15/3 2/14/3 8/13/3 
f 8/13/3 13/16/3 12/15/3 
f 13/16/3 14/17/3 12/15/3 
f 2/14/3 12/15/3 15/18/3 
f 15/18/3 16/19/3 2/14/3 
f 15/18/3 17/20/3 16/19/3 
f 18/5/4 5/9/4 6/12/4 
f 6/12/4 11/11/4 18/5/4 
f 18/5/5 9/3/5 3/10/5 
f 3/10/5 5/9/5 18/5/5 
f 3/10/5 1/21/5 5/9/5 
f 1/21/5 7/22/5 5/9/5 
f 19/23/5 7/22/5 1/21/5 
f 1/21/5 20/24/5 19/23/5 
f 20/24/5 21/25/5 19/23/5 
f 7/22/5 19/23/5 22/26/5 
f 22/26/5 23/27/5 7/22/5 
f 22/26/5 24/28/5 23/27/5 

usemtl grey

f 17/30/1 21/29/1 20/1/1 
f 20/1/1 16/2/1 17/30/1 
f 19/32/4 21/31/4 17/33/4 
f 17/33/4 15/34/4 19/32/4 
f 20/31/2 1/9/2 2/10/2 
f 2/10/2 16/35/2 20/31/2 
f 7/9/4 23/31/4 13/33/4 
f 13/33/4 8/12/4 7/9/4 
f 13/8/1 23/7/1 24/36/1 
f 24/36/1 14/37/1 13/8/1 
f 24/31/2 22/32/2 12/38/2 
f 12/38/2 14/35/2 24/31/2 

usemtl road

f 12/37/1 22/36/1 19/29/1 
f 19/29/1 15/30/1 12/37/1 

usemtl _defaultMat

f 18/26/6 11/28/6 10/27/6 
f 10/26/6 9/28/6 18/27/6 
