# Created by Kenney (www.kenney.nl) 

mtllib tentClosed.mtl 

g tentClosed

v 0 0.52 0 
v 0 0.43 0 
v 0 0.52 1 
v 0 0.43 0.01999998 
v 0 0.43 0.9799999 
v 0 0.43 1 
v -0.02000001 0.43 1 
v -0.98 0.43 1 
v -1 0.43 1 
v -1 0.52 1 
v -1 0.52 0 
v -1 0.43 0 
v -0.98 0.43 0 
v -0.02000001 0.43 0 
v -1 0.43 0.01999998 
v -1 0.43 0.9799999 
v -0.02000001 0.43 0.01999998 
v -0.14 0.43 0.01999998 
v -0.86 0.43 0.01999998 
v -0.98 0.43 0.01999998 
v -0.98 0.43 0.9799999 
v -0.02000001 0.43 0.9799999 
v -0.4525 0.7 0.4525 
v -0.4525 0.7 0.5475 
v -0.5475 0.7 0.4525 
v -0.5475 0.7 0.5475 
v -0.02000001 0 0.01999998 
v -0.02000001 0 0.9799999 
v -0.98 0 0.9799999 
v -0.98 0 0.01999998 
v -0.14 0 0.01999998 
v -0.86 0 0.01999998 
v 0 0 0.01999998 
v 0 0 0 
v -0.02000001 0 0 
v -0.98 0 0 
v -1 0 0.01999998 
v -1 0 0 
v -0.98 0 1 
v -1 0 1 
v -1 0 0.9799999 
v 0 0 0.9799999 
v 0 0 1 
v -0.02000001 0 1 

vn 1 0 0 
vn 0 0 1 
vn 0 1 0 
vn 0 0 -1 
vn -1 0 0 
vn 0 -1 0 
vn 0 0.9291831 0.3696198 
vn 0 0.9291831 -0.3696198 
vn -0.3696198 0.9291831 0 
vn 0.3696198 0.9291831 0 

vt 0 20.47244 
vt 0 16.92913 
vt -39.37008 20.47244 
vt -0.7874016 16.92913 
vt -38.58268 16.92913 
vt -39.37008 16.92913 
vt 0 0 
vt 0 39.37008 
vt 39.37008 0 
vt 39.37008 39.37008 
vt 39.37008 16.92913 
vt 38.58268 16.92913 
vt 39.37008 20.47244 
vt 0.7874016 16.92913 
vt -0.7874016 0.7874016 
vt -0.7874016 0 
vt -5.511811 0.7874016 
vt -38.58268 0 
vt -33.85827 0.7874016 
vt -38.58268 0.7874016 
vt -38.58268 38.58268 
vt -39.37008 38.58268 
vt -39.37008 0.7874016 
vt -0.7874016 38.58268 
vt 0 0.7874016 
vt 0 38.58268 
vt -38.58268 39.37008 
vt -0.7874016 39.37008 
vt 17.81496 17.81496 
vt 17.81496 21.55512 
vt 21.55512 17.81496 
vt 21.55512 21.55512 
vt 0 -29.01499 
vt -39.37008 -29.01499 
vt -17.81496 -9.842279 
vt -21.55512 -9.842279 
vt 0 7.567019 
vt 17.81496 26.73973 
vt 39.37008 7.567019 
vt 21.55512 26.73973 
vt 17.81496 -9.842279 
vt 21.55512 -9.842279 
vt 6.924754E-16 -29.01499 
vt 39.37008 -29.01499 
vt 6.162976E-33 7.567019 
vt -39.37008 7.567019 
vt -17.81496 26.73973 
vt -21.55512 26.73973 
vt 0.7874016 0 
vt 38.58268 0 
vt 5.511811 0 
vt 5.511811 16.92913 
vt 33.85827 0 
vt 33.85827 16.92913 
vt -39.37008 0 
vt -39.37008 39.37008 

usemtl grass

f 2/2/1 1/1/1 3/3/1 
f 3/3/1 4/4/1 2/2/1 
f 3/3/1 5/5/1 4/4/1 
f 3/3/1 6/6/1 5/5/1 
f 7/4/2 6/2/2 3/1/2 
f 3/1/2 8/5/2 7/4/2 
f 3/1/2 9/6/2 8/5/2 
f 3/1/2 10/3/2 9/6/2 
f 3/8/3 1/7/3 11/9/3 
f 11/9/3 10/10/3 3/8/3 
f 13/12/4 12/11/4 11/13/4 
f 11/13/4 14/14/4 13/12/4 
f 11/13/4 2/2/4 14/14/4 
f 11/13/4 1/1/4 2/2/4 
f 11/1/5 12/2/5 15/14/5 
f 15/14/5 10/13/5 11/1/5 
f 15/14/5 16/12/5 10/13/5 
f 16/12/5 9/11/5 10/13/5 
f 14/16/6 17/15/6 18/17/6 
f 18/17/6 13/18/6 14/16/6 
f 18/17/6 19/19/6 13/18/6 
f 19/19/6 20/20/6 13/18/6 
f 21/21/6 18/17/6 17/15/6 
f 21/21/6 19/19/6 18/17/6 
f 21/21/6 20/20/6 19/19/6 
f 20/20/6 21/21/6 16/22/6 
f 16/22/6 15/23/6 20/20/6 
f 17/15/6 22/24/6 21/21/6 
f 22/24/6 17/15/6 4/25/6 
f 4/25/6 5/26/6 22/24/6 
f 8/27/6 21/21/6 22/24/6 
f 22/24/6 7/28/6 8/27/6 
f 24/30/3 23/29/3 25/31/3 
f 25/31/3 26/32/3 24/30/3 
f 10/34/7 3/33/7 24/35/7 
f 24/35/7 26/36/7 10/34/7 
f 23/38/8 1/37/8 11/39/8 
f 11/39/8 25/40/8 23/38/8 
f 26/42/9 25/41/9 11/43/9 
f 11/43/9 10/44/9 26/42/9 
f 3/46/10 1/45/10 23/47/10 
f 23/47/10 24/48/10 3/46/10 
f 27/16/1 17/4/1 22/5/1 
f 22/5/1 28/18/1 27/16/1 
f 27/16/5 22/5/5 17/4/5 
f 22/5/5 27/16/5 28/18/5 
f 29/18/2 28/16/2 22/4/2 
f 22/4/2 21/5/2 29/18/2 
f 29/18/4 22/4/4 28/16/4 
f 22/4/4 29/18/4 21/5/4 
f 20/14/5 30/49/5 29/50/5 
f 29/50/5 21/12/5 20/14/5 
f 20/14/1 29/50/1 30/49/1 
f 29/50/1 20/14/1 21/12/1 
f 27/49/4 31/51/4 18/52/4 
f 18/52/4 17/14/4 27/49/4 
f 27/49/2 18/52/2 31/51/2 
f 18/52/2 27/49/2 17/14/2 
f 32/53/4 30/50/4 20/12/4 
f 20/12/4 19/54/4 32/53/4 
f 32/53/2 20/12/2 30/50/2 
f 20/12/2 32/53/2 19/54/2 

usemtl grey

f 34/7/6 33/25/6 27/15/6 
f 27/15/6 35/16/6 34/7/6 
f 14/2/5 35/7/5 27/49/5 
f 27/49/5 17/14/5 14/2/5 
f 34/7/4 35/49/4 14/14/4 
f 14/14/4 2/2/4 34/7/4 
f 2/7/6 4/25/6 17/15/6 
f 17/15/6 14/16/6 2/7/6 
f 34/7/1 2/2/1 4/4/1 
f 4/4/1 33/16/1 34/7/1 
f 27/16/2 33/7/2 4/2/2 
f 4/2/2 17/4/2 27/16/2 
f 36/18/6 30/20/6 37/23/6 
f 37/23/6 38/55/6 36/18/6 
f 37/55/2 30/18/2 20/5/2 
f 20/5/2 15/6/2 37/55/2 
f 13/18/6 20/20/6 15/23/6 
f 15/23/6 12/55/6 13/18/6 
f 12/2/5 38/7/5 37/49/5 
f 37/49/5 15/14/5 12/2/5 
f 36/7/1 13/2/1 20/4/1 
f 20/4/1 30/16/1 36/7/1 
f 36/50/4 38/9/4 12/11/4 
f 12/11/4 13/12/4 36/50/4 
f 29/18/1 21/5/1 8/6/1 
f 8/6/1 39/55/1 29/18/1 
f 29/21/6 39/27/6 40/56/6 
f 40/56/6 41/22/6 29/21/6 
f 21/21/6 8/27/6 9/56/6 
f 9/56/6 16/22/6 21/21/6 
f 29/50/4 41/9/4 16/11/4 
f 16/11/4 21/12/4 29/50/4 
f 40/55/2 39/18/2 8/5/2 
f 8/5/2 9/6/2 40/55/2 
f 16/12/5 41/50/5 40/9/5 
f 40/9/5 9/11/5 16/12/5 
f 42/18/1 5/5/1 6/6/1 
f 6/6/1 43/55/1 42/18/1 
f 42/26/6 43/8/6 44/28/6 
f 44/28/6 28/24/6 42/26/6 
f 5/26/6 6/8/6 7/28/6 
f 7/28/6 22/24/6 5/26/6 
f 42/7/4 28/49/4 22/14/4 
f 22/14/4 5/2/4 42/7/4 
f 44/16/2 43/7/2 6/2/2 
f 6/2/2 7/4/2 44/16/2 
f 22/12/5 28/50/5 44/9/5 
f 44/9/5 7/11/5 22/12/5 
g tentClosed




usemtl grass

f 2/2/1 1/1/1 3/3/1 
f 3/3/1 4/4/1 2/2/1 
f 3/3/1 5/5/1 4/4/1 
f 3/3/1 6/6/1 5/5/1 
f 7/4/2 6/2/2 3/1/2 
f 3/1/2 8/5/2 7/4/2 
f 3/1/2 9/6/2 8/5/2 
f 3/1/2 10/3/2 9/6/2 
f 3/8/3 1/7/3 11/9/3 
f 11/9/3 10/10/3 3/8/3 
f 13/12/4 12/11/4 11/13/4 
f 11/13/4 14/14/4 13/12/4 
f 11/13/4 2/2/4 14/14/4 
f 11/13/4 1/1/4 2/2/4 
f 11/1/5 12/2/5 15/14/5 
f 15/14/5 10/13/5 11/1/5 
f 15/14/5 16/12/5 10/13/5 
f 16/12/5 9/11/5 10/13/5 
f 14/16/6 17/15/6 18/17/6 
f 18/17/6 13/18/6 14/16/6 
f 18/17/6 19/19/6 13/18/6 
f 19/19/6 20/20/6 13/18/6 
f 21/21/6 18/17/6 17/15/6 
f 21/21/6 19/19/6 18/17/6 
f 21/21/6 20/20/6 19/19/6 
f 20/20/6 21/21/6 16/22/6 
f 16/22/6 15/23/6 20/20/6 
f 17/15/6 22/24/6 21/21/6 
f 22/24/6 17/15/6 4/25/6 
f 4/25/6 5/26/6 22/24/6 
f 8/27/6 21/21/6 22/24/6 
f 22/24/6 7/28/6 8/27/6 
f 24/30/3 23/29/3 25/31/3 
f 25/31/3 26/32/3 24/30/3 
f 10/34/7 3/33/7 24/35/7 
f 24/35/7 26/36/7 10/34/7 
f 23/38/8 1/37/8 11/39/8 
f 11/39/8 25/40/8 23/38/8 
f 26/42/9 25/41/9 11/43/9 
f 11/43/9 10/44/9 26/42/9 
f 3/46/10 1/45/10 23/47/10 
f 23/47/10 24/48/10 3/46/10 
f 27/16/1 17/4/1 22/5/1 
f 22/5/1 28/18/1 27/16/1 
f 27/16/5 22/5/5 17/4/5 
f 22/5/5 27/16/5 28/18/5 
f 29/18/2 28/16/2 22/4/2 
f 22/4/2 21/5/2 29/18/2 
f 29/18/4 22/4/4 28/16/4 
f 22/4/4 29/18/4 21/5/4 
f 20/14/5 30/49/5 29/50/5 
f 29/50/5 21/12/5 20/14/5 
f 20/14/1 29/50/1 30/49/1 
f 29/50/1 20/14/1 21/12/1 
f 27/49/4 31/51/4 18/52/4 
f 18/52/4 17/14/4 27/49/4 
f 27/49/2 18/52/2 31/51/2 
f 18/52/2 27/49/2 17/14/2 
f 32/53/4 30/50/4 20/12/4 
f 20/12/4 19/54/4 32/53/4 
f 32/53/2 20/12/2 30/50/2 
f 20/12/2 32/53/2 19/54/2 

usemtl grey

f 34/7/6 33/25/6 27/15/6 
f 27/15/6 35/16/6 34/7/6 
f 14/2/5 35/7/5 27/49/5 
f 27/49/5 17/14/5 14/2/5 
f 34/7/4 35/49/4 14/14/4 
f 14/14/4 2/2/4 34/7/4 
f 2/7/6 4/25/6 17/15/6 
f 17/15/6 14/16/6 2/7/6 
f 34/7/1 2/2/1 4/4/1 
f 4/4/1 33/16/1 34/7/1 
f 27/16/2 33/7/2 4/2/2 
f 4/2/2 17/4/2 27/16/2 
f 36/18/6 30/20/6 37/23/6 
f 37/23/6 38/55/6 36/18/6 
f 37/55/2 30/18/2 20/5/2 
f 20/5/2 15/6/2 37/55/2 
f 13/18/6 20/20/6 15/23/6 
f 15/23/6 12/55/6 13/18/6 
f 12/2/5 38/7/5 37/49/5 
f 37/49/5 15/14/5 12/2/5 
f 36/7/1 13/2/1 20/4/1 
f 20/4/1 30/16/1 36/7/1 
f 36/50/4 38/9/4 12/11/4 
f 12/11/4 13/12/4 36/50/4 
f 29/18/1 21/5/1 8/6/1 
f 8/6/1 39/55/1 29/18/1 
f 29/21/6 39/27/6 40/56/6 
f 40/56/6 41/22/6 29/21/6 
f 21/21/6 8/27/6 9/56/6 
f 9/56/6 16/22/6 21/21/6 
f 29/50/4 41/9/4 16/11/4 
f 16/11/4 21/12/4 29/50/4 
f 40/55/2 39/18/2 8/5/2 
f 8/5/2 9/6/2 40/55/2 
f 16/12/5 41/50/5 40/9/5 
f 40/9/5 9/11/5 16/12/5 
f 42/18/1 5/5/1 6/6/1 
f 6/6/1 43/55/1 42/18/1 
f 42/26/6 43/8/6 44/28/6 
f 44/28/6 28/24/6 42/26/6 
f 5/26/6 6/8/6 7/28/6 
f 7/28/6 22/24/6 5/26/6 
f 42/7/4 28/49/4 22/14/4 
f 22/14/4 5/2/4 42/7/4 
f 44/16/2 43/7/2 6/2/2 
f 6/2/2 7/4/2 44/16/2 
f 22/12/5 28/50/5 44/9/5 
f 44/9/5 7/11/5 22/12/5 
