# Created by Kenney (www.kenney.nl) 

mtllib tentRoof.mtl 

g tentRoof

v -0.54 0 0.505 
v -0.56 0 0.505 
v -0.54 0.43 0.505 
v -0.56 0.43 0.505 
v -0.54 0 0.485 
v -0.56 0 0.485 
v -0.54 0.43 0.485 
v -0.56 0.43 0.485 
v 0 0 0.99 
v -0.02000001 0 0.99 
v 0 0.43 0.99 
v -0.02000001 0.43 0.99 
v 0 0.43 0.9699999 
v -0.02000001 0.43 0.9699999 
v 0 0 0.9699999 
v -0.02000001 0 0.9699999 
v 0 0 0.01999998 
v -0.02000001 0 0.01999998 
v 0 0.43 0.01999998 
v -0.02000001 0.43 0.01999998 
v 0 0.43 0.505 
v 0 0.43 0.485 
v -0.02000001 0.43 0.505 
v -0.02000001 0.43 0.485 
v -0.02000001 0 0.485 
v 0 0 0.485 
v 0 0.43 0 
v 0 0 0 
v 0 0 0.505 
v -0.02000001 0 0.505 
v -0.02000001 0 0 
v -0.02000001 0.43 0 
v -0.54 0 0.99 
v -0.56 0 0.99 
v -0.54 0.43 0.99 
v -0.56 0.43 0.99 
v -0.54 0.43 0.9699999 
v -0.56 0.43 0.9699999 
v -0.54 0 0.9699999 
v -0.56 0 0.9699999 
v -0.54 0 0.01999998 
v -0.56 0 0.01999998 
v -0.54 0.43 0.01999998 
v -0.56 0.43 0.01999998 
v -0.54 0 0 
v -0.56 0 0 
v -0.54 0.43 0 
v -0.56 0.43 0 
v 0 0.47 0 
v 0 0.47 0.99 
v -0.2492 0.63 0 
v -0.2492 0.63 0.99 
v -0.3108 0.63 0 
v -0.3108 0.63 0.99 
v -0.56 0.47 0 
v -0.56 0.47 0.99 

vn 0 0 1 
vn 0 -1 0 
vn 1 0 0 
vn -1 0 0 
vn 0 0 -1 
vn 0.5402796 0.8414856 0 
vn -0.5402796 -0.8414856 0 
vn -0.5402796 0.8414856 0 
vn 0.5402796 -0.8414856 0 
vn 0 1 0 

vt -21.25984 0 
vt -22.04725 0 
vt -21.25984 16.92913 
vt -22.04725 16.92913 
vt -21.25984 19.88189 
vt -21.25984 19.09449 
vt -22.04725 19.88189 
vt -22.04725 19.09449 
vt -19.09449 16.92913 
vt -19.09449 0 
vt -19.88189 16.92913 
vt -19.88189 0 
vt 19.09449 0 
vt 19.09449 16.92913 
vt 19.88189 0 
vt 19.88189 16.92913 
vt 0 0 
vt -0.7874016 0 
vt 0 16.92913 
vt -0.7874016 16.92913 
vt 0 38.97638 
vt 0 38.18898 
vt -0.7874016 38.97638 
vt -0.7874016 38.18898 
vt -38.18898 16.92913 
vt -38.18898 0 
vt -38.97638 16.92913 
vt -38.97638 0 
vt 38.18898 0 
vt 38.18898 16.92913 
vt 38.97638 0 
vt 38.97638 16.92913 
vt 22.04725 0 
vt 21.25984 0 
vt 22.04725 16.92913 
vt 21.25984 16.92913 
vt 0 19.88189 
vt 0 19.09449 
vt -0.7874016 19.88189 
vt -0.7874016 19.09449 
vt 0.7874016 0 
vt 0.7874016 16.92913 
vt 0 0.7874016 
vt -0.7874016 0.7874016 
vt -21.25984 38.97638 
vt -21.25984 38.18898 
vt -22.04725 38.97638 
vt -22.04725 38.18898 
vt -21.25984 0.7874016 
vt -22.04725 0.7874016 
vt 0 18.50394 
vt -38.97638 18.50394 
vt 0 9.9973 
vt -38.97638 9.9973 
vt 0 21.65647 
vt -38.97638 21.65647 
vt 0 3.104034 
vt 38.97638 3.104034 
vt 0 -8.555137 
vt 38.97638 -8.555137 
vt 38.97638 18.50394 
vt -22.04725 18.50394 
vt -9.811024 24.80315 
vt -12.23622 24.80315 
vt 9.811024 0 
vt 9.811024 38.97638 
vt 12.23622 0 
vt 12.23622 38.97638 
vt 22.04725 18.50394 
vt 12.23622 24.80315 
vt 9.811024 24.80315 

usemtl grey

f 2/2/1 1/1/1 3/3/1 
f 3/3/1 4/4/1 2/2/1 
f 5/6/2 1/5/2 2/7/2 
f 2/7/2 6/8/2 5/6/2 
f 5/10/3 7/9/3 3/11/3 
f 3/11/3 1/12/3 5/10/3 
f 8/14/4 6/13/4 2/15/4 
f 2/15/4 4/16/4 8/14/4 
f 10/18/1 9/17/1 11/19/1 
f 11/19/1 12/20/1 10/18/1 
f 13/22/2 11/21/2 12/23/2 
f 12/23/2 14/24/2 13/22/2 
f 7/6/2 3/5/2 4/7/2 
f 4/7/2 8/8/2 7/6/2 
f 15/26/3 13/25/3 11/27/3 
f 11/27/3 9/28/3 15/26/3 
f 14/30/4 16/29/4 10/31/4 
f 10/31/4 12/32/4 14/30/4 
f 5/34/5 6/33/5 8/35/5 
f 8/35/5 7/36/5 5/34/5 
f 15/22/2 9/21/2 10/23/2 
f 10/23/2 16/24/2 15/22/2 
f 18/18/1 17/17/1 19/19/1 
f 19/19/1 20/20/1 18/18/1 
f 22/38/2 21/37/2 23/39/2 
f 23/39/2 24/40/2 22/38/2 
f 26/17/5 25/41/5 24/42/5 
f 24/42/5 22/19/5 26/17/5 
f 28/17/3 27/19/3 19/20/3 
f 19/20/3 17/18/3 28/17/3 
f 30/18/1 29/17/1 21/19/1 
f 21/19/1 23/20/1 30/18/1 
f 32/19/4 31/17/4 18/41/4 
f 18/41/4 20/42/4 32/19/4 
f 26/38/2 29/37/2 30/39/2 
f 30/39/2 25/40/2 26/38/2 
f 26/10/3 22/9/3 21/11/3 
f 21/11/3 29/12/3 26/10/3 
f 15/17/5 16/41/5 14/42/5 
f 14/42/5 13/19/5 15/17/5 
f 28/17/5 31/41/5 32/42/5 
f 32/42/5 27/19/5 28/17/5 
f 27/17/2 19/43/2 20/44/2 
f 20/44/2 32/18/2 27/17/2 
f 34/2/1 33/1/1 35/3/1 
f 35/3/1 36/4/1 34/2/1 
f 37/46/2 35/45/2 36/47/2 
f 36/47/2 38/48/2 37/46/2 
f 39/26/3 37/25/3 35/27/3 
f 35/27/3 33/28/3 39/26/3 
f 28/17/2 17/43/2 18/44/2 
f 18/44/2 31/18/2 28/17/2 
f 38/30/4 40/29/4 34/31/4 
f 34/31/4 36/32/4 38/30/4 
f 24/14/4 25/13/4 30/15/4 
f 30/15/4 23/16/4 24/14/4 
f 39/46/2 33/45/2 34/47/2 
f 34/47/2 40/48/2 39/46/2 
f 39/34/5 40/33/5 38/35/5 
f 38/35/5 37/36/5 39/34/5 
f 42/2/1 41/1/1 43/3/1 
f 43/3/1 44/4/1 42/2/1 
f 45/1/2 41/49/2 42/50/2 
f 42/50/2 46/2/2 45/1/2 
f 47/1/2 43/49/2 44/50/2 
f 44/50/2 48/2/2 47/1/2 
f 45/17/3 47/19/3 43/20/3 
f 43/20/3 41/18/3 45/17/3 
f 48/19/4 46/17/4 42/41/4 
f 42/41/4 44/42/4 48/19/4 
f 45/34/5 46/33/5 48/35/5 
f 48/35/5 47/36/5 45/34/5 

usemtl grass

f 27/19/3 49/51/3 50/52/3 
f 50/52/3 19/20/3 27/19/3 
f 50/52/3 22/9/3 19/20/3 
f 50/52/3 21/11/3 22/9/3 
f 50/52/3 13/25/3 21/11/3 
f 50/52/3 11/27/3 13/25/3 
f 27/19/4 50/52/4 49/51/4 
f 50/52/4 27/19/4 19/20/4 
f 50/52/4 19/20/4 22/9/4 
f 50/52/4 22/9/4 21/11/4 
f 50/52/4 21/11/4 13/25/4 
f 50/52/4 13/25/4 11/27/4 
f 50/54/6 49/53/6 51/55/6 
f 51/55/6 52/56/6 50/54/6 
f 50/54/7 51/55/7 49/53/7 
f 51/55/7 50/54/7 52/56/7 
f 54/58/8 53/57/8 55/59/8 
f 55/59/8 56/60/8 54/58/8 
f 54/58/9 55/59/9 53/57/9 
f 55/59/9 54/58/9 56/60/9 
f 55/51/4 48/19/4 44/42/4 
f 44/42/4 56/61/4 55/51/4 
f 44/42/4 8/14/4 56/61/4 
f 8/14/4 4/16/4 56/61/4 
f 4/16/4 38/30/4 56/61/4 
f 38/30/4 36/32/4 56/61/4 
f 55/51/3 44/42/3 48/19/3 
f 44/42/3 55/51/3 56/61/3 
f 44/42/3 56/61/3 8/14/3 
f 8/14/3 56/61/3 4/16/3 
f 4/16/3 56/61/3 38/30/3 
f 38/30/3 56/61/3 36/32/3 
f 12/20/1 11/19/1 50/51/1 
f 50/51/1 35/3/1 12/20/1 
f 50/51/1 36/4/1 35/3/1 
f 50/51/1 56/62/1 36/4/1 
f 50/51/1 52/63/1 56/62/1 
f 52/63/1 54/64/1 56/62/1 
f 12/20/5 50/51/5 11/19/5 
f 50/51/5 12/20/5 35/3/5 
f 50/51/5 35/3/5 36/4/5 
f 50/51/5 36/4/5 56/62/5 
f 50/51/5 56/62/5 52/63/5 
f 52/63/5 56/62/5 54/64/5 
f 52/66/10 51/65/10 53/67/10 
f 53/67/10 54/68/10 52/66/10 
f 52/66/2 53/67/2 51/65/2 
f 53/67/2 52/66/2 54/68/2 
f 47/36/5 48/35/5 55/69/5 
f 55/69/5 32/42/5 47/36/5 
f 55/69/5 27/19/5 32/42/5 
f 55/69/5 49/51/5 27/19/5 
f 55/69/5 53/70/5 49/51/5 
f 53/70/5 51/71/5 49/51/5 
f 47/36/1 55/69/1 48/35/1 
f 55/69/1 47/36/1 32/42/1 
f 55/69/1 32/42/1 27/19/1 
f 55/69/1 27/19/1 49/51/1 
f 55/69/1 49/51/1 53/70/1 
f 53/70/1 49/51/1 51/71/1 
g tentRoof




usemtl grey

f 2/2/1 1/1/1 3/3/1 
f 3/3/1 4/4/1 2/2/1 
f 5/6/2 1/5/2 2/7/2 
f 2/7/2 6/8/2 5/6/2 
f 5/10/3 7/9/3 3/11/3 
f 3/11/3 1/12/3 5/10/3 
f 8/14/4 6/13/4 2/15/4 
f 2/15/4 4/16/4 8/14/4 
f 10/18/1 9/17/1 11/19/1 
f 11/19/1 12/20/1 10/18/1 
f 13/22/2 11/21/2 12/23/2 
f 12/23/2 14/24/2 13/22/2 
f 7/6/2 3/5/2 4/7/2 
f 4/7/2 8/8/2 7/6/2 
f 15/26/3 13/25/3 11/27/3 
f 11/27/3 9/28/3 15/26/3 
f 14/30/4 16/29/4 10/31/4 
f 10/31/4 12/32/4 14/30/4 
f 5/34/5 6/33/5 8/35/5 
f 8/35/5 7/36/5 5/34/5 
f 15/22/2 9/21/2 10/23/2 
f 10/23/2 16/24/2 15/22/2 
f 18/18/1 17/17/1 19/19/1 
f 19/19/1 20/20/1 18/18/1 
f 22/38/2 21/37/2 23/39/2 
f 23/39/2 24/40/2 22/38/2 
f 26/17/5 25/41/5 24/42/5 
f 24/42/5 22/19/5 26/17/5 
f 28/17/3 27/19/3 19/20/3 
f 19/20/3 17/18/3 28/17/3 
f 30/18/1 29/17/1 21/19/1 
f 21/19/1 23/20/1 30/18/1 
f 32/19/4 31/17/4 18/41/4 
f 18/41/4 20/42/4 32/19/4 
f 26/38/2 29/37/2 30/39/2 
f 30/39/2 25/40/2 26/38/2 
f 26/10/3 22/9/3 21/11/3 
f 21/11/3 29/12/3 26/10/3 
f 15/17/5 16/41/5 14/42/5 
f 14/42/5 13/19/5 15/17/5 
f 28/17/5 31/41/5 32/42/5 
f 32/42/5 27/19/5 28/17/5 
f 27/17/2 19/43/2 20/44/2 
f 20/44/2 32/18/2 27/17/2 
f 34/2/1 33/1/1 35/3/1 
f 35/3/1 36/4/1 34/2/1 
f 37/46/2 35/45/2 36/47/2 
f 36/47/2 38/48/2 37/46/2 
f 39/26/3 37/25/3 35/27/3 
f 35/27/3 33/28/3 39/26/3 
f 28/17/2 17/43/2 18/44/2 
f 18/44/2 31/18/2 28/17/2 
f 38/30/4 40/29/4 34/31/4 
f 34/31/4 36/32/4 38/30/4 
f 24/14/4 25/13/4 30/15/4 
f 30/15/4 23/16/4 24/14/4 
f 39/46/2 33/45/2 34/47/2 
f 34/47/2 40/48/2 39/46/2 
f 39/34/5 40/33/5 38/35/5 
f 38/35/5 37/36/5 39/34/5 
f 42/2/1 41/1/1 43/3/1 
f 43/3/1 44/4/1 42/2/1 
f 45/1/2 41/49/2 42/50/2 
f 42/50/2 46/2/2 45/1/2 
f 47/1/2 43/49/2 44/50/2 
f 44/50/2 48/2/2 47/1/2 
f 45/17/3 47/19/3 43/20/3 
f 43/20/3 41/18/3 45/17/3 
f 48/19/4 46/17/4 42/41/4 
f 42/41/4 44/42/4 48/19/4 
f 45/34/5 46/33/5 48/35/5 
f 48/35/5 47/36/5 45/34/5 

usemtl grass

f 27/19/3 49/51/3 50/52/3 
f 50/52/3 19/20/3 27/19/3 
f 50/52/3 22/9/3 19/20/3 
f 50/52/3 21/11/3 22/9/3 
f 50/52/3 13/25/3 21/11/3 
f 50/52/3 11/27/3 13/25/3 
f 27/19/4 50/52/4 49/51/4 
f 50/52/4 27/19/4 19/20/4 
f 50/52/4 19/20/4 22/9/4 
f 50/52/4 22/9/4 21/11/4 
f 50/52/4 21/11/4 13/25/4 
f 50/52/4 13/25/4 11/27/4 
f 50/54/6 49/53/6 51/55/6 
f 51/55/6 52/56/6 50/54/6 
f 50/54/7 51/55/7 49/53/7 
f 51/55/7 50/54/7 52/56/7 
f 54/58/8 53/57/8 55/59/8 
f 55/59/8 56/60/8 54/58/8 
f 54/58/9 55/59/9 53/57/9 
f 55/59/9 54/58/9 56/60/9 
f 55/51/4 48/19/4 44/42/4 
f 44/42/4 56/61/4 55/51/4 
f 44/42/4 8/14/4 56/61/4 
f 8/14/4 4/16/4 56/61/4 
f 4/16/4 38/30/4 56/61/4 
f 38/30/4 36/32/4 56/61/4 
f 55/51/3 44/42/3 48/19/3 
f 44/42/3 55/51/3 56/61/3 
f 44/42/3 56/61/3 8/14/3 
f 8/14/3 56/61/3 4/16/3 
f 4/16/3 56/61/3 38/30/3 
f 38/30/3 56/61/3 36/32/3 
f 12/20/1 11/19/1 50/51/1 
f 50/51/1 35/3/1 12/20/1 
f 50/51/1 36/4/1 35/3/1 
f 50/51/1 56/62/1 36/4/1 
f 50/51/1 52/63/1 56/62/1 
f 52/63/1 54/64/1 56/62/1 
f 12/20/5 50/51/5 11/19/5 
f 50/51/5 12/20/5 35/3/5 
f 50/51/5 35/3/5 36/4/5 
f 50/51/5 36/4/5 56/62/5 
f 50/51/5 56/62/5 52/63/5 
f 52/63/5 56/62/5 54/64/5 
f 52/66/10 51/65/10 53/67/10 
f 53/67/10 54/68/10 52/66/10 
f 52/66/2 53/67/2 51/65/2 
f 53/67/2 52/66/2 54/68/2 
f 47/36/5 48/35/5 55/69/5 
f 55/69/5 32/42/5 47/36/5 
f 55/69/5 27/19/5 32/42/5 
f 55/69/5 49/51/5 27/19/5 
f 55/69/5 53/70/5 49/51/5 
f 53/70/5 51/71/5 49/51/5 
f 47/36/1 55/69/1 48/35/1 
f 55/69/1 47/36/1 32/42/1 
f 55/69/1 32/42/1 27/19/1 
f 55/69/1 27/19/1 49/51/1 
f 55/69/1 49/51/1 53/70/1 
f 53/70/1 49/51/1 51/71/1 
