# Created by Kenney (www.kenney.nl) 

mtllib tentClosedLong.mtl 

g tentClosedLong

v 0 0.52 0 
v 0 0.43 0 
v 0 0.52 1 
v 0 0.43 0.01999998 
v 0 0.43 0.9799999 
v 0 0.43 1 
v -0.02000001 0.43 1 
v -1.98 0.43 1 
v -2 0.43 1 
v -2 0.52 1 
v -2 0.52 0 
v -2 0.43 0 
v -1.98 0.43 0 
v -0.02000001 0.43 0 
v -2 0.43 0.01999998 
v -2 0.43 0.9799999 
v -0.02000001 0.43 0.01999998 
v -0.265 0.43 0.01999998 
v -1.735 0.43 0.01999998 
v -1.98 0.43 0.01999998 
v -1.98 0.43 0.9799999 
v -0.02000001 0.43 0.9799999 
v -0.4525 0.7 0.4525 
v -0.4525 0.7 0.5475 
v -1.5475 0.7 0.4525 
v -1.5475 0.7 0.5475 
v -0.02000001 0 0.01999998 
v -0.02000001 0 0.9799999 
v -1.98 0 0.01999998 
v -1.98 0 0.9799999 
v -1.735 0 0.01999998 
v -0.265 0 0.01999998 
v 0 0 0 
v 0 0 0.01999998 
v -0.02000001 0 0 
v -2 0 0 
v -2 0 0.01999998 
v -1.98 0 0 
v -1.98 0 1 
v -2 0 1 
v -2 0 0.9799999 
v 0 0 0.9799999 
v 0 0 1 
v -0.02000001 0 1 

vn 1 0 0 
vn 0 0 1 
vn 0 1 0 
vn 0 0 -1 
vn -1 0 0 
vn 0 -1 0 
vn 0 0.9291831 0.3696198 
vn 0 0.9291831 -0.3696198 
vn -0.3696198 0.9291831 0 
vn 0.3696198 0.9291831 0 

vt 0 20.47244 
vt 0 16.92913 
vt -39.37008 20.47244 
vt -0.7874016 16.92913 
vt -38.58268 16.92913 
vt -39.37008 16.92913 
vt -77.95276 16.92913 
vt -78.74016 16.92913 
vt -78.74016 20.47244 
vt 0 0 
vt 0 39.37008 
vt 78.74016 0 
vt 78.74016 39.37008 
vt 78.74016 16.92913 
vt 77.95276 16.92913 
vt 78.74016 20.47244 
vt 0.7874016 16.92913 
vt 39.37008 20.47244 
vt 38.58268 16.92913 
vt 39.37008 16.92913 
vt -0.7874016 0.7874016 
vt -0.7874016 0 
vt -10.43307 0.7874016 
vt -77.95276 0 
vt -68.30708 0.7874016 
vt -77.95276 0.7874016 
vt -77.95276 38.58268 
vt -0.7874016 38.58268 
vt 0 0.7874016 
vt 0 38.58268 
vt -78.74016 38.58268 
vt -78.74016 0.7874016 
vt -77.95276 39.37008 
vt -0.7874016 39.37008 
vt 17.81496 17.81496 
vt 17.81496 21.55512 
vt 60.9252 17.81496 
vt 60.9252 21.55512 
vt 0 -29.01499 
vt -78.74016 -29.01499 
vt -17.81496 -9.842279 
vt -60.9252 -9.842279 
vt 0 7.567019 
vt 17.81496 26.73973 
vt 78.74016 7.567019 
vt 60.9252 26.73973 
vt 17.81496 -46.42429 
vt 21.55512 -46.42429 
vt 1.384951E-15 -65.597 
vt 39.37008 -65.597 
vt 6.162976E-33 7.567019 
vt -39.37008 7.567019 
vt -17.81496 26.73973 
vt -21.55512 26.73973 
vt -38.58268 0 
vt 0.7874016 0 
vt 38.58268 0 
vt 77.95276 0 
vt 68.30708 0 
vt 68.30708 16.92913 
vt 10.43307 0 
vt 10.43307 16.92913 
vt -78.74016 0 
vt -39.37008 0 
vt -78.74016 39.37008 
vt 39.37008 0 

usemtl grass

f 2/2/1 1/1/1 3/3/1 
f 3/3/1 4/4/1 2/2/1 
f 3/3/1 5/5/1 4/4/1 
f 3/3/1 6/6/1 5/5/1 
f 7/4/2 6/2/2 3/1/2 
f 3/1/2 8/7/2 7/4/2 
f 3/1/2 9/8/2 8/7/2 
f 3/1/2 10/9/2 9/8/2 
f 3/11/3 1/10/3 11/12/3 
f 11/12/3 10/13/3 3/11/3 
f 13/15/4 12/14/4 11/16/4 
f 11/16/4 14/17/4 13/15/4 
f 11/16/4 2/2/4 14/17/4 
f 11/16/4 1/1/4 2/2/4 
f 11/1/5 12/2/5 15/17/5 
f 15/17/5 10/18/5 11/1/5 
f 15/17/5 16/19/5 10/18/5 
f 16/19/5 9/20/5 10/18/5 
f 14/22/6 17/21/6 18/23/6 
f 18/23/6 13/24/6 14/22/6 
f 18/23/6 19/25/6 13/24/6 
f 19/25/6 20/26/6 13/24/6 
f 21/27/6 18/23/6 17/21/6 
f 21/27/6 19/25/6 18/23/6 
f 21/27/6 20/26/6 19/25/6 
f 17/21/6 22/28/6 21/27/6 
f 22/28/6 17/21/6 4/29/6 
f 4/29/6 5/30/6 22/28/6 
f 20/26/6 21/27/6 16/31/6 
f 16/31/6 15/32/6 20/26/6 
f 8/33/6 21/27/6 22/28/6 
f 22/28/6 7/34/6 8/33/6 
f 24/36/3 23/35/3 25/37/3 
f 25/37/3 26/38/3 24/36/3 
f 10/40/7 3/39/7 24/41/7 
f 24/41/7 26/42/7 10/40/7 
f 23/44/8 1/43/8 11/45/8 
f 11/45/8 25/46/8 23/44/8 
f 26/48/9 25/47/9 11/49/9 
f 11/49/9 10/50/9 26/48/9 
f 3/52/10 1/51/10 23/53/10 
f 23/53/10 24/54/10 3/52/10 
f 27/22/1 17/4/1 22/5/1 
f 22/5/1 28/55/1 27/22/1 
f 27/22/5 22/5/5 17/4/5 
f 22/5/5 27/22/5 28/55/5 
f 20/17/5 29/56/5 30/57/5 
f 30/57/5 21/19/5 20/17/5 
f 20/17/1 30/57/1 29/56/1 
f 30/57/1 20/17/1 21/19/1 
f 30/24/2 28/22/2 22/4/2 
f 22/4/2 21/7/2 30/24/2 
f 30/24/4 22/4/4 28/22/4 
f 22/4/4 30/24/4 21/7/4 
f 31/59/4 29/58/4 20/15/4 
f 20/15/4 19/60/4 31/59/4 
f 31/59/2 20/15/2 29/58/2 
f 20/15/2 31/59/2 19/60/2 
f 27/56/4 32/61/4 18/62/4 
f 18/62/4 17/17/4 27/56/4 
f 27/56/2 18/62/2 32/61/2 
f 18/62/2 27/56/2 17/17/2 

usemtl grey

f 33/10/1 2/2/1 4/4/1 
f 4/4/1 34/22/1 33/10/1 
f 33/10/6 34/29/6 27/21/6 
f 27/21/6 35/22/6 33/10/6 
f 27/22/2 34/10/2 4/2/2 
f 4/2/2 17/4/2 27/22/2 
f 2/10/6 4/29/6 17/21/6 
f 17/21/6 14/22/6 2/10/6 
f 14/2/5 35/10/5 27/56/5 
f 27/56/5 17/17/5 14/2/5 
f 33/10/4 35/56/4 14/17/4 
f 14/17/4 2/2/4 33/10/4 
f 12/2/5 36/10/5 37/56/5 
f 37/56/5 15/17/5 12/2/5 
f 37/63/2 29/24/2 20/7/2 
f 20/7/2 15/8/2 37/63/2 
f 38/58/4 36/12/4 12/14/4 
f 12/14/4 13/15/4 38/58/4 
f 38/24/6 29/26/6 37/32/6 
f 37/32/6 36/63/6 38/24/6 
f 38/10/1 13/2/1 20/4/1 
f 20/4/1 29/22/1 38/10/1 
f 13/24/6 20/26/6 15/32/6 
f 15/32/6 12/63/6 13/24/6 
f 30/55/1 21/5/1 8/6/1 
f 8/6/1 39/64/1 30/55/1 
f 40/63/2 39/24/2 8/7/2 
f 8/7/2 9/8/2 40/63/2 
f 30/27/6 39/33/6 40/65/6 
f 40/65/6 41/31/6 30/27/6 
f 21/27/6 8/33/6 9/65/6 
f 9/65/6 16/31/6 21/27/6 
f 16/19/5 41/57/5 40/66/5 
f 40/66/5 9/20/5 16/19/5 
f 30/58/4 41/12/4 16/14/4 
f 16/14/4 21/15/4 30/58/4 
f 42/10/4 28/56/4 22/17/4 
f 22/17/4 5/2/4 42/10/4 
f 5/30/6 6/11/6 7/34/6 
f 7/34/6 22/28/6 5/30/6 
f 44/22/2 43/10/2 6/2/2 
f 6/2/2 7/4/2 44/22/2 
f 22/19/5 28/57/5 44/66/5 
f 44/66/5 7/20/5 22/19/5 
f 42/30/6 43/11/6 44/34/6 
f 44/34/6 28/28/6 42/30/6 
f 42/55/1 5/5/1 6/6/1 
f 6/6/1 43/64/1 42/55/1 
g tentClosedLong




usemtl grass

f 2/2/1 1/1/1 3/3/1 
f 3/3/1 4/4/1 2/2/1 
f 3/3/1 5/5/1 4/4/1 
f 3/3/1 6/6/1 5/5/1 
f 7/4/2 6/2/2 3/1/2 
f 3/1/2 8/7/2 7/4/2 
f 3/1/2 9/8/2 8/7/2 
f 3/1/2 10/9/2 9/8/2 
f 3/11/3 1/10/3 11/12/3 
f 11/12/3 10/13/3 3/11/3 
f 13/15/4 12/14/4 11/16/4 
f 11/16/4 14/17/4 13/15/4 
f 11/16/4 2/2/4 14/17/4 
f 11/16/4 1/1/4 2/2/4 
f 11/1/5 12/2/5 15/17/5 
f 15/17/5 10/18/5 11/1/5 
f 15/17/5 16/19/5 10/18/5 
f 16/19/5 9/20/5 10/18/5 
f 14/22/6 17/21/6 18/23/6 
f 18/23/6 13/24/6 14/22/6 
f 18/23/6 19/25/6 13/24/6 
f 19/25/6 20/26/6 13/24/6 
f 21/27/6 18/23/6 17/21/6 
f 21/27/6 19/25/6 18/23/6 
f 21/27/6 20/26/6 19/25/6 
f 17/21/6 22/28/6 21/27/6 
f 22/28/6 17/21/6 4/29/6 
f 4/29/6 5/30/6 22/28/6 
f 20/26/6 21/27/6 16/31/6 
f 16/31/6 15/32/6 20/26/6 
f 8/33/6 21/27/6 22/28/6 
f 22/28/6 7/34/6 8/33/6 
f 24/36/3 23/35/3 25/37/3 
f 25/37/3 26/38/3 24/36/3 
f 10/40/7 3/39/7 24/41/7 
f 24/41/7 26/42/7 10/40/7 
f 23/44/8 1/43/8 11/45/8 
f 11/45/8 25/46/8 23/44/8 
f 26/48/9 25/47/9 11/49/9 
f 11/49/9 10/50/9 26/48/9 
f 3/52/10 1/51/10 23/53/10 
f 23/53/10 24/54/10 3/52/10 
f 27/22/1 17/4/1 22/5/1 
f 22/5/1 28/55/1 27/22/1 
f 27/22/5 22/5/5 17/4/5 
f 22/5/5 27/22/5 28/55/5 
f 20/17/5 29/56/5 30/57/5 
f 30/57/5 21/19/5 20/17/5 
f 20/17/1 30/57/1 29/56/1 
f 30/57/1 20/17/1 21/19/1 
f 30/24/2 28/22/2 22/4/2 
f 22/4/2 21/7/2 30/24/2 
f 30/24/4 22/4/4 28/22/4 
f 22/4/4 30/24/4 21/7/4 
f 31/59/4 29/58/4 20/15/4 
f 20/15/4 19/60/4 31/59/4 
f 31/59/2 20/15/2 29/58/2 
f 20/15/2 31/59/2 19/60/2 
f 27/56/4 32/61/4 18/62/4 
f 18/62/4 17/17/4 27/56/4 
f 27/56/2 18/62/2 32/61/2 
f 18/62/2 27/56/2 17/17/2 

usemtl grey

f 33/10/1 2/2/1 4/4/1 
f 4/4/1 34/22/1 33/10/1 
f 33/10/6 34/29/6 27/21/6 
f 27/21/6 35/22/6 33/10/6 
f 27/22/2 34/10/2 4/2/2 
f 4/2/2 17/4/2 27/22/2 
f 2/10/6 4/29/6 17/21/6 
f 17/21/6 14/22/6 2/10/6 
f 14/2/5 35/10/5 27/56/5 
f 27/56/5 17/17/5 14/2/5 
f 33/10/4 35/56/4 14/17/4 
f 14/17/4 2/2/4 33/10/4 
f 12/2/5 36/10/5 37/56/5 
f 37/56/5 15/17/5 12/2/5 
f 37/63/2 29/24/2 20/7/2 
f 20/7/2 15/8/2 37/63/2 
f 38/58/4 36/12/4 12/14/4 
f 12/14/4 13/15/4 38/58/4 
f 38/24/6 29/26/6 37/32/6 
f 37/32/6 36/63/6 38/24/6 
f 38/10/1 13/2/1 20/4/1 
f 20/4/1 29/22/1 38/10/1 
f 13/24/6 20/26/6 15/32/6 
f 15/32/6 12/63/6 13/24/6 
f 30/55/1 21/5/1 8/6/1 
f 8/6/1 39/64/1 30/55/1 
f 40/63/2 39/24/2 8/7/2 
f 8/7/2 9/8/2 40/63/2 
f 30/27/6 39/33/6 40/65/6 
f 40/65/6 41/31/6 30/27/6 
f 21/27/6 8/33/6 9/65/6 
f 9/65/6 16/31/6 21/27/6 
f 16/19/5 41/57/5 40/66/5 
f 40/66/5 9/20/5 16/19/5 
f 30/58/4 41/12/4 16/14/4 
f 16/14/4 21/15/4 30/58/4 
f 42/10/4 28/56/4 22/17/4 
f 22/17/4 5/2/4 42/10/4 
f 5/30/6 6/11/6 7/34/6 
f 7/34/6 22/28/6 5/30/6 
f 44/22/2 43/10/2 6/2/2 
f 6/2/2 7/4/2 44/22/2 
f 22/19/5 28/57/5 44/66/5 
f 44/66/5 7/20/5 22/19/5 
f 42/30/6 43/11/6 44/34/6 
f 44/34/6 28/28/6 42/30/6 
f 42/55/1 5/5/1 6/6/1 
f 6/6/1 43/64/1 42/55/1 
