# Created by Kenney (www.kenney.nl) 

mtllib tentLong.mtl 

g tentLong

v 0 0.52 0 
v 0 0.43 0 
v 0 0.52 1 
v 0 0.43 0.01999998 
v 0 0.43 0.9799999 
v 0 0.43 1 
v -0.02000001 0.43 1 
v -1.98 0.43 1 
v -2 0.43 1 
v -2 0.52 1 
v -2 0.52 0 
v -2 0.43 0 
v -1.98 0.43 0 
v -0.02000001 0.43 0 
v -2 0.43 0.01999998 
v -2 0.43 0.9799999 
v -1.98 0.43 0.9799999 
v -1.98 0.43 0.01999998 
v -0.02000001 0.43 0.01999998 
v -0.02000001 0.43 0.9799999 
v -0.4525 0.7 0.4525 
v -0.4525 0.7 0.5475 
v -1.5475 0.7 0.4525 
v -1.5475 0.7 0.5475 
v 0 0 0 
v 0 0 0.01999998 
v -0.02000001 0 0.01999998 
v -0.02000001 0 0 
v -2 0 0 
v -2 0 0.01999998 
v -1.98 0 0.01999998 
v -1.98 0 0 
v -1.98 0 0.9799999 
v -1.98 0 1 
v -2 0 1 
v -2 0 0.9799999 
v -0.02000001 0 0.9799999 
v 0 0 0.9799999 
v 0 0 1 
v -0.02000001 0 1 

vn 1 0 0 
vn 0 0 1 
vn 0 1 0 
vn 0 0 -1 
vn -1 0 0 
vn 0 -1 0 
vn 0 0.9291831 0.3696198 
vn 0 0.9291831 -0.3696198 
vn -0.3696198 0.9291831 0 
vn 0.3696198 0.9291831 0 

vt 0 20.47244 
vt 0 16.92913 
vt -39.37008 20.47244 
vt -0.7874016 16.92913 
vt -38.58268 16.92913 
vt -39.37008 16.92913 
vt -77.95276 16.92913 
vt -78.74016 16.92913 
vt -78.74016 20.47244 
vt 0 0 
vt 0 39.37008 
vt 78.74016 0 
vt 78.74016 39.37008 
vt 78.74016 16.92913 
vt 77.95276 16.92913 
vt 78.74016 20.47244 
vt 0.7874016 16.92913 
vt 39.37008 20.47244 
vt 38.58268 16.92913 
vt 39.37008 16.92913 
vt -77.95276 38.58268 
vt -77.95276 0.7874016 
vt -78.74016 38.58268 
vt -78.74016 0.7874016 
vt -77.95276 0 
vt -77.95276 39.37008 
vt -0.7874016 0 
vt -0.7874016 0.7874016 
vt -0.7874016 38.58268 
vt -0.7874016 39.37008 
vt 0 0.7874016 
vt 0 38.58268 
vt 17.81496 17.81496 
vt 17.81496 21.55512 
vt 60.9252 17.81496 
vt 60.9252 21.55512 
vt 0 -29.01499 
vt -78.74016 -29.01499 
vt -17.81496 -9.842279 
vt -60.9252 -9.842279 
vt 0 7.567019 
vt 17.81496 26.73973 
vt 78.74016 7.567019 
vt 60.9252 26.73973 
vt 17.81496 -46.42429 
vt 21.55512 -46.42429 
vt 1.384951E-15 -65.597 
vt 39.37008 -65.597 
vt 6.162976E-33 7.567019 
vt -39.37008 7.567019 
vt -17.81496 26.73973 
vt -21.55512 26.73973 
vt 0.7874016 0 
vt -78.74016 0 
vt 77.95276 0 
vt -38.58268 0 
vt -39.37008 0 
vt -78.74016 39.37008 
vt 38.58268 0 
vt 39.37008 0 

usemtl red

f 2/2/1 1/1/1 3/3/1 
f 3/3/1 4/4/1 2/2/1 
f 3/3/1 5/5/1 4/4/1 
f 3/3/1 6/6/1 5/5/1 
f 7/4/2 6/2/2 3/1/2 
f 3/1/2 8/7/2 7/4/2 
f 3/1/2 9/8/2 8/7/2 
f 3/1/2 10/9/2 9/8/2 
f 3/11/3 1/10/3 11/12/3 
f 11/12/3 10/13/3 3/11/3 
f 13/15/4 12/14/4 11/16/4 
f 11/16/4 14/17/4 13/15/4 
f 11/16/4 2/2/4 14/17/4 
f 11/16/4 1/1/4 2/2/4 
f 11/1/5 12/2/5 15/17/5 
f 15/17/5 10/18/5 11/1/5 
f 15/17/5 16/19/5 10/18/5 
f 16/19/5 9/20/5 10/18/5 
f 18/22/6 17/21/6 16/23/6 
f 16/23/6 15/24/6 18/22/6 
f 17/21/6 18/22/6 13/25/6 
f 8/26/6 17/21/6 13/25/6 
f 8/26/6 13/25/6 14/27/6 
f 8/26/6 14/27/6 19/28/6 
f 8/26/6 19/28/6 20/29/6 
f 20/29/6 7/30/6 8/26/6 
f 20/29/6 19/28/6 4/31/6 
f 4/31/6 5/32/6 20/29/6 
f 22/34/3 21/33/3 23/35/3 
f 23/35/3 24/36/3 22/34/3 
f 10/38/7 3/37/7 22/39/7 
f 22/39/7 24/40/7 10/38/7 
f 21/42/8 1/41/8 11/43/8 
f 11/43/8 23/44/8 21/42/8 
f 24/46/9 23/45/9 11/47/9 
f 11/47/9 10/48/9 24/46/9 
f 3/50/10 1/49/10 21/51/10 
f 21/51/10 22/52/10 3/50/10 

usemtl grey

f 25/10/1 2/2/1 4/4/1 
f 4/4/1 26/27/1 25/10/1 
f 25/10/6 26/31/6 27/28/6 
f 27/28/6 28/27/6 25/10/6 
f 27/27/2 26/10/2 4/2/2 
f 4/2/2 19/4/2 27/27/2 
f 2/10/6 4/31/6 19/28/6 
f 19/28/6 14/27/6 2/10/6 
f 14/2/5 28/10/5 27/53/5 
f 27/53/5 19/17/5 14/2/5 
f 25/10/4 28/53/4 14/17/4 
f 14/17/4 2/2/4 25/10/4 
f 12/2/5 29/10/5 30/53/5 
f 30/53/5 15/17/5 12/2/5 
f 30/54/2 31/25/2 18/7/2 
f 18/7/2 15/8/2 30/54/2 
f 32/55/4 29/12/4 12/14/4 
f 12/14/4 13/15/4 32/55/4 
f 32/25/6 31/22/6 30/24/6 
f 30/24/6 29/54/6 32/25/6 
f 32/10/1 13/2/1 18/4/1 
f 18/4/1 31/27/1 32/10/1 
f 13/25/6 18/22/6 15/24/6 
f 15/24/6 12/54/6 13/25/6 
f 33/56/1 17/5/1 8/6/1 
f 8/6/1 34/57/1 33/56/1 
f 35/54/2 34/25/2 8/7/2 
f 8/7/2 9/8/2 35/54/2 
f 33/21/6 34/26/6 35/58/6 
f 35/58/6 36/23/6 33/21/6 
f 17/21/6 8/26/6 9/58/6 
f 9/58/6 16/23/6 17/21/6 
f 16/19/5 36/59/5 35/60/5 
f 35/60/5 9/20/5 16/19/5 
f 33/55/4 36/12/4 16/14/4 
f 16/14/4 17/15/4 33/55/4 
f 38/10/4 37/53/4 20/17/4 
f 20/17/4 5/2/4 38/10/4 
f 5/32/6 6/11/6 7/30/6 
f 7/30/6 20/29/6 5/32/6 
f 40/27/2 39/10/2 6/2/2 
f 6/2/2 7/4/2 40/27/2 
f 20/19/5 37/59/5 40/60/5 
f 40/60/5 7/20/5 20/19/5 
f 38/32/6 39/11/6 40/30/6 
f 40/30/6 37/29/6 38/32/6 
f 38/56/1 5/5/1 6/6/1 
f 6/6/1 39/57/1 38/56/1 
g tentLong




usemtl red

f 2/2/1 1/1/1 3/3/1 
f 3/3/1 4/4/1 2/2/1 
f 3/3/1 5/5/1 4/4/1 
f 3/3/1 6/6/1 5/5/1 
f 7/4/2 6/2/2 3/1/2 
f 3/1/2 8/7/2 7/4/2 
f 3/1/2 9/8/2 8/7/2 
f 3/1/2 10/9/2 9/8/2 
f 3/11/3 1/10/3 11/12/3 
f 11/12/3 10/13/3 3/11/3 
f 13/15/4 12/14/4 11/16/4 
f 11/16/4 14/17/4 13/15/4 
f 11/16/4 2/2/4 14/17/4 
f 11/16/4 1/1/4 2/2/4 
f 11/1/5 12/2/5 15/17/5 
f 15/17/5 10/18/5 11/1/5 
f 15/17/5 16/19/5 10/18/5 
f 16/19/5 9/20/5 10/18/5 
f 18/22/6 17/21/6 16/23/6 
f 16/23/6 15/24/6 18/22/6 
f 17/21/6 18/22/6 13/25/6 
f 8/26/6 17/21/6 13/25/6 
f 8/26/6 13/25/6 14/27/6 
f 8/26/6 14/27/6 19/28/6 
f 8/26/6 19/28/6 20/29/6 
f 20/29/6 7/30/6 8/26/6 
f 20/29/6 19/28/6 4/31/6 
f 4/31/6 5/32/6 20/29/6 
f 22/34/3 21/33/3 23/35/3 
f 23/35/3 24/36/3 22/34/3 
f 10/38/7 3/37/7 22/39/7 
f 22/39/7 24/40/7 10/38/7 
f 21/42/8 1/41/8 11/43/8 
f 11/43/8 23/44/8 21/42/8 
f 24/46/9 23/45/9 11/47/9 
f 11/47/9 10/48/9 24/46/9 
f 3/50/10 1/49/10 21/51/10 
f 21/51/10 22/52/10 3/50/10 

usemtl grey

f 25/10/1 2/2/1 4/4/1 
f 4/4/1 26/27/1 25/10/1 
f 25/10/6 26/31/6 27/28/6 
f 27/28/6 28/27/6 25/10/6 
f 27/27/2 26/10/2 4/2/2 
f 4/2/2 19/4/2 27/27/2 
f 2/10/6 4/31/6 19/28/6 
f 19/28/6 14/27/6 2/10/6 
f 14/2/5 28/10/5 27/53/5 
f 27/53/5 19/17/5 14/2/5 
f 25/10/4 28/53/4 14/17/4 
f 14/17/4 2/2/4 25/10/4 
f 12/2/5 29/10/5 30/53/5 
f 30/53/5 15/17/5 12/2/5 
f 30/54/2 31/25/2 18/7/2 
f 18/7/2 15/8/2 30/54/2 
f 32/55/4 29/12/4 12/14/4 
f 12/14/4 13/15/4 32/55/4 
f 32/25/6 31/22/6 30/24/6 
f 30/24/6 29/54/6 32/25/6 
f 32/10/1 13/2/1 18/4/1 
f 18/4/1 31/27/1 32/10/1 
f 13/25/6 18/22/6 15/24/6 
f 15/24/6 12/54/6 13/25/6 
f 33/56/1 17/5/1 8/6/1 
f 8/6/1 34/57/1 33/56/1 
f 35/54/2 34/25/2 8/7/2 
f 8/7/2 9/8/2 35/54/2 
f 33/21/6 34/26/6 35/58/6 
f 35/58/6 36/23/6 33/21/6 
f 17/21/6 8/26/6 9/58/6 
f 9/58/6 16/23/6 17/21/6 
f 16/19/5 36/59/5 35/60/5 
f 35/60/5 9/20/5 16/19/5 
f 33/55/4 36/12/4 16/14/4 
f 16/14/4 17/15/4 33/55/4 
f 38/10/4 37/53/4 20/17/4 
f 20/17/4 5/2/4 38/10/4 
f 5/32/6 6/11/6 7/30/6 
f 7/30/6 20/29/6 5/32/6 
f 40/27/2 39/10/2 6/2/2 
f 6/2/2 7/4/2 40/27/2 
f 20/19/5 37/59/5 40/60/5 
f 40/60/5 7/20/5 20/19/5 
f 38/32/6 39/11/6 40/30/6 
f 40/30/6 37/29/6 38/32/6 
f 38/56/1 5/5/1 6/6/1 
f 6/6/1 39/57/1 38/56/1 
