# Created by Kenney (www.kenney.nl) 

mtllib treeSmall.mtl 

g treeSmall

v 0.07678458 0.2138869 0.04433161 
v 0 0.2138869 0.08866316 
v 0.1266455 0.4208455 0.07311881 
v 0 0.4208455 0.1462377 
v -0.1266455 0.4208455 -0.07311881 
v 0 0.4208455 -0.1462377 
v -0.06905514 1.020547 -0.03986901 
v 0 1.020547 -0.07973802 
v 0 0.1838172 -0.05319792 
v 0 0.2138869 -0.08866316 
v -0.04607072 0.1838172 -0.02659893 
v -0.07678458 0.2138869 -0.04433161 
v -0.07678458 0.2138869 0.04433161 
v -0.1266455 0.4208455 0.07311881 
v 0.06905514 1.020547 0.03986901 
v 0 1.020547 0.07973802 
v 0.07678458 0.2138869 -0.04433161 
v 0.1266455 0.4208455 -0.07311881 
v 0.04607072 0.1838172 0.02659893 
v 0.04607072 0.1838172 -0.02659893 
v 0 0.1838172 0.05319792 
v 0.01879221 0.1838172 0.01879221 
v -0.01879221 0.1838172 0.01879221 
v -0.04607072 0.1838172 0.02659893 
v -0.01879221 0.1838172 -0.01879221 
v 0.01879221 0.1838172 -0.01879221 
v -0.06905514 1.020547 0.03986901 
v -0.03699973 1.069825 -0.02136183 
v -0.03699973 1.069825 0.02136183 
v 0.06905514 1.020547 -0.03986901 
v 0.03699973 1.069825 -0.02136183 
v 0.03699973 1.069825 0.02136183 
v 0 1.069825 -0.04272366 
v 0 1.069825 0.04272366 
v 0.02959406 0 0.02959406 
v 0.02959406 0 -0.02959406 
v -0.02959406 0 0.02959406 
v -0.02959406 0 -0.02959406 

vn 0.4860917 -0.2342208 0.8419356 
vn -0.4977103 0.09559202 -0.8620595 
vn -0.3497876 -0.714559 -0.6058499 
vn -0.4860917 -0.2342208 0.8419356 
vn 0.4977103 0.09559202 0.8620595 
vn 0.4860917 -0.2342208 -0.8419356 
vn 0 -1 0 
vn -0.3497876 -0.714559 0.6058499 
vn -0.9954205 0.09559201 0 
vn -0.8382508 0.5452849 0 
vn 0.8382508 0.5452849 0 
vn 0 1 0 
vn 0.4191254 0.5452849 0.7259465 
vn -0.4191254 0.5452849 0.7259465 
vn 0.3497876 -0.714559 0.6058499 
vn 0.3497876 -0.714559 -0.6058499 
vn -0.4977103 0.09559202 0.8620595 
vn 0.9954205 0.09559201 0 
vn 0.4977103 0.09559202 -0.8620595 
vn -0.4860917 -0.2342208 -0.8419356 
vn -0.6995752 -0.714559 0 
vn 0.9721834 -0.2342208 0 
vn -0.4191254 0.5452849 -0.7259465 
vn 0.4191254 0.5452849 -0.7259465 
vn 0.6995752 -0.714559 0 
vn -0.9721834 -0.2342208 0 
vn 0 0.05866278 -0.9982778 
vn 0 0.05866278 0.9982778 
vn 0.9982778 0.05866278 0 
vn -0.9982778 0.05866278 0 

vt 1.745338 8.894563 
vt -1.745338 8.894563 
vt 2.878694 17.27567 
vt -2.878694 17.27567 
vt 2.878694 16.01622 
vt -2.878694 16.01622 
vt 1.569646 39.73513 
vt -1.569646 39.73513 
vt -1.047203 6.358827 
vt -1.745338 8.051067 
vt 1.047203 6.358827 
vt 1.745338 8.051067 
vt 1.813809 1.047203 
vt 1.813809 -1.047203 
vt -2.842171E-14 2.094406 
vt 0.7398513 0.7398513 
vt -0.7398513 0.7398513 
vt -1.813809 1.047203 
vt -0.7398513 -0.7398513 
vt 0.7398513 -0.7398513 
vt -2.842171E-14 -2.094406 
vt -1.813809 -1.047203 
vt -1.569646 32.19762 
vt -0.8410162 34.51205 
vt 1.569646 32.19762 
vt 0.8410162 34.51205 
vt -1.456683 -0.8410162 
vt -1.456683 0.8410162 
vt -2.842171E-14 -1.682032 
vt -2.842171E-14 1.682032 
vt 1.456683 -0.8410162 
vt 1.456683 0.8410162 
vt 1.16512 1.16512 
vt 1.16512 -1.16512 
vt -1.16512 1.16512 
vt -1.16512 -1.16512 
vt 1.16512 -0.06834919 
vt -1.16512 -0.06834919 
vt 0.7398513 7.181032 
vt -0.7398513 7.181032 

usemtl grass

f 2/2/1 1/1/1 3/3/1 
f 3/3/1 4/4/1 2/2/1 
f 6/6/2 5/5/2 7/7/2 
f 7/7/2 8/8/2 6/6/2 
f 10/10/3 9/9/3 11/11/3 
f 11/11/3 12/12/3 10/10/3 
f 13/2/4 2/1/4 4/3/4 
f 4/3/4 14/4/4 13/2/4 
f 4/6/5 3/5/5 15/7/5 
f 15/7/5 16/8/5 4/6/5 
f 17/2/6 10/1/6 6/3/6 
f 6/3/6 18/4/6 17/2/6 
f 20/14/7 19/13/7 21/15/7 
f 21/15/7 22/16/7 20/14/7 
f 21/15/7 23/17/7 22/16/7 
f 21/15/7 24/18/7 23/17/7 
f 24/18/7 25/19/7 23/17/7 
f 20/14/7 22/16/7 26/20/7 
f 26/20/7 9/21/7 20/14/7 
f 26/20/7 25/19/7 9/21/7 
f 25/19/7 11/22/7 9/21/7 
f 25/19/7 24/18/7 11/22/7 
f 21/11/8 2/12/8 13/10/8 
f 13/10/8 24/9/8 21/11/8 
f 7/8/9 5/6/9 14/5/9 
f 14/5/9 27/7/9 7/8/9 
f 28/24/10 7/23/10 27/25/10 
f 27/25/10 29/26/10 28/24/10 
f 15/23/11 30/25/11 31/26/11 
f 31/26/11 32/24/11 15/23/11 
f 32/28/12 31/27/12 33/29/12 
f 33/29/12 34/30/12 32/28/12 
f 33/29/12 28/31/12 34/30/12 
f 28/31/12 29/32/12 34/30/12 
f 16/23/13 15/25/13 32/26/13 
f 32/26/13 34/24/13 16/23/13 
f 27/23/14 16/25/14 34/26/14 
f 34/26/14 29/24/14 27/23/14 
f 19/11/15 1/12/15 2/10/15 
f 2/10/15 21/9/15 19/11/15 
f 10/12/16 17/10/16 20/9/16 
f 20/9/16 9/11/16 10/12/16 
f 14/6/17 4/5/17 16/7/17 
f 16/7/17 27/8/17 14/6/17 
f 3/6/18 18/5/18 30/7/18 
f 30/7/18 15/8/18 3/6/18 
f 18/6/19 6/5/19 8/7/19 
f 8/7/19 30/8/19 18/6/19 
f 10/2/20 12/1/20 5/3/20 
f 5/3/20 6/4/20 10/2/20 
f 11/9/21 24/11/21 13/12/21 
f 13/12/21 12/10/21 11/9/21 
f 17/1/22 18/3/22 3/4/22 
f 3/4/22 1/2/22 17/1/22 
f 8/23/23 7/25/23 28/26/23 
f 28/26/23 33/24/23 8/23/23 
f 36/34/7 35/33/7 37/35/7 
f 37/35/7 38/36/7 36/34/7 
f 30/23/24 8/25/24 33/26/24 
f 33/26/24 31/24/24 30/23/24 
f 17/12/25 1/10/25 19/9/25 
f 19/9/25 20/11/25 17/12/25 
f 14/3/26 5/4/26 12/2/26 
f 12/2/26 13/1/26 14/3/26 

usemtl bark

f 36/38/27 38/37/27 25/39/27 
f 25/39/27 26/40/27 36/38/27 
f 37/38/28 35/37/28 22/39/28 
f 22/39/28 23/40/28 37/38/28 
f 35/38/29 36/37/29 26/39/29 
f 26/39/29 22/40/29 35/38/29 
f 25/40/30 38/38/30 37/37/30 
f 37/37/30 23/39/30 25/40/30 
g treeSmall




usemtl grass

f 2/2/1 1/1/1 3/3/1 
f 3/3/1 4/4/1 2/2/1 
f 6/6/2 5/5/2 7/7/2 
f 7/7/2 8/8/2 6/6/2 
f 10/10/3 9/9/3 11/11/3 
f 11/11/3 12/12/3 10/10/3 
f 13/2/4 2/1/4 4/3/4 
f 4/3/4 14/4/4 13/2/4 
f 4/6/5 3/5/5 15/7/5 
f 15/7/5 16/8/5 4/6/5 
f 17/2/6 10/1/6 6/3/6 
f 6/3/6 18/4/6 17/2/6 
f 20/14/7 19/13/7 21/15/7 
f 21/15/7 22/16/7 20/14/7 
f 21/15/7 23/17/7 22/16/7 
f 21/15/7 24/18/7 23/17/7 
f 24/18/7 25/19/7 23/17/7 
f 20/14/7 22/16/7 26/20/7 
f 26/20/7 9/21/7 20/14/7 
f 26/20/7 25/19/7 9/21/7 
f 25/19/7 11/22/7 9/21/7 
f 25/19/7 24/18/7 11/22/7 
f 21/11/8 2/12/8 13/10/8 
f 13/10/8 24/9/8 21/11/8 
f 7/8/9 5/6/9 14/5/9 
f 14/5/9 27/7/9 7/8/9 
f 28/24/10 7/23/10 27/25/10 
f 27/25/10 29/26/10 28/24/10 
f 15/23/11 30/25/11 31/26/11 
f 31/26/11 32/24/11 15/23/11 
f 32/28/12 31/27/12 33/29/12 
f 33/29/12 34/30/12 32/28/12 
f 33/29/12 28/31/12 34/30/12 
f 28/31/12 29/32/12 34/30/12 
f 16/23/13 15/25/13 32/26/13 
f 32/26/13 34/24/13 16/23/13 
f 27/23/14 16/25/14 34/26/14 
f 34/26/14 29/24/14 27/23/14 
f 19/11/15 1/12/15 2/10/15 
f 2/10/15 21/9/15 19/11/15 
f 10/12/16 17/10/16 20/9/16 
f 20/9/16 9/11/16 10/12/16 
f 14/6/17 4/5/17 16/7/17 
f 16/7/17 27/8/17 14/6/17 
f 3/6/18 18/5/18 30/7/18 
f 30/7/18 15/8/18 3/6/18 
f 18/6/19 6/5/19 8/7/19 
f 8/7/19 30/8/19 18/6/19 
f 10/2/20 12/1/20 5/3/20 
f 5/3/20 6/4/20 10/2/20 
f 11/9/21 24/11/21 13/12/21 
f 13/12/21 12/10/21 11/9/21 
f 17/1/22 18/3/22 3/4/22 
f 3/4/22 1/2/22 17/1/22 
f 8/23/23 7/25/23 28/26/23 
f 28/26/23 33/24/23 8/23/23 
f 36/34/7 35/33/7 37/35/7 
f 37/35/7 38/36/7 36/34/7 
f 30/23/24 8/25/24 33/26/24 
f 33/26/24 31/24/24 30/23/24 
f 17/12/25 1/10/25 19/9/25 
f 19/9/25 20/11/25 17/12/25 
f 14/3/26 5/4/26 12/2/26 
f 12/2/26 13/1/26 14/3/26 

usemtl bark

f 36/38/27 38/37/27 25/39/27 
f 25/39/27 26/40/27 36/38/27 
f 37/38/28 35/37/28 22/39/28 
f 22/39/28 23/40/28 37/38/28 
f 35/38/29 36/37/29 26/39/29 
f 26/39/29 22/40/29 35/38/29 
f 25/40/30 38/38/30 37/37/30 
f 37/37/30 23/39/30 25/40/30 
