<?xml version="1.0" encoding="utf-8"?>
<!-- Generator: Adobe Illustrator 16.0.0, SVG Export Plug-In . SVG Version: 6.00 Build 0)  -->
<!DOCTYPE svg PUBLIC "-//W3C//DTD SVG 1.1//EN" "http://www.w3.org/Graphics/SVG/1.1/DTD/svg11.dtd">
<svg version="1.1" id="Layer_2" xmlns="http://www.w3.org/2000/svg" xmlns:xlink="http://www.w3.org/1999/xlink" x="0px" y="0px"
	 width="864px" height="864px" viewBox="0 0 864 864" enable-background="new 0 0 864 864" xml:space="preserve">
<path fill-rule="evenodd" clip-rule="evenodd" d="M556.924,547.816c-81.818,46.592-93.182,139.773-96.59,145.455
	c-0.068,0.113-0.133,0.256-0.197,0.408V551.865c0-2.844-0.996-5.453-2.648-7.51c164.1-14.045,291.666-120.186,291.666-249.062
	c0-138.434-147.18-250.657-328.734-250.657c-181.556,0-328.735,112.223-328.735,250.657c0,128.568,126.958,234.511,290.494,248.96
	c-1.702,2.07-2.725,4.721-2.725,7.611v135.617c-5.524-22.031-23.068-98.783-94.862-139.666
	c-81.818-46.59-177.273,13.637-213.638,35.229c3.409,106.818,81.819,142.045,138.638,162.5c51.54,18.555,151.698,9.992,169.862,8.24
	v13.85c0,6.627,5.374,12.002,12.002,12.002h56.678c6.627,0,12.002-5.375,12.002-12.002v-14.039
	c11.008,1.119,117.932,11.338,171.787-8.051c56.818-20.455,135.229-55.682,138.637-162.5
	C734.197,561.453,638.742,501.227,556.924,547.816z"/>
<g>
	<path fill-rule="evenodd" clip-rule="evenodd" fill="#00A651" d="M454.086,759.004c0,6.098-4.568,11.041-10.203,11.041h-48.175
		c-5.634,0-10.201-4.943-10.201-11.041V560.496c0-6.098,4.567-11.041,10.201-11.041h48.175c5.635,0,10.203,4.943,10.203,11.041
		V759.004z"/>
	<path fill-rule="evenodd" clip-rule="evenodd" fill="#00A651" d="M211.594,733.857c-50.283-18.102-127.396-50.596-130.411-145.131
		c32.181-19.109,124.378-74.09,196.786-32.857c72.409,41.232,86.56,122.148,89.576,127.176c3.018,5.029,11.364,61.363,11.364,61.363
		S261.879,751.961,211.594,733.857z"/>
	<path fill-rule="evenodd" clip-rule="evenodd" fill="#00A651" d="M462.605,744.408c0,0,8.348-56.334,11.365-61.363
		c3.016-5.027,17.166-85.943,89.576-127.176c72.408-41.232,164.605,13.748,196.785,32.857
		c-3.016,94.535-80.127,127.029-130.41,145.131C579.637,751.961,462.605,744.408,462.605,744.408z"/>
</g>
<path fill-rule="evenodd" clip-rule="evenodd" fill="#ED1C24" d="M420.42,57.169c-172.478,0-312.298,106.612-312.298,238.124
	c0,131.512,139.821,238.125,312.298,238.125c172.476,0,312.298-106.613,312.298-238.125
	C732.719,163.781,592.896,57.169,420.42,57.169z M420.42,490.807c-141.614,0-256.414-87.535-256.414-195.513
	c0-107.979,114.8-195.513,256.414-195.513c141.611,0,256.412,87.534,256.412,195.513
	C676.832,403.271,562.031,490.807,420.42,490.807z"/>
<path fill-rule="evenodd" clip-rule="evenodd" fill="#FFF200" d="M420.42,109.557c-134.533,0-243.593,83.157-243.593,185.737
	c0,102.579,109.06,185.738,243.593,185.738c134.531,0,243.591-83.159,243.591-185.738
	C664.012,192.714,554.951,109.557,420.42,109.557z M420.42,412.601c-84.969,0-153.849-52.521-153.849-117.308
	s68.88-117.308,153.849-117.308c84.966,0,153.847,52.521,153.847,117.308S505.387,412.601,420.42,412.601z"/>
<path fill-rule="evenodd" clip-rule="evenodd" fill="#FFFFFF" d="M420.42,183.852c-80.72,0-146.156,49.894-146.156,111.442
	c0,61.547,65.436,111.442,146.156,111.442c80.718,0,146.154-49.895,146.154-111.442C566.574,233.746,501.139,183.852,420.42,183.852
	z M351.143,331.791c-22.342-0.254-19.277-24.813-19.277-55.422s-2.059-56.256,19.277-55.422
	c15.124,0.591,19.277,24.813,19.277,55.422S371.815,332.025,351.143,331.791z M490.869,331.791
	c-22.342-0.253-19.275-24.813-19.275-55.422s-2.061-56.256,19.275-55.422c15.125,0.591,19.277,24.813,19.277,55.422
	S511.543,332.025,490.869,331.791z"/>
</svg>
