mtllib materials.mtl
v 0.03263706 -0.3567705 -0.023996
v 0.02042168 -0.354336 -0.04049796
v 0.02212769 -0.3960354 -0.03415602
v -0.0001261234 -0.3517184 -0.04847613
v 0.002421498 -0.3939461 -0.04415694
v -0.02350062 -0.349619 -0.04579276
v -0.021146 -0.3923844 -0.04382634
v -0.04343873 -0.3486003 -0.03316689
v -0.04225999 -0.3917686 -0.03325295
v -0.05459791 -0.3489352 -0.01398158
v -0.05526298 -0.3922639 -0.01526982
v -0.0539881 -0.3505342 0.006622463
v -0.05667073 -0.3937376 0.005304486
v -0.04177278 -0.3529686 0.02312443
v -0.04610616 -0.3957947 0.02295709
v -0.02122498 -0.3555862 0.0311026
v -0.02640003 -0.397884 0.03295794
v 0.002149522 -0.3576857 0.02841923
v -0.002832532 -0.3994457 0.03262743
v 0.02208757 -0.3587044 0.01579335
v 0.01828146 -0.4000614 0.02205399
v 0.03324682 -0.3583694 -0.003391951
v 0.03128445 -0.3995661 0.004070848
v 0.008572161 0.2504901 0.02248433
v 0.03269225 -0.3980924 -0.01650348
v 0.002893627 0.2467604 0.02831292
v -0.005737364 0.2431021 0.02373895
v -0.004191339 0.2451524 0.01523989
v 0.005808115 0.2502774 0.01461414
v -0.0006791353 0.08025968 0.008491009
v 0.06302348 -0.3176718 0.1900172
v -0.03856885 -0.3153296 0.2019664
v 0.1450385 -0.3192862 0.12886
v 0.1855003 -0.3197403 0.0348818
v 0.1735671 -0.3189124 -0.06673604
v 0.1124366 -0.3170244 -0.148765
v 0.01848853 -0.314582 -0.1892257
v -0.08310384 -0.3122398 -0.1772765
v -0.1651188 -0.3106253 -0.1161192
v -0.2055806 -0.3101712 -0.02214104
v -0.1936475 -0.3109992 0.07947677
v -0.1325169 -0.3128872 0.1615059
v 0.002762794 0.1812851 0.01012218
v 0.1438465 -0.1700531 -0.08878091
v 0.1728243 -0.1708981 -0.002958357
v 0.07584155 -0.1688403 -0.1486124
v -0.01296848 -0.1675845 -0.166421
v -0.09878707 -0.1666223 -0.137435
v -0.1586192 -0.1662112 -0.06942108
v -0.1764328 -0.1664618 0.01939648
v -0.1474549 -0.1673067 0.105219
v -0.07945001 -0.1685195 0.1650505
v 0.009359956 -0.1697754 0.1828591
v 0.09517854 -0.1707376 0.1538731
v 0.1550107 -0.1711485 0.08585915
v 0.01471663 0.2502158 -0.001543969
v 0.04684329 -0.0536623 0.1497656
v -0.03204525 -0.05118608 0.1508989
v 0.1145778 -0.05638564 0.109325
v 0.1530087 -0.05862653 0.04041299
v 0.1518386 -0.05978429 -0.03850538
v 0.111381 -0.05954885 -0.106284
v 0.04247648 -0.05798328 -0.1447617
v -0.03641206 -0.05550706 -0.1436284
v -0.1041465 -0.05278373 -0.1031877
v -0.1425774 -0.05054295 -0.0342758
v -0.1414074 -0.04938519 0.04464257
v -0.1009497 -0.04962051 0.1124213
v -0.001695931 0.3029478 -0.001721472
v 0.1293934 0.03786325 -0.0497964
v 0.1397663 0.03963351 0.01875857
v 0.0861384 0.03536868 -0.1039563
v 0.02159148 0.03281808 -0.1292091
v -0.04695213 0.03089499 -0.1187882
v -0.1011261 0.03011477 -0.07548597
v -0.1264147 0.03068626 -0.01090521
v -0.1160418 0.03245652 0.05764973
v -0.07278675 0.03495109 0.1118096
v -0.008239865 0.03750169 0.1370624
v 0.06030372 0.03942478 0.1266415
v 0.1144778 0.040205 0.08333927
v 0.0152061 0.3487906 -0.001989603
v 0.08962366 0.1468375 -0.05433625
v 0.09991074 0.144136 -0.004174829
v 0.05566251 0.1507393 -0.09255546
v 0.007127225 0.154796 -0.1085917
v -0.04297721 0.1579204 -0.09814796
v -0.0812254 0.1592753 -0.06402278
v -0.09736878 0.1584978 -0.01535985
v -0.08708167 0.1557963 0.03480154
v -0.05312055 0.1518945 0.07302076
v -0.004585266 0.1478379 0.08905697
v 0.04551917 0.1447134 0.07861328
v 0.08376741 0.1433585 0.04448804
vn 0.7982263 -0.05852084 -0.5995083
vn 0.3527318 -0.07412767 -0.9327837
vn -0.1185141 -0.05212013 -0.9915835
vn -0.5354316 -0.01293635 -0.8444796
vn -0.8642807 0.02819836 -0.5022188
vn -0.9975564 0.06089627 0.03424843
vn -0.7957426 0.07817101 0.600569
vn -0.3513668 0.08389092 0.9324719
vn 0.1211849 0.08520144 0.9889666
vn 0.536217 0.07788335 0.8404794
vn 0.8629507 0.04997894 0.5028103
vn 0.9979914 -0.05364264 -0.0336983
vn 0.8642264 0.01364983 0.502918
vn -0.06699014 -0.9948671 -0.07584062
vn 0.5349862 -0.0005100013 0.8448607
vn 0.1140529 3.431247E-05 0.9934747
vn -0.3595685 0.02077595 0.9328874
vn -0.7994571 0.04771381 0.5988253
vn -0.9961608 0.07993907 0.03568478
vn -0.8610229 0.09760516 -0.499112
vn -0.52834 0.1036251 -0.8426855
vn -0.1075304 0.1048075 -0.9886621
vn 0.3706671 0.09319129 -0.9240786
vn 0.8067263 0.07295104 -0.586405
vn 0.9986128 0.04578812 -0.02600067
vn -0.4455099 0.8854124 0.1325362
vn 0.7136363 0.008139133 0.7004691
vn 0.9417714 0.05228321 -0.3321644
vn -0.4757681 0.02312244 0.8792668
vn -0.9833992 0.09115583 -0.1568969
vn 0.8495365 -0.0930177 -0.5192644
vn 0.9975027 0.01388969 0.06924948
vn 0.4394938 -0.1174583 -0.8905329
vn -0.020774 -0.102971 -0.9944674
vn -0.4483325 -0.06567538 -0.8914509
vn -0.8099031 -0.02094566 -0.5861897
vn -0.9976016 0.01730542 -0.0670201
vn -0.855547 0.03737045 0.5163748
vn -0.4486212 0.04190553 0.8927391
vn 0.01677788 0.0417668 0.9989865
vn 0.448323 0.03651527 0.8931255
vn 0.8100884 0.0141763 0.5861364
vn 0.1153174 0.4274839 0.8966379
vn 0.5482873 0.4181536 0.7242435
vn 0.8371041 0.4132757 0.3584133
vn 0.9043784 0.4141572 -0.1028282
vn 0.7320847 0.4205618 -0.5358917
vn 0.3663889 0.4307736 -0.8247384
vn -0.09472165 0.4420561 -0.8919721
vn -0.5276917 0.4513864 -0.7195777
vn -0.8165082 0.4562643 -0.3537476
vn -0.8837826 0.4553829 0.1074935
vn -0.7114888 0.4489782 0.5405574
vn -0.3457927 0.4387665 0.8294043
vn -0.02367883 -0.9997053 -0.005364151
vn 0.8587571 0.425289 -0.2857719
vn 0.6004379 0.4307697 -0.6737297
vn 0.1827523 0.4373452 -0.8805287
vn -0.282381 0.4432532 -0.8507571
vn -0.6703299 0.446911 -0.5923921
vn -0.8771439 0.4473383 -0.1746625
vn -0.8474073 0.4444206 0.2905016
vn -0.5890881 0.4389398 0.6784593
vn -0.1714026 0.4323644 0.8852583
vn 0.2937306 0.4264564 0.8554866
vn 0.6816797 0.4227986 0.5971216
vn 0.8884937 0.4223713 0.179392
vn -0.01304871 -0.9999001 -0.005437484
vn 0.02689621 0.4478454 0.8937064
vn 0.4750797 0.431952 0.766627
vn 0.7995963 0.4167779 0.4323679
vn 0.9134917 0.4063894 -0.01950599
vn 0.7862481 0.4035699 -0.4679158
vn 0.4519602 0.4090749 -0.7927104
vn 0.0002000543 0.4214292 -0.9068612
vn -0.4479835 0.4373229 -0.7797816
vn -0.7725 0.4524968 -0.4455228
vn -0.8863955 0.4628853 0.006351048
vn -0.7591518 0.4657049 0.4547611
vn -0.4248637 0.4601998 0.7795556
vn -0.03115248 -0.9994002 0.01512407
vn 0.8763211 0.4595566 -0.1444614
vn 0.6897599 0.4447199 -0.5713628
vn 0.3147376 0.4271689 -0.8476243
vn -0.1482591 0.4116062 -0.8992217
vn -0.5751701 0.4022017 -0.7123294
vn -0.8516052 0.4014754 -0.3370253
vn -0.903494 0.409622 0.1261289
vn -0.7169327 0.4244585 0.5530304
vn -0.3419105 0.4420096 0.8292917
vn 0.1210863 0.4575725 0.8808891
vn 0.5479974 0.4669769 0.6939967
vn 0.8244324 0.4677032 0.3186927
vn 0.03124049 -0.9992897 0.02107684
vn 0.9104852 0.378617 -0.1663307
vn 0.7022747 0.4096895 -0.5822069
vn 0.3140866 0.4471381 -0.8375065
vn -0.1500644 0.4809283 -0.8638222
vn -0.565809 0.502006 -0.6541026
vn -0.8217491 0.5047237 -0.2645421
vn -0.8493057 0.4883529 0.2004775
vn -0.6410951 0.4572803 0.6163536
vn -0.2529072 0.4198318 0.8716532
vn 0.2112437 0.3860416 0.8979688
vn 0.6269886 0.3649638 0.6882491
vn 0.8829285 0.3622462 0.2986889
vn -0.07033765 -0.9967504 -0.03925825
vt -0.1010555 0.05463392
vt -0.1029636 0.05383779
vt -0.1003807 0.05049885
vt -0.1184191 0.003287406
vt -0.1198748 0.001611675
vt -0.1161525 -0.0004443102
vt -0.1131876 -0.0003801499
vt -0.1144184 -0.002396299
vt -0.110486 -0.004104806
vt -0.1022618 0.01820862
vt -0.1033744 0.01612493
vt -0.09943695 0.01435141
vt -0.08041489 0.05487883
vt -0.08158299 0.05299132
vt -0.07788995 0.05072059
vt -0.01442969 0.1018759
vt -0.01613642 0.100709
vt -0.01385555 0.09702762
vt 0.102638 0.05390385
vt 0.100721 0.05467831
vt 0.09889323 0.05078114
vt 0.1200458 0.0006710059
vt 0.1185819 0.002339592
vt 0.1153192 -0.0004078317
vt 0.1147399 -0.002343768
vt 0.1134992 -0.000333667
vt 0.1099945 -0.002696169
vt 0.1054439 0.01642033
vt 0.1043583 0.01851827
vt 0.1008717 0.01617646
vt 0.08702609 0.05200257
vt 0.08595194 0.05394509
vt 0.08274244 0.05124951
vt 0.01627366 0.1010828
vt 0.01457431 0.1022604
vt 0.01483186 0.09714732
vt 0.08278795 0.05485414
vt 0.08390741 0.05293738
vt 0.1366982 0.08337726
vt -0.06234904 -0.03753968
vt -0.06439321 -0.03784937
vt -0.06607722 -0.03929549
vt -0.06694984 -0.04149056
vt -0.06677725 -0.04384639
vt -0.0656057 -0.04573177
vt -0.06374909 -0.04664148
vt -0.06170492 -0.04633179
vt -0.06002091 -0.04488567
vt -0.05914829 -0.04269061
vt -0.05932089 -0.04033477
vt -0.06049244 -0.0384494
vt 0.1004052 0.01816093
vt 0.101523 0.01607997
vt 0.1559263 0.04242063
vt 0.1109832 -0.003379551
vt 0.1121963 -0.005406397
vt 0.1653688 0.02299772
vt 0.1184015 -0.001757071
vt 0.1198092 -0.003473344
vt 0.168222 0.03148647
vt 0.1020958 0.05384139
vt 0.1039986 0.05303279
vt 0.1298292 0.1067267
vt -0.01383104 0.09988912
vt -0.01210598 0.1010287
vt -0.04435051 0.1510635
vt -0.07500409 0.05314225
vt -0.07376311 0.05498266
vt -0.1239857 0.08726184
vt -0.09605475 0.01412557
vt -0.09490374 0.01618832
vt -0.1490587 0.04159989
vt -0.1076033 -0.009503489
vt -0.1064351 -0.00745043
vt -0.1615409 0.01759945
vt -0.1614884 0.01647533
vt -0.1170123 -0.01192809
vt -0.1157286 -0.01011717
vt -0.168749 0.01949573
vt -0.1090498 0.04549275
vt -0.1072311 0.04647601
vt -0.1410335 0.09711759
vt 0.02827821 0.1041451
vt 0.02984852 0.1028002
vt 0.06717591 0.1509868
vt 0.0450306 0.03805741
vt 0.04467345 0.03723659
vt 0.04539552 0.03648387
vt 0.04614364 0.03696199
vt 0.045865 0.03805232
vt 0.1487718 0.05936546
vt 0.1487277 0.06025953
vt 0.09400722 0.03344309
vt -0.0495995 0.1006802
vt -0.04740464 0.1616316
vt -0.04823895 0.1616181
vt 0.1662558 0.0411322
vt 0.1659753 0.04213683
vt 0.1184897 0.004998821
vt -0.08237638 0.1306331
vt -0.08289057 0.1299093
vt -0.04150606 0.08712491
vt -0.0882615 0.06555025
vt -0.08625806 0.06606092
vt -0.08828318 0.06973995
vt 0.04014617 0.09679889
vt 0.03798745 0.09319662
vt 0.03944256 0.09172786
vt -0.1163867 0.006836823
vt -0.1148483 0.008437046
vt -0.1184072 0.01070736
vt -0.113769 -0.004214911
vt -0.1125294 -0.002204114
vt -0.1163981 -0.0004387676
vt -0.1049159 0.008802382
vt -0.1038638 0.01091727
vt -0.107801 0.01261473
vt -0.08737673 0.04133537
vt -0.08634086 0.04329856
vt -0.09015073 0.04533177
vt -0.03610092 0.09159178
vt -0.03459908 0.09301271
vt -0.03744134 0.09628627
vt 0.08891456 0.06534155
vt 0.09090513 0.06478284
vt 0.09224796 0.06890006
vt 0.1152934 0.001870965
vt 0.1167601 0.0002048651
vt 0.1199982 0.00304099
vt 0.110252 -0.005803652
vt 0.1114634 -0.007831556
vt 0.1149967 -0.005442256
vt 0.1011739 0.01061499
vt 0.1022334 0.008503779
vt 0.1057464 0.01085397
vt 0.08435889 0.04407664
vt 0.08540189 0.04211722
vt 0.08865122 0.04477854
vt 0.1528594 0.02334825
vt 0.1120803 0.006299505
vt 0.1170932 -0.002620368
vt 0.1545669 0.02394454
vt 0.1113215 0.0148107
vt 0.1145805 0.005111643
vt 0.1518912 0.03758109
vt 0.1078053 0.03441473
vt 0.1097146 0.02436251
vt 0.1454279 0.05646259
vt 0.1012328 0.05709003
vt 0.1022728 0.04691107
vt -0.144071 -0.0483299
vt -0.100943 -0.05800287
vt -0.09987439 -0.04782688
vt -0.1340597 -0.04197915
vt -0.0920653 -0.05576552
vt -0.09002052 -0.04573997
vt -0.1206927 -0.01490418
vt -0.08105169 -0.03445359
vt -0.0776187 -0.02481475
vt -0.09882452 0.02807384
vt -0.06374609 0.001183402
vt -0.05850286 0.009969825
vt -0.0585699 0.07799067
vt -0.03302617 0.04191976
vt -0.02541651 0.04875977
vt 0.01366048 0.1101418
vt 0.01994889 0.06639197
vt 0.02984018 0.06901019
vt 0.09622983 0.0893534
vt 0.07751971 0.04930938
vt 0.08722874 0.04608016
vt 0.1397207 0.04585576
vt 0.105387 0.01802072
vt 0.1127074 0.01087191
vt -0.03543333 -0.0529133
vt -0.03307718 -0.04295633
vt -0.03601517 -0.03315526
vt -0.04346008 -0.02613628
vt -0.05341705 -0.02378013
vt -0.06321811 -0.02671812
vt -0.07023709 -0.03416303
vt -0.07259325 -0.04412001
vt -0.06965525 -0.05392107
vt -0.06221034 -0.06094005
vt -0.05225338 -0.06329621
vt -0.04245231 -0.06035821
vt 0.1532746 0.05647799
vt 0.1142732 0.0596623
vt 0.1145861 0.05060904
vt -0.1479886 -0.04961523
vt -0.1098731 -0.05847269
vt -0.1088577 -0.0494711
vt -0.1378464 -0.03099786
vt -0.1011795 -0.04466503
vt -0.09901939 -0.03586768
vt -0.121903 0.005004612
vt -0.08792159 -0.01439936
vt -0.0843704 -0.006065787
vt -0.0937696 0.05427466
vt -0.06513898 0.02759998
vt -0.05977259 0.03489802
vt -0.03980974 0.103943
vt -0.02260637 0.0687963
vt -0.01498573 0.07369378
vt 0.04817827 0.1188209
vt 0.04462776 0.07985111
vt 0.05368356 0.0800789
vt 0.1233499 0.0796404
vt 0.09972709 0.04844402
vt 0.1075333 0.04384813
vt 0.1541954 0.03964859
vt 0.1206792 0.01945173
vt 0.1262213 0.01228623
vt 0.1624525 0.02504975
vt 0.1251019 0.01337995
vt 0.1287861 0.005104291
vt 0.1627239 0.02980741
vt 0.1239577 0.02447506
vt 0.1262226 0.01570408
vt 0.1597475 0.04251045
vt 0.1206171 0.0422645
vt 0.1217222 0.03327349
vt -0.04718579 -0.02525397
vt -0.05624229 -0.02505565
vt -0.06418461 -0.02941214
vt -0.0688846 -0.03715614
vt -0.06908293 -0.04621264
vt -0.06472643 -0.05415495
vt -0.05698244 -0.05885496
vt -0.04792594 -0.05905327
vt -0.03998362 -0.05469678
vt -0.03528363 -0.04695278
vt -0.0350853 -0.03789629
vt -0.0394418 -0.02995397
vt 0.1637514 0.03469153
vt 0.1330507 0.01985398
vt 0.1372851 0.01319226
vt 0.1686201 0.02846452
vt 0.1355934 0.01998374
vt 0.1384284 0.01261686
vt 0.1671637 0.03872883
vt 0.133285 0.03486659
vt 0.1350808 0.02718004
vt 0.1604696 0.05917523
vt 0.1263993 0.05779561
vt 0.1276295 0.0499985
vt -0.1649965 -0.02884816
vt -0.1324019 -0.03886204
vt -0.1309727 -0.03109896
vt -0.1530684 -0.03736278
vt -0.1206894 -0.04805328
vt -0.1190988 -0.04032164
vt -0.1397838 -0.01420421
vt -0.1090017 -0.02887208
vt -0.1064538 -0.02140105
vt -0.118665 0.0273331
vt -0.09101917 0.007373235
vt -0.08717039 0.0142649
vt -0.08018 0.0795294
vt -0.05898819 0.05281623
vt -0.05341364 0.05840483
vt -0.008825427 0.1211656
vt -0.0008660947 0.08800934
vt 0.006544539 0.09072793
vt 0.08429755 0.1119682
vt 0.0731594 0.07974049
vt 0.08086826 0.07804293
vt 0.142898 0.06578258
vt 0.1181465 0.0423294
vt 0.1242025 0.03726652
vt -0.03777844 -0.05320351
vt -0.03524629 -0.04572712
vt -0.03679159 -0.0379863
vt -0.04200026 -0.0320552
vt -0.04947665 -0.02952306
vt -0.05721747 -0.03106835
vt -0.06314857 -0.03627703
vt -0.06568071 -0.04375342
vt -0.06413542 -0.05149423
vt -0.05892674 -0.05742533
vt -0.05145035 -0.05995748
vt -0.04370953 -0.05841218
vt 0.1739423 0.01132734
vt 0.1451078 0.0194653
vt 0.1440092 0.01261707
vt -0.1571924 -0.06077297
vt -0.1273447 -0.063375
vt -0.1275462 -0.05644213
vt -0.1527829 -0.03555139
vt -0.1239079 -0.04354437
vt -0.1228437 -0.03669072
vt -0.1408809 -0.001512737
vt -0.1136774 -0.01406748
vt -0.1115195 -0.00747592
vt -0.118776 0.04603551
vt -0.09478246 0.02809214
vt -0.09129948 0.03408998
vt -0.07442669 0.1007603
vt -0.05732671 0.07615856
vt -0.05212801 0.08074971
vt 0.01044917 0.1358001
vt 0.01330862 0.105976
vt 0.02008973 0.1074326
vt 0.1064663 0.1090072
vt 0.09178793 0.08288822
vt 0.09818701 0.08021296
vt 0.1546898 0.05941366
vt 0.1301665 0.04220144
vt 0.1347813 0.03702377
vt 0.1701284 0.03212025
vt 0.1418345 0.02226604
vt 0.1448585 0.0160242
vt 0.1738727 0.0260974
vt 0.1442307 0.02173754
vt 0.1460275 0.01503852
vt 0.1736532 0.02911009
vt 0.1436944 0.02946756
vt 0.144415 0.02256931
vt -0.04045279 -0.02554372
vt -0.04727814 -0.02431096
vt -0.05380545 -0.02665603
vt -0.05828573 -0.03195057
vt -0.05951849 -0.03877593
vt -0.05717342 -0.04530324
vt -0.05187887 -0.04978352
vt -0.04505352 -0.05101628
vt -0.03852621 -0.04867121
vt -0.03404593 -0.04337666
vt -0.03281317 -0.03655131
vt -0.03515825 -0.030024
vt 0.1467735 0.1037952
vt 0.12504 0.09951864
vt 0.1266057 0.09463587
vt -0.1687227 -0.04000442
vt -0.147761 -0.04716266
vt -0.1466767 -0.04215095
vt -0.153689 -0.03718661
vt -0.1330891 -0.04532778
vt -0.1317691 -0.04037293
vt -0.1356342 -0.00429704
vt -0.1162985 -0.01510278
vt -0.1143319 -0.01036722
vt -0.1069843 0.04632412
vt -0.0901849 0.03188758
vt -0.08731551 0.03613723
vt -0.05561314 0.1015827
vt -0.04407585 0.08267441
vt -0.04003724 0.08583393
vt 0.03069841 0.1305602
vt 0.03219499 0.1084606
vt 0.03723645 0.1093968
vt 0.1195987 0.1013319
vt 0.1092404 0.08175294
vt 0.1140199 0.07989578
vt 0.1634739 0.05557097
vt 0.1460329 0.04191658
vt 0.1496399 0.03827207
vt 0.1760834 0.03513372
vt 0.1556648 0.02654816
vt 0.1581861 0.02208318
vt 0.1764897 0.03973955
vt 0.1548951 0.0348095
vt 0.1566073 0.02997615
vt 0.1710241 0.0590167
vt 0.1490133 0.05653609
vt 0.1501734 0.0515414
vt -0.05857328 -0.03703759
vt -0.06362693 -0.03616955
vt -0.06843755 -0.03794464
vt -0.07171611 -0.04188721
vt -0.07258415 -0.04694086
vt -0.07080907 -0.05175147
vt -0.06686649 -0.05503005
vt -0.06181284 -0.05589808
vt -0.05700224 -0.054123
vt -0.05372366 -0.05018042
vt -0.05285562 -0.04512677
vt -0.05463071 -0.04031616
o group571930032
g mesh571930032
usemtl mat20
f 3/3/1 2/2/1 1/1/1
f 5/6/2 4/5/2 2/4/2
f 7/9/3 6/8/3 4/7/3
f 9/12/4 8/11/4 6/10/4
f 11/15/5 10/14/5 8/13/5
f 13/18/6 12/17/6 10/16/6
f 15/21/7 14/20/7 12/19/7
f 17/24/8 16/23/8 14/22/8
f 19/27/9 18/26/9 16/25/9
f 21/30/10 20/29/10 18/28/10
f 23/33/11 22/32/11 20/31/11
f 23/36/12 1/35/12 22/34/12
f 24/39/13 20/38/13 22/37/13
f 23/51/14 21/50/14 19/49/14 17/48/14 15/47/14 13/46/14 11/45/14 9/44/14 7/43/14 5/42/14 3/41/14 25/40/14
f 26/54/15 18/53/15 20/52/15
f 26/57/16 16/56/16 18/55/16
f 27/60/17 14/59/17 16/58/17
f 27/63/18 12/62/18 14/61/18
f 27/66/19 10/65/19 12/64/19
f 28/69/20 8/68/20 10/67/20
f 28/72/21 6/71/21 8/70/21
f 28/76/22 29/75/22 4/74/22 6/73/22
f 29/79/23 2/78/23 4/77/23
f 29/82/24 1/81/24 2/80/24
f 29/85/25 22/84/25 1/83/25
f 29/90/26 28/89/26 27/88/26 26/87/26 24/86/26
f 20/93/27 24/92/27 26/91/27
f 29/96/28 24/95/28 22/94/28
f 16/99/29 26/98/29 27/97/29
f 10/102/30 27/101/30 28/100/30
f 1/105/31 25/104/31 3/103/31
f 23/108/32 25/107/32 1/106/32
f 2/111/33 3/110/33 5/109/33
f 4/114/34 5/113/34 7/112/34
f 6/117/35 7/116/35 9/115/35
f 8/120/36 9/119/36 11/118/36
f 10/123/37 11/122/37 13/121/37
f 12/126/38 13/125/38 15/124/38
f 14/129/39 15/128/39 17/127/39
f 16/132/40 17/131/40 19/130/40
f 18/135/41 19/134/41 21/133/41
f 20/138/42 21/137/42 23/136/42
o group1417828016
g mesh1417828016
usemtl mat11
f 32/141/43 31/140/43 30/139/43
f 31/144/44 33/143/44 30/142/44
f 33/147/45 34/146/45 30/145/45
f 34/150/46 35/149/46 30/148/46
f 35/153/47 36/152/47 30/151/47
f 36/156/48 37/155/48 30/154/48
f 37/159/49 38/158/49 30/157/49
f 38/162/50 39/161/50 30/160/50
f 39/165/51 40/164/51 30/163/51
f 40/168/52 41/167/52 30/166/52
f 41/171/53 42/170/53 30/169/53
f 42/174/54 32/173/54 30/172/54
f 42/186/55 41/185/55 40/184/55 39/183/55 38/182/55 37/181/55 36/180/55 35/179/55 34/178/55 33/177/55 31/176/55 32/175/55
o group858337657
g mesh858337657
usemtl mat11
f 45/189/56 44/188/56 43/187/56
f 44/192/57 46/191/57 43/190/57
f 46/195/58 47/194/58 43/193/58
f 47/198/59 48/197/59 43/196/59
f 48/201/60 49/200/60 43/199/60
f 49/204/61 50/203/61 43/202/61
f 50/207/62 51/206/62 43/205/62
f 51/210/63 52/209/63 43/208/63
f 52/213/64 53/212/64 43/211/64
f 53/216/65 54/215/65 43/214/65
f 54/219/66 55/218/66 43/217/66
f 55/222/67 45/221/67 43/220/67
f 55/234/68 54/233/68 53/232/68 52/231/68 51/230/68 50/229/68 49/228/68 48/227/68 47/226/68 46/225/68 44/224/68 45/223/68
o group831958222
g mesh831958222
usemtl mat11
f 58/237/69 57/236/69 56/235/69
f 57/240/70 59/239/70 56/238/70
f 59/243/71 60/242/71 56/241/71
f 60/246/72 61/245/72 56/244/72
f 61/249/73 62/248/73 56/247/73
f 62/252/74 63/251/74 56/250/74
f 63/255/75 64/254/75 56/253/75
f 64/258/76 65/257/76 56/256/76
f 65/261/77 66/260/77 56/259/77
f 66/264/78 67/263/78 56/262/78
f 67/267/79 68/266/79 56/265/79
f 68/270/80 58/269/80 56/268/80
f 68/282/81 67/281/81 66/280/81 65/279/81 64/278/81 63/277/81 62/276/81 61/275/81 60/274/81 59/273/81 57/272/81 58/271/81
o group1297411556
g mesh1297411556
usemtl mat11
f 71/285/82 70/284/82 69/283/82
f 70/288/83 72/287/83 69/286/83
f 72/291/84 73/290/84 69/289/84
f 73/294/85 74/293/85 69/292/85
f 74/297/86 75/296/86 69/295/86
f 75/300/87 76/299/87 69/298/87
f 76/303/88 77/302/88 69/301/88
f 77/306/89 78/305/89 69/304/89
f 78/309/90 79/308/90 69/307/90
f 79/312/91 80/311/91 69/310/91
f 80/315/92 81/314/92 69/313/92
f 81/318/93 71/317/93 69/316/93
f 81/330/94 80/329/94 79/328/94 78/327/94 77/326/94 76/325/94 75/324/94 74/323/94 73/322/94 72/321/94 70/320/94 71/319/94
o group2072638424
g mesh2072638424
usemtl mat11
f 84/333/95 83/332/95 82/331/95
f 83/336/96 85/335/96 82/334/96
f 85/339/97 86/338/97 82/337/97
f 86/342/98 87/341/98 82/340/98
f 87/345/99 88/344/99 82/343/99
f 88/348/100 89/347/100 82/346/100
f 89/351/101 90/350/101 82/349/101
f 90/354/102 91/353/102 82/352/102
f 91/357/103 92/356/103 82/355/103
f 92/360/104 93/359/104 82/358/104
f 93/363/105 94/362/105 82/361/105
f 94/366/106 84/365/106 82/364/106
f 94/378/107 93/377/107 92/376/107 91/375/107 90/374/107 89/373/107 88/372/107 87/371/107 86/370/107 85/369/107 83/368/107 84/367/107
