# Blender v2.77 (sub 0) OBJ File: 'sapin 2.blend'
# www.blender.org
mtllib sapin 2.mtl
o Cone.002
v -0.051025 0.796818 -1.133770
v -0.051025 4.596216 -0.005353
v 1.022163 0.796818 -0.354053
v 0.612241 0.796818 0.907555
v -0.714292 0.796818 0.907555
v -1.124213 0.796818 -0.354053
vn 0.5715 0.2336 -0.7866
vn 0.9247 0.2336 0.3005
vn -0.0000 0.2336 0.9723
vn -0.9247 0.2336 0.3005
vn -0.5715 0.2336 -0.7866
vn 0.0000 -1.0000 -0.0000
usemtl Material
s off
f 1//1 2//1 3//1
f 3//2 2//2 4//2
f 4//3 2//3 5//3
f 5//4 2//4 6//4
f 6//5 2//5 1//5
f 1//6 3//6 4//6 5//6 6//6
o Cylinder
v -0.014169 0.004292 -0.314381
v -0.014169 0.848513 -0.314381
v 0.279767 0.004292 -0.100824
v 0.279767 0.848513 -0.100824
v 0.167494 0.004292 0.244718
v 0.167494 0.848513 0.244718
v -0.195831 0.004292 0.244718
v -0.195831 0.848513 0.244718
v -0.308105 0.004292 -0.100824
v -0.308105 0.848513 -0.100824
vn 0.5878 0.0000 -0.8090
vn 0.9511 0.0000 0.3090
vn -0.0000 0.0000 1.0000
vn 0.0000 1.0000 0.0000
vn -0.9511 0.0000 0.3090
vn -0.5878 0.0000 -0.8090
vn 0.0000 -1.0000 0.0000
usemtl Material.001
s off
f 7//7 8//7 10//7 9//7
f 9//8 10//8 12//8 11//8
f 11//9 12//9 14//9 13//9
f 10//10 8//10 16//10 14//10 12//10
f 13//11 14//11 16//11 15//11
f 15//12 16//12 8//12 7//12
f 7//13 9//13 11//13 13//13 15//13
